<svg width="527.27mm" height="412.37mm" version="1.2" viewBox="0 0 6227.7 4870.5" xmlns="http://www.w3.org/2000/svg" xmlns:xlink="http://www.w3.org/1999/xlink">
 <path d="m1233.6 2697.3-3.3862 3.4481-2.9988 4.4826-1.7003-4.5753-5.7956-0.913-7.636 7.0033-1.453 6.8941-5.5504-1.4696-8.9488 5.9523-15.798 3.1842-1.3603 11.191-23.698 9.8309-6.2139 12.195-11.36 2.6134-2.566 4.8845 3.9263 6.8942-0.5256 5.5172-7.096 3.7408-13.664-5.9194-2.6422 6.5994-3.9427 2.6278-4.019-1.9311-11.562-11.022-0.711 5.1484-9.1034 1.7622 0.045 3.8333 7.0795 5.2864 0.2783 15.75-10.68 7.6217-9.291-5.4721 0.8966-1.3911 2.8751-2.6587-0.1072-11.377 1.9167-8.9034 3.9572-5.9832-1.9024-2.0714-10.016 7.9307-4.3117-0.309-6.6632-4.9154-4.3899 5.3174 0.6038 6.3066-0.542 1.8239-5.4246 3.848-1.5931 8.3635 2.8916 1.7457-3.5099 3.988-5.6719 13.046-16.076 9.26-3.2935-5.8882-8.1616 0.1241-4.8537-4.7156-2.8442 2.7823 5.6266 11.27 0.5255 9.5219 5.7503 4.9917-11.377 9.2912 1.7931 0.7418 12.29-3.9262 4.73 1.9169-13.001 15.783 12.984 3.7694 0.7275 4.2828-6.3994 1.4839-2.026 5.4267-5.7811 4.7278-0.1236 3.1391 1.2675 2.8441 6.8941 3.4172-5.2082 7.3082 0.571 7.1725-9.2581 5.6739-6.2758 2.7349 2.9061 2.5516-0.078 8.3779-9.629 2.3495-14.53-2.3804-10.511 8.3925 7.7741 5.5957 2.6133 13.386 6.1212-3.3387 3.6006 5.952 2.3496-3.2006 6.3231 3.0152 6.5684-1.8239-2.6587 10.711 5.4575 2.4897 10.202 16.942-4.3755 4.4826-9.9238 11.253-8.4542 3.2463 20.806 6.9868 3.6006-5.132 2.6897 2.3021-3.4625 9.1674-3.3533 4.3426 3.4316 11.177-2.1641 8.1141-0.1236 0.4637-4.0045 6.8942-5.3483 10.48 6.3685 8.2088 0.1877-0.4802 3.3223 0.8657 1.9168 2.799-0.8801 3.8477 5.4246 4.1119 3.8499-4.7137 3.0915-0.1849 7.6505 11.439 6.0594 0.278 9.8928-5.2388 0.1236-3.5864 0.9109-3.4934-3.6459-2.3659-1.8714-2.4257-0.54-3.6482 0.9893-3.2151 2.9988-1.1604h4.8537l2.1475-1.5765 0.076-0.094 4.5919 9.5981 9.7527-0.061 4.5919-3.0298 7.3578-3.6788 7.2795-8.8107 15.072-5.3174 0.742-2.1805-1.284-10-3.5388 1.8239-6.014-0.7585-3.0297 0.8657-2.8442-0.8348-2.4258-14.283 8.8561-3.2153 5.6122 5.272 7.0486-1.3767 6.8323 2.3021 3.5552 6.8632 6.2593-1.4364 6.014 7.5576-2.0404 3.6479-2.937 2.4589 1.6221 1.9475 8.5635 9.0109 12.057 4.1901 6.6632-1.2222 1.8075-1.515 6.2613 0.046-0.4183-6.183 2.3351-1.6672 1.2675 0.4782 2.1785 8.9653 3.2151 0.2783 10.357 0.913 2.737 1.0345 5.7338-1.962 7.6834 0.8801 6.5231-10.604 3.7716-4.9937-0.7584-5.8738 9.4146-9.2436 4.2189 1.0366 5.6266-2.6587 3.9262-12.397 0.4802-4.9939-3.4625-2.7494-5.4101-1.2984-1.8405-1.6715-0.8182-6.4758 4.9773-6.183 11.298 8.069 5.3029 1.5457 12.102-0.3257-0.54-4.6042-5.3174-3.7264 2.4732-9.5362 7.4814-0.2178-2.1331-6.2447-7.5618-2.0506 6.4489-7.0507-3.5862-3.2153 4.6208-10.758 9.7238-5.8287-1.0202-9.8762 2.3805-14.021 7.063 2.8987 10.435 4.2591 7.2033 19.538 5.8429 15.472 7.7906 4.019 6.2284-8.1141 8.9509-1.0986 2.7041-13.215-1.8858-9.7691 0.1856-2.7825 8.0688-7.2649 3.5862-8.3162-11.855-1.793 12.597-29.926 4.0046-12.259 10.542-3.8026 3.5697-6.1212-6.8631-4.4353 1.624-9.6929 7.7123-11.501-8.8871-11.037 3.4934-11.006-4.5754-8.6872 4.9773-1.1437 6.585 15.35 16.059 0.233 3.2151 5.9358-0.2474 5.4554 12.737 9.5075 7.5598 1.3437 2.0548-4.8372 11.888-7.2649-6.6632-14.608 12.211-16.832-9.6146-5.1484-3.9262-11.67 0.742-16.401-1.3294-13.293-7.434-6.4654-8.5944 0.5565-22.152 16.102-9.3508-18.137-8.7799 0.061-11.13-4.7465-9.4765 14.87-5.6575-0.7585-6.8775-3.5552-6.4778-8.1452-1.9002-4.5135 1.5602-4.8393 9.291-5.8573-2.4588-7.5288-11.006 0.6347-1.2201 7.3888-9.2436 3.6932-4.4064-6.2737-9.8146-2.2588-0.2163-6.6467-3.3243-10.897-6.2284-0.079-2.7989-4.2828-10.526 1.6074-8.2853-7.6504zm-174.52 409.5-5.3648 3.8954 1.995 11.871-3.8335 0.8821-7.1269-5.1626-9.289 3.8786 6.6921 2.3806 1.3458 6.0759-5.0865 2.0711-7.8978 16.894-37.362 1.5457-7.8525 8.2708-3.8932-2.2732-13.897-2.6896-0.6492-13.448-4.4064-1.6839-1.3748-5.9521-4.561-3.1966-3.1842 12.922-20.697 15.056-7.5598 7.9763-11.144 6.2901-11.5 4.9628-13.386-3.8024-8.1471 0.5565-3.9716-1.0201 2.7659-14.87-3.0132 0.6964-4.019-9.5217-5.6884-1.9333-12.15-2.0879-4.1117 3.0606-5.1484 6.1521-0.031-0.046-21.331-7.1105-5.1154 0.094-9.5528 2.8917-5.8121 0.911-18.456 7.4196-15.148 2.0261-25.367 9.6597-6.1212 2.566-12.071 2.2734-29.524-1.5932 5.2391 10.466 4.1426-0.5564-0.6018 16.508-0.5255 6.3522 2.9059 4.9319 2.0858 5.3483 0.4637 10.758 0.5112 2.2548-13.108 9.9709-0.093 4.0954 2.8751 7.0487-0.1091 4.3446-7.5268 9.8 1.0511 7.2651-6.3067 1.8858-3.648 7.1866 2.195 3.3699-7.0033 8.6109 1.7312 4.4517 2.6752 5.672 10.742-2.3497 2.5515 6.8323 4.8537 5.1629 4.0334-2.8588 8.8417-3.5407-4.5136 14.252 4.8537 1.051 7.0033 8.209-4.2045 0.7874-1.6859 6.8939 2.3187 3.9736 7.1414 1.7621 7.7761-3.5716 5.6719-3.5697 14.608-9.1818 3.1987-1.5765 3.9572 6.2139-10.326 11.84 3.8191 3.3386 16.925-0.5255 0.742 3.0915 2.1497 9.8147 2.3021-1.2675 1.2531 5.6266 3.9716-1.1131 4.6063 7.9452 1.9786 1.3458 2.6443 10.742-4.221 9.3675 7.0177 0.68 5.4885-0.6328 7.9596 4.8845 4.9155 7.0179 1.2366 3.9261 2.7515 9.46 9.5074-0.8347 2.8133 3.477h5.9666l3.4006-1.5766 13.634-1.5459 4.0643-3.3078 4.4518 3.6482 5.4266-7.1725 2.735 4.0808 5.5193-1.3747 11.082 8.1616 3.3388-1.0674 2.3187 7.1884 16.57-2.0568 5.2247 9.4766 5.3648 1.4364 15.983 28.054 7.1723 5.9833 8.2379 0.7563 7.3124-6.3067 3.3389 2.2567 3.9406-7.2648-2.2403-31.902-3.6954 0.046-1.2675-7.4957 2.3351-0.4802 1.7766-2.9371 29.431-5.5172-1.3294 8.1757 4.019 4.252 3.819-1.4385 2.0858 4.1734-1.6385 5.936-4.4662-0.027-0.4638 12.133 6.8323 13.187-1.2366 7.234 10.789 7.0942-2.0713 4.4826 8.4089-1.5148 6.8776 4.9318 2.1331-1.5456 9.0581 4.1116 4.8537-7.9614 5.9212 1.3149-2.9678 11.886 5.101 7.8996 5.8121-5.472 4.2972 0.8658 9.6146-2.0568 6.7394 2.3803-0.4327 11.237-13.403 10.713-0.1236-5.8432-5.1628-6.1828-10.433 7.1104-1.1913 4.559 2.5515 5.9974-1.4695 17.25-10.402 2.4734-2.2424 5.0246 4.2828 8.2998 3.4151 1.793 4.7609-6.7393 5.674 7.6524 15.101-10.991 4.9464-5.6102 3.1699-10.713 1.4365 3.9734 6.6014-0.9128 1.993-5.1937 9.1982-1.9477-6.9868-11.082 11.47-14.39-1.6549-6.2304 5.8429 2.8604 7.7288-4.6227 2.1331 4.3283 15.86 4.4826 12.892-17.498 8.1162 2.226 6.3376 0.4491 1.8385 10.186 8.0688-3.9717-3.6006-10.62-10.93-5.7503-3.4151-17.869 9.8764 7.1722 1.7786-10.109-6.1377-13.926-6.6776-2.026 0.34-9.7693 15.196-13.092 1.2676-10.96-5.0083-5.6719 1.4839-15.118 6.723-1.191 10.188-3.4625-3.85-6.5685 4.2663 0.2001 1.8858-5.7193 2.6134-3.2151 3.5697-7.4197-7.6196-8.3017-8.3636-2.5804 3.7882-8.9653 8.2852-4.5302-0.8038-7.8216-8.7799-2.2568-5.7501 4.5138-2.2424-5.503-3.1678-11.824 4.4209-4.7774-2.937-5.07 4.3282-3.2915-1.2841-4.1281-7.8359 8.4871-4.3756-4.7156 1.7931-5.0844-6.6776 4.2043-1.622-3.7571 2.704-5.1793-3.075-4.7136 6.352-1.8239-4.1735-7.5742-0.8657-19.044-2.9369-0.4946 3.85-8.7181-2.566-15.488 2.1332-3.0606-3.4172-20.837 4.3446-3.8024 5.9811 4.4208 2.5515-1.8384-4.5919-5.7192 2.8132-4.6065-2.8277-9.5217 1.2819-7.1271-3.2295-3.7097-16.772-1.9005 1.4077-6.7394 2.7967-4.4517 1.4221-2.7678-3.7407-5.9503-13.046-3.0153-0.7874-5.8737 0.015-4.2499-1.3128-5.5957-2.5206-0.5111-4.8228-0.68-0.8801-3.8953-1.2675-5.5483-3.108-4.3756-5.7811 1.9023-3.2152-0.1849-23.757-6.7539z" fill="#8080ff" fill-rule="evenodd"/>
</svg>
