<svg width="527.27mm" height="412.37mm" version="1.2" viewBox="0 0 6227.7 4870.5" xmlns="http://www.w3.org/2000/svg" xmlns:xlink="http://www.w3.org/1999/xlink">
 <path d="m2237.8 3284.3 10.341-2.2261-1.3657 5.2877-7.1049 1.2975zm-158 611.82 1.4076 11.667-2.1641 3.8502-2.4424-0.6328-9.9256-1.1748-10.495 0.9729-0.046 0.027-3.7717-0.6659-4.019 6.9416-2.3803 8.7491-9.8003 10.25-1.7168 3.2602-12.38 9.1203 3.3698 1.8403-9.1365 8.0049-3.446 0.7584-5.1629-6.354-15.458-1.3585-2.397-5.3193 2.8134-3.3697-6.0121-3.8313-4.6536 9.1652 11.655 8.7492-2.9988 4.7463 4.7918 3.9883 2.2568 9.5194 6.787 4.5302-2.9988 4.6826-8.4089 2.1023-12.04-5.7482-4.9939 0.094-2.3968 5.8593-12.412 4.1717-17.096-16.602-4.9772 2.9533-9.3219-2.906-9.0891-10.435-5.5174 4.6539-12.939-2.3496-3.2915 9.6001-3.9736 0.3998-6.6159-6.1831-0.4472-6.5063 3.617-2.1642-4.7154-4.7443 5.9212-4.0045-0.2508-7.389-5.2388-3.106-4.5921-4.9628-10.093 6.3686-11.424-0.079 2.8441-10.064-4.6824-1.0512-5.5195-2.9823-6.6158 1.5766-0.1545-4.2352-9.2581-8.7653-15.041 3.1221 1.3459-4.1119-6.8486-1.9473 3.9262-6.2902 2.5351-3.5554-3.1226-5.0864 5.2247-7.0632 4.221-4.7156-0.371-4.9608-3.0606-4.0477h-5.7358l-3.1533 5.441-8.2853-2.3043 1.4221-5.9975-4.0025-1.144-2.8296 0.9894-6.7706 2.8587-11.84 9.9095 3.0152 5.008-4.9937 0.4018-3.6935-5.3318-7.2196-0.6967-6.8632 15.534-3.617-0.2783-2.1332-5.8265-3.4151 1.3912-7.3888-2.5042-3.8497-7.125 13.726-13.001-4.8681-0.8513 1.2202-9.3671-7.2652 6.014-3.3533-4.0045-2.5513-3.4152-1.4368-3.448 2.8753-4.4516 5.8573 0.5727-3.0915-6.7086-10.124 1.5294-4.159-9.0723 3.8951-1.2677 1.9787-10.853-5.9049-2.7969-7.5433 2.4876-4.9298-11.979-17.467 1.1893-5.1938 5.365 2.4733 8.4088-10.064 0.6639-12.737-2.457-7.2176-1.9784-14.314 3.1843-3.4316 0.5399 1.8857 2.6133-3.4623 4.4826 3.6006 5.5338-2.8444 3.6172-5.8737-0.6493-5.6719-7.931-6.1521 1.8244 1.2984-7.8526-3.4172-2.5494-7.2484-1.3913 0.8345-6.0285-3.6953-1.6384 1.6694-6.4158-5.8431-2.7517-5.0226 3.2153-1.9928-1.6222-5.365-2.0567-1.9475-6.5067-3.7573-0.4018-1.3438 3.2153-7.0033-5.4413-6.2592 2.8135 3.2913-11.579 2.5351-0.9894-1.8549-5.6409-8.4233-2.7372 2.1166-4.7136 2.6134 1.2511 1.7002-7.1246-8.2851 0.989-2.397-5.0553-3.1842 1.9639-3.8953-2.5207 5.2102-8.8724 3.3842 1.4219 0.4328-4.93 12.026-4.3591-2.0693-12.582-6.4158-5.5503-6.8467-3.7719-6.2614 3.8955-3.1059-10.989-4.359-0.1395 1.8549-5.2698-4.0664 2.1021-5.6719-9.2746-7.1723-4.0663-2.9987 2.0406-0.6657-7.3414-0.2308-2.3496 5.843 1.9167-1.4221-5.2701-5.07-18.72 4.7918-1.6529-8.378-4.2828 5.6884-10.371 2.9225 7.774 7.0012-3.6314-0.5873-5.0867 4.0808-1.7147-7.9287-9.7855-0.7111-5.5338 5.6884-6.2595-2.1641-6.5229-3.3244 0.1999-4.0334 0.2155-3.2626-4.6519-2.8441-7.2198 2.5824-4.4826 5.843 1.3767 0.3854-3.8498-4.1571-2.0241 0.4473-15.041 12.784 1.4074 4.2807-2.2422 2.2403-1.1747 0.5565-2.9061-8.4708-5.0701 3.8335-0.3563-2.5206-12.583-2.4258-8.0545-14.654-6.6776 4.5755-9.3981 6.8631-0.2178-1.1603-5.0699-6.1666-8.58 0.2948-5.0225 8.8396-8.8272-6.0428-3.8029-8.7634 1.2987-2.4424-4.9922 0.9564-4.2351 3.9901-0.4491 1.3272-3.4152-2.7236-5.7192-9.0468-1.6077-0.5729 4.3898-8.7943 5.5648 7.1104 7.0341-11.548 7.0487-4.7444 10.511-13.928-0.7108-8.9489 0.1999-8.3327 0.233-9.8145-6.8487 4.8537-9.5218-2.5824-5.9191 4.7465-11.315-1.4221-9.1199 0.5708-4.9321-8.6397-1.5459 6.4139-10.047-0.7111-3.0917-4.9917-0.7108-9.7548 4.0044-7.6051 18.735-13.03-3.679-5.8594-3.6952 4.6372-3.0914 2.6278-1.4368 8.7181-7.1415-1.8694-10.589 12.552-7.3414-2.0095-10.497-3.6336-11.02-8.6397-4.0973-1.082-7.4194-0.7585-7.0487 4.9773-4.6518-0.1071-2.8131-3.85-13.465-9.4909-8.0522-0.138-5.6267-17.7 10.278-1.7931 8.7653-8.6872 4.4047-5.0845-24.283-13.434 5.268-1.9477 13.804-8.9653 2.9824-7.6361-4.3756-1.5293-5.3937 2.7659-8.6418 3.2935-3.2602-4.8227-5.3175 6.3375-3.9262-0.542-7.7433 4.6682-8.7964 0.9893-15.534-11.979 4.3279-23.698 1.1584-1.2819 9.6002 3.4006 8.5015-3.4315 2.6114-5.2721-13.881-8.6871 3.2007-3.4151-2.057-1.5004-13.772-10.371-1.0842-8.2399 9.6475-5.9976-2.2897-4.1426-9.1818-4.7753-0.9109-6.3541 6.1212-7.8834 3.6026-2.3805-1.9332-2.2567-3.1841-5.1938 3.617-17.234 0.7894 0.6492 16.166-10.528-0.2127 10.573 6.4015 12.259 0.7874 7.1249 2.3495-9.5672 5.7192 2.2568 8.4873 9.7218-1.3149 2.9225-13.926 7.8359 5.9974 4.2663 9.3983-0.9584 9.5981-5.6409 6.4465 1.2675 2.9989-5.303 2.9517 7.2032 5.6263-5.1009 9.0436-9.12 0.4782-5.1937-9.8001-11.068 8.0235-12.752-7.5433-8.5181 9.2128-7.5887 3.5696 5.4864 10.635-8.3306 4.2352-2.7205 8.1308-2.9678-0.5399-1.0677 5.3174-4.5589 1.6525-4.7774 1.1914-12.69 1.948-35.583-4.9942-6.1376-13.926-6.6777-2.026 0.3401-9.7689 15.196-13.092 1.2675-10.96-5.0082-5.6719 1.4839-15.118 6.723-1.191 10.188-3.4626-3.85-6.5684 4.2663 0.2 1.8858-5.7192 2.6134-3.2151 3.5696-7.4197-7.6195-8.3017-8.3636-2.5804 3.7881-8.9653 8.2853-4.5303-0.8038-7.8215-8.7799-2.2568-5.7502 4.5138-2.2424-5.503-3.1677-11.824 4.4208-4.7774-2.9369-5.07 4.3281-3.2916-1.284-4.128-7.836 8.4871-4.3755-4.7156 1.7931-5.0844-6.6776 4.2043-1.6221-3.7571 2.7041-5.1773-3.0751-4.7156 6.3521-1.824-4.1736-7.5741-0.8656-19.044-2.9369-0.4947 2.737-6.2118 1.113-2.5042-2.566-15.488 2.1331-3.0606-3.4171-20.837 4.3446-3.8026 5.981 4.4208 2.5515-1.8404-4.5919-5.7193 2.8133-4.6064-2.8277-9.522 1.2819-7.1269-3.2295-3.7097-16.772-1.9004 1.4076-6.7394 2.7968-4.4517 1.4221-2.7681 2.8916-0.8345 3.0132-16.632 10.404-8.2071 3.3697-0.6349 13.71-1.2508 8.1307 0.6182 2.566-4.8083 7.2959 0.233 10.078 8.5798 4.0355-1.7931 6.8158 0.046 7.8215-5.9665-2.6587-6.0758 8.6253-2.1785 3.3244-1.6551 8.7016 0.911 9.1199 4.9608 5.0866-0.5235 4.0025-0.4039 8.7799 5.874 5.6265-3.168 4.1591 0.094 3.1534 5.1152 13.432 2.4589 9.1982 25.272 6.585 2.4277 15.767-2.2732 20.311-2.2568 2.8586-4.9154-2.535-25.754 5.3483-0.371 4.5301-9.9548-13.712-3.3842 2.8298-13.65 6.2448-0.54-5.0082-10.96-2.3187-9.4125 3.3389-8.611 5.6409 5.6101 6.4922 0.2178 3.2007 5.8432 12.119-3.848 2.8751 7.4505 15.286-1.8857 3.2316-3.0297 2.1332-1.7024 11.175 1.2367 1.4839-3.5864-10.216-6.4611 1.4221-4.1737 5.1319-8.9652 19.507-4.1263 4.7135-6.8321 5.6431-1.7477 7.094-8.0526 1.6385-8.9961-0.9584-12.954-3.7861-6.0283 4.4662-3.4007 4.8084-13.032 3.1533-11.377-1.7168-7.7743 4.6846-5.0081 5.7502 4.6062 3.7099-3.895 7.2032 2.7513-0.5874 5.4245 19.291 10.311 4.4518-7.0651 4.3281 6.5849 20.806-10.711 9.629-2.0094 11.672-13.217 5.0392-9.0106 7.8524-2.2733 5.2556-7.296 4.1117-13.339 1.4365-8.5945 11.393-6.3683 1.4983-5.7814 10.233-8.7799 3.8954-5.3956 5.1318-0.3545-0.3176 5.1175 8.347 8.5325 3.1224-5.3648 8.9344 5.3792 0.4782-6.2448 11.037 0.6802-0.3237 5.6431 6.7085 4.9464 1.422 6.1974-0.7418 5.5174 2.2877 3.4955 8.9035 0.4019 16.972 12.689 9.0892 0.1266 5.6719 7.2629-2.6113 10.342 4.0951 1.824 6.6941 15.039 4.9299-0.5564-3.7406 4.7321 8.5801 0.7276 3.617 3.6479-8.1 11.268 3.4461 7.3454 17.08 0.8408-0.061-3.9262 5.4101-0.028 3.6481 15.777 9.1651 1.3747 2.9061 5.643-3.7241 1.5601 1.5003 4.6683 8.2235-0.8966 0.3854 5.9523 6.863-9.5384 5.4412 0.68 5.1153 16.416 7.467 2.3041 8.0072 0.7729-3.2771 7.9287-0.8347 7.9761 4.1118 8.3635-2.1496 6.4304-4.0334 6.2284 6.6158 0.2948-3.7264 4.9917 4.2828 8.0234-4.2045 2.7825 2.8587 10.626 8.4254 3.3987 12.459-4.4353-2.3515 4.6827 10.55-0.3566 3.4458 8.0234 7.9451 5.3936 5.4721-4.2661 0.025-11.051 0.8204-13.541 7.1557 2.8585-0.9583 2.8588 9.0724 1.8548 5.4886-5.3936 6.7538 0.076 2.1785 7.063 7.8236 1.7622 8.1308-4.0645 0.8965-6.2777 1.4529-10.278-3.4954-2.6423-9.7671-1.113-4.7156-1.6383 0.3092-6.5087-4.221-2.937-9.3961 0.1241-5.8761-8.2068-3.5243-4.9321-1.9744-0.8039-8.1164-3.3222 0.1697-3.8026 5.3959-6.1068 0.1545-6.4446-5.5957 1.4055 1.0039-10.556 14.128 4.1116 8.8416-7.8071 5.1485-7.7122 5.0534 3.6314 12.15-7.1104 11.393 3.6953 6.3066-5.2103 4.1283 2.6114 1.3149 7.467 2.9515-1.1913 13.341-5.3483 4.7301 3.9571 14.159 24.454 5.3937-2.2712-2.0073-8.5182 16.259 3.6172-1.3128 5.812 3.988 4.4208 15.905-3.817 1.8551-8.0544 10.497-0.2-0.2948 10.449 4.252-4.019 4.5588 2.0714 3.9572 9.7547 3.1842 7.8669-7.6648 5.3338-3.0421 2.1167-0.2639 6.8633 4.6683 9.291 4.4208-1.8549 9.8 5.1153-3.0915 6.4922 4.7445-0.2925 3.6932-12.754 19.215 15.952 5.1484-4.126-2.4898-14.963 6.8159-4.1589-4.6374-9.8003 2.4116-9.0271 5.6121 1.1913-2.3806-6.2139-1.7457-4.5611 7.5432-3.848-1.8857-11.826-4.5918-4.6063 2.5825-4.2663-5.0084-3.2913 4.8536-11.579-1.4076-14.561-6.012-3.8171 3.1533-3.6953-2.0403-13.572 12.133-2.6114 6.4778 2.2259 2.2094-5.2102 8.4089-0.8657-0.1089-10.587 9.7237-0.8039-1.3602-5.0081 10.433-1.2985 7.0714 4.3796 13.586 0.8965 5.705 8.8108-2.257 5.2865-5.7048-1.7931 0.028 31.595 6.5396 2.3353 4.4208 6.4446 11.346-1.4055 2.0734 8.7798-4.0992 9.3508 5.1482 2.5042 9.8641 1.6385 0.079 13.324 4.2045-2.9677 13.417-4.2046 0.7873-3.2913 2.8443-4.4211 8.5016-0.8965 5.9913 6.7024 3.5243 2.8917 6.5993-1.2222 8.0855-1.4056 9.0889-0.2783 3.7243 0.2001 4.1426-4.5612 3.2771-0.6326 0.913 3.6479 8.3162-4.761 3.1532-2.8914 6.1521 3.246-2.1805-6.3519 7.1889 3.0915 2.5349-4.1119 7.0013 0.3546 9.8311 11.222-2.9823 3.4481 3.308 2.7205 3.4458-2.7825 7.2198-3.6644 4.2808 0.8039 5.5646-7.8216 9.6764-1.4674 8.1472-4.2828 8.7964 5.2267 2.9988 5.5648-1.4697 7.5123 5.4721-2.8278 6.3375 9.2436-0.509 20.326 5.3627-1.6385 0.4019 4.0189 12.414 5.6266 0.68 5.643 3.8026-0.511 1.4365 3.2459 4.3879-0.6635 0.8801-3.0152 7.2507 3.2748 4.7609-2.8131 2.875 9.0126 9.6291 6.8323-2.6587 4.3115 7.2816 13.805-16.447 8.0214 1.6694 3.5099-4.3281 2.4424 6.0285 4.2043 0.4946 4.4973 14.112 3.617 5.6739 7.8834-0.8347 5.41 6.012-0.6491 0.8966 4.8846 7.0651 3.6479-2.9226 2.7372 9.3221 15.952-8.2544 15.163 0.3237 9.2438 0.8656 10.837 4.0807 4.3282 6.5849 0.2482 1.5456 5.7521 5.2888-2.3803 3.8786 8.3017 6.9559 4.8681-6.0429 10.511-6.5705 12.088-18.58 2.2568 0.5873 13.912-3.4458 6.8488-9.0437-0.1267-10.124 3.8954-18.936 7.8545-6.6923-5.441 1.4203-4.359-4.8435-1.9169-0.028 0.028-7.0796 9.384-5.5956-5.132-4.0499 3.7099-2.3803-1.3914-18.998 1.6221-14.977 3.0462-7.0652 1.2675-4.0498-5.1484-1.0244-6.5953-5.2472-4.9111-5.0702 1.4673-9.0579-0.2-2.2712 12.181 0.025 5.4103-9.5217-0.025-3.9716 1.7622 0.402 8.8108 2.6895 1.2984-3.3698 6.956 6.3519-0.3257 3.0133 15.798-6.4758 2.5062-4.0498 3.6788-4.4373-1.6097-5.4081 5.7051-9.4292-5.2247-0.4802 1.4076-0.5563 6.8633 2.0095 1.9929-0.5875 6.0285-3.4152 8.5778-10.154 2.568-9.3672 2.0713 10.078 6.8633-5.0846 4.8372-0.1545 5.6884-8.3018-1.282-0.3854 7.465-2.7369 2.1186-7.7434-4.6846-5.952 4.901-6.1356-3.3698-3.1533 3.5386 1.1128 3.4626-3.5552 13.015-8.4707-6.2902-1.0677 1.5911-5.7502 4.2973-3.7241 0.5565-0.8347 2.0095 1.422 1.7167-0.2783 10.882-6.8939 4.0024-5.4412 4.0352 1.1439 5.6412 2.7823 3.448-4.1425 8.8728 3.4934 3.9879-9.3221 2.1476 8.811 4.9156-2.937 3.6479 5.0864 4.5755-0.8821 18.023-6.0282 5.9832-6.7531-2.9813-6.4292 8.2264 1.4385 5.441 11.793-3.4622-2.3804 8.3922 1.0366 3.7573-1.8404 4.2044 4.0498 10.016-7.8051 9.3981-5.1629-3.1386-7.467 6.663 9.7694 6.7541 4.8701-0.8347-2.7372 16.261-4.8061 5.0388 11.948 3.3389 1.9167 7.931 7.8833 4.126 2.1806 6.4469-7.2816 13.17-9.289 11.902 0.2619 7.5433-9.2271 3.9261-18.953-9.4765-8.1287 1.2677-2.2877-5.7959-4.1737 6.2595-1.4982 4.4046 5.9811 1.4385-15.52 11.978-1.4983 9.044-7.3434 1.2055 2.0096 3.1225-5.5792 6.8774-7.3434 0.4018 5.1937 8.3636-2.9061 8.7326-7.372 0.2782 1.0345 3.0462-3.1842 1.5293-5.27-0.8036-6.7396 9.6764-14.145-9.2436-6.0285 1.995-2.0712-5.6739-9.722-2.3496-3.4005 2.6278 4.9937 2.8439-0.4801 4.5282-2.9988 1.5149-7.0631-5.4863-14.684 5.4717-1.0369 3.8955 4.8023 5.5196 6.0449-1.5152-5.1175 9.9547 10.357-1.4054 6.6467 5.3792 11.253-1.577 5.1175 3.5243-9.4598 3.5389 8.7014 3.4935 6.2759 8.0235-3.8644 6.0282 8.889 17.467 2.704 7.6979-2.8585 4.0025-3.1224 4.7464-1.5418 12.216 5.1661 0.2837 1.0511 8.5485-3.787 5.5183 1.9012 9.7534 12.346 0.6592 1.5932 11.16-3.521 5.1688 9.352 1.4682 2.2567 5.5028 7.5078 12.592 4.1316-1.4003 4.2509 5.9664-9.8025 0.027 4.0268 10.358 5.5184-3.6323 8.1073 0.8952 1.4374 5.1623-2.5811 4.0501 10.078 5.3488-5.0857 2.3181-3.2999 12.221 2.62 9.6673-5.5803 10.65 9.3827 1.5925 12.111-3.8556 8.1844 4.4739z" fill="#80ff80" fill-rule="evenodd"/>
</svg>
