<svg width="527.27mm" height="412.37mm" version="1.2" viewBox="0 0 6227.7 4870.5" xmlns="http://www.w3.org/2000/svg" xmlns:xlink="http://www.w3.org/1999/xlink">
 <path d="m2239.4 1430.4-11.857 2.5041-14.761 13.586-0.1545 9.0581-16.956-6.3067-5.9829 18.487-2.8608 9.6455 4.4373 11.13-12.102 0.913-9.7549 5.7956-2.875 2.3351-12.135 11.608-11.978 1.9023-22.352 11.917-7.2961 1.4221-1.3458-8.0523-9.0891 4.6517-9.2889 0.047-3.1842-7.4052-3.9263-0.9728 0.4782-3.0606-23.139-6.1067-7.5432 4.699-12.073-0.138-3.2153-1.9332 2.0878-8.007-3.2151-0.4947-27.995 0.4184-7.4959 1.7457-4.0498 14.901-3.339 2.5659-2.4115-1.0346-11.115 14.499-3.9262-0.5111-8.207-0.8492-3.8498-1.3293-2.5969 5.9192-4.8681-1.4365-1.4222-4.4374-11.208 0.9275-2.4116 2.8606-12.397-2.2732-1.8075 3.9427-11.548 0.076 2.3042 5.2412-6.0141 8.6871 0.6494 5.2082-0.9586 9.2601-1.189 7.5123 6.1829 16.956 5.2391 3.9428 0.9275 20.944 11.779-0.9728 1.3458 8.207 22.397 44.085 7.8381 13.99 15.039-8.8726 4.2663 1.5292-1.8693 11.346-12.785 8.9036 2.2735 4.1281-4.221 8.7943 1.3911 11.177 18.766 27.127 4.0663 5.8738-12.675-3.446-5.7502 2.1476-4.0972 1.9951-5.6266 12.737-0.5564 5.9666 4.8393 4.188 4.2187 12.754 7.7762 6.6777 6.4305 8.8417 6.7085 10.573 5.0701 5.0701 2.4566-1.9166 10.002 10.093-1.7477 10.466-11.7 6.0282-5.3483-2.2567-15.041 2.2567 1.4694 4.7754 5.4721-0.6326 11.81 16.107 0.7562 5.6264-9.3672 5.132 4.6538 13.122 8.9653 2.937 0.5564 5.1153 0.4328 10.451 5.6122-0.7109 4.1881 8.378-4.1881 6.0594-5.8429 0.8035-13.65 4.39 0.1241 4.3735-3.9716 0.8038-0.6802 10.157 7.2961 6.6303 9.8453-0.061-1.4674 11.327-4.0498 3.4935-2.2114 8.3635-5.3936 0.7894-20.28 14.408-13.094 0.8038-0.68 5.439 10.789 6.0305-3.2913 16.935-4.9238-1.0778-28.92-1.3438-11.826 4.2023-4.0148 0.9317-11.068-0.7132-0.5564 7.7618 5.3956 8.4522-8.0852 12.941-15.812 1.8383-13.959-0.9274-2.4878-4.7609 1.0657-3.477 15.025-8.4089 2.2259-10.656 1.8548-3.7983-5.9809-0.4019-7.467-0.7441-17.327 0.9419-10.728 1.655-11.902 0.4493 1.7933-6.9435-7.0653-0.2001 0.073-6.3089-9.6743 0.2639-0.2153 8.7799-4.8681-6.7397-5.3647 17.374 0.9109 9.5982 2.7514 4.2828 7.4835 11.515 0.1367 6.4613 7.8834-0.5566 4.0974 12.242 8.7181-2.704 2.1165 5.1464-8.8108 2.5515-4.9299 6.3066-0.68 10.835 5.1008 2.2733 4.899 2.1785 1.2058 3.0152 2.1497 5.3936-0.6494 6.6323-5.9974 7.2652-12.737 12.366-7.8524 1.6385-2.5351 5.2247 3.8026 4.6515-5.9523 14.361 3.7264 14.252-2.535 3.0918 6.1212 10.433 10.264 5.0558 14.174 3.4934 5.4102-2.2568 8.6728 3.8333-5.1793-12.737 7.0177 1.515 1.9784 3.9262 13.526-8.0999 13.988-1.9784 8.9652-6.4305 6.8942 4.2808 6.8323-0.9109 7.9307-11.068 13.864-2.3497-5.1008-8.6872 3.0317-2.5348 11.933-3.7244 2.0095 3.477-1.7003 1.9475 2.333 4.6065 8.9652-4.6065 0.2639-4.1116 36.942 7.8524-9.7835 12.69-7.7598 2.8296 4.4971 4.2355-4.7752 7.5741 9.7691-0.6182-2.8607 12.52-6.894 0.8492-2.4568 11.037-3.1388 1.9331-1.4983 8.0213-5.5195 3.339-5.3318 9.3981 0.68 3.2936 15.205 13.064-24.352 9.8339-8.4089 11.562-10.388 5.8264-4.2973 11.439 10.048-3.6932 0.2639-5.5195 14.173-3.1368 8.9035 6.2283 3.8809-2.5351 9.6126 1.7477 3.8356 11.377-13.757-6.6632-3.2624 4.0972 12.181 5.6411-3.9716 6.0594 9.1818-3.2914 6.2901 3.4005 14.05-5.1791 4.2684 1.9475 15.255-2.3185 15.382-8.2997 9.6291 1.4674 7.8689 8.1163 7.6503-1.9169 0.3566-11.871-4.0498 1.2676 1.2673-8.9509-0.3563-6.245-10.742-10.618 0.5873-10.171 15.41-2.057 11.377-17.467 4.8537 0.1241 0.3399-4.2499 7.1889-2.1497 2.1949-9.7073 2.5187 2.7679 8.347 7.2651 2.1783 0.233 5.6431-2.4115 4.05-11.641 9.2961-0.079 4.3643 4.7775-3.2153 12.102 16.261 11.377 2.2259-5.8267 17.131 4.4477 6.7559 7.1271 0.2305 10.093 9.4908 2.7823 1.7312 9.862-0.5873 6.5085 4.6516 5.3794 3.2153-1.6695 3.0462 2.4113 10.511-8.8417-0.5566-5.5646 3.2915-2.1332-0.4328-8.5327 7.7144-0.8511 1.7766-5.579-6.3521-1.686 2.8896-16.694 17.282 2.5824 1.5932 3.4149 14.761-3.1368-6.2902-6.6632 14.977-0.371 1.9333 12.119 14.561-3.6935 6.2777 3.3698-2.0878 2.333 2.8298 7.1415 1.8858 11.191 3.7553 4.221 7.467 0.4637 9.5364 5.2865 21.255 18.735 13.386 2.5658 14.716-2.0094 3.1059 0.4019 12.414 1.7766 16.956-1.113 10.033-2.195 14.05-16.492 10.837-4.761-7.8525-12.939 5.7029-1.4076 11.206-1.9002 9.4766 8.147-2.2567 0.8183 1.5912 9.3674 13.077 8.8273 6.8797 2.6422 12.088 7.0342 3.988-2.5062 4.7919-0.9419 0.4781-6.3233 6.7085-3.6314 12.939 0.9438-2.9061-10.157-10.975 5.5195-0.8821-9.895 5.8284-2.0237-4.2043-7.327-8.2544 0.7894 0.7874-9.1365 8.3326-2.6586-2.6586-5.8432 0.2152-25.985 15.505-5.6245 4.2045 12.49 11.068 3.3058 8.2544-7.4795 0.6493-6.6178 10.309 1.3149 1.2057-7.1578 14.345 0.3257-1.1275-6.554 7.2031 0.4493-2.7678-4.2519-2.6587-9.8145-7.6195 1.2035 1.7168-9.3961 14.485-7.5123 4.7918-16.478 12.984-17.962 8.6399-32.32-22.984-2.7205-1.0204-9.7384-15.628-6.7086-4.761-13.496-7.1107-1.051-4.9607 10.666-4.6536-0.3092-16.663-16.523-5.3177-1.2676-6.1045-1.4385-9.9238-12.768-5.5504-15.365-13.854-7.3394-4.1445-16.892 13.695-13.805 21.733 12.074 2.7514-4.4518 21.379-3.7264 8.2544-15.767 14.699 5.1938 3.201-5.7811 1.1272-2.4733-0.6944-8.1305 1.2055-0.7421 7.0486 1.0201 1.7457-1.189-2.9203-17.622-15.69-7.5288-2.3495 0.509-2.0095-2.8276 3.5407-12.257 19.631 4.4826 2.5042-6.5396 1.8384-3.6932-5.0537-2.5042-1.0675-12.228-1.0822-12.659-8.6705-2.9223-2.4279 4.5588-4.3117-6.1356 8.0834-11.222-6.1833-8.7036-2.5183-1.3129-0.3257-11.13 5.0535-5.3482-4.5445-5.441-3.0276 6.9392-4.0972 0.3875-7.0033-7.6977-4.9917-0.8821-5.4268 7.3578-0.046-28.535-7.1866 4.6847-2.799-9.0581 17.453-8.3327 8.2998 0.2947 7.8524-12.784-13.648 0.944 4.157-9.6002-4.0807-1.2819 4.73-4.6992-3.1059-4.4991-3.2936 4.4373-8.9961-8.549-11.995 2.1331-4.5753-9.8619-10.418-2.2878-0.6326-9.6455 6.9704-11.902 0.2304-12.119 0.094-19.693-3.6952-14.839 4.3281-7.1558-0.1241-3.819-0.9583-1.3747-7.8833-4.561-1.824 5.2411-3.5861 0.062-4.5591-3.7882-10.713 1.5458-1.7477-14.421-3.4625 0.076-1.4674-5.1464 2.164-3.479-6.5684-6.2902 2.5184-2.1187-2.1474-3.4769-0.8821-4.0354 7.5742-5.9192-5.503-13.108 2.6895-7.6525 3.339-0.138 0.1696-9.3673-15.565-7.1888-3.3244 0.5565-6.9251 7.1414-15.117 2.1496-1.5767-8.2708-7.5124-0.54-3.0915-3.9118 2.0261-6.8157-4.8083-2.5515-15.857 2.9822 7.4196-15.519-5.6739-10.171 2.0878-16.88 5.5336-2.6587-7.6214-1.5911-6.2904 3.477-6.5084 3.5408-10.697-2.4423-11.268-6.6468-12.953-2.535-6.2757-8.5182-12.892-1.4055-5.039-3.7717-0.1241-6.2449 8.2523-8.0544 0.9604-5.4719-5.1626-5.1155-16.216-2.6896-7.5124-12.953-6.7396-4.9011-14.808 5.5338-5.7667-1.1438-1.4673-12.861-2.5351-4.8991-11.222 1.5293-5.4412-2.535-1.5768-6.1975 6.6924-9.3837zm144.23 803.88 0.4493 2.4136-3.9262 1.5127-1.0285 2.2278-8.2832 0.028-1.0511-3.9406 4.7301-1.4304zm7.5906 15.258-2.9512 0.1849 0.6327 4.5611-7.1414 0.6182-3.9262-11.61 12.844-1.8716zm-311.64 12.52-3.7244 9.5837-13.372 7.6053-0.8491 4.297 3.5861 3.0773 19.367-0.2783 6.3066-4.1284 4.7301-20.002zm372.78-67.301-9.8309 10.48-0.5721 6.8941 2.8595 14.576-3.5858 9.0427 10.171 2.4267 4.4209-16.354 0.3398-8.3314-6.1521-12.258z" fill="#f9f986" fill-rule="evenodd"/>
</svg>
