<svg width="527.27mm" height="412.37mm" version="1.2" viewBox="0 0 6227.7 4870.5" xmlns="http://www.w3.org/2000/svg" xmlns:xlink="http://www.w3.org/1999/xlink">
 <path d="m2633.8 2393.8-7.7762 2.1332-9.1201 5.7666-13.108-0.3566-1.591 5.1629-11.346-3.6623-11.455 3.246-4.0501 7.7433 4.3899 2.7514-2.0547 4.1116-0.9129 7.2651-10.464 0.8039-3.85 13.479-8.0999-0.4782-2.5967 6.1212-2.8896-4.0353-7.974-9.9196-12.212-6.2924-3.7405-9.0724-6.6635-0.9586-0.025-5.6739-7.2178-0.9892-0.6346-5.9665-10.67-3.712-0.3092 10.34-14.685 1.0366-2.6278 5.0081-7.805-3.6479-5.9521 4.2808-9.0582-0.7256-24.746-2.026-2.6587 9.491-3.1844-1.3911v4.0663l4.4826 2.0858-3.926 9.6929-6.1997 4.0498-4.528-1.4221-13.015 8.7181-1.6074 16.509 5.039 3.5861 2.5351 2.2568 8.0069-1.2676 3.5244 10.171-18.133 1.7621-5.2391 3.3389-6.2612 3.3699 0.076 9.9545 18.425-3.0153 3.3676 1.9642 2.9679 8.5634 6.5231 4.6374 0.7132 12.181 0.6326 4.2807-5.5957 2.9842 4.8681 10.248-8.0049 7.3743-0.2482 6.2428-9.7073 1.5456-4.1428 11.053-3.4007 13.572 12.335 3.4317 4.761 5.3936-7.6978 2.8134 0.5256 7.8689 11.113 8.007 9.5075-0.68 2.7349 4.4826 7.4815-3.2151 5.3173 2.473 5.0249-5.7666 7.9905 5.2103-0.1368 6.6611 3.5388 3.4934 11.702-2.6278 5.8428 6.8015 4.1737-2.937 10.789 1.0674 3.2462-4.4373 4.019 13.479 12.226-0.9892 2.3659 7.0342-2.5206 6.7847 1.1439 15.103 3.4007-0.2639 1.0057-5.7646 6.5376 1.6221 1.5456 11.315-4.9917 4.1737 8.887 0.7276 12.414 10.185-0.2783-4.8372 8.9035-4.0974 4.3281 9.8476 2.0096 23.265 9.8618 11.346-5.1669 12.102 4.7298 3.8954-6.5084 7.2651 3.6479 3.8024 2.4277 2.4733 6.6614-3.2151 7.6668 0.8347 1.9022-2.2258-4.7298-10.913 6.7229 0.8656 4.1902-1.5149 11.16-1.051 1.1893 8.4871 7.0177 5.3482 2.6278 2.4733 2.9677 7.1249 6.2759-3.4461 3.7406 5.1629 9.3839-13.681 7.7431-5.7955 16.309-1.9642 3.1533-7.8834-3.8191-0.7562-1.0819-3.2463 3.9118-2.2732 15.317-4.5898 5.3958 3.4767 2.2403 8.7655 4.6227-0.3564 2.5804-5.5029 8.0855-2.3948 2.5804-1.9025-1.9004-3.0915 4.4517-4.7301 10.309-10.387 8.9344 1.7787 1.9787 5.4553 8.8581 1.9334 4.3262 14.005 3.5263 8.2541 2.5331 4.3426 0.68 4.592 9.631-4.359-0.1848-7.3888 2.6586-3.246 6.354 7.3721 9.6764-10.526 7.1107-2.2423-3.0153-11.562 0.1545-8.887 9.7547-12.537-1.5766-14.73 3.4152-0.5111 14.53-21.902-7.4032-2.8605-1.4696-6.0285 6.5231-2.4733-1.8693-14.761-11.146-2.0096 0.8656-4.3755 0.233-6.6158 2.5516-4.9772 0.4019-10.309-0.8347-7.8524-3.7406 1.653-5.9977-8.6563 4.6063-6.692-1.1437-5.1176-1.317-11.133-5.3958-5.9543 5.3173-4.1116-1.5291-4.3281 2.3948-0.5712 6.5231-1.0201 4.3137-5.6739 5.0537-2.9061 2.7987 0.3257 1.6077-3.0916 3.5552-6.4301 10.356-0.4019-9.9854-11.222-5.4885 3.1368-1.7457-3.0606 3.1368-2.5495-4.0807-5.3483-0.7565-6.2448-4.359-0.6182 0.2-6.6016-5.334-8.516 11.239 1.3911 5.3174-0.4184 4.8372-7.2958 1.9024 3.9427 4.3735-1.0059 3.6953-2.9677 2.7658-2.9369 15.196-4.9155 0.4019-6.3995-1.2531-1.8384-5.9668-5.9832-0.2-10.526-15.705-0.4184-1.2675-3.5696-0.03-0.025v0.051l-9.4145-1.1911 2.9367 9.6765-9.0579-5.3485 1.5003 3.7408-15.536 11.962-9.6764-5.5152-10-1.655 2.566-17.005-0.511-5.1133-10.588-2.1805-16.787 2.8296-13.139-13.349-3.9427 1.2057-21.671 4.1899-22.368-1.424-16.354-12.661-15.83-2.4257-8.1759-4.0048z" fill="#8080ff" fill-rule="evenodd"/>
</svg>
