<svg width="527.27mm" height="412.37mm" version="1.2" viewBox="0 0 6227.7 4870.5" xmlns="http://www.w3.org/2000/svg" xmlns:xlink="http://www.w3.org/1999/xlink">
 <path d="m1399.8 2214.6-8.6316 0.402-8.6954 3.8026-5.8882 8.5325-11.919 3.0461-8.0524-1.1293-2.768 4.2662-13.046 3.7408 12.537 13.496-21.348 21.548-6.6777 23.726-9.1962-1.6221-5.6121 3.9571-2.364 4.7754-8.378-0.079-6.0449 4.4827-3.817 4.7156 0.045 7.3888-1.8714 5.7975-10.68-5.2103-4.1736 1.4841-7.7452 11.778-6.5375-4.8372-9.6456 2.6898-8.9818-1.793-0.1669-9.7529-2.9369-1.2344 7.3722-18.689-5.3937-5.3936-6.9559 2.609-8.2399-2.9965-6.4633-10.142-19.274 5.9664-30.808 11.871 9.5384 22.768-1.2985 9.0438 9.5981 1.0345 1.6694 3.1389-6.5374 21.006-17.545-3.3842-10.309 5.7028-4.0354 2.2258-10.989-8.4851-7.2032-0.9583-28.473 8.8561-11.053-4.1569-9.5363 3.1368 1.9167 5.812-11.517 6.1521 0.1092 5.4577-6.8323-2.2426-6.3376 3.5719-20.157 25.334-7.296 8.0072 3.7861 4.6062 10.188 15.196 10.928-2.9679 1.284-4.4064 20.744-3.1368 4.9155-4.2519 10.155 2.026-0.1998 3.8168 4.8228 3.2628-3.5862 7.9595 3.7242 19.662 9.693 6.3684-7.3743 5.4412-0.9419 10.96 2.5969 2.6278-26.958 24.468 2.7514 9.9236 6.8776 1.3911-2.4567 3.6173-9.6146-0.9586-7.7885 4.3262-5.3978 3.4625-39.819-8.0503-2.9823 3.246-5.9831-0.7894-9.9237 9.0891 0.2782 3.7718 5.1793 2.6896 2.4423 6.694-9.0746 10.697 5.2556-1.1295 5.1483 11.902 1.0203 2.8298-26.882 24.176 1.5005 4.1261-5.1175 0.03-2.937 1.7003 0.5565 9.4601-4.8372 4.4374 0.6637 15.41-8.6563-1.4674-6.6611 4.9155-11.964 9.2889-1.7168 9.1509-5.0227 0.4019-1.9167 5.9974-4.8846 0.9915-6.756-2.935-12.319 1.3602-7.4197-13.899-4.5136 0.079-17.267 18.085-13.232 8.5015-14.514 17.667-14.547 7.2958 1.9642 12.984 5.7337 5.2247 4.1735 15.443-11.624 22.706-4.0953-1.2675-2.6751 6.4137-9.7383-11.748-8.2997-1.9314-6.7086 5.5793-7.5123-1.7766-4.761-0.542-8.9818 4.5918-2.1332-2.5824-11.593-1.5148-7.636-10.216-5.6883-1.7477-8.409-5.8741-7.2485 1.824-2.8133 6.416-4.4374 8.5778 6.585 4.1592-1.4675 2.6587-14.454-5.0246 0.233-6.2286 3.5078-0.8345-1.251-3.6955-6.3211-6.1666-8.2399 2.7205-4.5136-4.8227 4.0354-8.0379-6.0284-2.7822-2.4279-0.7895-5.5029-4.4043-2.0548 2.7658-5.4431-3.8789-3.1369-0.9583-0.8656 5.039-5.3648-2.0258-2.5804 2.5351-1.9023 1.9949 5.7667 1.3747-3.1389 4.0501-4.6064 0.079-7.0486 4.9628 0.5565 7.9452-6.1522 1.793 3.648 4.1881 0.9584 5.0864-4.1879 8.1308-5.6266 5.2391-2.6752 2.5207 9.4909 15.581-10.464 5.2083-4.9011 10.558 6.2923 0.8348-0.2021 16.568-7.4815 1.2058 3.7098 7.8068 6.3067 1.1275 2.8298 5.1485-2.5206 4.9299-2.2568 4.2663-9.6909 3.5861 1.082 4.668-1.6385 3.9118 3.4625 3.7553-3.3244 4.53-3.0441-3.1388-4.2354 2.1022-2.566 2.6134-6.6014 0.4781-12.813 3.8191-0.69662 7.3888 6.2304 2.844-1.3458 3.6624 4.19 4.3899 8.6706-6.692 2.366 2.8588-6.9106 6.8176 4.0664 6.0285 1.5602 2.6731 8.2234 3.2151-1.0511 3.5552-2.0404 3.0606 4.1591 6.3996-2.7515 2.335-9.3219-0.4802-1.1583 8.0999 3.1678 2.2259 10.326 6.6941 1.284 5.6719-4.1426 7.7144-5.9666 2.8585-1.2057 3.4934-2.4732 5.0249-4.0973 3.4934-23.526-1.7477 3.4316 18.813 8.5017 9.165 5.0701 6.2306 3.1224 5.6885-0.91098 6.0591-4.6846 2.4733-18.131-4.0498-6.4468 3.8789 3.3079 5.6739 8.7181 2.7967 11.037 19.074-0.40187 12.475 6.8013 6.3375 12.304 3.1844 9.662 13.648 0.32356 5.1626 4.4374 5.5195-1.5767 5.0393-4.8392 3.3222 11.115 13.974 1.5148 7.1413 4.4353 4.0501-0.7255 5.21 1.4057 10.217 9.5383 9.26 8.1925 10.031 11.7 9.1674-1.3912 15.163 2.2424 6.7561 29.524 1.5909 12.071-2.2712 6.1212-2.566 25.367-9.6619 15.148-2.0238 18.456-7.4196 5.812-0.913 9.5507-2.8897 5.1154-0.094 21.332 7.1104 0.031 0.046 5.1483-6.1521 4.1117-3.0606 12.15 2.0878 2.3949 0.8183 3.2935 1.1128 4.0189 9.5219 3.0132-0.6944-2.7659 14.868 3.9716 1.0224 8.1472-0.5564 13.386 3.8004 11.5-4.9608 11.144-6.2901 7.5598-7.9763 20.697-15.058 3.1843-12.923 4.561 3.2009 1.3747 5.95 4.4064 1.686 0.6492 13.448 13.895 2.6896 3.8953 2.2732 7.8525-8.2708 37.362-1.5456 7.8977-16.894 5.0866-2.0711-1.3459-6.0759-6.6921-2.3806 9.289-3.8788 7.127 5.1628 3.8334-0.882-1.995-11.871 5.3648-3.8954 12.799 3.1842 23.757 6.7561 3.2152 0.1849 5.7811-1.9022 3.108 4.3755 1.2675 5.5484 0.8821 3.895 4.8228 0.6803 2.5185 0.509 1.315 5.5957-0.018 4.2519 0.7894 5.8738 13.046 3.0132 3.7407 5.9521 2.8896-0.8345 3.0153-16.632 10.402-8.2091 3.3697-0.6329 13.712-1.2528 8.1265 0.6181 2.5659-4.8062 7.2961 0.2329 10.078 8.5799 4.0354-1.7951 6.8157 0.048 7.8216-5.9664-2.6587-6.0759 8.6253-2.1806 3.3244-1.653 8.7016 0.913 9.1199 4.9608 5.0866-0.5255 4.0025-0.4019 8.7799 5.874 5.6265-3.168 4.1591 0.094 3.1534 5.1173 13.432 2.4569 9.1982 25.274 6.5849 2.4257 15.767-2.2712 20.311-2.2568 2.8586-4.9154-2.535-25.752 5.3483-0.371 4.5301-9.9548-13.712-3.386 2.8298-13.648 6.2448-0.5422-5.0103-10.958-2.3166-9.4044 3.3389-8.6108 5.6409 5.6122 6.4922 0.2178 3.2008 5.8431 12.119-3.85 2.8751 7.4506 15.286-1.886 3.2316-3.0295 2.1332-1.7003 11.175 1.2364 1.4839-3.5861-10.216-6.4611 1.4221-4.1737 5.1319-8.9653 19.507-4.1262 4.7135-6.8321 5.6431-1.7478 7.094-8.0525 1.6385-8.9962-0.9584-12.954-3.7861-6.0283 4.4662-3.4007 4.8084-13.032 3.1533-11.377-1.7168-7.7742 4.6847-5.0081 5.7502 4.6062 3.7098-3.8951 7.2032 2.7514-0.5874 5.4245 19.291 10.311 4.4518-7.0651 4.3281 6.585 20.806-10.711 9.629-2.0093 11.672-13.217 5.0392-9.0107 7.8524-2.2732 5.2556-7.296 4.1117-13.339 1.4365-8.5945 0.7111-9.8927 3.277-3.8191 5.4884-9.5054-3.479-3.8954 0.1216-21.919-4.7753-5.1484 9.6908-11.391 8.5017 5.0081-0.911-11.27-1.1748-6.9559-0.9892-4.5136-5.2103-10.278-20.635-3.4954-10.373 5.6716-5.0392-2.1782-4.5754 2.8749 6.6941 13.772-3.617 7.0033-12.135-1.1273-7.8668-6.694-11.006 2.7369 1.9621-21.039 6.1068-8.2071 11.391-5.41-5.7193-6.0759 11.177-12.009 3.1368-10.48-0.2926-8.4873-3.1843-0.911-3.3244-1.0366 2.0878-4.9154 2.0548-5.874 5.5957 3.5716 2.6751-4.8845-2.3042-10.28 5.6431-6.9868-2.195-5.27 10.062-8.3327 7.9762 4.4044 4.2353-6.7538 6.1377 4.0478 1.4365-5.4866 4.5919-2.1805-0.6347-5.0679-5.5029 2.566 1.0511-10.033 12.661-8.2235 1.993-5.7048-6.2593-1.8693 4.0189-4.2828-9.4291-7.7743-7.6979-6.5066-9.8619 9.3674-4.0498-3.8664 8.176-11.577-7.9761-0.8821-4.4044 4.7774-1.6385-2.4421 1.4221-8.3615 12.15 0.3234 9.9691 4.8704 5.0083-4.761 1.5313 2.9368 7.465 0.2783 5.707-3.6788-7.4218-1.5315 0.5091-4.2663-4.019-3.5078 3.1533-4.6372-7.1722-7.7762 0.8347-7.6195 4.8083-10.202 16.278 0.3565 10.759 5.1156 6.8323-3.477 4.2023 3.9263-0.507 4.9607 4.8825 2.3044 14.687-2.0714 4.7607-1.1913 2.7661-7.1413-3.5696-1.9931 1.6836-3.2769 4.623 1.8075 2.6731-3.9263-11.669-14.173-13.25-5.2247-0.369-6.2306 4.5612-2.8276-3.0462-9.0747 4.528-6.2757 3.3718-1.422-1.4694-5.0393 6.6941-0.6018-2.566-6.2612-6.3066-0.094-11.84-13.619 3.4934-3.3531 6.5541 0.8491 8.5778-4.1572 5.0248 7.4177 0.8036 4.8083-3.2151 2.4588 7.2176 10.307 4.4066-3.1966 0.7233-14.887-2.5969-5.0846 2.9082-8.0543 8.4233-4.6827 3.0152-7.3434-12.071-4.7134-11.502-11.981-8.1903 1.7789-3.7718-8.7037-9.2909 2.504-0.5876-4.5898-5.3956 0.5873-10.835-3.9262 3.6481-9.8165-4.9157-5.3936-5.6716-1.3149 0.1241-6.0574 5.2247-3.617-0.3402-4.1612 5.5813-3.7386-0.3566-3.9262-5.9049-3.6173 4.4066-4.4044-6.6325-2.7225-6.9083 3.3719-0.1545 5.3482-11.053-0.4328-4.8228-1.8239-1.4674 6.1974-4.6229-1.3911 1.9786-3.9407-5.8265-8.0545-7.0486-1.22 2.9513-8.6254-7.0012 4.6518-3.8026-3.3245-2.4588-5.0537-1.4983-0.233-4.4373 3.2007-2.3187-2.5207 0.573-2.195 5.7502-3.3695 1.9002-2.195 0.7894-5.9812 0.031-1.3169 5.6883-1.8528 0.093-3.8645 2.0404-9.3507 0.6328-11.871-7.4341-7.6979 3.1843-2.5042-2.6917-6.1068-8.7634 3.3225-1.9477 5.814-4.4208-5.3359-4.7465-0.2-0.7111 16.649 4.1901 7.9143-7.1724-1.1913-3.2316-6.4922 0.7893-10.48-6.5704-6.7538-6.6468 0.6491-3.8953 1.6694 1.2222 13.325-12.475-1.7933-13.015 10.155-11.346 1.1602 1.0202 5.3627 6.756 10.033 4.3116 13.17 11.531-8.9199 0.573 7.4196-2.5041 9.8927-14.499 6.1524-15.443-8.611-6.8467-6.9559-2.7206 2.6587-8.6252-2.7041-1.1604 3.1678-3.5552-0.773 2.0713-8.1449-10.124-0.7421-7.8689-10.064-5.0536 0.9584-4.8434-9.5465h0.01l-3.5862-5.2082 8.9963 1.5456 3.8953-5.0246-5.9666-4.8228 4.7465-7.4958 3.7716-6.585 5.8121 2.4566 2.9823-1.9311 3.617-4.0662 6.8941 1.8713 4.1735-4.9937-3.448-17.698 5.9048-11.593 0.7728-4.1283-7.636-5.3936-9.8001-24.656 10.82-4.4044 2.195-7.0486-2.6422-2.8608-1.5932-6.9869 6.6632 4.4518 7.6505-1.6074-6.3067-8.3924 0.1545-10.002 2.9843-0.9892 13.153 10.109 4.1117 1.5456 1.1912-9.5673-16.587-17.143-1.4529-15.07-2.195-2.3494-4.188 2.9058-8.0544 1.4985-4.0334 2.0258-7.1414-1.1437-4.3899-8.4564-7.1414 3.7717-8.6418 3.4172-5.5029-4.4517zm-166.28 482.71 12.984 4.1592 8.2852 7.6504 10.526-1.6077 2.7988 4.2829 6.2284 0.079 3.3244 10.897 0.2166 6.6467 9.8145 2.259 4.4064 6.2737 9.2436-3.6932 1.2201-7.3888 11.006-0.6349 2.4588 7.5288-9.291 5.8575-1.5602 4.8393 1.9002 4.5135 6.4778 8.1472 6.8776 3.5553 5.6575 0.7564 9.4765-14.87 11.129 4.7462 8.7799-0.061 9.3508 18.133 22.152-16.109 8.5944-0.5585 7.434 6.4611 1.3294 13.296-0.742 16.397 3.9263 11.674 9.6145 5.1464-12.211 16.834 6.6632 14.602-11.888 7.2672-2.0548 4.8392-7.5598-1.3458-12.737-9.5055 0.2472-5.4577-3.2152-5.9355-16.059-0.2355-6.5849-15.344-4.9773 1.1417 4.5754 8.6892-3.4934 11.004 8.8871 11.037-7.7123 11.502-1.624 9.6911 6.8631 4.4373-3.5697 6.1212-10.542 3.8004-4.0046 12.257-12.597 29.928 11.855 1.7933-3.5862 8.3162-8.0688 7.2628-0.1854 2.7823 1.8858 9.7714-2.704 13.217-8.951 1.0943-6.2284 8.1184-7.7906-4.0253-5.8429-15.476-7.2032-19.54-17.498-7.1621-2.3805 14.021 1.0202 9.8763-9.7238 5.8264-4.6208 10.761 3.5862 3.2131-6.4613 7.063 7.5742 2.059 2.1331 6.2428-7.4814 0.2178-2.4732 9.5381 5.3174 3.7244 0.54 4.6062-12.102 0.3257-5.303-1.5456-11.298-8.069-4.9773 6.183 0.8182 6.4757 1.8405 1.6695 5.4102 1.2984v-0.025l3.4624 2.7658-0.4802 4.994-3.9262 12.397-5.6265 2.6587-4.2189-1.0366-9.4147 9.2436 0.7584 5.8737-3.7716 4.994-6.5231 10.604-7.6834-0.8801-5.7338 1.962-2.737-1.0366-10.356-0.9069-3.2132-0.272-2.1805-8.9653-1.2675-0.4804-2.3331 1.6694 0.4163 6.183-6.2592-0.048-1.8096 1.517-6.6611 1.2222-12.057-4.1901-8.5634-9.0129-1.6241-1.9455 2.9369-2.4609 2.0404-3.6459-6.012-7.5576-6.2613 1.4364-3.5552-6.8652-6.8322-2.3021-7.0487 1.3746-5.6121-5.2699-8.8562 3.2173 2.4258 14.281 2.8442 0.8348 3.0297-0.8657 6.014 0.7585 3.5388-1.8239 1.284 10.002-0.742 2.1762-15.072 5.3196-7.2795 8.8108-7.3578 3.6788-4.592 3.0297-9.7526 0.061-4.5919-9.6002-0.076 0.094-2.1496 1.5768h-4.8537l-2.9988 1.1582-0.9892 3.2153 0.542 3.6479 1.8694 2.428 3.6479 2.3639-0.9109 3.4934-0.1236 3.5861-9.8929 5.2411-6.0593-0.2783-7.6526-11.439-3.0915 0.1849-3.8479 4.7136-5.4266-4.1119 0.8821-3.8479-1.9167-2.7988-3.3244-0.8656-0.1857 0.4802-6.3685-8.2091 5.3483-10.48 4.0046-6.8939 0.1236-0.4637 2.164-8.1143-3.4316-11.177 3.3533-4.3426 3.4625-9.1674-2.6896-2.3021-3.6006 5.1317-20.806-6.9868 8.4542-3.248 9.9238-11.253 4.3754-4.4826-10.202-16.942-5.4576-2.4875 2.6587-10.713-6.5684 1.8239-6.3232-3.013-2.3495 3.1986-3.6006-5.9502-6.1212 3.3389-2.6134-13.386-7.7741-5.5955 10.511-8.3946 14.53 2.3806 9.629-2.3495 0.078-8.3782-2.904-2.5412 6.2738-2.7369 9.258-5.672-0.5709-7.1722 5.2082-7.3125-6.8941-3.4152-1.2675-2.844 0.1236-3.1389 5.7811-4.73 2.026-5.4248 6.3994-1.4838-0.7276-4.2828-12.984-3.7715 13.001-15.781-4.73-1.9169-12.29 3.9262-1.7766-0.7417 11.36-9.2913-5.7502-4.9916-0.5255-9.522-5.6266-11.272 2.8442-2.7855 4.8537 4.7156 8.1616-0.1216 3.2934 5.8953 16.076-9.26 5.672-13.046 3.5098-3.988-2.8915-1.7457 1.5932-8.3635 5.4245-3.848 0.5421-1.824-0.6039-6.3106 4.3899-5.3217 6.6633 4.9155 4.3116 0.3092 10.016-7.9307 1.9023 2.0714-3.9571 5.9829-1.9168 8.9037 0.1072 11.377-2.8752 2.6587-0.8965 1.3911 9.291 5.4719 10.68-7.6215-0.2782-15.75-7.0795-5.2864-0.045-3.8336 9.1034-1.7622 0.711-5.1484 11.562 11.022 4.019 1.9311 3.9427-2.6278 2.6422-6.5994 13.664 5.9191 7.096-3.7406 0.5256-5.5174-3.9262-6.8939 2.5659-4.8845 11.36-2.6134 6.2139-12.195 23.698-9.8312 1.3603-11.191 15.798-3.1842 8.9489-5.9523 5.5503 1.4694 1.453-6.8939 7.636-7.0033 5.7956 0.913 1.7003 4.5753 2.9988-4.4826z" fill="#8080ff" fill-rule="evenodd"/>
</svg>
