<svg width="527.27mm" height="412.37mm" version="1.2" viewBox="0 0 6227.7 4870.5" xmlns="http://www.w3.org/2000/svg" xmlns:xlink="http://www.w3.org/1999/xlink">
 <path d="m1719.6 3818.8-17.467 1.1893-5.1937 5.365 2.4733 8.4087-10.064 0.6639-12.737-2.4569-7.2176-1.9784-14.314 3.1842-3.4314 0.54 1.8857 2.6132-3.4625 4.4827 3.6006 5.5338-2.8441 3.6172-5.874-0.6494-3.7715 4.7754 8.9199 5.4575 3.3843 10.14 3.3695-0.4944 2.8917 4.2807-5.4718 3.0607 5.3173 4.4063 0.5256 6.6303-4.9319 4.2206-8.2071 0.2154 12.102 9.5694-3.4931 8.6086 2.3494 2.5205-2.2712 14.438-8.7036 3.2457v4.0025l7.7926 4.1902-2.8298 12.723-8.9962 6.2284 4.2043 4.4208-1.2984 4.7464-0.6965 7.0013-3.6005-3.3078-2.9062 3.139 5.672 7.6503-4.3426 2.5188 1.9784 5.7357 8.0999 9.5072 2.0858-3.1839 4.6845-0.027-1.6238 4.328 8.6107 12.535-4.4827 3.0607 5.0846 3.7263 2.2568 5.577-11.113 9.8929-21.95 4.4063-0.7418-3.9427 7.4505-2.7348-1.1439-9.3982 5.5647 0.2482v-4.8085l-11.408-1.2038-6.3851 5.936-1.5456 11.529-8.5636 1.686-2.5187 5.9499-4.7462-2.7967-0.4782-11.824-5.4865-8.1163-5.3812 0.6659-1.0039 3.2602-18.704-12.675 0.3854 11.394-5.981 1.4365 2.4114 5.3484-3.9118 4.0497 3.9736 3.106-2.2568 3.0461 13.772 13.541 0.4019 5.9833 9.1983 11.824-10.388 0.1242-1.6694 8.2542 4.7136 4.359 2.335 16.834-3.0153 2.8131-2.5657 11.236 3.8333 1.5151-0.5091 4.0353-14.608 3.3078-2.8133-2.7061-6.0285 0.7422-2.7968 3.9096-7.4361 0.3877-0.88 3.0438 4.4971 0.7584 0.2165 5.1938 0.093 2.3188-6.1212 1.6218-2.9988-0.1695-9.2889 4.328-6.1521 2.5204 1.1129 4.3428-3.6954-0.8185-2.0403 7.4961-15.674-0.1851-4.73-12.471-3.9262-1.5087-14.39 9.7527-15.798 0.1698 0.4637 8.007-3.7881 4.359 5.0866 4.0501-10.126 7.4339-1.249 5.1999-0.7585 3.1532-19.615 15.674 4.4518 8.6563 4.8536-4.2048 0.4638 10.281 4.7753 6.9331 1.6076 2.3185 7.7597 17.22 1.3911 4.7606 2.2115 5.6412 4.8063 4.1737h0.01l3.1328 2.7142-1.0202 6.0427-0.2474 10.326-2.4897 11.748 5.7192 9.0892-0.5564 6.7252 4.8392 0.6942-1.5148 6.4614 1.0655 5.9212 2.6278 16.107 4.1736 18.487 0.5729 4.2807 8.5635 10.852 0.8656 6.3682 0.2783 6.8488-4.1117 5.0225 4.5445 1.3149-0.233 6.816-3.6171 15.165-4.5445 1.8387 2.6443 5.5956 1.3438 1.8096-2.2094 5.2556-5.2721 5.7502-1.8694 18.054-4.9629-0.4636-7.0486 3.5243-0.8182 11.391 8.5944 7.8999-2.0878 10.388-5.4864 20.527 3.0132 2.6589-5.5483 6.8467-6.3994 0.1266 2.364 7.156 8.2543-4.9776 1.0676 3.5411-5.8594 6.3065 5.7976 0.7567-1.824 3.6952 10.666 13.6 1.9477 6.1501-8.6727-1.22-0.9893 6.0592-8.6707-2.3658-11.208 9.1196-0.1236 3.2626 5.5338 0.8966 0.4946 5.6884 14.238 7.9287-1.2057 4.8537-3.2626 8.0998 3.1843 3.3551-0.4329 10.773 7.4671 7.4052-4.7465 7.5886 0.3709 8.4088-7.3103 5.9214-8.5017-3.8501-7.2341 18.38-5.9522-24.423-10.773 2.4258-0.8965-6.6302-5.9832 1.3436-8.9798 2.4279-10.28 14.297-11.669-3.1842-3.7098 1.995-7.3124-5.4572-7.0322-1.4679-6.3685-6.4921-14.639-3.0914-5.7193 3.6789-2.1949 8.4851-3.7243 3.5409-7.2197-0.4018-0.2307 3.786-22.599 23.172-3.3079-2.1496 3.9881-5.2391-5.1629-1.4695-3.277 3.7715-9.3363 4.6538-5.3339-4.6991-5.7502 1.9477-2.4423-4.1736-6.3995-0.6656-1.1892 3.7262-6.0449 0.3546 1.7622 8.7346-7.4032-1.8551-2.4422 5.0701-7.6835-1.0674 2.8607 8.0853 7.0321 1.0343 9.862 9.2439 10.528 0.5565-0.2474 8.1778 6.1356-3.6952 7.5124 0.9583 6.0903 9.6457 6.894-13.572 6.1377-12.69 11.222-8.4254 7.3413-0.4781 8.9819 5.9191-0.371 16.031-4.5301 7.2961 13.881 4.744 8.9818 8.2092 2.7659-10.728 11.95 5.5956 4.6517 5.4866 8.3018-4.2973 6.925 2.2422 0.88-4.7464 4.5754-0.7108-3.1987 14.299 11.717 11.501-3.3698 2.4256 2.4568 7.6216 5.9047 2.906 14.314-2.3495 4.39 13.401 4.7465 6.0903 8.718-1.8693 0.2927 11.113 4.359 8.3328-4.5445 6.2284-10.742 4.1733 6.2284 6.7707-1.3438 3.1387 5.3793 23.774 8.7633-11.933 9.4601 5.6719 9.2745-0.5565 2.2259-10.093 5.472-3.6955 11.81 8.3163 6.3375-5.0537 3.2317 4.5755 0.1236 4.9919-16.54 26.71 5.3937 9.9094-7.0796 7.9452-8.6562 1.113-2.6587 14.73 11.346-2.9371 12.382 4.2047 35.181-19.336 6.2283 1.2055 7.9143-7.0034 4.1736-11.624 12.63-11.037 1.7622-8.1761 13.108-7.8381 6.1212 2.7989-2.0714-6.4158 4.0952-13.061 16.309-11.301-3.2625-12.38 1.6386-13.974-11.02-6.585-2.937-10.449 10.511-30.482-8.4253-13.17 2.3804-4.2044 15.041-1.006 3.7409 1.8407-12.737 16.54 14.159 9.8141 34.254 5.8742 3.4152-12.675 7.8071-8.2544 14.808 7.158 22.352 1.2366 0.4017 4.9466 0.973 3.8167 9.3672 4.4374 16.031 3.2606 1.9475 8.8582 5.2556 3.6006 7.698-3.8029 6.7703 1.1752 0.4019-3.6007 10.526 0.7564 6.0758-4.7754 13.155-1.145 7.3455 11.994 5.3791 0.7729-19.693 9.3816-1.2222 10.002 4.9012 2.8442 11.006-2.9368 10.758 2.4259-3.3387 5.2411 2.0547 2.7041 19.493 24.052 0.1241 5.472-5.3318 2.0568-1.0677 10.233 23.976 5.0847 34.732 0.5109 5.674-9.3053 14.437-5.4103 18.766-6.2304 17.358 1.8549 1.0675 2.7206-13.217 17.93 19.277 0.5876 8.347-5.9194 1.1584-11.146 15.983-6.2139 3.2151-6.4921 34.254 4.0187-4.0951-13.184-7.3434-0.3873-2.504-3.8171 11.129-12.892 13.215-13.17 2.737 6.5374 23.139 2.4734 5.3029-3.2916 21.702-1.2366 7.1249-6.2757 0.742-19.446 8.3018-14.406 6.0736-1.6242 4.1118 3.0462-0.2783-7.1723 13.232 5.9046 47.935-2.4897 25.288 6.9724 4.994-12.335 15.997-3.1225 15.876-2.0878 17.776 0.1266 13.322-6.1375 5.2103 8.4871 15.936-4.0045 8.9796 5.8735 12.861-0.5109 5.3176 3.3555 19.6-4.4827 1.7003 7.3121 10.759-3.7736-0.8203-12.984-13.741-35.907-0.913-6.6012 8.378 0.4801 17.267-10.186 13.061-14.254 2.7205 6.354-10.202 22.739 5.5645 9.2435 11.981-6.1069 21.564-3.3696 0.7564 4.0024 6.9722 0.1543 2.7043 3.8951 19.771-5.241 11.5-0.6328 0.6803 3.6171-0.8348 9.4438 22.304 29.956 15.629-6.1974 15.674 2.9371 12.968-24.176 10.449-1.2673 6.9559 3.5078 7.838-6.0738 14.621-0.046 4.9135 3.3386 7.4672-1.4385 9.5526 8.7347 9.3365-3.5409-1.0368 6.4776-8.1305 4.9301 8.7181 11.702 7.6214 3.8168 9.6765 9.1982-6.8633 0.9111-6.2613 5.7503 0.944 4.6373-6.5396 8.147 1.655 6.1214 9.4292 12.799 16.059 1.869 1.7168 9.2128 11.191 5.4413 11.146 15.319 23.324 14.05 4.1263-6.0738 11.995 12.613 8.6872-13.17 8.2235-3.0148-0.046-19.137-5.8266-6.7849 10.278-13.324-4.4044-15.612 11.453-2.9368-4.359-8.2851 15.241-16.123-3.2462-12.057-4.4044-14.128 1.5459-8.4544-12.506-13.85-12.273-8.3017-9.9547 8.3781-25.783-1.4223-9.8003-9.2581 3.85-8.1305 8.8108-5.6267 4.0025-9.8165-1.3129-4.1264-5.3483 0.5258 4.8352-5.703 16.463-23.184 10.354-14.207-5.95-15.365-8.2997-19.353-10.82-26.2-6.1686 2.1331-2.5042-9.6001-15.905-4.6826-8.3018-30.468-17.852-19.013-19.074-20.095-2.3826-22.214 4.2352-9.3816 9.6928 3.5388 6.2142-13.772 13.06-4.9156 9.2436-14.021 7.0654-13.603 25.319-2.4113-16.076-18.069 1.4055-4.3898 3.0771-3.2626-1.7313-3.6621 2.4257-5.1178-9.4599-0.2617-10.433-9.5383 2.3021-3.4767-2.968-2.6754-11.191-7.9762-0.1367-6.7086-17.1-8.5324-13.568 3.108-8.0257-2.7825-9.2745-4.019-4.528-8.1612-9.2127 0.9417-0.4617 6.4777-6.1686-4.9939-4.5631 0.6966 0.5607-5.8738-12.259-3.2151 0.7213-3.9943-6.9559-8.7633-0.4782-7.7764-5.9191 0.6349-4.0521-11.084-4.6804-2.4877-4.5632-9.26 2.5207-1.8694-1.1437-3.448-1.4388-1.7312-6.0118-2.8585-4.0025-0.8617-4.59 1.4385-4.8536 3.7245-1.4694 1.6692-2.0549-1.0347-5.8449 7.62-5.0991-0.4022-1.6097 3.5554-8.1738-1.9622 2.5472 15.843-5.1132 1.1437-1.284 7.4981-3.1368 0.024-1.5335 6.894-6.1048-1.9784-5.7357 3.3389-4.1858 6.9412-5.0887 0.7419-2.7329 8.3926-12.076-6.0427-0.3855 6.6775-2.7987 5.5791-5.7791 1.2365-0.3565-7.4504-5.6884-0.5258-1.3458 4.8085-4.1737 1.1748-0.6635-5.472-10.078 4.7608-5.5956-6.8176-0.4493-11.16-6.7703-1.1127-4.0954-7.3272-6.354-5.0391 3.1842-6.0282-8.8561-10.68-2.3803-13.619-6.585-2.8587-6.7396 5.472-11.239-5.8594-10.758-2.906-22.459 6.6323-0.9893-8.4253-2.7825-12.288-5.7975 0.3545 3.4934-14.606 2.5103-6.2264 0.88-7.2651 4.761-6.9395 2.8441-3.8498-1.3912-5.8904-1.3911-2.4401-3.7241-1.4078-1.7313-5.4554-2.8608-1.1296-10.958 2.0713-2.6896-5.9522 3.5697-1.8383-4.761-7.9309 2.0879-9.3651-8.5325 2.8895-14.64-8.4706-3.9262 1.9021-4.0128-2.1496-7.7431 4.2044-0.3566 5.2414-12.737-2.3496 0.9583 3.8644-3.5387 2.442-12.273 0.6805-13.139 10.958-10.944-3.6479-5.441 6.3067-6.5849-4.0193-3.4172-4.0025-3.1677-2.0091-8.8397-0.2948-4.1961-6.6198-4.6992-7.9597 11.16-13.17 0.2928-6.4303 2.875-6.1687 5.9976 0.2783-0.1545-6.8322 8.209-10.511-9.6908-9.5529 3.8641-11.793-15.196-10.435 4.9773-12.226-3.8027-13.758 24.732-6.4921-1.4676-3.0769-5.2412-3.1843 0.1089-10.402 10.037 0.2481 5.2371-4.4475-1.3149-14.67-9.522 1.5003-0.8801-7.3434-6.1067 1.0843-5.7502-3.4318-0.4019-3.0603-5.5957-2.6136-4.5135 7.1104-3.7718-1.8404-6.1974-3.8478 0.602-4.6849-5.7649-2.3637-3.2934-11.066-10.758-1.8403-5.3174-14.532 4.4518-3.9079-4.3735-5.7212 1.7148-6.585-2.2712-5.7192-4.3138-0.3073-1.8548 2.3168-5.0081-1.7313-3.9366-2.3023 0.5708 4.7775-2.1641 3.8481-2.4401-0.6331-9.9259-1.1745-10.517 0.9871-3.7943-0.6534-4.0192 6.9436-2.3803 8.7491-9.8 10.245-1.7168 3.2646-12.38 9.1179 3.3696 1.8407-9.1365 8.0069-3.446 0.7585-5.1627-6.3561-15.458-1.3605-2.3968-5.3153 2.8132-3.3717-6.0118-3.8336-4.6539 9.1675 11.655 8.7488-2.9988 4.7447 4.7919 3.9879 2.2567 9.5238 6.7868 4.5282-2.9986 4.6846-8.4091 2.1024-12.042-5.7503-4.9917 0.094-2.396 5.8492-12.414 4.1713-17.096-16.602-4.9775 2.9513-9.3199-2.906-9.0891-10.441-5.5192 4.6518-12.937-2.3499-3.2933 9.6004-3.9716 0.4019-6.6158-6.1832-0.1849-2.6258-0.2616-3.8809 3.617-2.1638-4.7157-4.7447 5.9214-4.0044-0.2507-7.3887-5.2391-3.1059-4.5918-4.9629-10.093 6.3686-11.424-0.078 2.8443-10.062-4.6848-1.0508-5.5171-2.9844-6.6159 1.5766-0.1544-4.2355-9.2581-8.7633-15.039 3.1225 1.3438-4.1119-6.8488-1.9477 3.9262-6.2922 2.5351-3.5551-3.1204-5.0847 5.2247-7.0651 4.221-4.7133-0.371-4.9632-3.0606-4.0497h-5.7357l-3.1556 5.441-8.283-2.302 1.422-5.9977-4.0045-1.1458-2.8319 0.9894-6.7682 2.8608-11.84 9.907 3.0152 5.0084-4.9959 0.4015-3.6913-5.3315-7.2218-0.6966-6.861 15.536-2.5659-0.1999-1.0534-0.081-2.1331-5.827-3.4129 1.3913-7.3888-2.5039-3.85-7.1249 13.724-13.001-4.8681-0.8512 1.2222-9.3671-7.2672 6.0136-3.3511-4.0045-2.5515-3.4149-1.4365-3.4483 2.8729-4.4516 5.8596 0.573-3.0915-6.7085-10.124 1.5293-4.1593-9.0727 3.8954-1.2676 1.9764-10.851-5.9027-2.797-7.5432 2.4876z" fill="#ffbf80" fill-rule="evenodd"/>
</svg>
