<svg width="527.27mm" height="412.37mm" version="1.2" viewBox="0 0 6227.7 4870.5" xmlns="http://www.w3.org/2000/svg" xmlns:xlink="http://www.w3.org/1999/xlink">
 <path d="m5655.1 1.1718-1.9987 4.291-3.5699 1.0738-4.1531 5.7976h-4.0004l-0.3029 4.2952-3.7222 3.4357-4.2044 1.8199-1.4425 8.5449-0.7584 4.3982-3.9245 13.083-3.8498 12.84-3.3677 2.1394 0.7605 1.8899-5.6473 1.8652-0.987-1.8322-6.5067 1.8611 1.2923 3.2728-1.0903 3.8274-2.1004-2.8937-4.9132-10.573-8.8356 6.4056 5.1648 20.587 5.4433 14.524 2.8111 12.686 0.7855 3.547 2.4299 26.54 2.1267 16.525 12.154 34.171 3.9754 1.7807 0.3546 16.806-11.545 19.149-16.94 3.5573-10.027 8.8561-8.2275-1.3932-1.4449 0.2226-3.7468 5.5915 3.0894 2.9926-7.5207 0.7461-7.6956-4.2601-2.5826 2.4237 2.7082 3.2956-8.6584 1.7724-3.8498-1.5972-11.216 3.0915-19.091-4.3961-4.8105 3.7221-10.456-6.1686-3.3943 3.7861-0.2049 2.0013-10.051-4.4848-6.3851-9.1962-10.773-6.9106-7.5434-7.1105-9.7547 2.4423-10.325 7.7762-12.583 1.8549-4.9152-2.6133-9.6457-0.062-15.317-1.0202-8.038 4.3137-7.8215-1.0676-6.2305-4.8991-3.5861-7.3124-1.7971-6.8652 3.7715-4.1241 7.9002-1.0882 4.8372-4.7939 5.8469-11.181 5.6719-2.5371 0.6845-4.9423 7.2671-10.154 5.2657-1.5953 15.47-15.016 0.8864-4.2498 16.001-24.452-0.5315-1.7827 3.0894-5.5833 4.5076-3.2275 0.3542-2.9967 16.078-7.77 0.1773-3.9221 9.7463-10.653-5.0371-3.3285-0.5585-3.4522 9.0149-14.512-1.7231-2.1827 9.1159-11.789 0.1519-3.5635 11.975-12.343-1.5685-5.4287 7.595-10.031 8.3305-2.8545 0.8864-3.5367-5.0642-4.8207-8.8106-0.9892-36.993 66.134-17.949 27.092-12.154 25.2-17.193 25.34-27.8 31.671-18.609 17.42-15.876 11.463-24.153 13.252-14.864 5.0762-10.076 0.7461-5.9748-2.3866-8.1288-0.8327-9.4948-12.199-2.8358-0.1236-16.406 7.5124-3.1657-1.5643-16.787 8.5655-8.9116-0.7399-25.472 2.1188-8.9879 1.3973-14.027-6.319-4.2517-0.8986-5.7732 10.113-7.1662 16.847-0.3295 16.066 0.2536 18.951 8.6086 7.5165-1.5438 11.014 0.8597 4.6827 5.1151 5.9377 1.039 25.775-4.254 24.116-6.8362 25.794-10.153 20.971-2.0014 3.4233-0.9377 1.5952 5.7999 4.8249 0.9604-1.3995 1.6981-2.4423 4.5053-6.5725 4.456-13.065 4.254-15.899 10.078-17.795 15.115-2.568 12.203 6.9579 4.254 17.337-0.4308 9.9856 7.5453 7.1146 12.533-0.5338 5.4183-10.025 5.0887-3.7016 0.6595-0.4802 4.355-5.8533 5.2161-5.136 8.8356 2.5227 10.406-0.9811 11.723 1.5747 6.558-3.2915 15.849 5.6843 8.6087-0.7028 2.6082-4.5332 4.36-1.2377 1.8383 6.8632 10.404-0.9893 0.911 3.6171-3.5388 3.246-3.5243 3.2462-12.228 9.831-5.6885-0.2475-3.3224-5.8573-9.6764 9.6764v0.01l-8.2771 13.669-10.256 7.5268-10.886 2.2836-12.762 6.2428-7.5183 8.6109-2.4053 5.9728-13.85 14.769-5.8246 2.6092-4.101 3.7552-4.6086-0.5544-4.9875-9.1488-5.9255-3.4687-9.823-3.9942-6.9888 4.3446-4.9362 23.732-1.5705 11.368-1.4179 8.514-11.519 9.8701-14.433 3.31-4.8352 4.4394-8.3554 3.11-4.9381 5.0783-2.0754 4.9176-1.5705 3.6459-1.0387 5.8512-5.3424 4.6311-4.7092 1.622-8.6337 1.4159 2.6589 4.2766-0.9377 3.5697-0.5052 1.9621-2.3289 0.92746-1.8734 0.75227-1.6982 2.6422-3.0874 1.8693-1.9764 6.4922-0.9873 5.8182-2.5309 2.7494-3.8232 2.2692-1.1646 4.0829-0.5069 1.8487-7.1144 7.7102-2.0261 2.1888-0.6845 0.18335-2.5062 0.68221-2.8604 3.1657-5.7628 1.2878-21.208 2.6625-20.992 14.485-22.382 22.273-10.124 14.035-5.0084 22.475-5.5027 2.6752-1.7931-1.2221 1.869-5.4411-1.9166-16.694-14.359-7.0487-5.4885 0.38748-10.278 0.7255-3.7718-0.29266-1.9639 4.9155 5.7357 5.7193 7.4339 4.2972 3.1391 8.007 3.4459 3.7242 0.5565 5.1484 4.5917 8.3162-3.1387 9.1508-2.0095 0.86563-6.0285 0.84915-2.2712 1.7168-6.0285 2.5804-1.4219 2.5824-8.58 4.5755-1.4365 4.0025 1.9926 2.5824 2.3047 1.7148 2.0091 2.2878-0.5872 3.1533-2.0095 4.5755-1.995 5.1628-1.9933 5.1484-5.1792 2.8586-1.5148 4.1117 3.0566-0.63274v5e-3l-3.0607 0.62655-2.2526 6.3396-2.2793 6.012-3.444 3.1492-4.0004-1.1438-6.8859-0.57502-3.4193 0.57502-2.5822 8.2997-3.139 4.5796-0.5832 4.5816-4.5815 5.1525-0.8618 3.1492-1.4179 4.5795-4.3033 3.4357-6.0018-1.4303-8.3038-5.4411-4.3054 0.28648-3.4439 2.5762-2.8608 3.7222-1.999 6.8694-3.7222 3.1492-2.6339 7.2506-21.09 25.552-9.3424 1.3892-4.7096 34.829 2.354 15.47-2.7599 5.9605 0.1773 3.4975 0.5565 2.8607 0.8614 4.293-1.1396 6.587 0.5831 3.4337 2.5579 7.1578-0.5588 4.8661 0.5588 7.7267-1.4179 3.7222-9.4458 14.598-0.5811 4.5816 1.7211 4.866 3.1407 3.7222 6.8859 4.0066 3.1387 3.4378 2.0014 8.0152-3.1411 2.5742-3.1386 1.7168-3.7226 6.014-2.8851 4.2931-4.5569 0.8595-5.4453 2.5742-6.0242-0.5709-4.0767 1.4983-4.5073 1.6509-3.4443 14.027-10.228 11.284-0.5835 13.458 1.4449 2.6319 7.6463 13.943 34.662 2.4959 1.6715-5.2927 14.71 7.0569 14.837 4.2024 28.156-7.0301 22.282-2.6319 25.674 10.023 7.6463 1.6797 19.975 9.0664 0.076 18.553 3.8501 15.563 8.5054 8.6108 13.394-4.4662 9.1409 3.6027 8.2788-1.08 2.4052-14.551 14.584-7.2445-0.6825-8.9633-6.533-5.9954 2.0504-14.567 32.916 7.1125 6.0515 9.1921 16.255 4.6187 18.102 2.5515 8.8619 2.6154 0.5835 9.1118 1.2903 0.5812 1.8487 0.8285 0.3543 0.1689 0.2782-0.373 7.7743-10.616 10.835-6.2242 1.4179-3.2276-1.7208-11.404-0.6081-3.9881 15.344-31.655 3.3676-5.4225 27.548 7.9122 1.6198 11.861 25.369 14.023 1.7228 0.9522-0.6594 8.8335-6.7353 7.432-3.6709 12.314 7.5457 9.4786 15.748 5.7996 28.131 44.423 8.8873-8.6294 6.7849-0.4246 5.9252 3.819-0.5319 12.84-4.101 20.552 7.1637 4.8372 6.5584 0.3854 9.2931-17.113 26.028 18.246 7.3164 4.2416 6.4057 4.1653 0.8618 5.1525 4.7338 3.007h4.279l6.0262 4.2931 7.7226 10.307v7.7267l-2.5825 7.3001 0.8614 10.307 3.0134 4.2931 5.9995-0.4287 6.0265 3.4336 9.8742 1.7189 4.2787-4.7238h3.0131l3.4439 3.8643 17.597-7.7287 6.4303 9.8764 1.6961 4.7052 7.4198-13.013 8.6583-13.675 16.585-50.989 5.9995-6.892 13.471 2.7123 26.053 8.9592 11.09-0.2452 8.9879-4.9423 9.2931-0.3215 14.128 7.3475 9.3675 1.4468 15.672 2.9699 13.596 10.14 3.4439 8.7984 46.26-29.481 12.683-13.034 27.65-19.903 4.7835-11.942 34.664-26.033 24.914-14.66 37.547-17.696 13.522-7.2836 20.027-5.3813 25.573-4.6311 18.052-2.162 7.1145-4.7898 5.0888-3.4047 13.015 0.4101 25.47 5.3648 23.168 9.5528 12.836-2.869 6.8116-22.364 7.5207-8.9653 9.6724-1.0182 8.5323-7.1352 7.3661 2.8133 4.8868 11.274 5.6223-2.164 6.3294-19.11 8.8106-5.336 7.6463-0.2226 42.69-32.988 17.848-25.305 15.396-11.987 10.962-11.886 10.204-7.1002 10.381-12.518 12.759-10.148 1.7232-1.3705 6.5829 0.2782 4.9608 0.2123 5.7483-2.5042 20.56-21.261 3.6459 6.5828 6.3294 2.0549 1.3665-12.146 24.839-16.371 9.3674-27.088-1.4428-12.481-0.5319-4.6352 15.014-20.53 1.5955-12.78-4.0521-21.952-12.254-13.732-10.938-3.3244-4.0768-7.9575-5.9478-2.7535-3.2936-15.136-6.0242-9.1818-6.3314-10.981-17.139-7.8751-5.7236-2.4691-1.4183-5.744-0.859-3.4481 1.3416-7.906 7.8236-7.5186 1.4675-3.8562-0.8347-4.6723-5.8492-3.1204-11.42-16.913-2.3782-19.382-8.939-16.449-9.4947-3.2646-6.7356-9.5734-1.2899-11.989 3.1386-11.352 9.8497-4.9361 10.128 5.4349 8.685-2.8421 8.1514-15.359 14.002 6.6694 13.294-5.2494 7.1884-6.3665 4.4583-11.95 2.5822-10.241 4.8599-5.5049 5.2927-6.554-12.38-19.456-3.267-7.3454-14.963-33.782-6.7623-0.29266-5.0371 1.183 0.3299-7.6525-7.0655-26.723-3.6702-5.8718-0.7091-8.2441 6.8096-17.201-9.3921-13.972 3.6192-9.4847 6.2304-3.6625 1.9474-12.411 5.9772-5.812-0.2536-9.8805-0.1013-4.6661-6.3044-5.3772 0.1772-3.92-2.9884-5.4843-0.2536-10.365 4.1531-5.1793-3.7985-11.232 1.9744-4.5569 9.1158-4.6043 0.5835-4.9732h-0.027l5.3937-6.047 3.139 3.0379 2.228-3.5202-1.5192-3.9592 3.4193-3.4233 3.341 1.5396 5.4946-2.9782 2.5826-9.8846 6.6093-4.357-2.7862-1.9044 4.5569-14.441-5.2143-10.833-2.8362-0.9419-2.3556-3.3161 1.3686-7.0816-9.825-3.9963-1.4675-2.0981 2.7844-11.768-0.5068-5.0206-14.165-9.0633-4.5198 5.8625-3.5946-1.3334 0.9357-5.6719-5.4183-6.3046-8.1018 5.7192-1.9501-4.7279 5.9752-6.1665-8.4811-1.7952-5.8738-4.8969-0.3299-7.5969-8.912-5.5709-4.1777 1.8755-2.203-5.8038-5.3173-3.7716-4.8869 0.6471 2.9638 12.446-7.4711-0.6801-8.4563-17.589 1.9497-5.5462-8.3284-5.3586-4.9135-11.113-5.1898-17.43-11.09 0.5214-4.9631 3.7923-3.5179 1.7519-7.5704 6.4221-14.61 6.4179-20.711-4.0849-1.7478 2.0445-20.431-2.6298-2.6342 0.8759-6.1271-0.5833-7.57-1.1685-9.0646 1.7518-7.57 0.2927-6.4323 2.9183-5.544 0.5833-4.6599 3.209-7.0138 1.1686-5.2661-1.4592-4.0764 3.2111-5.5196 3.2172-1.189 8.5078-1.4179 4.6187-5.5463 4.0829h-14l-7.3168-3.5016-5.241-6.7107-2.331-9.9237 2.0257-7.5887-0.8611-5.5441-1.1646-5.1999-4.1014 0.3339-7.3684 0.5977-8.8106 5.3339 0.4555 6.4489-7.2921-3.4584-14.305-2.8689-5.8739 1.1479-5.241-2.6257-5.9749-0.2968-4.9631-0.3091-11.444-12.593-3.7202-1.7189-8.8626 1.146-7.1661-1.146-6.3044-3.4336-11.824-3.3698 1.4942-7.5061-2.8112-6.3211-2.6588-1.6612-18.761-11.783-9.5961-1.1336-9.2931 0.3133-7.9742-5.7378-6.4054 2.23-6.8879 1.4324-7.1148 5.8471-3.6209-0.7234-5.3916-2.1579-4.7609-5.5421-8.0259-5.439-6.0015-6.3005-4.8618-8.5841 0.5585-4.223-0.8614-3.2213-8.584-8.3017-4.0005-10.878zm-489.98 437.18-6.0778 16.892-19.571 31.325-22.358 29.775-18.279 23.947-28.079 29.891-43.677 26.366-34.864 14.394 4.9878 8.4996 27.092-16.222 24.559-13.961 19.445-12.034 9.6211-5.8409 11.75-13.646 7.9492-9.2416 4.6083-5.0866 6.7356-3.4708 2.7351-5.5997 10.81-10.616 5.3687-7.9926 0.8594-6.0202 5.1401-2.4752-2.8605-3.5532 1.0387-2.4237 3.7202-3.413 8.5347-7.4959 0.6058-5.3359 12.255-19.128 5.0641-9.7877 7.0652-15.066z" fill="#f9f986"/>
</svg>
