<svg width="527.27mm" height="412.37mm" version="1.2" viewBox="0 0 6227.7 4870.5" xmlns="http://www.w3.org/2000/svg" xmlns:xlink="http://www.w3.org/1999/xlink">
 <path d="m670.34 3266.1-1.1438 4.4044-7.8525 4.0354-5.1009-2.335 1.4221 5.7975 0.80375 4.3117-13.664-2.937-2.6731-4.0807-6.3067-4.8848-2.9988 1.8715-4.0664 8.2068-2.0239 6.3851-3.8644-5.0699-11.455 12.551v9.5055l-6.3067 2.8296-0.32359 3.6006 12.242 14.283-5.9666 1.8857-7.4979 11.779-3.9262 1.515 2.5515 8.6416-9.7383-3.0462-5.1937 8.5945-2.1022-1.8548-5.7811 1.0674-10.899-10.635-7.1249 4.2046 0.24741 6.0736 0.89656 5.0084 4.188 5.6265-3.5388 7.4197-4.9155-5.363-7.6834 1.6695-6.1974-1.6074-0.85118 2.5966-9.3817 1.5912 4.9155-5.781 0.0453-6.3069-4.9773 1.7004-2.6422-5.7647-11.995 1.9932-4.5136 5.7048 3.4151 9.1345 3.5099-2.5351 3.6315 4.5918-4.188 11.082-5.1175 1.3909-10.82 1.793-7.7741-1.2818-7.9761-3.7718-7.6216-2.5825-6.8776 4.7774 5.1628 10.711 8.547 3.7569-4.8228 7.9452-2.6113 1.8697-1.0202 3.3693-12.042 3.9738-3.4769 4.7609-13.001 3.477-6.1666-1.7765-5.7502 9.1652-10.559 2.7824-13.493-8.2069-6.7251 4.7133 5.3648 9.8311 2.7659 8.6252 5.1319 16.632 3.2152 4.0045-1.3438 5.208 13.37 10.713 0.71104 5.1154 1.3602 5.9357-3.4316 5.0249 4.7774 1.9785 25.381 9.9546-1.4386 6.4756 10.387-3.1843 3.3862 1.9477-3.7263 2.9844 2.2733 4.9463-3.9572 0.4021 4.4971 4.9608-1.2201 5.472-10.62 9.5998 6.4922 1.948-1.4839 4.899-4.8372 1.5459 1.3128 7.3738-5.7811 7.3725-3.1368 0.2782-2.2733 0.2003-2.0404-2.9348-7.2032 2.1473 3.3388 4.0501-9.3982 8.2544-0.13801 5.3627-4.6064-5.6865-10.326 14.963 4.8063 5.0843-3.1369 11.16 2.5495-0.6017 5.7048 10.989 6.2284 3.0603-1.622 4.4374 10.216 12.504 1.3149-8.347 6.7539-1.4223 11.826-1.3128 11.284-0.618-1.4386 8.994 8.4563 3.7884 11.838-3.7884h3e-3l2.0095 9.3674 4.0334 0.8037-4.1117 4.9466-3.5387 5.5193 11.346 16.863 2.6731 4.6228-0.75639 3.4933 11.47 10.866 17.822 1.5934 9.3363 6.1356-0.71104 10.651 7.4361 3.446 9.3508 4.2351 8.951-1.9312-0.20183-4.7298 9.9547 4.4516 3.9736-2.071 1.3438 7.2175 11.902-0.061 2.3186-2.7987 8.1616-6.6468 7.5433 1.964 1.624 3.7863 19.553 15.303 9.2127-7.9597 7.127 2.4258 2.3042 2.9658 3.7098-1.5911 4.3116-8.2234 11.517 10.247 4.4517 10.126 7.8669-0.6493 7.8998 5.5172 9.4745 4.2662 8.6706 12.257 36.031 15.938 13.85 0.5254 1.1582 6.0285 7.4052-4.5303 3.9407 2.7062 1.655 3.3841 12.304-7.5885 7.4814-5.3647 5.8265-7.6817 10.651-29.169 12.411-14.654 4.4683-4.328 4.9464-9.691 3.8334-14.794 2.3022-8.8417 0.8512-6.8774-0.7729-7.1415 1.7766-5.2867 5.0701-7.0033 10.295-17.56-2.7041-3.2768-4.7918 1.7478 4.4827-11.408 9.1962-5.5503 11.888-7.931 9.6301-9.3847 8.3996-2.4596-0.303-9.722-11.651-8.71 1.8612-8.761 5.7233-4.3046 11.983-10.11 3.2936-17.683-13.588 6.925-2.1167-5.5338 14.019-9.0416 0.6802-4.7298 5.7193-15.783-3.7861-5.1319-16.896 0.1239v-2.0858l-3.2151-2.5039 0.711-7.5122 7.8525-4.3902-7.0796-15.179-3.5861-20.791-1.7313-9.9858-2.4423-7.9596 3.9881-10.14 0.7728-6.8322-2.3186-7.1887-3.3388 1.0677-11.082-8.1616-5.5193 1.3767-2.735-4.0828-5.4266 7.1746-4.4518-3.6503-4.0643 3.3099-13.634 1.5459-3.4006 1.5766h-5.9666l-2.8133-3.4791-9.5074 0.8347-2.7515-9.4599-1.2366-3.9262-4.9155-7.0179-7.9596-4.8844-5.4885 0.6348-7.0177-0.6801 4.2209-9.3654-2.6442-10.744-1.9786-1.3438-4.6063-7.9451-3.9716 1.113-1.2531-5.6265-2.3021 1.2675-2.1497-9.8167-0.742-3.0915-16.925 0.5255-3.8191-3.3367 10.326-11.84-3.9572-6.2138-3.1986 1.5745-14.608 9.1817-5.6719 3.5717-7.7762 3.5697-7.1413-1.7622-2.3187-3.9716 1.6859-6.8938 4.2045-0.7894-7.0033-8.2071-4.8537-1.051 4.5136-14.254-8.8417 3.5408-4.0334 2.8587-4.8537-5.1628-2.5494-6.8324-10.744 2.3497-2.6732-5.6719-1.7333-4.4517 7.0033-8.611-2.195-3.3698-4.0333-0.4019-1.7313-8.8726z" fill="#80ff80" fill-rule="evenodd"/>
</svg>
