<svg width="527.27mm" height="412.37mm" version="1.2" viewBox="0 0 6227.7 4870.5" xmlns="http://www.w3.org/2000/svg" xmlns:xlink="http://www.w3.org/1999/xlink">
 <path d="m2862.4 2407.3-11.36 10.587 2.5042 5.4883-2.9844 1.6221-5.8264-5.0225-8.1308 2.0855-1.964-4.9917-4.0498-0.028 2.1949 6.6447-16.43 8.984-0.03 7.0507 0.03 0.025 1.2675 3.5696 15.705 0.4184 0.2001 10.526 5.9667 5.9832 1.2531 1.8384-0.4019 6.3995-15.196 4.9154-2.7658 2.937-3.6952 2.9677-4.3735 1.0059-1.9025-3.9427-4.8372 7.2958-5.3174 0.4184-11.239-1.3911 5.3341 8.516-0.2001 6.6016 4.3591 0.6182 0.7564 6.2448 4.0808 5.3483-3.1369 2.5495 1.7457 3.0606 5.4886-3.1368 9.9854 11.222-10.356 0.4019-3.5552 6.4301-1.6077 3.0916-2.7988-0.3257-5.0537 2.9061-4.3137 5.6739-6.5231 1.0201-2.3948 0.5711 1.5292 4.3282-5.3174 4.1116 5.3959 5.9543 1.3169 11.133 1.1437 5.1176-4.6062 6.692 5.9976 8.6563 3.7406-1.653 0.8347 7.8524-0.4019 10.309-2.5516 4.9772-0.2329 6.6158-0.8657 4.3755 11.146 2.0096 1.8693 14.761-6.5231 2.4733 1.4696 6.0285 7.4032 2.8605-14.53 21.902-3.4152 0.5111 1.5765 14.73-9.7547 12.537-0.1545 8.887 3.0153 11.562 5.6243 3.6314-1.5147 13.99 10.773 19.368-9.6147 10.109 8.8893 6.5085 1.282 5.3629-8.6872 10.666 0.6182 0.7111 5.9668 6.6323 4.1116 2.0711-8.007 8.2524 0.5111 8.9984 2.7513-2.1023 10.711 7.8669 9.7073-8.9488 1.962 0.8203 5.272 1.6054 7.1725 0.4802 6.6302 12.954-28.658 7.3267 5.6884 14.145 4.4517 2.1023-2.2259 6.2283-12.242 3.8954-0.9894 5.95 2.7372 13.605 5.5336-0.233 5.7193 0.4637 5.503 1.3603 3.2151-2.0734 3.8953 0.7131 5.7193 5.7193 6.0285 3.6933 0.035 0.058 6.6447 2.4774 0.7564 1.5623 7.4197 15.427 5.8593 3.4149 13.339 5.2556 14.53-17.76 8.6419-3.2936 0.5564-4.9608-4.4682-4.3281 6.5704-8.3018 3.9716 0.1722 0.2026-13.015-5.2865-7.9452 5.5296-3.0915 6.3519-3.7859 16.54 2.9038 10.233-3.2604-0.1064-4.4829 10.357-4.0498 4.2496-0.4802 9.0891 7.5453 7.2031 1.0512 0.7276-4.3755 7.4197-5.0557 4.8681 3.8191 6.8014-4.9464 18.178 1.6837 7.6526 5.7215 10.682-1.6241 2.9659-9.353 7.3123 3.0918 7.0486-4.7301 0.8347-5.2865-4.901-9.5672 3.7738-11.098 2.0073-2.9061 2.5207 0.4781 10.666 2.0241 7.1889-6.1974-0.6182-4.1593 14.097-7.3414 14.375 9.4437 4.1881-3.4461 14.827-1.1604 4.2332-8.0214 14.483-4.7918 8.58-4.8393 27.776-9.4745 4.8848-10.418-1.484-7.1725 8.3944-0.1545 6.0121-4.4517 7.7453 5.7502 9.4125-0.3566 13.541-3.1224 0.1393-5.0061 7.8668 2.4875 6.1521-1.9785-0.079-9.7073 5.8594-4.3426-0.6182-5.4721-4.4064-5.3194-5.6884 2.1806-22.939-9.7238 1.8712-4.1119-5.5029-2.9058 10.233-5.5175-2.3044-6.1974-13.664 4.4044-10.913-6.4302 3.339-7.2652-2.4113-5.1937 8.2542-4.1261-2.0712-2.2258 3.108-7.2199-4.2046-5.5027 5.6575 0.6944 5.0846-9.5982 6.2778 0.8821 7.4196 8.9635 8.8561-3.5696 8.1164 4.1734 0.278 5.9049 9.4128 5.9047 4.5753-0.079 12.475-10.118 14.592 7.7846-0.1722-11.995 5.641-0.4947-2.7514 12.968 12.552 3.479 2.5824 3.5552-1.9478 4.1116 11.237-3.1697 6.9414 10.758 6.0283 3.2009-1.5436 14.163-12.331 22.022 1.2201 4.73 6.585 2.1023 24.777-9.8929 1.5788 2.3497 0.2001 13.401-5.6884 3.9735-7.0177 24.376 10.606 5.5954 5.4389-0.6326 10.48 7.0486 7.2981-1.5003 4.3591 5.1318-1.2367 5.4576 8.5449-3.1533 9.1982 4.9608 10.45-2.1476 3.5696 0.8965 9.3671-26.725-4.1818-0.3875 2.1148-2.5925 4.0272-0.9379 3.4149 1.4943 0.8367 0.3791 2.6072 2.3806 5.9276-1.8982 6.8588-2.6092 4.483 0.7088 7.7989 2.3806 8.0502 3.5449 5.8985 2.6072 4.9878-1.6695 4.0004-2.6092 3.5696-0.228 4.4826-0.2279 2.6072-3.7986-0.2536-6.861-1.4179-3.7717-0.7067-4.2539 2.3782-3.3182-3.0894-1.6446-1.6448-2.6094-1.1913-3.5427 1.1913-3.7984 2.6096-3.7738 2.3532-4.0252 2.6075-4.7341 0.4802-3.7738-0.2509-3.7963 2.3786-4.7362-0.2536-4.4806-1.1643-3.545-2.127-4.2537-2.8608 0.4553-0.9357 3.5448-0.7088 3.7986-3.5452 0.2254-1.1913-2.8339-3.5426-3.5448 1.8981-3.5451 2.6072-4.9628 3.2913-4.5075 3.3183-3.0626 3.0874-1.6715 4.9631-0.7091 0.205-4.5465-8.5489-8.9303-4.7609-2.8608-10.21-9.9091-8.6417 1.6692-2.3371-5.3503-4.0089 2.5032-1.2798-4.8218 8.1306-2.2258 5.3319-6.785-4.2497-2.2733-19.013-0.4328-14.653 5.9523-3.2484-0.4802-3.6625-12.706-5.9045 8.378 3.1059-7.8216-4.6825-2.566-0.804-9.9547-15.194-20.171-13.063-0.046-6.3068-4.1116v-8.3326l-2.9059-9.0583-6.3521 3.2463-0.3422-3.6935-10.124-3.3551 4.7301-5.3939 0.076-5.8902-8.3428-0.1646-4.73-4.0025 2.3329-5.4432-2.2567-1.8693-4.9155 5.6719-5.9502-5.3462 6.0285-11.517-3.4625-5.8285-5.0246-0.4327 4.0807-11.669-8.6254-5.7668 1.0368-8.0523-1.655-6.1521-5.0537-0.03 2.7825-4.3591-5.874-3.075-4.5136 4.0643-6.9868-8.6705-1.3602 4.7442-1.3767 5.2412-8.1144-0.9584-4.5444-6.0449-9.7691 3.0606-5.4886-15.117-9.2744 5.4265-7.4959 13.108-7.6218 5.7028-5.6884-0.5399 0.8824-5.7193-7.0177-0.6658-5.2414-13.634-3.5697-0.7109 0.6289-12.156-14.268 1.2675 1.0675 3.6791-5.3647 1.0057-13.246 7.0177-8.9344-0.7276-9.9712 4.2972-5.1464-11.669 4.359-4.483 0.6803-8.7798-13.139 4.3735-4.1573-7.8525-5.8757-0.1697-1.2347 11.717-5.6883-8.9346-5.9047 2.6133-1.5768-5.9046-6.3542 2.2712 4.0357 4.5135-13.496 5.0702-17.172-1.9787-4.9154-1.3438-4.2519-4.53-11.284-1.9002 0.9583-11.362-3.2624-1.144-29.94 12.026-18.04-5.1485-0.5091 3.988-5.6719 4.4662-14.483-0.2001-2.0711 5.1938-5.3486-1.2676 2.1785-4.8083-3.4934-0.5257-6.6611 6.1521-10.806-1.9785-8.2544-6.3066-2.8587 3.6479-4.8393-4.6373-3.1368 3.8789-18.518-1.0181-6.3995 0.2279-2.4586-8.7799-7.3888-0.913-6.6467 3.5717-2.0714 5.6884-2.4568-3.85-5.4883-3.246-3.1989-12.628-19.384-6.5086 3.0915-4.3735-3.6026-4.2352-4.1569 2.2258-0.8348-4.8227-7.9927 4.0498z" fill="#8080ff" fill-rule="evenodd"/>
</svg>
