<svg width="527.27mm" height="412.37mm" version="1.2" viewBox="0 0 6227.7 4870.5" xmlns="http://www.w3.org/2000/svg" xmlns:xlink="http://www.w3.org/1999/xlink">
 <path d="m2759.3 1828.4-6.9279 6.9688 2.3351 1.6386 0.5708 2.4589-0.8203 2.0237 10.666 11.346 5.0082 13.069 3.1223 10.612 2.4115 2.5042 0.2637 3.9262-2.504 2.0567 0.8203 14.437 9.1342 11.268-8.8581 8.4707 4.359 9.8764 11.748-1.7765 2.1497-3.6315 6.0903 8.7632-1.886 3.4007 2.7351 4.5447-0.046 6.6302-5.1938 9.3692-2.8608 4.4518 4.6538 13.294-2.2258 15.07 4.7156 15.952 6.8445-1.5003 16.094 18.211-1.4529 4.7589 1.0345 1.1131 11.978-2.6423 25.148 0.6636 20.299-13.184 8.4068 0.911 15.905 1.4076 12.197-21.548 8.5657-1.4365 3.244-0.081-6.3046 30.328 30.204 14.825 8.5015 10.016 2.0218 5.8264-1.5581 10.28 8.8088 7.5744-3.753 2.195-5.9214 2.026-5.3936-0.1545-11.162 1.4076-4.0498 4.2188-23.848 8.0545-13.327 12.968 0.2639 2.9843-2.6896 7.6195-2.0734 8.2997 3.5861 3.6502 10.39-1.5623 12.024 5.3338-2.2567 10.031 11.422 6.1521 0.913 2.4589-14.083 7.1867-1.7457 9.0437 3.5243 2.1476 0.7729 11.006v0.025l-5.8264 9.3239-14.932-2.8749-12.29-10.34-15.812 16.2-0.025-0.1241-9.6146 2.5495-14.578-10.68-16.585 1.0657-2.335 6.3849-9.12-4.5919-7.3887 4.0354-9.4743-5.1628-4.8228-16.447 4.7754-8.5945-3.8953-5.8141-21.933-3.4151-0.1722 13.695-3.7406 0.1393-1.0966-7.1271-6.6632-6.0739-17.9 4.9611 0.046-19.971-13.862 3.4172-5.2103-0.1697 2.7061-8.609 6.8632-0.5419 3.1224-9.8929-6.3706-5.3483-18.145-1.9002-8.1946-10.002-15.874 0.5729-0.2508 0.025-11.191-0.03-1.0059-10.216 0.8821-1.9024 13.339-4.2043 0.2-3.1224-2.1476-4.2808-16.88-5.4412-3.0462-8.7034-20.589-16.371-1.9622 8.378-15.798 2.8608-2.7678 6.5231-4.1881-1.4388 1.1584 21.115-21.919-12.937-15.441-6.3848-4.6539 10.449-11.191 1.8098 0.094 5.674-4.8537 0.073-22.986-2.7207-1.0201-9.7382-15.626-6.7085-4.761-13.494-7.1107-1.051-4.9628 10.666-4.6516-0.3092-16.663-16.525-5.3176-1.2675-6.1068-1.4365-9.9236-12.768-5.5483-15.365-13.866-7.3267-4.1572-16.88 13.695-13.804 21.734 12.073 2.7513-4.4518 21.377-3.7264 8.2544-15.766 14.701 5.1935 3.1989-5.7811 1.1293-2.473-0.6968-8.1308 1.2058-0.742 7.0486 1.0203 1.7477-1.1893-2.9223-17.622-15.688-7.5288-2.3494 0.5111-2.0096-2.8299 3.5388-12.257 19.631 4.4829 2.504-6.5396 1.8406-3.6935-5.0557-2.5039-1.0655-12.228-1.0822-12.659-8.6727-2.9225-2.4257 4.5611-4.3137-6.1379 8.0854-11.222-6.183-8.7017-2.5206-1.3149-0.3237-11.129 5.0535-5.3485-4.5444-5.441-3.0297 6.9415-4.0952 0.3855-7.0033-7.698-4.9916-0.8801-5.4268 7.3579-0.046-28.535-7.1867 4.6826-2.799-9.0581 17.453-8.3306 8.2997 0.2927 7.8525-12.782-13.648 0.9419 4.1569-9.5981-4.0807-1.284 4.7301-4.6991-3.1059-4.4971-3.2936 4.4352-8.9962-8.547-11.995 2.1332-4.5754-9.862-10.418-2.2877-0.6327-9.6455 6.9704-11.902 0.2305-12.119 0.094-19.693-3.6953-14.839 4.3282-7.1579-0.1241-3.817-0.9583-1.3767-7.8834-4.559-1.824 5.2391-3.5861 0.062-4.5588-3.7861-10.713 1.5458-1.7477-14.423-3.4625 0.078-1.4674-5.1484 2.1641-3.4769-6.5684-6.2923 2.5183-2.1166-2.1473-3.479-0.8821-4.0334 7.5741-5.9213-5.503-13.108 2.6896-7.6504 3.3389-0.1401 0.1697-9.3652-15.565-7.1888-3.3245 0.5565-6.9251 7.1414-15.117 2.1496-1.5768-8.2708-7.5123-0.54-3.0915-3.9118 2.026-6.8157-4.8083-2.5516-15.859 2.9844 7.4196-15.519-5.6719-10.171 2.0856-16.88 5.5339-2.6588-7.6195-1.5931-6.2924 3.479-6.5064 3.5387-10.697-2.4423-11.27-6.6467-12.953-2.5351-6.2757-8.5161-12.892-1.4076-5.039-3.7716-0.1241-6.2449 8.2544-8.0524 0.9583-5.4719-5.1626-5.1175-16.214-2.6896-7.5123-12.953-6.7397-4.9011-14.808 5.5338-5.7666-1.1439-1.4674-12.859-2.5351-4.899-11.222 1.5313-5.4412-2.535-1.5766-6.1995 6.6921-9.3817-3.848-3.7263-11.857 2.5041-8.609-1.2366-10.558-9.5219-7.0795 3.4007-6.9395-1.4221-10.311-11.268-7.9905-7.7144-11.61 1.9168-13.988 4.7774-15.536 5.3174-5.1629-5.7049-18.054-20.991-0.9727-14.252 12.118 3.6026 8.4854-1.5148 3.5861 3.5552 21.657 1.2511-0.1089-14.05 6.8465 0.5255 3.339-2.6133 17.034-21.655 14.206 0.6184 3.2154-0.1877 5.4409-10.155 8.9488-8.9654 5.2556-1.3602 8.4874-0.7729 15.241-13.943 7.5268 1.8384 4.3755-3.6933 12.304 0.711 6.0738 9.2272 5.2412-0.9275 0.079 7.9452 18.502-5.7337 7.096 2.1475 11.593-1.6694-11.191-14.328 7.8051-0.2021 14.176 3.5243 14.452-17.08 7.8999 2.1784 12.875 1.3294 3.4623-7.2032 3.9262-8.176 4.2046 0.062 3.5408 5.0082 2.937-4.561 4.7918 0.6801 2.2712-13.139-2.4259-8.0688-3.9262 0.1091 0.1545-6.4303-3.6482 0.6801-3.6788-1.5932 0.4781-3.1533 6.9251-1.082-1.1893-3.8644-0.3401-10.882 12.057-9.2127 2.7389 0.1565 10.171 12.768 3.8478 2.9369 1.0512 13.246 9.7856 2.1188 0.3381-3.7408 8.4253 1.0037 2.5351-6.1665 4.6062-0.9893 5.4268 13.308 6.3519-1.9168 1.0822-6.3376 8.6869 0.542 6.3069-2.5041 3.9406 13.864 5.674 6.9106 14.004-1.8549 11.068 5.5029 24.007 12.582-1.6715 8.4852 6.3066 4.0808 7.4052 4.19 4.1592 13.37 16.894-1.9168 4.5446-3.9262 13.093-0.2472 23.572 12.15 8.4397-5.6739 16.554 3.6171-3.8934 9.6455 8.5327 4.1426 24.901 2.1641-6.9086 14.746 11.377 7.1105 15.919-3.7552 11.748-3.0462 2.1023 4.6373 7.6524 7.8215 5.1175 0.5874 0.5235-5.2226 5.27-3.277 7.1866-0.2926-2.0093 4.7753 7.6977 0.5256-0.6017-5.1938 5.4718-3.0297 7.6198 2.1806 0.9892 3.6624-10.048 7.8834 8.8253 9.3673 2.939-1.7766 7.603-1.2985 7.467-10.789 10.433 17.931 15.21-4.3137 4.0972-9.5363-3.3843-13.386-3.6479-6.8487 7.1104-0.54-0.9747-11.284 3.0297-2.7061 6.6158 1.8405 6.8797-8.2235 10.356 2.5042 1.515-2.3805 8.5324 18.533 8.5327 2.164 4.2043-8.4233 4.6065-19.678 7.1413 0.5565 9.9074-10.295 15.01 4.8084 7.5741-2.566 10.078 22.212 5.3627-2.937 0.9895-9.5981 12.119-13.681-1.0819-6.754 6.5086-0.5564 2.0712 5.7955 8.0834-1.3293 8.4253-15.534 6.2139-1.5622-1.7786-12.195 3.0606-6.7704-3.0606-0.3401 3.5408-8.6562 5.9338 0.7729 4.7298-7.1888-0.2001-6.5684-3.2151-4.3899 9.8474-7.5907 9.1653-8.1452 6.7394-7.636 5.9358 5.0845 3.0462-12.442 3.7718 2.2877 4.4517-8.3635 16.508-11.995-6.863-7.667 3.0442-9.4291-9.7529-2.9987 4.3899-6.1357-0.6182-8.0379 16.492-4.6063-1.8551-10.14 2.6442-6.9724 18.024-14.761 3.3665 0.4807 8.0543 0.4163 4.1263 4.5754-12.242 14.454 1.8858 2.9369 3.6952 1.0346 1.3605-6.2757 19.291-4.019 1.9475-3.0915 12.459 4.9464-1.284 9.4291-4.8846 8.9036 5.3338 5.1937-6.8012 17.267 1.5459 1.9003 3.4623 1.5457 0.2783-9.1343 15.118 5.1628 13.339 3.9406-0.8801 3.2152-6.2757 0.7894 6.4302 7.3268 17.158 7.836 5.7958-3.9407 1.1437-10.095 14.485-14.901 11.391-1.9476 11.393 7.3434 7.4959-3.85 0.6349 9.7074 1.3129 11.517 4.7298 7.2485-2.5039 1.284 12.29 14.328 4.6516-0.54-0.228 5.0845 6.414 6.8941 0.5564 13.943-3.6026 15.798-10.231 17.514-11.393 12.768-25.041 24.856-2.8297 11.082-0.1823 3.8808-0.9275 28.844 3.5717 11.36 5.6411 17.793 10.325 3.0606 2.5351 1.9167h5.3319l10.497 8.3162 6.0285 4.2807 16.354 6.4777 5.3647-15.983 5.4721 0.6018-0.913-17.605 5.7976 1.4221 3.3389 8.3306 2.0836-4.188 2.7225 3.277 10.899 5.843 2.6278 15.365 5.3938-3.1698-6.9395 31.472-8.2234 17.174v0.02l-6.2448 5.7337-13.943-5.2556-10.573 4.932-8.7799 7.5268-3.8954 3.7717-10.497 12.073-10.202 4.5755-8.4111 2.2568-11.158 3.0132-1.4674 6.0903-2.5207 6.6776 1.962 10.418 1.5479 8.1781 11.451-2.0569 3.9571 24.238 1.7931 7.9142-5.5957 9.4291-12.193-2.195-5.7193 1.7004-0.5896 6.8013-16.989 0.047-9.7217 5.0392-0.1241-4.4518-4.6063 0.3855-1.7312-3.7408-5.3176 4.8702-4.3447 11.422 10.404 8.7964 9.3198 7.1723-0.2616-4.3591 6.1521 5.2865 5.5648-3.4624 11.686 10.264 7.9143 7.2341 4.8681 12.968 19.957 4.0663 14.297 3.2461 8.4874-1.0511 0.4328 7.5577 15.241 0.2185 6.5993 7.8979-3.2297 3.7881 0.8038 3.8932 4.2355 10.138-3.71 15.072-10.218 6.0594 3.308 8.5326-6.7849 2.6896-7.869-1.7477-6.5066 5.0082-2.473 14.53-2.8444-2.9988-7.4196 9.5528-7.096-0.2617-7.1867 11.377-11.037 3.6789-4.5612-2.3351-5.0843 4.1591-13.061-3.2626-3.85 5.6122-4.7465 0.6636-7.7431-2.4732-6.3851 3.5717-8.069 1.7622-2.1329 9.9237 0.5873 4.1736 20.868 5.5647-4.5138 6.3067-1.4365 2.4258-8.5633 13.372-9.4766 3.8788-6.554 7.6361 4.0354 5.1793 4.7609-0.8821 0.9584 8.178-4.3591 0.2927-3.2151 5.1319-13.788 3.5408-3.3387-2.1187-8.982 8.7181-2.1476 7.978 0.371 5.0064-4.4517 1.3603 7.3578 9.9544-3.3574 4.5095-1.3149-2.3041-15.674 15.474-8.7631-1.7169-8.069-10.604-2.5042-4.39-8.6107-5.5956-6.4614 0.7111 0.2508-8.7016-2.5805-1.2509-3.075-5.4371-2.3948-0.8307-0.2639-2.0445-0.8902-2.1104 1.3192-1.22 3.4283-1.0358 1.378 1.1144 3.1452-7.4858 6.0758 1.2407-2.8656-5.7563-11.642-6.177-6.3045-6.4345 0.5551 7.4412-3.324-0.093-1.2192-5.6339-9.3302-6.2048-9.3674-3.0524-5.9007 3.3141-0.8841 3.4646-1.1053-0.693-2.9968-1.8755-1.7622-0.2643-0.2152-0.828-1.9607-0.1284-5.3868-4.5495-1.0986 0.3627-1.1979-0.3639-2.0116 0.5277-0.8467-2.9998-2.106 0.3251-1.0705-0.1283-0.5276 0.9233 0.2305 3.1657 1.3673 2.1667 0.3627 4.2601-0.4108 2.4437 1.6968 1.5464 0.1317 1.319-3.0008 1.7807-3.3964-0.062-4.6827-1.585-2.3743 0.8904-1.653 0.926-2.37-0.4973-0.2968-1.8157-0.6927-0.7234-1.8287-0.1634-0.9893-0.4617-0.4135-0.727-2.1585-1.0537-0.9566-1.286-1.0771-2.604-0.9563-1.8467 0.5506-1.0562 0.066-2.8361-0.5927-1.5827-0.066-1.2861-1.5168-2.9348-2.1765-2.1105-2.0116-0.3628-1.7148-1.3519-0.5933-1.5499-1.6161-1.319-0.099-1.5172-0.9234-0.7254 0.1646-1.6818-4.023-3.2317 0.099-1.1871 0.6595-0.8574 6.2002 0.5938 0.6266-1.3191-0.9568-0.9235-0.7581-3.0667-1.4508-2.0114-3.1333-1.0225 2.8357-6.6281-7.287-5.3421-6.3975-3.1657-3.7261-0.9563-0.2639-0.5936-4.122-1.1211-1.3192-0.8904-1.0556-0.3959-2.1109 0.1651-4.7478-2.2093 1.0216-3.7923-1.484 0.3627-0.7914 1.1872-0.9232 2.3743-1.2197 1.517-3.7598-0.1322-0.6919-1.2529-1.1217-0.1652-2.4398 0.7587-1.1217-0.066-0.3956-1.4509-4.4512-1.253-3.6606 2.9349-1.9126 5.606-0.033 2.3083-2.2872-1.0214-13.278-0.9573-0.8246-1.3521-0.1317-3.0008-1.2199 0.1648-0.033 1.5499-0.7263 2.836 0.8912 2.7699-0.033 1.4181-1.0551 1.1211 1.6814 3.2977 1.2204 0.7914-0.099 0.9893-1.8799 1.0222-2.6711-0.033-4.6166 1.0882-3.7816-1.284-1.3957-1.2222v-1.9435l-1.1212-1.0882-2.9347 0.8574-5.8368 4.023 1.187 1.1212-0.2968 1.7807-1.0222 2.5392 2.3085 2.8359-0.4288 1.1212-1.5284 1.1851-1.8796 2.7699-0.086 2.0137-6.6283 3.1327-0.7696 0.7894-0.2178 2.5082-0.5969 1.5829 1.2214 3.5614-0.9988 3.5264 0.4264 3.7263 1.7944 1.8487-0.7562 2.4073h-2.1593l-4.0539 6.892-0.78 5.3113-1.6624 3.4935-2.4072-1.55-1.965-2.4052-1.8272-0.6286-1.3851 1.418-1.767 3.2336-1.519 0.4617-1.3615-0.9583-0.7778-1.694-4.3294 1.1705-12.688 10.552z" fill="#80ff80" fill-rule="evenodd"/>
</svg>
