<svg width="527.27mm" height="412.37mm" version="1.2" viewBox="0 0 6227.7 4870.5" xmlns="http://www.w3.org/2000/svg" xmlns:xlink="http://www.w3.org/1999/xlink">
 <path d="m3989.7 2214.7-5.3832 7.1765-10.305 22.939-6.4057 9.6475-26.332 10.052 2.8443 3.2318 0.6037 15.936 3.37 8.5328 4.3736-1.9623 10.713 9.0273-1.3908 8.2853 3.0914 6.4611-0.3259 2.257-0.1367 0.046-3.0297 1.1128-12.335-4.7919-4.5755 3.7718-0.8347 6.3828 3.7613 5.9604-1.6137 5.742-3.8954 1.1131-4.901 0.5091-2.2712 11.686-7.1888 18.318-0.5092 0.025-2.125 0.1393 2.125-0.1368-1.3416 10.202-3.3923 7.2671 4.0498 6.2532 8.584-0.028 4.3033-0.8861 1.1913 1.3169-0.6841 4.0767-10.077 3.621-0.8117 1.6449 6.6859 10.28-0.2279 5.367 18.535 1.4694-5.6222 6.5829-2.4816 4.355 3.9508 11.317-0.8368 1.8736-6.7845-0.3297-0.3299 7.875h1.1913l5.1134 0.051 4.6082 0.048 8.5574 6.8115 7.471 2.43 0.5299 2.3289-5.4927 12.508-9.4701 4.2539 1.6465 12.23 4.3034-1.1645 8.3554-2.2547 5.546 4.532 5.0374-1.2407 11.849 11.129 3.9754 6.418 10.305 10.431 8.4071 3.9241 4.5836 19.143-0.9894 0.7088 0.051 0.028-7.3435 5.6719-5.7712 0.1013-2.178 11.47 6.6836 2.6338-8.7593 15.266 14.203 9.4186 5.2678 12.432-1.241 9.0149-8.0005-2.9885-0.1773-0.051-0.076-0.028-1.8487 3.3946 0.4555 4.4044 7.1391 9.5959 0.3053 10.027-5.571 4.7858-4.5323-3.6213-1.1889 0.2783-9.7983 15.571-24.586-2.0754-1.2656-0.9872-5.9255 7.292 3.343 9.1137-3.7222 4.2539-0.1773 0.2279-0.6595 0.3546-10.177 5.4946-16.307 6.455 3.8748 24.841-6.0758 9.5714 0.1493 2.4031 14.027 17.317 5.8988 13.116-0.1013 11.445-12.051 15.241-14.965 7.2672-7.6957 13.928-0.837 0.5295 1.2676 7.4176-0.051 10.381-6.2284 12.255 0.4039 16.484 6.3047 3.4688-1.1376 9.9753-9.2169 24.66-18.712-0.6058 0.4822 8.8108-0.9377 0.7585 11.496 4.0334 12.074 12.751 2.7041 0.7109 11.346-5.27 5.2245-16.043 5.5645-3.172 13.805 3.7717 10.68 1.144 9.0129-2.1312 3.1678 1.9002 0.9583 11.5 5.8472 3.6173 6.6859 9.495 13.8 12.001 11.494 16.383-0.051 1.5684-4.231 2.1021-7.8999 3.9242 0.7871 8.9407-5.2678 6.5829-1.7974 8.8581-10.152 12.459-10.709-0.4288-6.9129 2.9347-0.6345 6.4056-4.3303 4.0253-7.0115-2.1023-10.787 8.0525-6.7086 4.8124-3.9241 2.8091 5.0884 8.609-0.1492 1.2652-3.2934 1.317-7.3167-4.936-3.4686 4.9608-0.6575 8.4565 3.5696 9.4454 3.5203 2.7329 9.9239 0.6843 8.9879 16.457 7.2424 6.7108 8.6087-9.2933 10.532 4.7096 10.736 10.608 0.9107 10.28 3.0401 9.4186 6.354 6.3048 15.775-1.3665 7.6463 12.257 4.3036 8.4048 13.596 8.7594 24.736 25.319 5.165 10.433-0.048 4.2002-3.6462 11.167 1.1893 14.711 10.66 10.458 10.153 5.4164 4.9895 9.4951 20.052 7.9512 11.673 3.1925 2.8854-2.2322 2.6072-9.569 9.0912-12.506 14.305-9.4209 4.5323-14.483 12.786-15.571 6.2777-5.4678 12.408 2.9864 3.6459-12.179 1.9744-1.8485 8.584-1.4945 11.039 1.1645 5.571-4.7835-2.5332-8.3038 4.7608-3.0401 3.4686 3.0133 8.0009 14.609 8.3554-3.5925-6.0015-19.901 3.5696-8.1802-0.027-3.6973-7.4447-6.1521-21.976-13.774-5.8738-14.18-1.0637-8.9881-8.1531-19.268-9.7734-5.7729-8.71-9.4186 0.4556-0.8596 11.47-18.155 5.9251-5.6451 4.8619-4.633 8.2028-8.609 3.1903-8.0771 0.076 0.1292 20.913 4.4309 11.9 1.2162 4.7092-1.8736 0.2279-0.1013 3.5942-18.079-2.6318-14.406 6.455-18.331 12.306-21.319 7.9246-10.406 9.9509-5.5339 2.0504 0.6719 2.1662 0.5957 18.316-0.9502 2.9905-2.9616 1.3645-18.205 0.307-16.812 13.011-12.331 15.496-2.937 0.3279-7.8751-4.7588-8.5572-1.5459-2.7846-2.7558-10.866 8.8336-7.1309 14.946-6.925 19.582 1.1748 17.252 6.7559 12.226 21.146 11.655-1.2222 38.751-13.572 13.912-8.0216 6.8034-17.947 5.3461-11.624 2.8753-6.2759 1.9021-19.955 17.529-17.498 13.819 2.333 8.1305-8.0832-0.6797-1.9475-28.255-11.501 9.7156-10.222 19.167-14.584 11.952-12.028 23.9-7.6194 10.863-6.4325 0.3796-0.7582 1.8487-3.8748-2.7868-19.268 0.7854-7.8484 6.4057-14.002-2.7328-14.963 1.1127-9.3695-0.4309-5.443-5.443 0.305-14.027 5.138-6.2798-0.278-9.4684-4.3034-12.306-2.2796-4.2784-2.3041-1.7211-8.0008 1.4179-4.3034 7.1641 3.1635 5.1668-6.3046 5.4187-11.748-6.2798-12.304-4.3057 0.8864-3.7965-0.5318-7.8749-1.0903-6.3516-2.4052-5.7236-4.3054-1.4426-7.4444-1.7211-7.1393-4.5836-7.1661-0.2782-9.1654-4.8619-5.9996 5.1401-8.8871v-4.8617l0.3049-5.4432 5.1381-6.3046-10.859-18.028-6.0285-5.443-6.8609-11.167 1.1397-5.7212 5.4429-5.7234-3.1636-7.4444-4.0521 0.6326-3.3923 0.507-8.8623-9.1405-7.1661 4.5588-6.2777-10.002-5.443 5.443-4.584-1.4426-2.5822 3.7221-6.3047 6.3046-9.1409 1.1396-8.8869-9.7237 0.8638-8.0255-0.8638-6.5828-4.2783-7.4445 1.4179-5.1649-4.3057-8.279 0.3052-8.887-5.4433-8.5841 2.5312-10.152 6.9639 4.9114 10.025-0.3277 4.7858-5.0393 0.051-0.076 0.6328-16.686-1.216-8.2792-5.4946-9.6207-14.077-5.5709-9.798-13.646-12.102-10.155-11.167-1.2903-13.015-1.4942-26.154-7.4939-25.496 2.5062-16.002 6.5067-4.4043 7.9246 0.6057 9.2168 1.241 18.862-3.2153 2.0509-12.964 0.152-22.787 6.5581-2.7101-5.1401-3.2154-0.1292-10.253 7.469-10.61 11.824-2.5559-0.1013-2.6855-7.09-2.1517-0.3051-22.964 9.3694-9.0912-5.3173-7.9492-4.6579-7.7473-10.763-4.1284-1.1376-4.1773 0.4802-17.799 4.4312-0.024-2.3289-7.572-12.914-1.7458-5.5689-9.0892 0.051-5.1667-3.1389-1.4179-6.3045 2.8628-6.0017 5.3666-8.38-11.95-6.2286-10.305-2.8605-3.1657-4.2788-6.4816-17.218-5.2411-2.8359-8.8872-4.3034-4.8619-4.5588-1.9994-5.4433-1.4445-10.861-8.708 0.9355-10.256-3.2913-6.8363-8.0257-6.4303-3.4934-3.141-1.698-4.8106-2.6073-6.3786 0.3791-35.322-2.5308-5.3937 2.7349z" fill="#ffbf80" fill-rule="evenodd"/>
</svg>
