<svg width="527.27mm" height="412.37mm" version="1.2" viewBox="0 0 6227.7 4870.5" xmlns="http://www.w3.org/2000/svg" xmlns:xlink="http://www.w3.org/1999/xlink">
 <path d="m1467.4 3470.5-9.7548 4.0025-7.6051 18.734-13.03-3.6787-10.744 15.103-20.511 0.9111-5.3339-3.4008-4.8372 9.9712 4.7136 3.9262-0.8656 8.0377-1.993 3.7097-10.882 10.202-2.8297 7.0632 4.2354 2.7368 0.5729 11.608-4.1426 7.0034-8.7037 3.679-0.6327 15.674-8.5635 0.3707-5.1319-1.0819-6.014 2.5802-3.6006 6.2757-11.084 3.2008-4.3281-10.064-5.6884 0.464-16.045-4.3901-9.3364 3.0154-12.304-6.9557-3.8953-6.7397-7.3413 2.6585 1.0511 8.6563-3.8335 2.3806 0.6493 4.8848 8.007 6.3828-0.6657 10.189-6.3685 0.6493-12.49-6.8014-7.9451 2.3188-1.1892 16.062-3.6789 2.7352-2.1023-7.7291 0.8348-4.1878 1.4529-5.8451-2.4423-14.221-18.271-16.789-7.4052 8.6874 1.484 9.0436-8.5017 5.1772-3.6933 10.59 7.1414 3.446 5.7811-1.8241 2.6422 7.7763-4.4971 0.7729-1.4077 5.7503 1.5458 11.731 14.159 3.8644-4.6682 3.5246-0.062 0.6038-0.1236-0.046-14.606 12.026-3.4316 0.5876-3.6954 1.715-2.3186-7.9289-5.7193 0.233-1.4675-3.2623-1.5457-3.601-8.4254 1.1893-5.6266-5.8117 7.0487-12.892-3.7098-7.4961-4.2972 0.7564-4.899-10.078-7.4506-1.8383-9.4456-1.9643-3.2914 11.857 0.045 8.1758-10.418-0.233 7.8999 6.8487-1.5004 5.7645 1.5457 8.611-0.2617 9.7528-7.96-5.3792-6.1975 2.0859-0.1092 6.0285-5.1336 1.9638-8.9489 0.9111-5.1484 0.8655-3.7242 4.5754-3.7099 3.448-4.2971 0.8658-3.4481-7.4508-7.805 0.1851 2.9513 14.838-3.1224 1.6067 1.7787 4.3134-6.2758 4.5755 1.9312 9.4458-1.9621 11.377-12.923 1.7458-5.2411 8.1471-3.2152-0.8824-0.4637 5.1158-6.8322 6.1521 3.3244 0.542-2.2115 5.5645-12.782 8.8893-10.387-1.2531-5.6575 1.0201-5.5503 4.4067 4.0499 1.8383 0.8203 7.0631-15.798-3.2275-1.8549-5.3032-4.8083-0.2505-3.3842-5.0081-4.4827 0.094-3.7098 2.026-4.2972 4.8683-4.8701 4.0044-3.1368 1.0036-1.8858 5.8428-11.5 9.3985 0.1998 19.353-1.1274 6.9106 6.3685 10.556 5.9666-4.6065 3.8789 5.6432-3.8954-0.8347-0.4019 10.804 3.1699 1.7478-2.8298 4.4043 7.976 5.8593-3.5696 2.1166 9.629-2.8584 5.2246 7.7432 5.7667 3.1697 1.5293 6.5543-9.0726 9.9378-11.531-0.3853 0.1236 12.15 4.6517 4.59-13.541 3.8171 2.7824 6.1065 4.9773 8.269 4.1282-3.1843 11.037 12.49 0.7872 10.497-10.573 6.3378-5.5646 5.1316-13.648-0.048-10.095-16.708-5.0083 2.1949-3.988-12.628 1.3293-6.7082-5.1463-5.7976-5.5194 1.7148-7.9287-4.221-4.932 3.2934-11.037-11.733 4.7609-2.2716 4.3282-9.2928-1.3912-12.335-3.6006-3.8914-1.0367 8.1761-7.3722 6.2737-13.757-11.776-4.4682 10.511-11.562-5.7523-5.4101 1.3933-4.1571 7.5743-1.3602 6.2139v5.439l-0.8512 5.7212-0.2927 9.7547-4.4827 3.3842-4.8227-4.0808-18.596-2.1783-3.277 5.1938-6.6467-11.548-15.86-5.3319-1.5767 2.7352 10.682 6.9558 0.8492 8.2852-4.1118-1.2197-2.535 3.0438-5.4555 10.171-3.8025 5.2721 3.0441 11.408 9.4909 1.4057 4.8537 8.4561 20.249-9.6785 5.9831 4.9176-4.5754 18.069-2.397 3.8333-4.7918-0.2779 1.8549 11.469-10.958 2.6278 2.6278 5.4079-0.9584 14.116-1.9785 3.0131-4.7301-2.2874 1.2057 5.6263-2.8606 3.6955-4.6517-1.2842-3.479 3.6955-8.6707 1.1272-0.9439 7.7598-15.534 7.4795 2.9823 5.6739-16.169 5.5051-22.537-2.4137-15.719-9.6146-5.0392 0.3566 9.3818 16.093-4.2045 7.7594-6.4757 2.6589 2.8751 5.0391-3.0915 1.4675 1.6694 5.9667-3.7098 8.6871 2.8751 11.717 7.3887 6.9416 9.7218 2.3806 1.1294 6.8136 5.843 2.1186 2.4876 6.7417 5.4266 1.6198 2.0858-2.4235 2.026 7.232 14.004 7.3434 1.2201 7.6213-6.4303 4.6684 0.8202 8.8849-2.6586 5.4906h-5.101l-0.8657 8.5614 11.593 7.0321-2.3969 5.5979 1.4694 19.6 7.667 4.3449 8.0215 4.5444 3.7407 4.3733-4.1426 0.4329-6.2758 18.287-7.1723 21.84-10.309 1.0204-9.7856-4.8372 0.34-5.241-5.4101-3.8337-7.4341 3.0894-4.4064 5.5217 5.5029 5.0205-3.9881 8.7509 1.8096 5.1012 4.9299 2.9057 9.8619 0.1547 11.888-4.9611 3.9572 6.3212 2.333 13.881 5.9976 5.5173-5.5792 5.7196 14.854 4.67 0.8965 4.7612 5.5648 2.5802 1.7168-3.6006-3.6027-12.15 11.702 3.4625 8.4543-2.2735 2.1496 3.0627-5.5193 1.8241 0.542 3.2913 14.685 2.335 3.6005 10.759-2.8441 2.226 13.063 10.078-6.0594 9.9384 13.046 14.87-3.108 7.8688-18.24-7.234-7.8524 8.2997-2.8587 14.314 0.8348 7.5599 7.4814 0.4636 13.957-7.0648 9.491 6.3496-3.817 13.048 3.1059 5.9518 18.195-2.102 11.206 10.449 6.8797-0.9131 5.9666 5.0084 3.3223-1.5459 0.2783-5.1627 14.994 9.3671 6.9415 5.9356 8.2996 1.5459 9.6621 9.5076 4.5754 4.8679 2.0095 7.4508-0.078 5.6122 16.432-5.365 4.3899-10.511 9.7836-3.5881 7.096 5.6449 0.3091 6.7086 4.2189-0.1266 11.022 9.9692-0.6492 4.8081 4.0952 5.6264 5.8429 0.3545 0.5421-7.8216-6.045-2.1638v-10.016l1.7169-2.8588 3.1533-4.3138 0.4782-8.0522-14.87-8.3017 5.7049-4.0497 1.3746-6.7397 10.744-5.5173 1.5292-5.239 5.9976 2.2567-1.4675-12.504 0.6328-0.9273-4.6991-3.7583 8.7799-5.9059-7.0178-11.346-5.6719-3.6935-2.7679-9.4454 1.453-7.4194-4.2044-0.8348-4.188-7.9144-2.5825-2.2877 0.7585-3.9407v-5.7357l3.7242-3.4318 4.0046 0.2948 5.7193 2.5805 2.5803 4.2827 10.095 6.8156 2.2094-3.8954 5.4884-8.2065h0.01l7.737 9.3917 5.1484 5.132 14.036 4.0025 4.5754 2.026 6.8776 2.5495 3.1389 0.3093 2.5804 3.7259 0.7048 0.3981-0.4266 5.212-7.1723 5.5504 2.3187 2.8442-5.2865 9.5363-7.7288 5.3174-0.9274 7.8526 2.535 1.2838 7.296-2.906 4.73 1.8549-2.3949 4.7301 1.4839 0.6801 2.5804 4.0025 5.441-1.7148 3.7263 4.2973 7.1868 4.2351 5.4719 1.1586 2.3351 2.6278 5.7956-2.1787 1.824 3.0134-0.2927 4.5917 5.7194 6.8778 1.2366 2.2732-0.7111 11.655-1.3149 8.9176-6.3067-5.2697-6.4757-0.2003-1.6694-9.8621-0.7894-0.061-5.4245-0.309-4.592 1.4531-3.7242 2.8604-3.8026 5.4558v0.027l-2.3042 10.884 2.6134 13.493 1.7766 2.7827-5.1464 4.5917-2.2877 3.1367 4.0025 6.585-1.3129 6.3686-6.8322-0.3235-10.033-8.3781-15.334-5.1175-2.535 3.7408 1.453 5.7955-6.0903 6.818 1.5004 6.8177 3.9716 1.0802-1.4056 3.4787 10.742-1.0512 7.1887 3.8809-2.0259 6.6776 7.2341-0.8368 2.7824 7.8074 18.333 4.4826-6.7704-14.918 3.0771-9.8452 4.188-3.4933 2.6133-7.2509 6.2139-1.6836 5.0846-5.1938 5.1628-0.2782 3.7098-3.7243 0.8656-5.1627 4.5755-7.4528h3.7263l3.4316-4.8514 0.5708-7.4528-1.7147-6.3068 4.1261-3.3531 2.2115 3.5861 7.2795 0.3094 1.9332-4.25 5.981 1.6367-3.3388 17.189-5.9192 3.248 2.1331 3.5244 6.0738-1.5314 2.0095 5.441 3.277 3.4007 4.8702 1.7167 3.4315 3.7242 9.4436-1.1437 4.5754 0.2783-0.2783-5.7196 1.4222-1.7167 5.5956 4.4063 1.4386-4.5897 3.7242-2.3039 3.5079 1.531-2.5495 6.2223 3.85 4.7302-6.1995 5.9519 1.8404 3.9406-11.053 13.496 1.2057 10.433 7.498 2.5353 4.7918-4.1264 4.2972-0.2779 1.4221 6.8629-3.1389 5.9975-2.2877 8.2997-2.9679 7.2961 4.6064 2.5039 3.3079-3.2913 7.4506-0.4184-5.0537 4.4208 1.5149 4.4067 6.0429-0.9583 2.3495 3.1059-3.1843 10.418-10.264 9.3053 6.1376 11.022-4.0499 10.48 7.8834 6.7539-9.2746 5.5503 0.7729 3.37 6.7539 7.8668-2.8751 6.9247-6.5849-2.8749-4.0024 4.0045-5.4411 3.1677h-6.8632l-3.277 6.4307 10.975 2.0568 16.832 11.624 12.723 0.046 5.4101 7.8668 5.9666 15.861 0.911 5.1158 9.1673 10.837 19.367 2.5494 7.6834 1.0657 2.4423-5.0702 7.4032 1.8569-1.7622-8.7343 6.045-0.3566 1.1892-3.7245 6.3994 0.6638 2.4423 4.1734 5.7527-1.9484 5.3365 4.7082 9.3281-4.6599 3.277-3.7719 5.1669 1.4696-3.988 5.2394 3.3079 2.1496 22.599-23.172 0.2309-3.7864 7.2197 0.4019 3.7242-3.5406 2.195-8.4851 5.7193-3.6793 14.639 3.0918 6.3685 6.4921 7.0321 1.4672 7.3125 5.4579 3.7098-1.9954 11.669 3.1847 10.28-14.298 8.9798-2.4279 5.9831-1.3436 0.8966 6.6302 10.773-2.4258 5.9522 24.423 7.2341-18.38 8.5016 3.8498 7.3104-5.9211-0.371-8.4091 4.7466-7.5886-7.4671-7.4052 0.4328-10.773-3.1842-3.3555 3.2626-8.0995 1.2056-4.8537-14.237-7.9286-0.4946-5.6885-5.5338-0.8965 0.1236-3.2627 11.208-9.1199 8.6707 2.3661 0.9893-6.0596 8.6727 1.2204-1.9477-6.1521-10.666-13.603 1.824-3.6932-5.7976-0.7584 5.8594-6.3067-1.0676-3.5389-8.2543 4.9774-2.364-7.1581 6.3994-0.1239 5.5483-6.8467-3.0132-2.6588 5.4864-20.527 2.0878-10.388-8.5944-7.8999 0.8182-11.391 7.0487-3.5243 4.9629 0.4636 1.8693-18.054 5.272-5.7503 2.2094-5.2556-1.3437-1.8096-2.6443-5.5956 4.5445-1.8383 3.6171-15.165 0.233-6.8159-4.5445-1.3149 4.1117-5.0226-0.2783-6.8467-0.8656-6.3662-8.5635-10.852-0.573-4.2828-1.6694-7.3744-2.5041-11.115-2.6278-16.105-1.0655-5.9211 1.5148-6.4614-4.8392-0.6966 0.5565-6.7228-5.7193-9.0892 2.4897-11.748 0.2474-10.326 1.0202-6.0427-7.9452-6.896-2.2114-5.6412-1.3912-4.7608-7.7597-17.22-6.3829-9.2435-0.4638-10.268-4.8537 4.2044-4.4064-8.5574-0.2165 0.027 0.2165-0.027-0.045-0.1063 19.615-15.674 2.0095-8.3615 10.126-7.436-5.0866-4.0396 3.7882-4.359-0.4638-8.007 15.798-0.1695 14.39-9.7527 3.9262 1.4982 4.7301 12.475 15.674 0.1824 2.0404-7.4961 3.6954 0.8206-1.1129-4.3449 6.152-2.5204 9.289-4.3263 2.9988 0.1699 6.1212-1.6242-0.3092-7.5123-4.4971-0.7567 0.8801-3.0462 7.4361-0.3853 2.7968-3.9119 6.0284-0.7416 2.8133 2.7038 14.608-3.3079 0.509-4.0335-3.8333-1.5145 2.5658-11.239 3.0152-2.8132-2.335-16.832-4.7136-4.359 1.6695-8.2542 10.388-0.1242-9.1982-11.826-0.402-5.9809-13.772-13.541 2.2568-3.0462-3.9736-3.1059 3.9118-4.0498-2.4114-5.3484 5.9811-1.4385-0.3854-11.392 18.704 12.675 1.0059-3.2626 5.3792-0.6635 5.4866 8.114 0.4801 11.826 4.7443 2.7966 2.5206-5.9502 8.5636-1.686 1.5457-11.531 6.383-5.9357 11.408 1.2055v4.8085l-5.5648-0.2509 1.144 9.3982-7.4506 2.7368 0.7418 3.9407 21.95-4.4043 11.115-9.8925-2.2568-5.5794-5.0866-3.7263 4.4826-3.0607-8.6087-12.537 1.6219-4.3263-4.6825 0.027-2.0878 3.1839-8.0999-9.5072-1.9785-5.7337 4.3447-2.5204-5.674-7.6507 2.9061-3.137 3.6026 3.3082 0.6944-7.0034 1.2985-4.7463-4.2043-4.4189 8.9961-6.2304 2.8299-12.723-7.7907-4.1882v-4.0045l8.7017-3.246 2.2732-14.435-2.3495-2.5207 3.4935-8.6087-12.102-9.5674 8.205-0.2154 4.9299-4.2209-0.5235-6.6303-5.3174-4.4063 5.4719-3.0607-2.8917-4.2827-3.3696 0.4947-3.3862-10.14-8.918-5.4551 3.7715-4.7754-5.6719-7.931-6.1521 1.8241 1.2964-7.8526-3.4151-2.5515-7.2505-1.3892 0.8368-6.0305-3.6956-1.6381 1.6695-6.4141-5.8429-2.7494-5.0226 3.213-1.9951-1.6239-5.3627-2.0547-1.9478-6.5067-3.757-0.4038-1.3438 3.215-7.0033-5.439-6.2595 2.8112 3.2916-11.576 2.5351-0.9894-1.8551-5.6388-8.4234-2.7393 2.1166-4.7115 2.6134 1.249 1.7005-7.1246-8.2854 0.9891-2.397-5.0557-3.1842 1.9642-3.8953-2.5187 5.2102-8.8744 3.3842 1.424 0.4328-4.9321 12.026-4.3591-2.0711-12.582-6.4141-5.5504-6.8487-3.7715-6.2593 3.8955-3.108-10.989-4.3591-0.1395 1.855-5.2697-4.0644 2.102-5.6739-9.2743-7.1723-4.0662-2.9988 2.0402-0.6636-7.3414-0.233-2.3495 5.8429 1.9169-6.4921-23.99 4.7918-1.655-8.378-4.2803 5.6884-10.373 2.9225 7.7763 7.0013-3.6337-0.5874-5.0844 4.0808-1.7167-7.9287-9.7838-0.7111-5.5338 5.6884-6.2612-2.1641-6.5232-3.3244 0.2002-4.0334 0.2151-3.2625-4.6534-2.8442-7.2179 2.5824-4.4826 5.843 1.3747 0.3854-3.8478-4.1571-2.0261 0.4473-15.037 12.784 1.4058 6.5231-3.4153 0.5565-2.906-8.4708-5.0702 3.8335-0.3566-2.5206-12.582-2.4259-8.0522-14.654-6.6775 4.5755-9.3985 6.8631-0.2151-1.1603-5.0702-6.1666-8.578 0.2927-5.0249 8.8417-8.8252-6.0429-3.8022-8.7654 1.2984-2.4423-4.9939 0.9583-4.2355 3.9881-0.447 1.3293-3.4173-2.7205-5.7192-9.0416-1.6077-0.573 4.3898-8.7943 5.5649 7.1105 7.0341-11.548 7.0486-4.7444 10.511-13.928-0.7112-8.9489 0.2003-8.3327 0.233-9.8144-6.8488 4.8536-9.5197-2.5824-5.9215 4.7465-11.315-1.4221-9.1199 0.5709-4.9321-8.6397-1.5455 6.4138-10.046-0.7111-3.0914zm-20.264 3.6952-9.2704 0.4309 0.5565 6.7085z" fill="#f9f986"/>
</svg>
