<svg width="527.27mm" height="412.37mm" version="1.2" viewBox="0 0 6227.7 4870.5" xmlns="http://www.w3.org/2000/svg" xmlns:xlink="http://www.w3.org/1999/xlink">
 <path d="m1167.5 2301.8-3.8026-6.0594-3.5099 0.7421-1.6385 5.0699-5.1937 4.0974-10.155 2.8132-4.1282 4.4829-11.129 0.309-8.7799 4.6991-3.4007-4.221-1.3128-6.1974-12.104 2.3497-11.144-8.8893-8.0997-0.5091-4.9629-6.385-10.371 1.0203-8.0234-4.0807-12.304 8.92-8.9964-0.6183-9.5218-14.578-0.5874-23.603-9.7218-3.0294-3.8335-18.209 2.1332-2.335 7.2176-11.717 5.1319 1.422-0.1689-3.6479 5.2865-1.0966 0.9274-3.4169 5.6266 0.3089 19.075-11.222-2.3042-23.898-33.265-18.625-12.875-0.3402-4.5445 9.2746-6.014-10.109-3.5242-7.5432-1.0965-2.3353 0.9275-4.9772 0.076-5.8264 1.2839-0.5729-1.253-0.3401-7.3104 1.2222-11.964-4.7919-4.9938-4.6374-6.5396 1.3438-10.233 18.302-1.6385 10.789-17.389 8.1-21.008-2.3807-6.2283-2.5039-12.984 1.9784-12.026-2.8131-11.593 1.5002-7.9308 1.3438-3.3842-0.4946-18.642-13.695-7.0486-9.9712-10.789-7.3414-8.2708-4.7607-11.979 0.5564v-0.4473l-5.1793 3.4461-4.5136 1.3458-1.5293 0.2639-1.6076-1.2676-4.73 0.309-3.7572 1.5294-2.4876-0.6493-1.453-2.8441-1.7931-0.046-0.5565-4.5138-1.7168-0.2945-3.2296-2.0549-3.1843 1.3911-1.2366 5.1155-3.2625 1.5003-2.0713 0.9586-2.5351 5.5172-2.3495-0.5709-3.4151 0.4329-0.8347 1.3602-2.0569-0.6967-2.0548 0.3401 0.1689 1.3438-2.9205-0.4184-2.7514 1.9167-2.906-1.6383-18.642 6.6775-9.5837 0.4947-4.3137 5.5194-10.247-1.284-4.8084 6.045-3.6624-2.7825-9.6002 6.3068-7.7287 4.6845-1.8075 0.1823-6.0759-3.8335-5.5029 0.7894-3.9715 4.0189-5.1484-1.7477-10.185-3.2295-1.4221 4.3279-15.845 6.8632-9.0416 7.0013-8.6562-2.6587-6.183-6.5067-5.1793-0.5255 0.23299-1.655-3.7098 0.061-4.8228 2.3497-2.3186-0.4328-0.0618 0.8965-4.6372-0.8656-3.6624 1.1437-7.127 3.6005-13.232 6.7252-24.207 9.7238-2.4588-0.079-10.464-0.3093-8.8417 1.3747-15.21 0.7894-23.364 13.011 9.3734 5.3587 6.214 9.3981 8.2399-1.8405 0.27821 1.6384 2.3186-0.309 0.8038 2.2567-0.92746 1.5148-0.72752 6.6943 2.2877 0.4637 2.4732 6.6467-2.0713 6.5685 7.498 12.801-4.7919 5.1155 4.7919 3.4316-3.3388 7.5742-8.1307 2.7823 3.1843 8.2379-1.1294 8.7036 11.222 2.5496 2.9679 7.3267-6.5994 13.31 6.5231 10.865-0.29472 7.5291 2.9679 2.5184 1.8096 2.5042-6.6014 6.8323 1.5622 2.0093 2.195-1.4838 4.4662 0.5255 3.1534 4.6374 3.9262-1.0513 8.4872 2.9844 1.3912 4.8845-2.6134 4.6374 2.0095 2.3639-2.4732 6.2139 3.6026 2.0096 5.1937-0.1241 5.7502 1.3602 1.251-1.4531 4.1426 3.8953 6.6014-1.7148 0.52556 7.9907 10.495-5.1937 2.906 6.5395 9.7238-1.6694 2.6731-4.5921 6.3067-1.6692 7.2506 5.0391 5.7646-4.9773 0.85121 6.6467 1.3602 9.522 4.6682 2.8997-4.2662 8.3388-2.1187-1.1129-0.74194 6.0595-4.9609 3.4458 1.6076 7.6979 4.2354 4.0189 0.19984 8.6563 6.0758 4.9464 8.1925-2.7349-3.1389 15.534 6.8796 8.3162 3.4316-2.2568-3.6645 12.692 2.5041 2.1167 11.548 3.6953 18.44-0.9584 5.472 3.4008 3.277 3.1532-3.1842 5.5958 3.2151 5.7028 6.4922 6.1212 24.701-7.7124 9.2292 8.7489-5.5957 6.2139 8.9798 14.33 0.093 9.2889-4.2189 8.4565-0.711 7.0631 7.9287 13.293 11.902-0.1089 2.6443 17.885-3.5099 1.6695 0.6801 4.2374 9.5837 1.9456 13.712 9.7713-7.2197 9.8763-3.0915 14.406 8.1471 3.85 12.026 3.3367 6.8467 16.404 5.1937 2.8421 3.3554-0.8347 14.637 1.4387-0.1998 6.6323 3.3533 2.6875-2.6278 10.033-4.7136 16.323 0.5256 7.9432 6.1974 9.0746 8.4873 9.2437 5.2391 7.6979 4.699 4.8228-1.6219 17.883 7.5123 1.7786 6.7086-5.581 8.2997 1.9331 9.7383 11.75 2.6751-6.418 4.0952 1.2675 11.624-22.706-4.1735-15.443-5.7337-5.2247-1.9642-12.984 14.547-7.294 14.514-17.667 13.232-8.5039 17.267-18.085 4.5136-0.079 7.4197 13.897 12.319-1.3605 6.756 2.937 4.8846-0.9892 1.9167-5.9976 5.0227-0.4019 1.7168-9.1509 11.964-9.291 6.6612-4.9154 8.6563 1.4693-0.6637-15.412 4.8372-4.4353-0.5565-9.4599 2.9369-1.7003 5.1175-0.028-1.5004-4.1263 26.882-24.176-1.0203-2.8296-5.1483-11.902-5.2556 1.1293 9.0746-10.697-2.4423-6.694-5.1793-2.6899-0.2782-3.7715 9.9237-9.0891 5.9831 0.7894 2.9823-3.2482 39.819 8.0525 5.3957-3.4625 7.7906-4.3282 9.6146 0.9583 2.4568-3.617-6.8776-1.3911-2.7515-9.9238 26.958-24.468-2.5969-2.6278 0.9419-10.96 7.3743-5.4409-9.6929-6.3687-3.7243-19.662 3.5862-7.9596-4.8228-3.2625 0.2021-3.8171-10.157-2.0257-4.9155 4.2516-20.744 3.1369-1.2819 4.4066-10.93 2.9677-10.186-15.196-3.7881-4.6064 7.2959-8.007 20.157-25.334 6.3376-3.5716 6.8323 2.2423-0.107-5.4574 11.515-6.1521-1.9167-5.8123 9.5383-3.1368 11.051 4.1572 28.473-8.8563 7.2033 0.9585 10.991 8.4851 14.345-7.9287 17.543 3.3843 6.5396-21.006-1.6694-3.1391-9.6002-1.0346 1.2984-9.0435z" fill="#80ff80" fill-rule="evenodd"/>
</svg>
