<svg width="527.27mm" height="412.37mm" version="1.2" viewBox="0 0 6227.7 4870.5" xmlns="http://www.w3.org/2000/svg" xmlns:xlink="http://www.w3.org/1999/xlink">
 <path d="m1345.3 2049.9 10.991 9.2745 0.4781 11.129-4.5898 19.6-4.6373 0.7894 4.4353 1.0346 9.8784-5.8429 16.169 6.9415 20.249-2.0096-0.1545 3.7553-10.528 8.0687 1.9332 9.2127-5.4576 6.3066 6.6015 12.582-12.644 10.775-3.0462 3.9716-3.7716 5.2864-5.8883 0.046-2.7824 11.75 4.559 2.6422-2.364 9.2127 5.572 10.322-7.1773 7.6205 2.6442 10.031-5.7811 2.6751-3.0606 10.357 5.0227 2.7658 16.91-2.4875 3.6645 3.0441 8.696-3.8026 8.6342-0.4019 0.7585 15.041 5.5029 4.452 8.6397-3.4172 7.1414-3.7717 4.3899 8.4562 7.1414 1.1439 4.0355-2.026 8.0523-1.4983 4.19-2.9061 2.195 2.3497 1.453 15.07 16.585 17.144-1.1891 9.5672-4.1117-1.5458-13.156-10.109-2.9822 0.9895-0.1545 10.002 6.3067 8.3927-7.6526 1.6074-6.6611-4.4517 1.5911 6.9868 2.6442 2.8608-2.1949 7.0486-10.82 4.4044 9.8001 24.656 7.636 5.3937-0.7729 4.1283-5.9048 11.593 3.446 17.698-4.1735 4.994-6.8941-1.8713-3.617 4.0663-2.9823 1.931-5.8121-2.4566-3.7716 6.585-4.7465 7.4959 5.9666 4.8227-3.8953 5.0246-8.9963-1.5456 3.5862 5.2082 4.8392 9.5526 5.0536-0.9583 7.869 10.064 10.124 0.7421-2.0713 8.1449 3.5552 0.773 1.1604-3.1677 8.6253 2.704 2.7205-2.6587 6.8467 6.9559 15.443 8.611 14.499-6.1521 2.5041-9.8929-0.5729-7.4197-11.531 8.9179-4.3116-13.17-6.756-10.031-1.0202-5.3647 11.346-1.1581 13.015-10.157 12.475 1.793-1.2222-13.324 3.8953-1.6694 6.6468-0.6491 6.5705 6.7559-0.7894 10.48 3.2317 6.4922 7.1723 1.1893-4.1901-7.9143 0.7111-16.647 4.7465 0.2026 4.4208 5.3297 1.9477-5.8099 8.7634-3.3245 2.6896 6.1048-3.1842 2.5062 7.4361 7.6957-0.6348 11.876 7.3269-3.2338 7.9307-7.838 7.9287-1.049 7.667-6.2881 1.7312-6.3727 11.733-0.8347 5.6101-7.2773 3.3696 9.8742 3.5717 0.238 2.3024-8.7654 14.052 3.1698 4.126-2.1497 9.0891 2.9061-3.9262-7.5906 10.696-0.4019 7.0651-10.293-2.4586-3.2769 9.8474-10.744 4.4829 9.9548 5.6716 0.678 5.674-7.5866 11.113-1.8548 9.8165-5.674 4.0333-9.5981 13.465-2.6278 9.7527-12.97 0.2507-7.3414 5.1485-8.9675-3.4008-9.9216 3.7718-0.8841 19.551-0.9895 21.07 11.317 6.6302 8.1617-0.8656-13.403 3.7737-4.2208-4.0951-5.7504 10.293-12.147 6.6158 5.1297h13.316l-5.7158 3.0117 5.1938 14.083 4.0498 8.887 6.6323-3.5244 9.1962 11.222 7.7763 2.3971 3.7405-9.893-10.002-5.7048-0.3236-14.328 4.7754 0.1545 0.3089-8.5801 13.015-2.9203-2.9059 13.926 1.0366 4.4353 7.0321 11.779 10.388 9.0583 4.7607 1.5767-1.7001 9.0889 8.6869 2.5206 2.937 6.0121 1.5768 8.3162 5.6884-1.5768 5.9829-1.5765 0.8801 2.7823 5.9976-0.6947 2.0878 2.3332 0.6327 6.492-1.3911 3.1535-2.9062 1.3912-0.8035 4.5753 7.3431 4.5302 10.556 3.9716 9.9094 4.7607-4.3137 8.0546 4.0974 1.9475 3.4458-7.9307 19.957 7.1104 4.9298-11.717-8.1758-11.655-3.6955-0.046-4.6374 1.9333-1.7455-7.9-5.3958 0.2947-2.1167-9.6928 1.5912-5.1629-11.948-1.9311-1.5459-6.3542 4.2663-10.216-1.5932-4.9011 4.2355-5.0392 3.5243-10.016 2.5824-2.937 0.078-5.6575 4.2972-11.436 10.388-5.8265 8.4088-11.562 24.347-9.8309-15.21-13.063-0.6803-3.2913 5.3319-9.3983 5.5194-3.3387 1.4983-8.0236 3.1389-1.9311 2.4568-11.037 6.8941-0.8512 2.8606-12.521-9.7691 0.6182 4.7754-7.5741-4.4971-4.2353 7.7595-2.8278 9.7838-12.692-36.944-7.8525-0.2616 4.1119-8.9655 4.6062-2.335-4.6062 1.7003-1.9478-2.0098-3.4767-11.933 3.7264-3.0297 2.5351 5.1011 8.687-13.864 2.3497-7.9307 11.068-6.8324 0.913-6.8938-4.2828-8.9656 6.4304-13.988 1.9787-13.526 8.0997-1.9787-3.9263-7.0177-1.5147 5.1793 12.737-8.6728-3.8335-5.41 2.2567-14.174-3.4944-10.27-5.0532-6.1247-10.43 2.5328-3.0935-3.7221-14.25 5.9479-14.363-3.7932-4.6434 2.5361-5.2247 7.8524-1.6386 12.737-12.366 5.9976-7.2651 0.6492-6.6303-3.3554-8.4088-4.898-2.1762-5.1019-2.2695 0.6823-10.834 4.9299-6.3069 8.8088-2.5513-2.1168-5.1464-8.718 2.704-4.0952-12.242-7.8854 0.5564-0.1367-6.461-7.4858-11.515-2.7514-4.2805-0.9109-9.6002 5.369-17.378 4.8742 6.7364 0.2152-8.7799 9.6764-0.2639-0.079 6.3069 7.0651 0.2-1.793 6.9415 11.902-0.4492 10.728-1.653 17.327-0.9439 7.467 0.742 5.9809 0.4019-1.8548 3.8024-2.2259 10.652-15.025 8.4088-1.0657 3.477 2.4878 4.761 13.959 0.9274 15.812-1.8384 8.0852-12.939-5.3956-8.4542 0.5628-7.7578 11.074 0.7112 4.0191-0.9274 11.826-4.2046 28.92 1.3458 4.9319 1.0822 3.2913-16.942-10.789-6.0285 0.68-5.441 13.094-0.8038 20.278-14.406 5.3959-0.7894 2.2114-8.3615 4.0498-3.4934 1.4674-11.331-9.8453 0.061-7.2981-6.6326 0.6822-10.154 3.9716-0.8036-0.1241-4.3755 13.648-4.3902 5.8448-0.8036 4.1879-6.0594-4.1879-8.3779-5.6121 0.7108-0.4328-10.449-0.5564-5.1156-8.9655-2.937-4.6516-13.124 9.3652-5.1317-0.7565-5.6266-11.809-16.107-5.4721 0.6346-1.4673-4.7772 15.039-2.257 5.3482 2.257 11.7-6.0285 1.7477-10.464-10.002-10.095-2.4568 1.9166-5.07-5.0699-6.7085-10.573-6.4304-8.8417-7.7762-6.6777-4.2188-12.751-4.8394-4.1901 0.5566-5.9666 5.6266-12.737 4.0972-1.993-4.9155-22.259-3.2153 0.3854-14.052-3.9571-2.4257-6.3067-1.8713-2.3949-4.5571-2.6772-9.5837 1.6529-3.246 1.824-8.2544 3.7881-8.0069 18.347-5.2865 9.4765-8.7799 8.2997-5.7791 7.0487-0.604 7.0342 2.8279 5.7028 8.3779 5.3648-3.1228 10.039-0.5873 7.1579 4.0354 2.8751 7.3725 2.1085 9.9547 10.449s7.9305 13.475 7.9557 13.479l11.826 12.057 8.5636 5.0084-1.0368 3.2459 7.3887 2.7514 16.972 20.868-1.4676 6.1068-9.8309 0.8492-8.7655-2.7514-3.4934 1.964-4.0951-2.7061-6.1068 1.3149-6.2283-1.113-10.202-1.5147-13.743-13.85 5.1175-11.238 1.22-1.1893-4.1116-1.5005 6.1521-7.5886-6.0594-1.2985-2.5496 4.992-8.9941-1.1131-10.787-10.868-8.1926 0.9419-1.5768-10.697-15.997-5.239-3.9571 7.2795-5.4886 2.9841-0.233 5.363-4.0025 1.6239-6.5086-3.1389-4.1881 4.1283-3.8809-0.1089-2.7823-3.7406-7.5741-0.5399-6.6779 4.8372-2.4566 7.096-5.5194 1.422 1.4696-8.6418 3.1842-4.019-10.79-4.9608-6.4301 6.043-5.7502-5.2865-1.9025 10.497 5.8596 2.5184-4.3281 8.0214-11.733-5.3627-3.2916 3.1533-6.09-5.2865-7.8834-14.097 9.567-1.0655-4.1734-7.0177 6.1377-1.6694-1.7148-5.8883-15.285 3.5862-2.5824-10.511-1.2511-13.417-6.7249-12.535-5.7811 0.9583-4.3282-7.9143-10.326-5.441-2.6114-2.7989 2.3024-4.157 3.4934 3.9716 2.3041-2.5969-10.126-13.741 6.6632-14.918-5.9832-2.6278-5.4554-4.4353-4.5115 8.2523 3.9572 2.5659-1.9787 4.6373-11.255-6.3026-1.7455 8.1761 2.9677 14.825-0.7894 5.1463-10.278 14.977-2.3803 12.228-6.3687 5.1793-3.8026 16.476-3.757-2.0239-5.3319 1.9312 1.9476 3.9736-9.1983 2.9369-8.5324-5.472-3.4152-5.1792-13.108-4.1262-3.9572 2.2424-1.7168 5.0371-0.3546 7.1105 5.4413-0.5091 4.6824 13.805-1.9784 20.309-4.7301-1.8528-0.7874 4.359-10.126 0.9893-0.278 4.7136-13.648-0.3566 1.6529-4.8228-10.542-2.195-1.5601 5.2721-5.2246 0.3257 0.028-0.3113-3.9263-12.457 0.8657-14.763-11.097-0.4493-6.9105-6.0285-3.6315 0.3566 1.082-4.1737-2.535-2.5657-4.3281-0.6493-2.3495 3.8335-1.7313-0.6803-2.1022-1.9165 0.4946-1.5458-2.4113-2.8442-0.1877-2.3495 1.2366-4.761-2.1023-4.9464 4.8846 0.5565 1.484-1.2366 12.552-5.0083-0.4781-8.0214 12.104-1.8096-4.0354-7.7906-6.0902 0.911 0.8038-6.0738-14.021-3.9716-3.4151 3.277-7.7906-6.3231 0.5255-10.913-16.989-4.0807 3.0605-26.525-6.1665-5.6575-8.7799 5.4246-29.462-8.2234-6.2613 1.5313 2.7061 5.7028-3.0297 2.0734-7.8071-6.4633-7.1393 4.561-5.4885-5.0248 12.321-3.0441 0.8801-5.0845-4.3591-2.366-3.4006-34.299 27.236-14.561-6.8322-15.103 2.8915-4.8681-14.777-9.4765 1.4984-4.2498-5.8265-7.1414 2.3805-5.4885-18.72 1.1295-2.6896 6.3665-3.4934-0.6019-6.6921-11.686 3.6315-14.021-10.758-2.1929 0.7419-13.31-6.8776-1.1274-18.411 1.1129-2.566-5.1174-12.102-2.906-2.2115 3.0441-1.8549-1.2202-1.9167-10.944-3.648-0.9419-8.378-5.643 4.5301-7.8215-5.5029-1.2202-4.3137-6.1067 1.7787-8.9345-1.484-2.6731 3.7408-5.5668-5.0557-3.3079-8.3635 0.7584 0.2162 5.4555-8.0379 0.2475-4.359-4.6064-0.045-6.3994-5.8738 3.85-9.9547-1.0512 4.2663-14.856 6.3067-4.5445-12.782-6.4922 10.911-6.9559-2.9679-5.472-7.4649-4.4662-3.1678-15.179-3.1863 9.9856-16.043-3.4625-1.9332-3.7716-10.975-0.5565-0.8821-3.2152-1.7312-6.3067-11.422-5.9522-13.06-1.0346 4.2806-7.0177 21.053-5.9357 6.7395-6.8776 5.0083-0.1092-7.4959-7.8833-0.062-4.2663 2.3186-7.265-12.012-0.7111-8.2234 3.2935-9.0726-5.3339-3.5552 2.4114 1.5292-9.4909-3.075-1.7148-13.278 6.3211-2.6762-7.4031-4.3735-2.0404-11.548-2.1497-8.4543-15.919-0.2165-0.015-0.8656-0.049-0.01-0.01-1.0794-0.073 1.3603 10.989-7.3723 2.026-10.511-4.592-3.4006-5.9357-3.6171-1.9167-4.1736 4.5754-8.0853 4.4064-3.2296 8.8253-13.99-0.6946-1.5602-7.3269 0.2165-2.6587-12.582-1.1603-6.0449-0.015-1.855 4.6682-6.0428 2.2733-5.303-8.7655-5.9357 6.0758 3.0606 5.3009-10.587 6.7395-13.015 5.7977-2.8607-5.9831-6.6302 9.4146-7.1579 0.7255-15.348 14.33-8.9654 18.704 6.9394 1.7457 0.078 11.253-4.4992 2.9534 1.5458 28.085-3.8479 8.2543-1.5313 9.6764-4.1571 1.8859-3.8644 8.6253 0.7111 3.0152 4.157 17.496 0.2475 11.099-9.7383 6.183-13.617-0.6637-10.202 5.8883-18.535 12.984-9.2272-1.2985-7.9451 21.795 1.6694 24.038 2.0239 20.14 7.2032 3.2461 3.7407 12.737-2.2094 5.9048-11.377 3.0152-2.9844 17.945-1.7621 4.5446-1.7622 11.177-4.5588 14.128 17.665 3.7098 7.9616 6.1212 10.326-2.6752 6.2902 2.8298 4.2044-2.7824 1.7313 2.364 9.2436-6.9868 4.4992-18.889 5.0082-3.617 3.3224 1.4695 10.991-9.662 16.54 10.095 36.527-15.519 6.3995 9.5054 5.7337-0.7255 4.8702 11.515-2.2878 8.6728 3.277 13.37-3.819 12.414 4.5754 8.3779-5.5482 7.2342 0.5565 13.308 2.5433 1.7745h0.01l3.5244-4.868 7.4361 9.1034 10.666-3.8953 4.8227-1.7457 24.977 8.0215 3.8046-3.9881 8.3924 0.8821 0.8966-5.1793 11.284 2.0095 6.0758 1.0058 3.5388-8.2399 13.355-6.0429 3.7242-10.095-3.1203-3.4316 7.8215-3.4625 6.7848-1.1129 3.6171-10.542 7.5433-2.4732-1.3129-2.5659 5.843-7.465 14.53 2.6587 6.723 8.0997 4.8537 0.9419 2.1805 5.5957-4.4518 0.3709 0.6183 3.6171-9.0436 6.4468-3.8644 7.8669 5.4575 4.9011-0.8038 8.4233 5.1937 0.138 0.1545 6.0903-3.5099 7.7597-8.7324 6.012 0.1236 9.7382 8.0358 1.855 8.1307-7.5743 9.4765-12.49-1.5932-2.8298 15.55-2.0404 9.9238-10.711 19.584-2.1496-3.073-6.9559 2.8731-1.8693 0.8986-2.566h-0.01l0.4946-6.0882 11.919-9.6311 20.977-6.4447 8.9179 10.835-0.4163 1.9023 4.7135 6.6467 6.1212 6.9085v1.484l-6.9868 1.4076 3.6624 7.3413-0.34 5.8595-8.3925 2.364-8.5634-0.9275 0.373 1.6385-6.8817 1.2057-11.191 8.8582-0.6162 1.9312 1.6055 1.0202 8.2234-1.8385 3.6645 5.2556 6.6323 1.3294 8.9324-5.6121 3.9757 1.8239 3.1657 6.5087-0.1978 17.993 3.8335 0.018-6.0449 15.179-9.5672 1.7787 4.9299 12.875-2.6587 10.233-9.9382 2.1188-10.295-3.2627 2.0095 5.1175-5.2411 7.9452-11.948-2.9535 1.251 7.976-3.3532 4.3756 5.6265 5.7028 1.4221 2.5042-8.0688 12.83 1.9002 2.937 2.397 2.2877 2.3804 7.7906 8.2235 3.1698 8.547 8.8417 2.2732 9.2271-9.2436 7.1416-5.0391 9.8309-9.3673-3.4934-5.6266 7.3578-13.866-5.3318-7.0631 9.6908-13.805 4.6848 0.3565 6.2283-19.771-11.068-2.8133 10.156-3.2914 0.2001-0.4802 3.6502 7.265 3.617 6.4303 10.975-4.9608 0.2-3.2935 4.6374-0.2185 10.295 6.6158 19.772-6.6777 4.8681 5.6266 3.5716-8.5264 7.5775 6.6158 12.659 5.7791 2.0755 3.4345-7.9495 16.632 0.2482 7.0003 9.9051-5.3256 2.7845-0.233 13.419 4.4784 7.3414z" fill="#ffbf80" fill-rule="evenodd"/>
</svg>
