<svg width="527.27mm" height="412.37mm" version="1.2" viewBox="0 0 6227.7 4870.5" xmlns="http://www.w3.org/2000/svg" xmlns:xlink="http://www.w3.org/1999/xlink">
 <path d="m4661.9 2557.1-4.6579 0.025-11.927 5.3687-10.052 9.9508-15.115 8.9632-4.2027 1.6446-7.4441-0.2026-25.091 9.1654-5.9005 3.3161 0.4308 5.443-1.1133 9.3695 2.7332 14.963-6.4057 14.003-0.7851 7.8481 2.7861 19.268-1.8484 3.8746-0.3792 0.7585-10.864 6.4324-23.899 7.6195-11.952 12.028-19.168 14.584-9.722 10.229 28.256 11.494 0.6845 1.9498-8.1285 8.0771-13.823-2.3289-17.523 17.496-1.8981 19.951-2.8854 6.2797-5.3424 11.622-6.8095 17.951-13.901 8.0257-38.763 13.571-11.647 1.2162-12.23-21.142-17.242-6.7622-19.596-1.1645-14.938 6.9126-8.8376 7.1393 2.7598 10.864 1.5455 2.7843 4.7589 8.5573-0.3296 7.8752-15.495 2.9368-13.013 12.331-0.3052 16.812-1.3662 18.205-2.9885 2.9615-18.318 0.9497-2.1634-0.5959-2.0507-0.6706-9.9506 5.5331-7.9266 10.406-12.304 21.319-6.457 18.331 2.6338 14.406-3.5966 18.079-0.2279 0.1013-4.7092 1.8736-11.9-1.2162-20.913-4.4312-0.076-0.1266-3.1904 8.0771-8.2028 8.6089-4.8618 4.6331 23.572 13.747 4.8372 4.1283 8.2521-1.0883 14.155 3.7718 11.216 5.4698 8.9879-1.0634 11.243 7.2917 11.064 7.191 9.6207-8.205 8.3821 4.9876-0.7608 10.002 11.394 9.7486 13.749 13.774 8.7863 3.9487 11.723-0.076 8.4317-3.0626 8.1015 9.4434 0.024 5.3422-3.3677 8.6603 2.4566 10.101 5.5193 2.9122 2.152-1.012 0.2536-10.256 17.318-5.6451 3.013 0.1266 0.2786 0.9627-6.2284 9.1653 6.1271 9.1919 2.329 0.7834 14.889-7.4425 8.2545-3.8745 10.101-2.0755 18.483 2.5308 9.4708-4.2785 14.812 4.8866 10.531-4.5837 18.863-15.317-1.088-12.482 1.6465-0.913 8.1018 2.6587 2.4816 9.0397 9.4951 3.9756 0.8097-0.1773-9.0149 12.001 1.216 14.685 4.3036 8.0525 6.6094 3.7715 0.9873 2.0261-3.0131 13.85-7.9762 2.7351-4.126-4.1034-8.7613 13.217-14.483 4.4313-15.824 2.5824-8.9883 10.356 3.8232 11.595 17.826 10.002 10.354 9.0127 6.558-3.3161 4.9361 1.1892 2.3803 3.747 12.053 0.2051-0.9111 7.3928 14.584 28.483 5.5439 13.092 32.385 20.938 17.622 0.051h0.9624l17.42-15.394 5.6203 2.3784 13.242-9.1137 9.926 2.1765 3.0623-1.6963 1.3666-5.3671-1.6961-7.8235-11.014-3.1409-0.8591-7.4691 6.3807-4.7858h6.583l5.9995 0.5833 5.443 3.7224 3.7222 4.8617 2.3043 10.583 3.4193 7.7474 7.1641 4.2788 7.1661 1.1396 5.418 3.7221 4.0254 2.8608 3.7222-2.0012 2.5579-5.1381 6.0261-0.3052 5.9995 4.0273 6.583 8.3038 12.028 1.1396 6.3047 7.7228 3.139 7.7226 2.304 7.4421 0.2782 5.4453 6.8612 3.1389 4.431 0.9109 7.9762-17.799-8.9632-11.445-11.167-18.028-9.7216-19.748 2.6338-7.7228-3.4439-11.95-5.5956-3.0646-0.4822-6.1028 5.445-1.7971 12.888-11.445 4.3033-4.025 4.3796 0.5833 1.5459-1.8488 20.686-12.735-3.1407-6.6097 4.5836-4.0004 9.9999-2.2773 8.584-0.5833 10.886 2.5825 6.0265 2.8605 7.7226 0.8616 6.5827-4.0005 1.7231-8.3037 1.7211-6.8878 8.0009-7.4445 7.7223-6.2777 9.7487-7.4445 15.748-7.7473 1.9744-7.6732 14.003-1.5684 7.1908 0.7585 5.443-2.9616 2.5825-8.0008 3.444-6.8878 2.5822-4.5571 9.7466-0.8862 12.61-3.7221 13.446-8.2792 5.1381-5.1649-1.4179-10.027-5.443 0.5833-0.2786-5.4453 7.7227-6.3046 6.3047-0.2783 10.305-1.1396 10.812-1.1893 7.8236 2.6835 3.7715 2.5576 5.342-5.6719-2.1267-9.569-2.4053-7.9267-5.0887-0.2279-7.2918-5.3936-6.8612 0.7337-5.1154-8.0503-13.951-9.7732-6.1521 8.6087-3.6729-4.2805-9.4434-9.7466-5.1405-7.4445-4.3033-10.305-4.0004-12.304-6.1521-11.927 5.6202-3.341 1.1893-2.0258-4.7835-9.217 1.9994-5.2657 11.344 2.2527 4.8105-12.684 1.2903-12.281-1.8488-0.051-23.899-29.75-12.838 1.1645-1.6965 2.6092-4.4806 6.962-14.687-5.9748-24.989-4.355-4.7342-5.8492-31.245-6.051 3.6212-7.2672 6.2798-7.7225 2.5825-8.8871 3.1637-7.1393-2.0241-8.6089 2.0241-10.583 2.0014-7.1662 4.0004-4.8617 16.888-3.7201 10.583-2.5845-0.5565-8.0008 14.305-6.3049 9.4434-5.9993 11.748-3.7224-7.6959-8.1779-14.433-14.153-25.598-11.42-3.9241-9.0892 4.9114-13.596 8.0256-32.51-1.5436-2.8853-7.0901-2.5082-9.3671-15.748 3.4686-5.9231-12.331-4.0767-19.293-9.3695-14.963-9.899-13.624 1.2159-8.6087-8.2048-3.3409-12.457 0.5318-8.7346 0.4042-6.9643-2.7598-11.366-9.0129-15.75-16.332-11.014-14.281-0.5812-11.164 0.3791-20.736-8.7097-12.914 1.2653z" fill="#ffbf80" fill-rule="evenodd"/>
</svg>
