<svg width="527.27mm" height="412.37mm" version="1.2" viewBox="0 0 6227.7 4870.5" xmlns="http://www.w3.org/2000/svg" xmlns:xlink="http://www.w3.org/1999/xlink">
 <path d="m3571.8 2046.7-11.824 0.5875 2.2877 22.275-3.448 5.4554 0.2782 2.706 7.7142 11.36 0.2307 10.342 2.4565 6.6776-3.5699 9.9692-0.2329 5.3173 7.8526 8.24 0.1543 2.2712-9.1385 8.6583-7.2691-1.7191-18.052 4.0521-1.898 2.9102 2.3559 20.585-3.9511 6.0759-2.2526 3.4689 0.5811 2.8625 13.624 10.48 4.3793 13.294 0.1266 11.166-5.3913 5.8989 11.165 41.296-2.6076 1.9992-1.8238 1.3934 11.826 25.851-6.1274 27.294-8.5078 14.584-4.0767 3.0378-12.432-1.1128-9.0642 3.2151 1.14 16.558-2.5333 3.1657-16.329 2.0755-17.117-6.2532-0.7851-2.5062 2.0011-4.9382 2.7845-6.861-6.5313-6.3562-8.5078-2.1269 0.9624-6.051-20.231-3.6955-17.319-2.1785-9.9507 2.1271-26.636 5.6965-17.622 5.6987-0.1773 2.6835-0.3545 6.5827-5.6963 3.038-1.6715-0.2535-5.7483-7.3928-3.2153-0.6329-8.8108 4.7858-3.0626-3.071-6.5376-8.2235-5.7193-0.8344 3.4461 11.546-3.3698 0.8657-7.4959 14.777-25.089 0.5422-4.0498-13.279-10.264-4.497-9.9236 3.9715 1.0675 5.9049-11.795 5.4101-6.1975-3.0132-18.411 1.793-1.1437 8.1906-14.437 2.9843-8.4709-2.4279v3.7882l-16.849 8.0522-1.5913 9.3984-5.4883-1.8551 0.028-6.3684-19.091-8.0523-10.326 2.3186-11.7-6.9868-18.735-0.8059-11.218-0.3072-1.8858 4.9466 4.3135 5.5954-12.026 0.8039-4.8845 14.176-8.1782 3.5552 5.1794 8.7326-6.1995 3.0294 1.422 3.7718 7.8525 1.4696 1.8713-7.1416 4.6518 5.0229 3.0462 5.4883-0.8203 4.2354 1.5768 2.5351-7.4506 4.4209-4.1263 0.7871-7.8525-3.3387-3.4934-1.0204-4.0189-3.2913 1.4365-5.132-8.9035-9.4763-6.6158-7.3723 1.5932-8.0378-6.5231-4.9013-9.1365 7.2034-2.6113-2.3021-5.0866 2.7204-6.2592 7.8361-6.0286 4.0971-6.3065 8.378-42.185-4.2519 0.4946 6.787-13.834-2.4589-17.189 0.1545 1.3437 21.115-1.7457 4.5609-0.9129 11.268 13.526 10.28-3.1224 11.902 6.6611-6.1521 3.4934 0.5257-2.1785 4.8063 5.3483 1.2673 2.0714-5.1935 14.483 0.2001 5.6739-4.4662 0.5091-3.988 18.04 5.1461 29.94-12.026 3.2624 1.1439-0.9583 11.362 11.284 1.9002 4.2496 4.5299 4.9155 1.3438 17.174 1.9787 13.493-5.0702-4.0334-4.5135 6.3522-2.2712 1.5765 5.9046 5.9049-2.6133 5.6884 8.9346 1.2367-11.717 5.8737 0.1723 4.159 7.8461 13.139-4.3735-0.6799 8.7799-4.3591 4.4869 5.1464 11.667 9.971-4.293 8.9346 0.7233 13.246-7.0177 5.3647-1.0016-1.0675-3.6811 14.268-1.2653-0.6182 12.16 3.5696 0.7152 5.2412 13.634 7.0177 0.6595-0.8821 5.7256 5.6884 0.5399 7.6215-5.7028 7.4959-13.108 9.2747-5.4288 5.4883 15.12 9.7691-3.0606 4.5447 6.045 8.1141 0.9583 1.3767-5.2411 1.3605-4.7486 6.9866 8.6748 4.5138-4.0642 5.8737 3.077-2.7822 4.3591 5.0534 0.028 1.6551 6.1521-1.0366 8.0523 8.6251 5.7666-4.0807 11.67 5.0249 0.4328 3.4623 5.8284-6.0283 11.515 5.95 5.3483 4.9154-5.6717 2.2571 1.8693-2.3333 5.441 4.7301 4.0044 8.3306 0.1545-0.079 5.8903-4.7301 5.3935 10.124 3.3554 0.3421 3.6935 6.3499-3.2462 2.9082 9.0582v8.3326l6.3045 4.1117 13.063 0.046 15.196 20.171 0.804 9.9548 4.6822 2.566-3.1079 7.8215 5.9069-8.3782 3.6624 12.706 3.2485 0.4805 14.653-5.9523 19.011 0.4328 4.252 2.2732-5.3319 6.785-8.1329 2.2259 1.2677 4.8227 0.027 0.025 3.9964-2.5021 2.337 5.3503 8.6418-1.6692 10.21 9.9091 4.7612 2.8608 8.5489 8.9303 8.2521 6.6591 6.7109-4.9628 16.989 4.6331 0.8101 6.8116 9.8493 4.0004 5.6206-0.6347 0.4059-1.8981-4.4556-6.7602 5.7975-4.7341 8.2025-2.3558 1.2409 1.5953-2.0757 13.217 1.9748 8.2792 3.3163 0.684 7.1661-7.368 9.8246-3.8993 3.6706 6.5828 8.9119 0.3792 7.57 16.408-6.2014 15.876-0.7358 7.8485 1.7991 1.4942 0.4039 7.3165 9.596 18.99 6.8612 7.4442 10.61 2.5824 7.4937 9.5962 1.1893-0.3546 1.5128 11.406-4.2993 22.461 0.4018 2.0549 7.2199 7.8216 3.2933 0.124 2.9682-2.4565 4.7754-13.665 11.222-12.088 3.8191 0.3401 5.3009 6.0903 3.9717 4.6207 20.482 7.8689 25.319 2.4568 12.352 4.0808 18.811 11.84 12.737 7.7763 5.7499 0.7562 6.6779-2.5039 29.4-10.248 5.7195 5.2864 1.8549 0.3546 1.2095 0.2482 0.3073 9.4951 8.6337 16.814 0.6841 9.6704 6.2284 6.7599 2.9371 0.1494 15.521-6.962 20.179-4.2023 9.0375 10.354 2.4813 5.8492-0.6325 15.369 3.2667 8.0009-5.367 8.6335 1.3416 2.2796 15.268 2.7597 6.9618-13.092 0.9874-1.8467 3.5695-6.7622 16.529-13.543 0.9377-0.7582-0.4822-8.8111 18.712 0.6061 9.2168-24.66 1.1376-9.9752-6.3047-3.4686-0.4039-16.484 6.2284-12.255 0.051-10.381-1.2676-7.4176 0.8367-0.5296 7.6936-13.928 14.965-7.2672 12.051-15.241 0.104-11.445-5.8988-13.116-14.027-17.315-0.1492-2.4052 6.0758-9.5713-3.8748-24.841 16.307-6.453 10.177-5.4946 0.6595-0.3566 0.1773-0.2279 3.7221-4.254-3.3429-9.1136 5.9255-7.2921 1.2656 0.9872 24.585 2.0755 9.7983-15.571 1.189-0.2781 4.5323 3.6211 5.5709-4.7855-0.3049-10.027-7.1395-9.5959-0.4555-4.4044 1.8488-3.3946 0.076 0.028 0.1772 0.051 8.0009 2.9885 1.2406-9.0149-5.2677-12.432-14.203-9.4185 8.7593-15.266-6.6836-2.6338 2.178-11.47 5.7712-0.1013 7.3434-5.6719-0.051-0.028 0.9914-0.7089-4.5836-19.143-8.4071-3.9241-10.307-10.431-3.9755-6.418-11.847-11.129-5.0395 1.2407-5.5439-4.5322-8.3575 2.2549-4.3033 1.1643-1.6445-12.23 9.4681-4.254 5.4946-12.508-0.5318-2.327-7.4711-2.432-8.5553-6.8095-4.6103-0.051-5.1114-0.051h-1.1933l0.3299-7.875 6.7846 0.3297 0.8391-1.8736-3.9511-11.317 2.4795-4.3547 5.6243-6.5829-18.537-1.4697 0.2279-5.3667-6.686-10.28 0.8118-1.6447 10.077-3.621 0.6841-4.0767-1.1913-1.317-4.3034 0.8862-8.584 0.028-4.0497-6.2531 3.3923-7.2672 1.3415-10.202-2.1246 0.1367 2.1246-0.1393 0.5092-0.025 7.1888-18.318 2.2712-11.686 4.901-0.509 3.8954-1.1128 1.6138-5.7421-3.7614-5.9604 0.8348-6.3828 4.5755-3.7717 12.335 4.7918 3.0296-1.113 0.1368-0.046 0.3258-2.2568-3.0914-6.4613 1.3909-8.285-10.713-9.0273-4.3736 1.9619-3.37-8.5324-0.6038-15.936-2.8442-3.2318-4.0025-4.5753-10.418 1.0201-11.408-9.6764 3.6789-18.858-15.118-7.4814-4.204 3.215-2.226-0.649-3.1846-0.9893-2.6443-0.8183 3.8809-14.33 3.6935-20.218 9.569-32.537-1.9943-4.5508-4.5326-10.355-21.218 2.3289-6.3567-5.4946-7.1142-6.1521-11.47-6.4819-16.482-9.3423-11.494 7.972-8.7924-3.7903 2.1024-6.1356 11.872-3.3081 8.1761-15.75-5.2555-10.96-16.585-6.0594-16.031-10.295-5.9975-10.278-12.737-7.0962-1.9005-1.0675-5.1178 9.8473-16.663-3.895-17.234 10.742-20.606 4.8537-11.377 6.6796-20.635-2.6278-5.2863-10.235-19.136-4.3735-5.1937 4.4353-3.6956-0.9728-4.0642-6.5086-5.2103-0.2153-3.5389-0.1393-10.635 6.3666-17.545-1.1873-13.37-12.613-21.177 1.6198z" fill="#ffbf80" fill-rule="evenodd"/>
</svg>
