<svg width="527.27mm" height="412.37mm" version="1.2" viewBox="0 0 6227.7 4870.5" xmlns="http://www.w3.org/2000/svg" xmlns:xlink="http://www.w3.org/1999/xlink">
 <path d="m3939.6 2142.6-14.609 3.1389-3.1407 7.1661-4.3033 4.2788-8.6833 1.4673-9.5691 32.537-3.6935 20.218-3.8809 14.33 2.6444 0.8183 3.1846 0.9892 2.2256 0.6491 4.2044-3.2151 15.118 7.4814-3.679 18.858 11.408 9.6764 10.418-1.0201 4.0024 4.5753 26.332-10.052 6.4057-9.6475 10.305-22.939 5.3832-7.1765-3.7117-0.2783-5.7236-2.3041-5.1401-6.5829 2.0014-4.5837 5.7212-8.0009-1.999-5.1646-1.4425-9.4437-6.2801-1.7229v-5.4432l-5.1651-4.8618-8.584-5.1383 0.2782-6.5849-5.9994-2.0238-7.1662-3.4192zm294.62-1280.1-8.811 5.6389-6.6076 2.2856-7.1908 3.4419-2.3043 4.866 1.1893 10.012-11.723 2.5763-11.164-1.4304-9.4434 3.2399v7.1579l3.7201 9.6435-5.165 7.4402-6.5827 5.7234-1.4182 6.3026-12.331 0.2803-11.164-6.2964-16.356-11.529-9.0395 3.8562-11.521 3.6644-6.5829 4.5817-5.7213 10.018-5.7232-2.2898-7.7476 0.8595 1.7478 4.3879 6.2797 10.497 6.5067 7.1991 7.7989-6.0553 8.1782-6.7621 6.1521 9.9134-5.7483 17.747-0.5565 11.451-4.2023 11.968 8.5057 12.457 8.8626 19.151 6.8116 14.965 0.9356 19.099 3.4193 15.286 3.1637 21.47 10.027 18.893 9.7237 25.763 1.7211 11.74 0.1013 7.6566-2.7841 7.9452-2.0777 5.2226 0.9624 2.0301 2.4815 5.1257-3.4686 1.2696-2.8361 2.1661-1.5435 6.925-2.7598 1.3768-2.2793 2.8607 0.7334 2.4257 0.4062 3.8748-6.6839 4.6764 0.2026 6.0758-11.09 1.7416-13.646-14.843-3.4686 3.4913-4.7362 9.8413-10.886 5.8554-7.3927 22.937-16.255-13.203 4.1777-14.132-23.067-13.133-3.7469-21.259-35.245-20.804-13.242-8.4254-35.27 13.535-19.648-0.4699-2.9368-6.9209-7.4423-2.6525-8.887-0.54-16.358 17.972 24.788 18.871 19.472 30.509-21.117 16.997-37.574 8.7943-25.522 11.803-14.229-3.211-17.016 5.8326-9.8746-20.095-6.0758-0.2556-9.798 19.979 6.684 11.375-2.8358 8.106 6.0265 9.5569 10.152 5.4348 12.154 0.1525 0.5741 9.764-4.4381 0.4483-12.762 14.13-16.177 27.939-15.167 3.3347-12.482-1.2758-8.2541-7.8586-15.674 6.8528-17.747-29.009-6.583-21.744-8.584-8.5902-22.255 10.159-11.395-18.37-17.848 4.763-6.0778 5.9604-3.5182 1.2346-2.8628-0.8739-7.671-2.3186-2.2793 0.8532-0.027 0.018-2.2796 12.005-0.2026 16.63-11.039 7.4093-6.9642 12.23-14.761 2.601-29.091-5.9975-1.9251 1.3912-5.3667 18.465 9.4684 6.3004-0.6574 2.9143-8.6583 38.382 7.4937 17.848 14.33 7.2486 0.152 2.0506-5.672 9.0273-7.6976 2.7432-3.9241 1.4015-1.3149 0.4657-9.951-2.5824-10.179 2.9926-9.5201 6.7931-19.32-1.5623-1.4163-9.0045-8.1285-2.1311-13.798 13.022-5.0145 17.323-20.103-6.925-3.8995-9.4662-6.6589-3.143-11.772 7.3825-3.6708-14.827 0.9873-8.2399-2.7102-3.7139-0.2049 0.025-11.775 4.0787-1.315 0.4555-2.3309-2.3846-4.1261-7.2258-18.281 0.6656-9.5957 7.1146-9.1141-1.084-0.1773 0.2535-1.317 14.345-12.71 13.067-1.2406 12.832 9.1898 4.1921 1.4946 2.9493-1.5705 5.7646-1.1893 1.9889-3.0648 0.2988-10.861-8.6438-6.381-1.3438-6.0758 3.073-1.1893-1.7395-0.6326-0.9543-1.9498-2.8998 2.8091-2.3949 3.1142-2.6546-2.2775-0.8182-10.482-3.7613-17.339 16.702-11.315 9.5198-11.628 4.1571h-17.156l-7.6957 4.3302-16.48 0.029-2.9223-7.2795-16.63-4.6372-8.7799-3.5862-1.9787-12.613-1.7766-9.0272-12.706-4.1117-7.5433 0.4019-5.8616-4.932v0.01l-6.2447 5.7337-13.943-5.2555-10.573 4.932-8.7798 7.5268-3.8954 3.7716-10.497 12.073-10.202 4.5754-8.4109 2.2568-11.158 3.0132-1.4676 6.0903-2.5207 6.6777 1.9622 10.418 1.5477 8.1781 11.451-2.0569 3.9571 24.238 1.7933 7.9142-5.5957 9.4291-12.193-2.1949-5.7193 1.7003-0.5893 6.8013-16.989 0.047-9.7217 5.0392-0.1241-4.4518-4.6062 0.3854-1.7313-3.7407-5.3173 4.8701-4.3447 11.422 10.404 8.7964 9.3198 7.1723-0.2619-4.359 6.1521 5.2865 5.5648-3.4625 11.686 10.264 7.9143 7.2341 4.8681 12.968 19.957 4.0663 14.297 3.2461 8.4871-1.0511 0.4328 7.5577 15.241 0.2186 6.5994 7.8978-3.2295 3.7881 0.8038 3.8932 4.2352 10.138-3.7097 15.072-10.219 6.0593 3.308 8.5326-6.7847 2.6896-7.869-1.7477-6.5066 5.0082-2.4733 14.53-2.8441-2.9987-7.4196 9.5527-7.0963-0.2617-7.1866 11.377-11.037 3.6789-4.5609-2.3351-5.0846 4.1591-13.061-3.2626-3.85 5.6122-4.7462 0.6636-7.7434-2.4732-6.3851 3.5717-8.0687 1.7622-2.1332 9.9238 0.5873 4.1735 20.868 5.5647-4.5135 6.3067-1.4367 2.4258-8.5634 13.372-9.4766 3.8788-6.554 7.6361 4.0357 5.1793 4.7607-0.8821 0.9585 8.178-4.359 0.2927-3.2154 5.134-13.788 3.5388-3.3389-2.1188-8.9817 8.7201-2.1477 7.9761 0.3711 5.0084-4.4518 1.3602 7.3576 9.9525 5.3751-7.23 2.8441-0.88 2.6278 6.183 9.0891 1.1604 10.556 7.7266 7.3743 0.1545-0.8348 4.1425 5.3174 2.7063 19.213 0.9418 8.0234 6.4776 8.7943 2.3806 3.6502 0.6182 10.694-0.8656 7.5741 12.473 9.3219 6.9415 7.5888 8.0996 4.9937 0.061 2.1332 8.3018 3.1533-0.046 0.4781-7.0177 6.0285 4.2354 6.4923-1.2222 1.5476 7.3743 9.0253 4.8846 5.9047-2.6587 8.0072 5.7955-3.7553 1.8713 0.5399 8.0072-4.1878 0.3234 0.68 6.5849 16.216 6.787 0.045 7.4959 6.8942 0.4802-4.2043 15.596-2.7207 9.4145-3.3387 5.7955 3.9716 9.6311-6.7065 1.6386-4.4067 5.5648-10.218-0.4493-7.1722-3.3534-2.8134 9.6455-9.3054 4.3426-19.46-6.4757-1.006 14.885-7.9287 6.1686 0.8965 4.7918 5.7338 1.8549-4.3279 17.669-10.357 1.4674-5.8429-7.3743-12.613-7.2484-1.6221-5.3341-17.267-7.9905-1.0348-4.6371-6.8321 1.9784 0.5091-5.1462-12.335 1.3438-1.8693 7.2794-11.284 0.882-5.1629 4.4827-0.096 4.1572-9.0891 4.9937-4.528 0.4637-7.8834 12.552-5.1011 1.0346-10.064 3.4481-2.9369 5.4412 0.8202 20.157 3.0298 3.7242-3.1389 3.8191-3.5408-5.0558-5.7028 2.5207-4.5303-3.4625-14.328-12.846-5.7502 3.0153 0.3854-4.4829-11.391 2.1023-3.5719-3.9881 2.8752-4.0354-13.138 0.9892-4.4662 4.4518-5.9026 2.2856-3.7533 2.195-5.9211 2.026-5.3936-0.1545-11.162 1.4076-4.0498 4.219-23.848 8.0543-13.327 12.968 0.2639 2.9841-2.6896 7.6198-2.0734 8.2997 3.5861 3.6499 10.39-1.5623 12.024 5.334-2.2567 10.031 11.422 6.1521 0.913 2.4586-14.083 7.1869-1.7457 9.0436 3.5243 2.1476 0.7729 11.006 10.427 0.5564 7.4032 1.4058 22.863-7.294 7.2651 6.043 0.9892 8.6418-23.279 9.4435-5.3959 1.2366-3.5099 6.2757 0.061 5.1011-4.6371 13.03-5.7193-0.233 2.6731 7.6524-11.099 6.0759-3.4625 0.9872-0.9419 5.3196 4.3591 0.6635-1.9167 4.7301-12.599 0.6017-1.2367 5.9214 3.5719 6.1068-5.3958 1.9784-9.0271 11.855-17.049-1.0674-10.326 3.5881-0.6346 4.5115-4.7136 1.9478-21.084 3.4172 7.5885 19.878 11.826 5.0699-11.871 15.534 21.006-3.4914-0.7565 6.0285 7.0486 0.3997 6.3686 7.2981-3.85 3.213 1.4221 10.078 5.5957-3.8477 3.6788 1.3149 10.047 8.2853 9.2912-5.5957 5.5646 4.528 6.6158-1.5003 7.9454-1.1893 9.0106 6.6158 1.6076-3.0152 8.8891-0.3235 3.3389-5.5194 6.863-1.6077 6.6302 2.3353-7.7121 7.7286 1.2511 8.9037 11.238 0.1824 1.3293 4.0189 9.0109 0.678 7.467-3.2131 6.6611-10.019 8.0234 6.8653 4.9527-1.418 13.151 15.437 0.4019 5.7811-6.0286 3.7077-3.7717 15.353 42.183 4.2496 6.3066-8.3779 6.0285-4.0952 6.2612-7.838 5.0846-2.7205 2.6134 2.3041 9.1342-7.2031 6.5231 4.899-1.591 8.0378 6.6159 7.3744 8.9034 9.4723-1.4385 5.134 4.0189 3.2936 3.4935 1.0201 7.8524 3.3389 4.1281-0.7894 7.4506-4.4208-1.5766-2.5351 0.8183-4.2355-3.0441-5.4863-4.6539-5.0269-1.8693 7.1437-7.8524-1.4697-1.422-3.7695 6.1974-3.0297-5.1773-8.7345 8.1761-3.5552 4.8845-14.176 12.026-0.8015-4.3117-5.5958 1.886-4.9463 11.206 0.309 18.735 0.8059 11.702 6.9868 10.326-2.3186 19.089 8.0523-0.028 6.3686 5.4864 1.8549 1.5932-9.4004 16.849-8.0502v-3.7903l8.4709 2.43 14.437-2.9844 1.1437-8.1946 18.409-1.793 6.1995 3.0153 11.793-5.4081-1.0654-5.9047 9.9236-3.9758 10.264 4.5014 4.0478 13.269 25.089-0.5402 7.4979-14.777 3.3678-0.8677-3.4461-11.546 5.7193 0.8347 6.5396 8.2235 3.0606 3.075 8.8108-4.7898 3.2131 0.6326 5.7505 7.3888 1.6715 0.2618 5.7027-3.0441 0.3566-6.5849 0.1695-2.6731 17.622-5.7049 26.634-5.6884 9.9546-2.1331 17.311 2.1805 20.235 3.6932-0.9583 6.043 8.5017 2.1331 6.5374 6.3542-2.7822 6.863-2.0098 4.9322 0.7895 2.5184 17.111 6.2448 16.339-2.0712 2.5352-3.1677-1.144-16.556 9.0581-3.2153 12.444 1.113 4.0645-3.0462 8.5179-14.575 6.1214-27.298-11.826-25.845 1.8238-1.3914 2.6133-2.0093-11.177-41.286 5.3936-5.9069-0.1239-11.158-4.3735-13.296-13.634-10.478-0.573-2.8608 2.2546-3.479 3.9448-6.0718-2.3536-20.585 1.8984-2.9101 18.052-4.0521 7.2674 1.7211 9.1405-8.6583-0.1519-2.2796-7.8486-8.2275 0.2279-5.3174 3.5696-9.9773-2.4566-6.6839-0.2279-10.33-7.7203-11.368-0.2806-2.7083 3.444-5.4451-2.2773-22.279 11.824-0.5833 10.81 6.8879 21.168-1.6222 13.368 12.609 17.545 1.1913 10.635-6.3562 3.5449 0.1266 5.2164 0.228 4.0497 6.5064 3.6975 0.9646 5.1898-4.4332 19.142 4.3816 5.2907 10.229 20.635 2.6338 11.368-6.6859 20.61-4.8618 17.25-10.733 16.67 3.8983 5.1134-9.8476 1.9001 1.0637 12.735 7.0876 5.9995 10.28 16.026 10.305 16.585 6.051 5.268 10.965-8.1781 15.748-11.875 3.3162-2.1023 6.1275 8.7839 3.7983 11.496-7.976 16.484 9.3426 11.467 6.4818 2.4833 2.1517 1.3936-1.6715 8.6583-9.5199-1.8488-4.7093-0.2053-0.505-3.3409-9.4189 2.6072-0.8861 4.8622-2.1785-2.7352-8.7594-3.1657-3.3675-2.6319-5.3174-2.6338-7.6731-4.5836-7.2404-8.2545-8.2027-10.152-1.2924-14.027-0.9872-4.5319-0.608-2.7848-2.5577-1.6715-7.974-4.5812-11.723-4.5593-8.5842-4.3034-1.7211-5.7212 1.418-5.4453 6.886-3.7219-1.7211-4.5819-4.8618 0.5815-6.8857-2.5825-5.7236-7.7227-1.1397-11.748-0.8595-0.5565-3.7222 4.557-7.1661 0.3049-2.8605 4.8598-4.0004 0.2806-4.5817-0.2806-8.8625-3.7219-4.8865v-5.1401l1.4446-3.4689-4.8372-11.748 1.9498-9.4189-3.1391-6.8612-2.001-10.027 1.7228-10.305 7.1394-11.723 6.3044-7.7225 2.0014-10.305 2.5822-8.0255-3.4436-8.306-0.2782-9.1653 3.7218-12.304 1.9994-13.168-7.4444-1.418-8.582-2.0238-10.027-7.7225-8.0005-13.749-2.0014-4.355-2.5822-5.6534v-4.0086l2.2793-3.7222 5.1647-3.4336 0.2783-4.0066-4.2787-3.1513-3.4436-7.1538-4.3037-5.1525-1.1397-5.439 2.8608-6.5849 3.1141-5.6451 10.027-0.2947 5.8738-4.3137 0.8098-2.7515-3.8725-8.918-6.9375-4.9423-2.3289-12.617-12.129-18.392 4.4313-1.9827 6.3807-22.146-6.7167-25.902 7.3124-1.7941 29.8-4.6764 24.104-12.766 1.8734-8.5676 0.9377-4.1797-7.3187-13.184-0.5315-12.9 6.8362-8.4522 1.9497-8.2523 5.807-14.704 3.7273-4.0055 3.4439-1.4304 8.5841 1.4304 7.7226-2.2898 8.8603-6.5829 11.166-3.7221 10.61-7.4444 5.443-3.7181 7.1395-2.8648 8.584 0.8595 9.1655 3.7222h6.8855l9.724-2.2919 9.1652 1.4324 5.9998-2.0054 9.7484 2.5784 6.8612-3.1492 10.027 2.2897 9.1405-0.8594 5.3934 3.5697 8.3554-0.134 11.748 0.5709 8.862-2.5742 10.305-6.8714 6.5829-6.012 3.1637-4.5796 0.2782-7.4443-1.9993-6.8694v-8.8726l4.0004-7.1579-0.2782-11.164 1.9993-6.8694 5.445-10.594 10-12.593 4.1774-6.8384 11.824-6.5582 17.875 1.4304 17.902-1.0738-0.3542-13.596 3.215-5.0103 3.9241-10.736 7.8236 2.7041 9.724 0.2864 4.6579-2.9905 3.9241-17.174 0.7088-7.8709 6.1028-14.672 22.888-6.4428-2.8608-12.881 3.444-6.7951 7.8235-2.535 5.0392-7.331 8.9365-0.1999 4.7856-3.0173 13.951-0.1299 5.544 3.8108 7.5723-4.3673 0.8864-2.3846 2.4812-6.4839 5.3154-2.366 28.941-12.896 2.6835-12.76 13.318-10.884 9.571-6.3912 1.9744-12.434-0.8347-14.695-3.9754-9.9979 2.8604-0.5709 3.1657-4.0086 6.8612-5.1526 1.9994-7.1558-1.1376-6.012 14.025-12.022 4.5836-8.8747 6.3047-2.2918 3.4169-7.1538 6.0265-4.2951-0.8594-12.31 4.8598-13.454 4.0005-4.5775 0.8614-5.1546 2.8608-2.8627-1.1893-10.575-1.8238-5.0042-0.3029-7.0754 7.8996-17.904 7.9492-1.8095 4.4313-11.614 3.7738-4.4889-5.6719-1.6715 1.8488-9.5795 5.4159-1.5541 8.1289-40.066-10.711-0.095-5.2143 4.7856-7.799-9.9835 7.6463-11.22-13.572-23.467-9.1655 1.1459-8.3037-3.7201-4.5836-9.732 0.2782-7.1579-1.6961-9.7321-6.8859-0.573-2.2796-1.7188-1.7208-9.4477 0.2782-4.866-1.14-2.2878-13.444-2.8648-2.304 3.7222-13.724-15.171v-5.439l1.4179-2.5783-5.1401-12.31-4.0251-6.0099-6.5827-6.2964v-5.4389l2.8605-12.597h-16.305v-2.5763l-6.583-2.0033z" fill="#80ff80" fill-rule="evenodd"/>
</svg>
