<svg width="527.27mm" height="412.37mm" version="1.2" viewBox="0 0 6227.7 4870.5" xmlns="http://www.w3.org/2000/svg" xmlns:xlink="http://www.w3.org/1999/xlink">
 <path d="m599.03 2427.8h-3e-3l-5.3318 4.0662-1.8858-5.5359-10.002 9.4148 5.2247 14.252-7.9596 2.5805-5.2411 8.7345-7.296-3.85-11.655 5.4722 6.1068 0.9892 0.0152 11.438-6.2758-4.5444-8.3162 0.8821-7.5886 9.6455-14.608 6.5376-19.367 3.077-11.037-6.4304-10.249 3.9098-8.9035 1.2057-6.6468 6.2139-4.7444 14.468-5.4575-0.7256-3.9777 4.4416-17.615 0.1444-4.0499-3.4935-5.1175 1.3767 0.14006 3.3387-7.5742-1.2551-4.4229-11.737-23.172-22.906-13.462-7.4979-1.3149-6.4201-13.386 5.2412 1.655 10.618-6.5396 5.5339-6.9394-13.586-6.554 0.8801-8.0998-1.9002 1.8384 14.808-3.817 0.9418-2.9534-4.2043-12.428 17.391-25.519-6.554-3.4316-3.5411-22.337 2.9844-0.57089-3.8024-4.561 0.061 0.54205-4.9466-5.3792-3.1368 2.6731-12.15-6.352 1.5601-0.51115-4.6063-3.0441-0.1696-14.097 5.8287-4.9011 6.6302-7.4341-6.2595 7.5268-6.863-9.2436-3.2318-2.0239-4.4044 4.528-8.4397-3.3533-4.761-14.732 0.1089-5.4411-4.2828 1.284-4.0024-11.3 1.1437-3.5862-6.5541 2.6587-12.97-7.636-5.672-4.2663-10.311-6.3211-1.9475 2.5041-8.1308-4.0808-1.3129-0.55648-4.8392-14.685-10.449-7.9143-8.3779-0.72752-6.0283 5.3483-1.1584-8.3162-15.35-10.449 1.5765-17.139-3.9571-21.07 2.7825h-8e-3l0.0101 0.028h5e-3l0.8924 2.7245-7.1723 0.8801 1.9168 29.648 6.8322 1.7312 26.323-11.144 4.8702 5.0702-2.0713 1.1584-14.406 5.1626 12.799 10.388-8.749 5.3648-24.949 4.961-4.8392 7.1104-8.1142 2.9368-3.85 5.5503-23.726 12.133-10.109 11.129-2.0878 7.7763-4.8372 7.1413-7.838-1.0057-6.7848-20.002-8.8726 6.8798-10.171 0.1241 3.4006 9.3529-0.78935 11.515 8.4872 10.28-1.453 8.9655-4.6682 3.4935 1.2675 3.5696 14.452-4.4044 8.8417 1.1893 3.648 3.9716h21.981l-9.7527 14.763 3.5388 6.2759 0.21628 7.8525 11.331 4.8681 1.1748 4.3446 15.087 2.2877-3.2152 4.4208-6.0284 12.304 3.4625 12.212-7.296 15.272-5.7358-3.479-0.27825-3.1059-14.235 4.3279-0.83471 19.336-9.0128 6.7396-6.1665-6.3521-5.1319 7.0177 18.502 17.08-4.2498 6.5849 0.35451 5.272 3.1224 2.7352 3.2935 2.875-1.2366 3.4171-2.4279 6.723 1.4077 6.0141 3.4151-5.3174 9.7548 5.4245 14.839 0.5875 16.121 38.86 5.9975 9.7237-6.9559 1.3914 5.1175 7.0322-2.9988 3.2933 2.7205 2.9206 5.8739-4.9919 13.51 6.3851 8.5017 0.3236 5.7337 0.309-4.188 8.6254-6.8796 4.8392-2.5041 8.6872-6.0429-2.8608-10.185 11.546-11.626 5.7501 0.26382 10.048 7.5742 4.9628-1.2057 2.1785-2.1805-0.046-1.8219 2.0261 1.4674 3.7406 5.2865 0.6637 5.7976 16.68 10.171-4.3756 3.5223 3.5861 3.0606-2.6731 17.422 6.2448 12.875 6.6921-4.1571 3.1079-1.6385 12.15 11.979 6.8633-4.6373 25.598 4.495 16.395h2e-3l11.455-2.6587 2.3021 6.0758-1.4674 4.2046 1.0346 6.3046 10.188-3.6315 0.50907 6.5396 3.2626 0.5235-3.2626 12.382 10.789 2.3806 8.6109-7.8978 1.1274-4.0975 4.2663 2.5516 5.303-7.3434 11.391 1.3911 9.4765-4.6062 7.094-5.2103 2.5659 8.2235 6.3685 1.0222-1.9167 12.706 4.5754 5.874 5.5029-1.2675 3.3079-11.641 5.2102-2.0093 9.7527 22.135 13.403-7.4506 20.218-4.4208 2.5185 2.3968 4.4992-1.2673 1.4365-4.4209-6.6468-4.0356-4.8063-10.882 4.4209-7.2175 2.3022-8.209-4.3116-4.0952 0.66366-6.3995-6.8776 1.0039-3.1533-5.0846 9.9691-9.522-4.9918-8.6107 7.6051-7.0322 12.813-2.8463 3.2008 12.382 9.7692 5.101 6.6921 8.0688 4.8083-1.824 1.5148-3.4171 11.16-2.5493 3.8169-19.94-6.2139-3.5861 3.85-5.5957-4.3281-2.4586 0.86563-5.27 11.917 1.4673 5.6575-2.9061 0.29475-14.87 9.0416-1.2055 1.7931 3.8498 6.6941 1.4367 4.2807-5.4412 5.6266 0.9583 22.028-21.671 2.8133-0.88 4.0499 8.0522 9.1034 5.8123 9.5837-14.576 11.671 8.0217 3.6315-7.8978 6.4613 1.8548 1.7786-4.4064 5.2556-0.8965 4.019-12.535 6.6467-2.7205-1.5457 14.452 26.711 2.026 12.088-4.3755 17.543-5.5484 3.0462-14.175 4.0025 0.9747 0.61831-16.076-3.2296-0.7109 7.0322-11.84 8.3636 3.4149 5.4555-2.2094 5.101 5.8122 5.4101-0.2638 7.3269-3.4152 9.4765 0.076 8.749-5.3648 6.1665 1.4076 8.2708-7.1887 4.1426-2.2258 4.761 2.4277 10.171 3.2153 1.4839-4.1736 4.2044-10.589 4.6064-0.8801 7.9761 0.5111 10.155 0.6514 1.6241-1.5295-0.3092-9.1982 8.1142 2.6133 0.6802-7.976-2.1332-4.0045 2.5969-5.1155-6.214-2.0567-0.6945-3.9716 14.839-1.6694 3.648-2.3807 9.3673-11.191 12.288 4.2499-2.5185-4.2046 4.3116-2.4733-5.9501-7.063 6.3685-19.415-8.1163-10.233 15.921-6.8323 4.5301-6.1521-0.6801-4.2312 3.5099-1.6694-2.6443-17.884-11.902 0.1089-7.9287-13.293 0.711-7.0671 4.2189-8.4542-0.093-9.2912-8.9798-14.328 5.5957-6.2138-9.2292-8.749-24.701 7.7121-6.4922-6.1212-3.2152-5.7028 3.1843-5.5957-3.277-3.1533-5.472-3.4005-18.44 0.9583-11.548-3.6955-2.5041-2.1167 3.6645-12.689-3.4316 2.2568-6.8796-8.3162 3.1389-15.536-8.1925 2.7372-6.0758-4.9466-0.19984-8.656-4.2354-4.0212z" fill="#ffbf80" fill-rule="evenodd"/>
</svg>
