<svg width="527.27mm" height="412.37mm" version="1.2" viewBox="0 0 6227.7 4870.5" xmlns="http://www.w3.org/2000/svg" xmlns:xlink="http://www.w3.org/1999/xlink">
 <path d="m1134.1 796.13-0.5127 5.4871-6.6956 3.9429 4.2053 1.8372 10.175-6.5552zm19.122 21.21-4.6081 9.9366 4.8034 1.7944 6.8177-4.6204zm60.346 29.474-21.472 4.2664-5.6702 4.535-10.223 16.785-3.5218-1.0071-6.2622 13.324-14.514 42.322-17.017 33.002-1.3 22.784 6.8054 20.252 2.5024 10.761-3.2348 1.4221 4.1748 7.0801 1.1902 2.7771v0.01l10.48 24.28 4.889 9.0759 0.4638 0.8668-1.3305 2.1911 0.2746-0.061 1.532 14.777 0.8667 8.0567 0.4029 4.0283-6.3233-1.8494-4.5288 11.81 3.3264 6.2256-2.8442 8.1299-5.365-0.586-6.6956 5.8106 10.339 1.1597 0.9765 11.163-6.5246 1.5137-1.593-4.7303-12.457-2.3193-6.6284 4.3884-0.3296 0.11-0.2625 5.8106-1.2207 24.548 4.7607 6.9885-1.3428 20.435-5.3039 15.582-5.4383 0.4273-0.354 2.0935-6.25 36.444 9.0332 17.267 21.558 15.149 12.03 4.5838 1.3977-2.2949 0.6958 0.3967 1.2146-1.4648h0.9522l0.1894-1.7762 2.2583 0.4212 3.894 3.1738 1.0254 0.3723-2.0935 2.7954-2.2888 0.7447-0.5555-0.5127-1.5136 1.0498 5.6274 4.8462 4.6998-0.7386 3.4606 1.6663 10.944-1.9775 3.8635 3.2959 3.4363-2.1851 3.5827-0.061 1.6114-2.0386 5.7617-3.7231 0.8667 1.2512-0.6164 4.6021 12.579 2.6611 18.671 0.9155 11.054 19.751 16.296 0.2928 12.598-10.156 5.2063 3.2165 8.0993 12.952-11.841 5.8899 3.4973 10.114 10.138 2.0508-10.602 5.0415-1.6236 15.521 2.5025 4.7302-4.5594 5.1636-6.3659 1.5259-10.95-5.9326-4.6936-5.3467-4.1443-3.5584-5.011 2.5391-3.3203 11.829h-0.013l0.01 0.013 0.8667 0.049 0.2196 0.013 8.4534 15.918 11.548 2.1484 4.3701 2.0447 2.6795 7.4036 13.281-6.3233 3.0701 1.7151-1.5258 9.491 3.5522-2.4109 9.0759 5.3345 8.2215-3.2959 12.012 0.7141-2.3193 7.2632 0.061 4.2664 7.4951 7.8796-5.0048 0.11-6.7383 6.8787-21.057 5.9387-4.2786 7.0129 13.062 1.0376 11.42 5.951 1.7334 6.3049 0.8789 3.2166 10.98 0.5554 1.9287 3.772 16.046 3.4668 3.186-9.9854 3.1678 15.18 7.4646 4.4617 2.9663 5.4748-10.913 6.958 12.787 6.4881-6.311 4.5471-4.2664 14.856 9.9548 1.0498 5.8777-3.8513 0.043 6.4025 4.358 4.6021 8.0383-0.244-0.2137-5.4566 8.3618-0.7568 5.0537 3.3081-3.7354 5.5664 1.4832 2.6733-1.7822 8.9356 4.3152 6.1035 5.5053 1.2207-4.5349 7.8186 8.3802 5.6458 3.6499 0.9399 1.9165 10.944 1.8555 1.2208 2.2094-3.0396 12.103 2.9053 2.5635 5.1147 18.414-1.1108 6.8787 1.123-0.7446 13.312 10.76 2.1912-3.6316 14.026 6.6894 11.682 3.4913 0.6043 2.6916-6.366 18.72-1.1292-2.3804 5.4871 5.8289 7.1412-1.5014 4.248 14.777 9.4788-2.887 4.8706 6.8299 15.1-27.234 14.563 3.3997 34.296 4.3579 2.3682-0.8789 5.0842-12.323 3.0457 5.4871 5.0232 7.1411-4.5593 7.8064 6.4636 3.0335-2.0752-2.71-5.7007 6.2622-1.532 29.462 8.2215 8.783-5.4261 6.1645 5.658-3.0578 26.526 16.986 4.0833-0.5249 10.913 7.7881 6.3232 3.418-3.2776 14.02 3.9673-0.8057 6.0791 6.0913-0.9155 4.0344 7.7942-12.103 1.8067 0.4821 8.02-12.555 5.011-1.4832 1.239-4.8828-0.5615 2.0996 4.9499-1.239 4.7608 0.1891 2.3499 2.4109 2.8442-0.4944 1.5442 2.1057 1.9165 1.7273 0.6836 2.3499-3.8391 4.3274 0.653 2.539 2.5635-1.0864 4.1748 3.6316-0.354 6.9153 6.0242 11.096 0.4517-0.8667 14.764 3.9246 12.457-0.025 0.3112 5.2246-0.3296 1.5564-5.2734 10.541 2.1973-1.648 4.8218 13.648 0.3601 0.2747-4.7181 10.126-0.9887 0.7873-4.358 4.7303 1.8555 1.9775-20.312-4.6814-13.806-5.4382 0.5127 0.354-7.1106 1.715-5.0354 3.9551-2.2461 13.11 4.126 3.418 5.1819 8.5327 5.4687 9.198-2.9358-1.947-3.9734 5.3283-1.9287 3.7598 2.0203 3.8025-16.473 6.366-5.1819 2.3804-12.225 10.278-14.978 0.7874-5.1453-2.9663-14.826 1.7456-8.1787 11.255 6.305 1.9775-4.6387-3.9551-2.5635 4.5105-8.252 5.4566 4.4373 5.9814 2.6245-6.6589 14.917 10.126 13.739-2.3072 2.6001-3.4912-3.9734-2.301 4.1565 2.6062 2.8015 10.327 5.4382 4.3274 7.9163 5.7801-0.9583 6.7261 12.537 1.2512 13.416 2.5818 10.51 15.277-3.5827 1.7334 5.8898-6.1341 1.6663 4.1687 7.0191-9.5642 1.062 7.8797 14.105 6.0913 5.2857 3.2959-3.1556 11.731 5.365 4.3274-8.0261-5.8594-2.5147 1.9043-10.498 5.7495 5.2857 6.427-6.0425 10.791 4.9621-3.186 4.0161-1.4648 8.6426 5.5176-1.4221 2.4536-7.0923 6.6772-4.8401 7.5745 0.5432 2.7832 3.7354 3.8818 0.1097 4.1871-4.126 6.5124 3.1311 3.9978-1.6174 0.2382-5.365 5.487-2.9846 3.9551-7.2815 15.997 5.2429 1.5808 10.693 8.1909-0.94 10.773 10.864 8.9783 1.1169 2.5513-4.9987 6.0608 1.3-6.1524 7.5928 4.1138 1.5015-1.2207 1.1902-5.1148 11.23 13.739 13.855 10.199 1.5137 6.2317 1.117 6.1035-1.3184 4.1016 2.7039 3.4912-1.9593 8.7647 2.7527 9.8266-0.8545 1.471-6.1035-16.968-20.868-7.3914-2.7527 1.0315-3.241-8.5632-5.011-11.823-12.054-3.7841-5.9997-4.1627-7.483-9.9548-10.449-7.3548-2.1057-4.0344-2.8748 0.586-7.1533 3.1067-10.052-8.3802-5.3589-2.8259-5.7068 0.6042-7.0313 5.7801-7.0495 8.7768-8.3008 5.2857-9.4727 8.0078-18.353 8.2581-3.7842 3.241-1.8249 9.5886-1.6541 4.541 2.6734 1.8738 2.3986 2.4231 6.305 14.056 3.9551 3.2105-0.3846 4.9194 22.26 5.7495-2.1484 12.677 3.4484-22.833-33.002-1.3915-11.182 4.2175-8.789-2.2705-4.1321 12.787-8.899 1.8676-11.346-4.2663-1.532-15.039 8.8745-7.8369-13.989-22.4-44.086-1.3427-8.2093-11.78 0.9705-0.9278-20.941-5.2429-3.9429-6.1829-16.956 1.1902-7.5134 0.9583-9.259-0.647-5.2064 6.012-8.6914-2.3011-5.2368 11.548-0.079 1.8066-3.9429 12.396 2.2767 2.4109-2.8626 11.206-0.9277 1.4221 4.4372 4.8706 1.4344 2.594-5.9143 3.8513 1.3244 8.2032 0.8545 3.9306 0.5066 11.114-14.496 2.411 1.0315 3.3386-2.5635 4.0466-14.899 7.5012-1.7518 27.991-0.415 3.2166 0.4944-2.0874 8.0078 3.2165 1.9348 12.073 0.1344 7.5439-4.6997 23.138 6.1096-0.4822 3.0579 3.9307 0.9765 3.1799 7.4036 9.2896-0.049 9.0882-4.6509 1.3488 8.0505 7.2937-1.4221 22.351-11.914 11.981-1.9043 12.134-11.603 2.8747-2.3376 9.7535-5.7984 12.103-0.9094-4.4373-11.133 2.8625-9.6436 5.9815-18.488 16.956 6.305 0.1587-9.0576 14.758-13.586-8.606-1.2329-10.559-9.5215-7.0801 3.3996-6.9397-1.4221-10.315-11.273-7.9835-7.7087-11.615 1.9165-13.983 4.7729-15.54 5.3162-5.1575-5.7007-18.054-20.99-0.9766-14.252-11.188-11.56-7.5318-3.2166-6.4575 4.5899-3.5095 0.5859-5.1636-13.91 6.7993-4.9805 1.9043-8.9966-19.879-7.6355 3.1189-3.2471-20.184-13.092-8.5815-11.67-10.712-25.794-6.8298-2.832 0.5127-11.731-3.0213-12.164-5.8716-4.4251 1.9959-3.3508-9.9732-3.3875-1.4526 2.6307-8.5755-4.6692-0.5859-4.6387-3.5767-0.2503-3.7842 6.8176-9.5703 0.531 1.6419 6.2867-2.8626 1.8127-5.0842-3.3569 0.7141 5.6701-12.878 6.7566-2.301-4.248-7.7942-2.1057-16.028-10.541 0.1525-6.5674-7.1412-2.6001-8.4228-14.081-22.138-2.362-19.196 0.4761-4.8828 2.8442-19.739-6.8665-4.2359-1.0315-16.711-9.7107-13.464-8.4656-11.609-9.5703-7.8308-7.605-13.757-0.2503-1.4282-0.7385-5.6885-5.9082-20.233 8.2092-6.3049 11.145-5.2063 2.2094-22.534-3.7719-6.0303-6.2745-3.1738-7.7942-10.608-4.3701-7.7209-15.43-10.547-8.0384v-0.019l-0.8667-2.7343-4.7119-3.5401-5.1514-1.3305 0.061-1.4649 10.913 0.3723-0.073-5.011 1.6968-6.9214 3.009-6.5552-7.3669-0.6652-4.419-5.9082-4.7058-0.9583-8.1116-0.1344-3.9673-4.4983-1.2512 0.525-2.3559 5.3649-11.2-5.0109-1.9165 4.8706-5.6763-1.9959-5.011-0.2137-3.4607-1.41-0.061-3.4485-14.734-1.9897-9.7046-4.95-3.5401 1.5748-16.711-8.1727-32.123-5.719-13.861-15.936-9.845-6.7566-7.2509-4.3884-14.453-16.712-6.6468-16.449-10.034-24.835-26.569-36.932-15.027-32.66-6.7261-16.742-17.499-25.507-7.9591-2.7466-27.918-4.4861-31.085-1.3611-27.728 10.156 1.6053 3.6804-13.171-4.3457-7.7088 1.0193-23.651 3.0823-22.26-4.3946-16.461-2.4108-5.0171-4.3091-0.01-6e-3 -13.641-11.676-7.483-13.184-5.3772-1.0681 0.2504-7.1106z" fill="#ffbf80" fill-rule="evenodd"/>
</svg>
