<svg width="527.27mm" height="412.37mm" version="1.2" viewBox="0 0 6227.7 4870.5" xmlns="http://www.w3.org/2000/svg" xmlns:xlink="http://www.w3.org/1999/xlink">
 <path d="m2652.3 2046.2-1.9643 8.378-15.798 2.8588-2.7658 6.5231-4.1879-1.4368 1.1582 21.115-21.919-12.939-15.443-6.3828-4.6518 10.449-11.191 1.8075 0.094 5.6739-4.8537 0.076-8.6398 32.32-12.984 17.962-4.7919 16.478-14.485 7.5123-1.7148 9.3981 7.6195-1.2055 2.6587 9.8165 2.768 4.2499-7.2033-0.4473 1.1275 6.554-14.345-0.3256-1.2058 7.1577-10.309-1.3149-0.6494 6.6158-8.2543 7.4835-11.068-3.3078-4.2066-12.49-15.503 5.6266-0.2153 25.983 2.6587 5.8431-8.3306 2.6587-0.7894 9.1364 8.2544-0.7894 4.2043 7.327-5.8264 2.0258 0.88 9.8929 10.975-5.5194 2.9061 10.157-12.937-0.944-6.7085 3.6335-0.4802 6.3213-4.7918 0.9439-3.988 2.5042-12.088-7.0342-6.8774-2.6422-13.077-8.8273-1.5932-9.3674 2.2567-0.8183-9.4743-8.147-11.208 1.9022-5.7029 1.4056 7.8525 12.939-10.837 4.761-14.05 16.492-10.033 2.195-16.956 1.113-12.414-1.7765-3.1059-0.402-14.716 2.0094-7.8071-1.5003-5.5792-1.0655-21.255-18.735-9.5363-5.2865-7.467-0.4637-3.7551-4.221-1.886-11.191-2.8296-7.1416 2.0899-2.333-6.278-3.3698-14.561 3.6935-1.931-12.119-14.982 0.3711 6.2924 6.6631-14.763 3.1369-1.5933-3.4149-17.279-2.5825-2.8917 16.694 6.3542 1.686-1.7786 5.5789-7.7124 0.8513 0.4328 8.5327-3.2933 2.1331 0.5564 5.5646-10.511 8.8416-3.0441-2.4112-3.2151 1.6695-4.6538-5.3795 0.5873-6.5084-1.731-9.862-9.491-2.7823-0.228-10.093-6.7313-7.1003h-0.046l-17.143-4.4517-2.2261 5.8264-16.261-11.377 3.2153-12.102-4.359-4.7774-9.2809 0.079-4.0498 11.639-5.641 2.4133-2.1806-0.2356-8.347-7.2669-2.5187-2.7638-2.1949 9.7053-7.1887 2.1496-0.3401 4.2517-4.8537-0.1266-11.377 17.467-15.41 2.0547-0.5873 10.171 10.742 10.621 0.3565 6.2448-1.2675 8.9488 4.0498-1.2676-0.3563 11.872-7.6506 1.9166-7.8689-8.1143-9.6291-1.4694-15.381 8.3017-15.254 2.3125-4.262-1.9539-14.05 5.1794-6.2922-3.4007-9.1818 3.2915 3.9736-6.0594-12.181-5.641 3.2604-4.0972 13.757 6.6632-3.8335-11.377-9.6146-1.7477-3.8789 2.5351-8.9035-6.2407-14.174 3.1388-0.2639 5.5172-10.047 3.6955-0.078 5.6575-2.5804 2.9368-3.5244 10.016-4.2354 5.0393 1.5912 4.899-4.2663 10.218 1.5458 6.3522 11.95 1.9331-1.5933 5.1629 2.1188 9.6908 5.3938-0.2927 1.7478 7.8978 4.6371-1.9311 3.6935 0.048 8.1778 11.655-4.9319 11.719-19.955-7.1126-3.4478 7.9307-4.0954-1.9496 4.3117-8.0523-9.9072-4.7609-10.559-3.9716-7.3411-4.5282-0.9584 5.5154-2.0878-0.5709-1.0657 2.7823-5.6266 3.3389-4.0045-1.8859-7.3267 16.956 2.335 4.4373 0.5873 12.226 6.3378 5.6286 6.9703-3.0606 4.39-1.5294 20.775 12.688 16.711 0.7894 19.089-12.982 11.888-0.8203-5.3174 6.8959 8.6872 0.1367 16.508-6.4757 19.786 9.0726-0.3257 3.5099 2.6134-2.026 6.6305 7.1722 7.3432 0.025 4.4828-1.9622 11.284 1.3914 2.7661 8.2541 4.7607 1.4676 5.9049 1.053 4.4517 2.797-2.3495 19.482-13.91 3.0606 0.6182 3.5243 0.094 5.2556-2.6731 5.7504-5.3029 3.0915-10.635 8.5634-2.7514-0.2001-5.7811-4.4826-10.958-2.3044-3.0915-1.0201-12.057-7.2652-6.7559 5.9214 3.0607 10.154-13.308 3.1225 2.2568 3.215 3.7859 9.2913 2.4898 0.9892 5.8428-3.2936 8.4854 2.8607 11.068 13.617 0.3093 0.3402-2.9989 2.3968 2.5825 4.081 0.1241 6.152 3.3739 6.1521 2.4236 6.1045-7.3082 7.3126 1.3603 5.9502h0.025l9.1362 9.7691-0.079 3.4007-6.0594 5.7976-0.4184 2.3948 8.9037 7.6979 5.7811-7.5576 11.053-5.9359 0.54-0.3089 6.6778 7.5741 4.2352 1.6219 0.2508-4.1735 23.928 0.6492 8.7799-6.5994 0.8182-5.1626 5.8906-0.5422 14.561 8.209 10.031-14.732 15.629-1.9787 2.6731 1.3911 6.7867 0.542-0.2 7.5126-0.8348 6.3066 2.8895 0.7111-2.2095 2.9512 2.6896 2.566-3.1697 6.2448-5.8738 1.4532 2.2114 10.604 0.094 6.183-0.3545 2.8752 7.5435 5.2556 7.3267 1.7931 2.937-3.2154 12.319 3.85 2.6587-5.7048 3.479 2.9225 3.0132-5.9522 3.2936 0.8471 10.342 2.6587 5.6884 8.0543 7.5268-6.6014 2.4588 3.2627 3.2295-2.1476 5.3032-0.079 1.2055 4.8063 7.8215 2.4277 1.824 7.2487 0.6184 5.1175 13.664-7.0033-0.6493-1.2366-8.5016-6.183 6.3519-8.0217 8.3638 4.8228 3.9262-4.0354 5.9809 2.1496 6.1521-6.0903 3.9262-0.6964 0.8966 11.146-3.8336 2.1023 4.1737 13.881 1.8713 4.9155 3.0441-2.0858-0.6799-3.6644 7.976-3.0606 3.7097 5.4883-1.1128 16.045-16.369 3.2768 0.6473 5.8133-1.1564 5.0175 0.228 1.7477 3.2769 3.2296 6.7705 0.6348 3.106-2.3806 0.4636-11.053 1.1911-0.8347 4.0192 1.0366 4.9608 8.6089-4.2046 6.6776 2.3044 4.8846 15.674 0.6802 2.2258-1.4056 1.7313-4.9154 3.5388 2.4257 4.5137 8.8108 2.3041-6.9086 10.68-2.2259 2.9844 1.9169-0.8347 6.7847-4.019 2.3042 2.2712 5.2267-7.8998 5.3629-0.8038 10.837 3.4625 0.1267 6.1377-2.0281 2.4424 2.7225 0.9109 3.1535 6.9724 6.2304 5.2865-0.2026-2.1023-12.15 22.259-2.0714 7.4506-2.1331 16.91 7.5267-1.0984 3.2627 10.666-1.3129 2.8299-4.8703 5.177-2.8915 5.7193 12.413 5.874-2.335-0.7564 15.783 4.219-4.8701 6.832-10.495-2.7822-0.8657 1.8239-5.9976 17.576-21.07 2.5042-4.7136 2.2567-9.2127-2.7369-4.7298 5.5645-11.146 3.3554-2.704 2.3021-6.1521-0.6944-5.9503-11.331-0.8367 1.9475-5.0391-2.7349-4.4826-9.5075 0.68-11.113-8.007-0.5255-7.8669 7.698-2.8131-4.761-5.3939-12.335-3.4356 3.4005-13.574 4.1427-11.051 9.7074-1.5456 0.2507-6.2451 8.0029-7.372-4.8681-10.248 5.5954-2.9844-0.6346-4.2805-0.7112-12.181-6.5231-4.6374-2.9676-8.5634-3.3699-1.9642-18.425 3.0152-0.073-9.9544 6.2572-3.3699 5.2411-3.3389 18.131-1.7622-3.5243-10.171-8.0069 1.2676-2.5351-2.2568-5.037-3.5861 1.6054-16.509 13.015-8.7181 4.53 1.422 6.1974-4.0498 3.9262-9.6929-4.4826-2.0858v-4.0663l3.1842 1.3911 2.661-9.491 24.744 2.0261 9.0602 0.7255 5.95-4.2808 7.8051 3.6479 2.6278-5.0081 14.684-1.0368 0.3093-10.34 10.684 3.7097 0.6306 5.9667 7.2195 0.9892 0.025 5.672 6.6632 0.9583 3.7409 9.0747 12.212 6.2901 7.976 9.9238 2.8917 4.0354 2.5969-6.1212 8.0996 0.4782 3.848-13.479 10.466-0.8039 0.911-7.2651 2.0567-4.1116-4.39-2.7514 4.0501-7.7433 11.453-3.246 11.346 3.6623 1.591-5.1628 13.108 0.3565 9.122-5.7666 7.7659-2.1311 6.4469 7.7286 8.1779 4.0047 15.829 2.4257 16.354 12.661 22.366 1.422 21.669-4.1898 3.9427-1.2058 13.139 13.355 16.789-2.8276 10.588 2.1785 0.5111 5.1176-2.566 17.003 10 1.653 9.6764 5.5195 15.534-11.964-1.4983-3.7409 9.058 5.3483-2.9368-9.6764 9.4105 1.1893 0.028-7.1104 16.435-8.98-2.195-6.6467 4.0478 0.03 1.9619 4.9916 8.1309-2.0855 5.8284 5.0226 2.9823-1.6221-2.5042-5.4883 11.362-10.587 7.4814 19.044 7.9905-4.0499 0.8348 4.8228 4.1592-2.2259 3.6005 4.2355-3.0915 4.3732 19.384 6.5087 3.2007 12.628 5.4865 3.246 2.4609 3.85 2.0691-5.6884 6.6467-3.5717 7.3888 0.913 2.4568 8.7799 6.3993-0.2305 18.52 1.0201 3.1368-3.8809 4.8372 4.6374 2.8605-3.6479 8.2544 6.3066 10.804 1.9784 3.1224-11.902-13.524-10.278 0.911-11.27 1.7477-4.5589-1.3458-21.115 17.189-0.1545 13.836 2.4569-0.4946-6.785 3.7715-15.348 6.0285-3.712-0.4019-5.7811-13.155-15.441-4.9464 1.422-8.0193-6.8632-6.6655 10.016-7.465 3.2151-9.0126-0.68-1.3293-4.0189-11.237-0.1824-1.2532-8.9034 7.7145-7.7289-6.6323-2.333-6.8633 1.6077-3.3366 5.5172-8.8893 0.3257-1.6054 3.0132-9.0149-6.6158-7.9451 1.1933-6.6158 1.4963-5.5649-4.528-9.2889 5.5977-10.047-8.2853-3.6768-1.3149-5.5977 3.8477-1.42-10.078 3.8457-3.2151-6.3684-7.2938-7.0486-0.4019 0.7605-6.0305-21.008 3.4934 11.871-15.536-11.826-5.0679-7.5866-19.881 21.084-3.4149 4.7113-1.9498 0.635-4.5136 10.326-3.5841 17.049 1.0655 9.0273-11.857 5.3936-1.9764-3.5697-6.1048 1.2367-5.9234 12.601-0.6017 1.9146-4.7301-4.359-0.6658 0.9418-5.3174 3.4626-0.9892 11.098-6.0739-2.6731-7.6503 5.7193 0.233 4.6373-13.03-0.061-5.1011 3.5098-6.2757 5.3916-1.2367 23.279-9.4457-0.9872-8.6395-7.2652-6.045-22.861 7.296-7.4052-1.4058-10.433-0.5564-5.8432 9.3507-14.932-2.8749-12.292-10.34-15.812 16.2-0.028-0.1266-9.6146 2.5516-14.575-10.682-16.587 1.0677-2.333 6.3828-9.12-4.5897-7.3888 4.0333-9.4743-5.1628-4.8227-16.447 4.7774-8.5945-3.8974-5.8119-21.933-3.4152-0.1722 13.695-3.7406 0.1392-1.0986-7.1251-6.6612-6.0756-17.9 4.9628 0.048-19.971-13.864 3.4152-5.2103-0.1722 2.704-8.6087 6.8653-0.542 3.1224-9.8929-6.3727-5.3483-18.143-1.9002-8.1842-10.004-16.121 0.5873-11.191-0.028-1.004-10.221 0.8801-1.9001 13.341-4.2044 0.2-3.1226-2.1496-4.2826-16.88-5.4412-3.0442-8.7016zm-199.96 148.59-9.8312 10.48-0.5708 6.8941 2.8585 14.577-3.5861 9.0415 10.171 2.428 4.4208-16.354 0.3402-8.3327-6.1521-12.257zm-68.724 39.524-9.1035 0.8039-4.7301 1.422 1.0513 3.9407 8.2685-0.025h0.03l1.0057-2.2258 3.9263-1.5147zm7.0486 7.1413-12.844 1.8693 3.9262 11.61 7.1414-0.6182-0.635-4.5611 2.9535-0.1824zm-311.1 20.635 16.045 0.1545-4.7301 20.002-6.3066 4.1283-19.367 0.2781-3.5861-3.0771 0.8489-4.2973 13.372-7.605z" fill="#f9f986" fill-rule="evenodd"/>
</svg>
