<svg width="527.27mm" height="412.37mm" version="1.2" viewBox="0 0 6227.7 4870.5" xmlns="http://www.w3.org/2000/svg" xmlns:xlink="http://www.w3.org/1999/xlink">
 <path d="m2400.9 3234.6-6.5685 12.088-18.58 2.2568 0.5873 13.912-3.448 6.8465-9.0416-0.1241-10.126 3.8953-18.935 7.8525-6.6941-5.4412 1.422-4.3588-4.8536-1.9169-7.094 9.4148-5.5957-5.132-4.0498 3.7097-2.3804-1.3911-18.988 1.6201-14.977 3.0441-7.0651 1.2676-4.0498-5.1465-1.0204-6.6013-5.2492-4.9053-5.0702 1.4676-9.0582-0.2001-2.2733 12.181 0.028 5.4101 10.34-2.232-1.3749 5.2865-7.096 1.2984-1.8797-4.3509-9.5219-0.028-3.9736 1.7621 0.402 8.8108 2.6895 1.2985-3.3655 6.9559 6.3499-0.3214 3.0153 15.798-6.4778 2.502-4.0498 3.679-4.4333-1.6097-5.41 5.7048-9.4333-5.2246-0.4761 1.4076-0.5544 6.8632 2.0052 1.9952-0.5852 6.0262-3.4192 8.5801-10.155 2.566-9.3631 2.0711 10.076 6.8632-5.0867 4.8372-0.1545 5.6884-8.2997-1.282-0.3854 7.465-2.737 2.1188-7.7453-4.6848-5.9523 4.9016-6.1334-3.3701-3.1555 3.5389 1.1151 3.4625-3.5552 13.015-8.473-6.2902-1.0654 1.5915-5.7502 4.2972-3.7264 0.5562-0.8347 2.0095 1.4243 1.7167-0.2804 10.882-6.8941 4.0024-5.439 4.0352 1.144 5.6412 2.7802 3.448-4.1427 8.8728 3.4934 3.9883-9.3219 2.1472 8.8108 4.9156-2.9347 3.6479 5.0844 4.5755-0.8821 18.023-6.0286 5.9832-6.7518-2.9843-6.4324 8.2233 1.4387 5.441 11.795-3.4622-2.3827 8.3943 1.0346 3.7553-1.8384 4.2044 4.0521 10.016-7.8028 9.3982-5.1629-3.1367-7.467 6.661 9.7691 6.7562 4.8681-0.8347-2.7349 16.261-4.8063 5.0388 11.946 3.3389 1.9189 7.9289 7.8854 4.1281 2.1785 6.4449-7.2816 13.17-9.289 11.902 0.2596 7.5433-9.2291 3.9262-18.949-9.4745-8.1328 1.2676-2.2857-5.7979-4.1713 6.2615-1.5026 4.4047 5.9832 1.4385-15.517 11.978-1.5026 9.044-7.3391 1.2051 2.0073 3.1225-5.5812 6.8778-7.3391 0.4015 5.1915 8.3642-2.9039 8.7322-7.3743 0.2783 1.0346 3.0461-3.1842 1.5297-5.27-0.804-6.7394 9.6764-14.145-9.2435-6.0262 1.995-2.0714-5.674-9.7238-2.3495-3.4007 2.6278 4.9917 2.8439-0.4802 4.5302-2.9988 1.5148-7.0631-5.4882-14.682 5.4717-1.0345 3.8954 4.7875 5.5196 6.045-1.5151-5.1153 9.9547 10.354-1.4075 6.6467 5.3792 11.255-1.577 5.1176 3.5244-9.4622 3.5412 8.7036 3.4932 6.2737 8.0215-3.8644 6.0281 8.8913 17.467 2.704 7.698-2.8608 4.0045-3.1224 4.7443-1.5291 12.228 5.1629 0.2782 1.051 8.5469-3.788 5.519 1.9022 9.7527 12.35 0.6659 1.5933 11.16-3.5243 5.163 9.3507 1.4672 2.2568 5.5031 7.5123 12.599 4.1283-1.4075 4.2497 5.9667-9.8 0.03 4.0353 10.356 5.5175-3.6334 8.0996 0.8965 1.4388 5.1651-2.5825 4.0497 10.078 5.3481-5.0847 2.3189-3.2933 12.226 2.6134 9.6615-5.5813 10.649 9.3836 1.5935 12.119-3.8502 8.1781 4.4695-4.1364 10.982 0.8367 6.8936 3.9404 2.2878 5.0084 1.7312 1.8549-2.3185 4.3137 0.3094 2.2712 5.7192-1.7148 6.585 4.3735 5.7192-4.4518 3.9096 5.3174 14.53 10.759 1.8403 3.2933 11.068 5.7647 2.364-0.6018 4.6849 6.1974 3.8478 3.7718 1.8404 4.5135-7.1105 5.5957 2.6113 0.4019 3.0607 5.7502 3.4314 6.0923-1.0799 0.8862 7.3495 9.5219-1.4982 1.3149 14.668-5.2411 4.4516-10.047-0.2482-0.1089 10.404 5.2411 3.1823 1.4673 3.0769-24.732 6.4924 3.8023 13.757-4.9772 12.228 15.194 10.433-3.8624 11.795 9.6909 9.5528-8.2091 10.511 0.1545 6.8325-5.9976-0.2782-2.8752 6.1662-0.2925 6.4307-11.16 13.17 4.6991 7.9617 4.2046 6.6302 8.8417 0.2948 3.1677 2.0092 3.4172 4.0024 6.5849 4.0194 5.441-6.3068 10.944 3.6479 13.139-10.958 12.273-0.6804 3.5387-2.4424-0.9583-3.864 12.737 2.3495 0.3566-5.2414 7.7431-4.2044 4.0047 2.1497 3.9262-1.9021 14.637 8.4705 8.5325-2.8895-2.0856 9.3671 4.761 7.929-3.572 1.8403 2.6899 5.9502 10.96-2.0713 2.8585 1.1295 1.7312 5.4555 3.7265 1.4074 1.3911 2.4424 1.3911 5.8884-2.8443 3.8498-4.7607 6.9396-0.8823 7.2651-2.504 6.2304-3.4934 14.606 5.7975-0.3545 2.7823 12.288 0.9895 8.4253 22.459-6.6323 10.758 2.906 11.239 5.8594 6.7394-5.472 6.5849 2.8587 2.3806 13.619 8.8562 10.68-3.1822 6.0286 6.3519 5.0387 4.0954 7.3272 6.7703 1.1127 0.4493 11.16 5.5957 6.8176 10.078-4.7605 0.6636 5.4717 4.1736-1.1748 1.3458-4.8085 5.6884 0.5258 0.3546 7.4504 5.781-1.2365 2.7988-5.5791 0.3854-6.6775 12.074 6.0427 2.7349-8.3926 5.0867-0.7419 4.1878-6.9412 5.7358-3.3389 6.1047 1.9784 1.5315-6.894 3.1368-0.027 1.284-7.4977 5.1153-1.1441-2.5493-15.843 8.1758 1.9622 1.6097-3.555 5.0989 0.4018 5.8431-7.6196 2.0567 1.0346 1.4676-1.6694 4.8557-3.7243 4.5897-1.4385 4.0025 0.8513 6.0141 2.8584 0.7111 0.8699 0.7253 0.8698 1.144 3.446-2.5186 1.8714 4.5591 9.258 4.6845 2.4897 4.05 11.082 5.9191-0.6324 0.4802 7.7739 6.956 8.7654-0.7277 4.0024 12.259 3.2154-0.5564 5.8738 4.5591-0.6946 6.1686 4.9919 0.4637-6.4759 9.2127-0.9438 4.528 8.1616 9.2745 4.019 8.0234 2.7824 13.572-3.1059 17.096 8.5327 0.1393 6.7062 11.189 7.9762 2.9679 2.6751-2.3021 3.477 10.435 9.5383 9.4578 0.2617-2.4259 5.1175 1.7313 3.6624-3.0751 3.2626-1.4076 4.3901 16.076 18.069 9.9712-1.6077 22.628-25.257 28.197-13.912 6.5994-0.3093 12.815-0.4781 18.904-8.5179 14.483 0.1088 20.111 0.03 24.176-14.39 31.193-28.689 5.8264-5.3953 4.2972-17.358 6.8633-16.03-4.9775-14.159 8.8584-22.074 4.0951-10.868-4.6065-8.5324 2.1476-6.0305-4.262-7.2631-0.3875-4.9607 4.761-4.252 5.9809 6.7396 11.362-7.1107 5.7028-5.5953-1.9022-4.2584 4.6063-5.179 22.677 17.838 10.744-4.202 22.706 14.468 3.4172 6.7231 24.918 13.603 3.1368-7.7429 5.5504-3.2464-1.6242-7.8688 4.7919-12.381 4.901 6.8778 14.406-13.015-0.371-11.871 9.5219-14.606-2.6134-24.532-1.1439-19.569 7.8998 0.7112 1.2202-4.4357-8.1305-0.4802-8.2235-8.454 9.0065-10.414 3.9736-15.891 5.0393-7.8999-10.233-1.7454-3.3387-4.328 4.3591-9.4458-7.8216-14.314-0.8656-5.5956-11.037-2.6589-10.357-31.548-5.5195 3.0752-7.0939-0.1546-13.774 0.2782-0.7874-6.2281-5.3647-2.1023-3.9262-10.744-8.609-16.509 2.5351-6.121-6.8797 2.5039-0.4328 3.3696-7.7431-8.5013 0.8348-4.9159-4.6374-5.9974-14.314 1.3912-6.0037-3.6006-8.4706 2.7352-0.025 12.506 0.046 3.8313-6.4963-1.1417-11.871-10.435-11.16-7.0631-6.1521-5.0391-5.5504-4.7298 2.6608-9.2297-3.4028-8.0688 2.2114-4.8679-5.272-11.315 2.5042-4.3445-8.2688-4.5897-15.505-21.826-20.913-16.68-18.349 3.6952-11.978-5.5027-13.341-13.386 2.8132-12.073-2.2403-5.3461-23.619-18.782 1.4674-9.6599-7.3888-3.6172-4.9154-13.51-8.7634-2.8135-0.8036-7.3269-8.8893-0.9893-2.8276-8.549 1.793-15.07-8.5636-1.562-13.232-16.925-11.628-6.3004-9.0416 0.035-15.363-4.5363 3.1388 10.402-5.0864 0.309-11.051-7.6193-13.186 1.7458-10.758-2.9371-2.8897-1.653 1.4221-6.8321-9.0127-9.6457 0.3566-11.624-16.292-12.413-2.5969-6.4449-20.713-6.7086 0.8347-5.9832-2.9367-14.297-5.7051-4.792 4.2519-5.0847-0.3401-25.305-1.7311-2.8277-6.245 2.4569-5.3791-2.5805-6.6468-4.359 1.5272-2.904-6.9848-10.385 1.1131-16.4-4.4065-5.7499-0.9109-14.176-11.115 0.4802 0.8347-4.8703-3.988-1.4841 2.0405-6.4918-4.0645-4.0025 5.1629-12.166-2.7205-12.181-14.345-1.2987-0.9892-4.0024-15.365-6.1683-5.8593-16.231-4.6518-1.2984-3.7738-7.1128-0.3543-8.5323 28.611-17.296-3.2916-13.032 3.3389-2.6589 0.68-11.422 5.5792-4.5302 4.221 2.4588 0.233-11.624 5.767-1.3461 4.126-13.293 10.635-9.9236 1.1914-5.8266-3.2937-9.1983-24.856-8.6252-2.1476-7.527 7.8669-5.7357 3.5243-7.6504-3.4007-5.9976-5.132 0.2783-4.528-8.0234-12.242 5.0081-2.6751-3.8026 3.7264-1.5909-0.4949-3.6482-3.6953-0.6347-10.093-4.5588 1.2819-4.1284-12.628-2.3185-10.884-14.081-4.8228 4.359-3.0605-11.733-6.5521-3.7244z" fill="#ffbf80" fill-rule="evenodd"/>
</svg>
