<svg width="527.27mm" height="412.37mm" version="1.2" viewBox="0 0 6227.7 4870.5" xmlns="http://www.w3.org/2000/svg" xmlns:xlink="http://www.w3.org/1999/xlink">
 <path d="m1675 1012.1-4.4518 17.482-1.9786-0.3092 2.6586 6.9868-3.2913 0.5256-0.4637 3.277-0.9892 2.9225-2.2426 1.2511 0.8968 2.906-3.6008 2.4587 0.1089 1.9786-1.4079 2.3496 0.5113 3.0606 1.7313 0.7873 0.094 2.6587 0.9439 0.047-0.3092 2.8133h-1.2055l0.2152 1.0511-1.622 0.5709 0.6328 2.906-3.1844 1.6241 0.4184 1.0347-1.7622 0.1091-2.0402-0.8347-4.4209-0.2018-1.5623 1.7168 2.8132 5.981 2.1331 0.2166 0.6803 2.1805 2.8132 1.3603-0.03 0.5399-0.1393 1.8529-2.2879 7.0342-0.9893 3.1224-0.1646 0.062-1.7766 0.6183-12.074-0.4802-14.853-2.0714-19.013-6.2901-0.9747 2.9513-2.735 2.4897 5.0391 4.7609-0.6491 0.2927 9.7073 4.9464 14.73 1.9951 0.061 3.446 3.4626 1.4077 5.0081 0.2165 5.6719 1.993 1.9167-4.8681 11.208 5.0082 2.3495-5.3648 1.2511-0.5255 3.9736 4.4991 8.1143 0.1381 4.6989 0.9583 4.4209 5.9048 7.3743 0.6658-3.0153 6.554-1.7004 6.9249 0.081 5.0083-10.913-0.371-0.061 1.4674 5.1485 1.3294 4.7133 3.5408 0.8656 2.7514 10.542 8.038 7.7289 15.427 0.8965 0.371 9.7053 4.0025 3.1697 7.7906 6.0285 6.2758 22.537 3.7716 5.2082-2.2094 6.3068-11.146 20.235-8.207 4.4518-9.1817-4.6848-1.2223-3.0915 5.3958-4.0642-7.7906-8.4398-4.6847 2.2568-3.5243-7.1725-8.6872-4.2043-1.4674-0.2948-8.007-6.4922-2.2568 0.03-0.031-0.233 0.076-1.282 2.906-0.509 0.3566-2.4095 1.6674-2.6134-1.8096-1.1746 1.0367-2.5042-1.1748v-3.2007l-1.0654-0.6018-2.6134 0.7728-1.1439-2.7988 0.6182-2.4258-5.7026-2.026-1.5768 3.0606-1.9642 0.3257-4.0045-2.3187-1.7766-1.5457 0.1545-3.2461-4.2355-5.8904-2.3662-1.8075 1.3294-1.6859-0.9892-3.9407-3.5697-1.9167-2.6278-0.4802-0.9438-0.4019 0.3236-0.3854 1.7622-2.1187 0.3401-1.2984 3.755-6.5541 0.9583-5.7337-12.411 1.7622-2.1805 1.0655-1.5933-3.6933-0.1393-0.3256-1.0201-5.6266 4.3755-3.3533 2.0711-4.3754-2.2876-0.5256 0.2927-1.1748-4.2354-1.4674-0.7729-3.0915 0.4019-1.484-2.4731-1.5004-1.5459-2.333v-2.2424l3.0297-5.3009 4.1284-5.3339-1.6695-5.3174-2.9061 0.6657-2.7678 2.3186-1.3603-0.7729-1.3129-2.4278-4.2045-1.5458 6.0429-8.176 0.2178-2.2114 0.4782-10.82 1.748-2.3804zm123.2 141.17-0.6182 3.3078-2.2403 2.397 1.2055 2.2877-0.8347 4.7444-6.6776 3.2153 1.1893 5.1483 8.5489 0.1545 4.1118 3.9881 7.9761-16.447-0.4802-4.9464-3.6935-3.1389z" fill="#f9f986"/>
</svg>
