<svg width="527.27mm" height="412.37mm" version="1.2" viewBox="0 0 6227.7 4870.5" xmlns="http://www.w3.org/2000/svg" xmlns:xlink="http://www.w3.org/1999/xlink">
 <path d="m2839.5 2892.2-0.035-0.058-6.0285-3.6932-5.7193-5.7193-3.8953-0.7132-3.2151 2.0734-5.503-1.3602-5.7193-0.4637-5.5336 0.233-2.7372-13.605 0.9894-5.95 12.242-3.8953 2.2259-6.2283-4.4517-2.1023-5.6884-14.145 28.658-7.3267-6.6302-12.954-7.1725-0.4801-5.272-1.6054-1.962-0.8203-9.7073 8.9488-10.711-7.8669-2.7513 2.1023-0.5111-8.9985 8.0069-8.2523-4.1116-2.0711-5.9667-6.6323-0.6182-0.7112 8.6872-10.666-1.282-5.3629-8.8893-6.5085 9.6147-10.109-10.773-19.368 1.5147-13.99-5.6243-3.6314-7.1107 2.2424-9.6764 10.526-6.3539-7.372-2.6587 3.246 0.1849 7.3887-9.6311 4.3591-0.68-4.5921-2.5331-4.3426-3.5263-8.2541-4.3261-14.005-8.8582-1.9333-1.9787-5.4554-8.9343-1.7786-10.309 10.387-4.4518 4.73 1.9005 3.0916-2.5805 1.9024-8.0854 2.3948-2.5804 5.503-4.6227 0.3564-2.2403-8.7655-5.3959-3.4767-15.317 4.5898-3.9118 2.2732 1.0819 3.2462 3.8191 0.7562-3.1533 7.8834-16.309 1.9643-7.7431 5.7955-9.3839 13.681-3.7406-5.1629-6.2759 3.446-2.9677-7.1248-2.6277-2.4733-7.0178-5.3483-1.1893-8.4871-11.16 1.051-4.1901 1.515-6.723-0.8656 4.7299 10.913-1.9023 2.2259-7.6668-0.8347-6.6614 3.215-2.4277-2.4733-3.6479-3.8023 6.5084-7.2652-4.7298-3.8953v0.03l-7.4794-3.6294-1.9166 2.7207-11.779 0.025-3.617 1.6241-7.3743-3.3863 4.6847-3.0441-0.4802-4.9937 4.7463-3.5387 0.4472-4.252-2.5802-1.189-8.7654 1.189-4.4993-1.4344-2.8441 0.233-2.1167 2.1496 2.5969 4.7134-4.6539 9.2436-4.6062 1.4696 0.4493 6.7085-9.291-0.8203-10.093 7.7762 1.2673 6.181-7.4194 4.6374-0.8968 11.16 0.1291 10.33-10.987 1.453-2.4422-4.3899 4.5609-4.9753-3.4934-4.592 2.6134-3.4625-2.5063-3.2769-7.9596-5.7646-12.698-2.2115-0.911 5.9047-6.1212 5.2247-0.7111 4.6065 3.8171 3.8641-0.2001 8.3618-8.4854 5.039-8.9817 8.982-6.1212-7.6979-9.8621-0.4947-2.982-3.5243-3.6173 4.6516 3.9407 9.2127-14.376 5.4267-10.202 3.2914 7.4361 8.0072-1.9167 5.2864 4.2352 0.3255 3.4935 6.0738 2.8278 7.9616 11.548-2.2423 2.3497 5.8287-7.3578 7.3267 3.2913 12.15 4.6847 5.5957 14.544 1.0037 0.5873-12.38 7.5291-5.8431 12.626 2.6589 0.777 0.1596-0.9872 2.3125-4.2497 5.9378-0.9441 6.3808-6.6303 1.4076-7.0341 4.8063-1.2757 7.8071-5.1857 0.8348-2.3639 6.5375-6.8011 3.8211h-5.8288l-0.1544 8.2853-7.9287-2.6278-1.9025 3.0297-6.4755-1.3789-8.3162-5.2389-7.4196 15.876-5.1938-10.28-8.7181 1.5314 0.1545 12.784-11.486 3.9716-2.3185 5.4698 8.7181 3.8191 9.2909-0.8038 0.028 5.6719-8.4851 0.402-4.761-0.7874-2.9061 4.8848-2.3639 6.5537h-1.8715l-4.4827-1.8857-7.3122-0.6965-8.6543 4.4394-8.3162-1.9807-5.4576-9.1365 6.8467-7.4959 0.7441-7.6957-11.75-12.385 7.0177-7.1413-4.2334-5.948-11.748 7.6957 3.0439 6.7396-9.7835 6.8157-1.3294-3.0751-6.1521 6.8489-7.6215 4.5733 2.7823 9.6146-3.0915 6.6631-15.876 2.6422-4.6662 5.7358 4.5135 15.256 12.181-0.1823-0.6656-4.7301 3.1368 0.7256 2.9226 1.9331-0.1241 8.8108 4.219 1.3911 6.6323 10.588-1.7931 5.6428-4.2519-0.7583-2.5042 3.9427 2.5969 11.515-6.5064-6.7085-5.0393 5.952-9.491 2.5351-1.9167 5.7029 14.019 4.9319-2.3803 4.8845 8.7963 5.2247 2.9986 5.5648-1.4694 7.5123 5.4721-2.8296 6.3375 9.2436-0.511 20.324 5.3647-1.6385 0.4019 4.0189 12.411 5.6266 0.6803 5.643 3.8026-0.511 1.4385 3.2459 4.39-0.6635 0.88-3.0153 7.2508 3.2769 4.7607-2.8131 2.8752 9.0128 2.3803-3.1391 7.6506 4.0975 19.06-3.2627 9.7838 9.6002-2.2405 6.9559 1.1439 13.572 20.789 2.6587 3.9285 7.1725-0.2355 4.4044-5.7193-2.8444-4.3281 5.5504 20.204 15.427-4.1281 4.4971 1.5003 6.4778-4.3446 2.2567 0.1393 4.9155 4.73 3.3389 1.0678 6.2757 11.004 2.7349 5.443-0.3234-3.5408-5.4412 4.53-6.4302-4.8537-9.6311 1.0348-6.554 3.106-0.6493-1.8384-8.7181 2.0711-4.5589 5.7049 3.7553 4.4519-3.1227-3.0152-6.8774 8.2541-18.487 10.992-4.452 1.0819-17.683 11.855-0.2153 2.9018-7.1167 10.14-9.5385 9.6932 1.4841 0.1697-14.328 11.655-14.221 14.021-0.2356 11.655-4.8063 6.8777 0.9893 8.007-5.581 9.491 3.3675 7.5432-1.8693 2.8917-1.6241 12.428 12.028 0.6182-6.5087 9.0109-8.2997 1.562-5.874 7.8051-3.1368 15.798-6.3539 5.2865 9.8123 4.3137-15.532 28.194 18.349 12.921 10.293 7.234 5.7687-1.4221-4.6371 16.014-4.3282 15.488-19.633 3.8191-33.015 5.0225-1.1625 6.1521 5.907 16.123-1.0657 11.113-8.5324 1.7787 7.1537 14.916 1.9807 7.976-0.1266-0.4161-6.7394 5.0226-3.6171 3.7882-7.6361 4.4209-8.9508-0.773-9.2128 9.8618-17.096 12.552 2.2876 2.968 9.1819 12.908-4.0666-1.0675-11.47 18.642-9.7835 3.2627-5.3647-1.2696-12.937z" fill="#8080ff" fill-rule="evenodd"/>
</svg>
