<svg width="527.27mm" height="412.37mm" version="1.2" viewBox="0 0 6227.7 4870.5" xmlns="http://www.w3.org/2000/svg" xmlns:xlink="http://www.w3.org/1999/xlink">
 <path d="m1356.3 2059.2 0.4781 11.13-4.5898 19.6-4.6229 0.7874 4.4209 1.0325 9.8784-5.8428 16.169 6.9394 20.249-2.0095-0.1545 3.7573-10.528 8.0687 1.9332 9.2127-5.4575 6.3066 6.6014 12.582-12.644 10.773-3.0462 3.9736-3.7716 5.2865-5.8883 0.046-2.7824 11.748 4.559 2.6422-2.364 9.2127 5.5792 10.328-7.1723 7.6197 2.6442 10.033-5.7811 2.6732-3.0606 10.356 5.0227 2.7681 16.911-2.4898 3.6644 3.0442-5.8903 8.5324-11.917 3.0462-8.0544-1.1293-2.7659 4.2681-13.046 3.7388 12.537 13.494-21.348 21.548-6.6777 23.728-9.1962-1.6242-5.612 3.9572-2.364 4.7774-8.3781-0.079-6.0449 4.4806-3.817 4.7156 0.045 7.3887-1.8693 5.7976-10.682-5.2102-4.1735 1.4838-7.7432 11.779-6.5395-4.8392-9.6456 2.6916-8.9798-1.7931-0.1709-9.7547-2.937-1.2366 7.3723-18.687-5.3937-5.3959-6.9559 2.6113-8.2399-2.9988-6.4613-10.14-19.274 5.9687-30.806 11.871-3.8025-6.0594-3.5099 0.742-1.6385 5.07-5.1938 4.0974-10.154 2.8132-4.1283 4.4826-11.129 0.3093-8.7799 4.6991-3.4007-4.221-1.3128-6.1974-12.104 2.3494-11.144-8.889-8.0997-0.5091-4.9629-6.3851-10.371 1.0204-8.0235-4.0809-12.304 8.9201-8.9964-0.6184-9.5218-14.577-0.5874-23.603-9.7218-3.0297-3.8335-18.209 2.1332-2.3353 7.2176-11.717 5.1319 1.422-0.1689-3.6479 5.2865-1.0966 0.9274-3.4172 5.6266 0.3092 19.075-11.222-2.3043-23.897-33.265-18.625-12.875-0.3402-4.5445 9.2745-6.014-10.109-3.5242-7.5432-1.0965-2.3353 0.9275-4.9772 0.076-5.8265 1.2839-0.5731-1.253-0.3399-7.3104 1.222-11.964-4.7916-4.9938-4.6374-6.5396 1.3438-10.233 18.302-1.6385 10.789-17.389 8.0999-21.008-2.3806-6.2283-2.5039-12.984 1.9784-12.026-2.8132-11.593 1.5003-7.9308 1.3438-3.3842-0.4946-18.642-13.695-7.0486-9.9712-10.789-7.3414-8.2708-4.761-11.979 0.5567v-0.4473l-5.1793 3.4461-4.5136 1.3458-1.5292 0.2636-1.6076-1.2673-4.7301 0.309-3.7572 1.5294-2.4876-0.6493-1.453-2.8441-1.7931-0.046-0.5565-4.5158-1.7168-0.2925-3.2296-2.0549-3.1842 1.3891-1.2366 5.1175-3.2626 1.4983-2.0713 0.9603-2.5351 5.5175-2.3495-0.5709-3.4151 0.4329-0.8347 1.3602-2.0569-0.6987-2.0548 0.3421 0.1689 1.3438-2.9204-0.4184-2.7515 1.9146-2.906-1.6363-18.642 6.6776-9.5837 0.4947-4.3137 5.5194-10.247-1.284-4.8084 6.0447-3.6624-2.7822-9.6001 6.3065-7.7288 4.6828-1.8075 0.1823-6.0759-3.8333-5.5029 0.7892-3.9715 4.0191-5.1484-1.7477-10.185-3.2298-1.4221 4.3282-15.845 6.8632-9.0416 7.0013-8.6562-2.6587-6.183-6.5067-5.1793-0.5255 0.23299-1.655-3.7098 0.061-4.8228 2.3495-2.3186-0.4329-0.0618 0.8966-4.6373-0.8657-3.6624 1.144-7.127 3.6005-13.232 6.725-24.207 9.724-2.4588-0.079-10.464-0.3093-8.8417 1.3747-15.21 0.7894-23.364 13.011h-8e-3l-1.5622-0.8965-2.9679-8.9323-4.5095-1.2162-2.4608 7.0345-1.3438-0.773-13.897 6.5232-1.1129 0.4019-5.9975 3.0915-1.5602 2.5493-1.4695 0.2507h-3e-3l-4.2188 1.5603-0.55649-1.5768-11.886-0.7873-8.7036-1.0057 0.74197-3.0133-1.9167-2.8914 3.1842-4.5447 1.824-0.4946-1.082-8.4233 7.0012-6.2283-4.2024-7.1745-2.3661-4.0334 3.7408-5.6266-12.706-9.0126 13.743-8.9037-4.6682-6.7085 8.0688-7.8834-0.35655-5.7955 13.263-1.0819 11.053-4.4376 6.2758-9.9689-9.9237-5.6575-5.2247-3.6646-2.8751-2.7823-2.4732-4.4826-0.88207-15.736 1.1438-14.036 0.30918-3.8644-2.6113-4.3735-4.9464-1.9166-9.3529-1.2222-5.6265-2.7205-4.0952-1.9931-6.1686-13.866-4.6208-0.911-3.8644 1.189-7.6051 7.2817-14.794 1.5456-14.637 6.383h-4.8702l-3.3224-0.8656-2.1187-5.2556-7.1105-5.8737-6.7086-11.422-8.7634-8.7657-14.746-13.586-2.6587-4.4375-19.864-12.133-19.738 0.3855-0.63479-10.078 3.0152-4.2808-6.014-5.8429 0.37099-7.8998 13.403 6.7868 1.5911 3.8644 7.1579-2.6278 6.383 7.465 29.709-15.317 5.6884 2.0096 44.071-14.763 7.8978 0.7585 8.5944 12.813 8.9035-4.761 4.2972-3.5697 14.237-8.7345 5.5647-17.22 11.329-2.1022 1.8858-17.574-7.2795-1.7478-18.287-22.273-12.953-8.4397-10.309-1.2676 0.61828-8.3779 4.39-9.8476 14.916-0.8348 5.5647-4.4826-1.2984-5.8264 4.2663-0.6494 3.7881-14.19 35.227 2.937 4.9938-3.7882 6.9085-16.43 10.806-10.511 16.832-1.5934 16.601-26.045 18.92 1.5458 10.002-7.0343 13.153 0.4329 9.4456-10.433 14.005-1.5004 18.564 3.3698 3.2461 0.5564 29.153 3.2008 8.1162-8.7964 4.7918-0.138 14.159-5.7358 8.5326-9.0416 12.644-0.8038 8.1142-11.579 6.6941-2.6113 30.806-15.952 3.0915 1.2201 7.3434 0.6657 2.2877-4.7609 4.3735 0.6182-1.7622-3.9118 5.7358-12.38 6.5231-5.2412 1.1891-3.7716-11.253-7.1414 6.9723-16.183 9.3055-8.209 26.787 13.315 7.3433 34.33 11.5 6.2305 11.686 8.145 11.546 7.2816 10.264 2.4258 19.06-5.3174 10.773 10.188 4.8702 1.3912 1.1439 9.7526 2.8277 0.076-0.9893 8.5182 4.4518 6.3211 8.9509 9.9876-1.3149 3.1513-15.596-2.2403-6.725 6.6468 8.6727 13.695-3.8335 3.7551-6.3685-0.371-2.6443 18.906-2.535 6.2139-3.0297-0.3874-5.981 8.6563 1.4839 5.7502 7.5742 11.857 16.368 6.8323 12.397-1.8239 3.2935 3.0297 1.8858 6.9704-7.6051-0.233-2.2115 6.0758 1.7003 20.511-13.648-1.5149-8.6562 7.5908-19.308 4.3588-6.0903 4.5776 11.3 16.74-1.5767 4.0024 23.077 11.068 5.7193-8.0523 15.01-9.6455 5.4865 3.7244 4.2972-2.2094 12.366 3.4005 1.453 4.0645 14.406-7.4341 15.427 0.2 6.6633 0.8801 3.1842-8.1308 19.106-18.749 5.9502 1.2367 2.535-6.5396 6.3067-0.8039-0.2927 4.8846 9.0726 5.2102 5.4575-3.6646 15.674 8.3329 7.0322 4.2043 8.4563-3.6334 0.6327-11.948 17.391-10.559 10.804-1.9166 14.345-13.772-15.643-5.9976-8.8727-5.5339-1.0346-8.5016 7.4506-9.0129 0.031-7.0939 3.277-2.3804-2.5516-7.3434 3.2297-5.4409-0.7255-5.2083-0.3566-17.189 2.4897 0.6492 2.6566-6.6632-3.2584-1.7003-3.65-27.003-18.502-15.241-27.005-15.674 3.7428-11.779-2.3043-6.183-3.6335-0.3092 1.7168-5.643-3.0462-7.0013 17.667 3.7098 7.9637 6.1212 10.324-2.6752 6.2923 2.8298 4.2044-2.7823 1.7293 2.3639 9.2436-6.9868 4.4992-18.889 5.0103-3.6171 3.3223 1.4695 10.991-9.662 16.538 10.095 36.527-15.519 6.3994 9.5054 5.7359-0.7255 4.866 11.515-2.2878 8.6727 3.2791 13.37-3.817 12.414 4.5755 8.378-5.5503 7.2341 0.5544 13.308 2.5505 1.7736 3.5253-4.8712 7.4361 9.1034 10.666-3.8953 4.8227-1.7457 24.977 8.0215 3.8046-3.988 8.3924 0.882 0.8966-5.1793 11.284 2.0095 6.0758 1.0058 3.5388-8.2399 13.355-6.0429 3.7242-10.095-3.1203-3.4316 7.8215-3.4625 6.7848-1.1129 3.6171-10.542 7.5433-2.4732-1.3129-2.5659 5.843-7.465 14.53 2.6587 6.723 8.0998 4.8536 0.9418 2.1806 5.5957-4.4518 0.3709 0.6183 3.6171-9.0437 6.4468-3.8644 7.8669 5.4576 4.9011-0.8038 8.4233 5.1937 0.1401 0.1545 6.0903-3.5099 7.7597-8.7325 6.0119 0.1236 9.7414 8.038 1.858 8.1306-7.5742 9.4765-12.49-1.5931-2.8297 15.55-2.0404 9.9237-10.711 19.586-2.1496-3.0771-6.9559 2.8751-1.8693 0.8965-2.566 0.4947-6.0903 11.919-9.631 20.975-6.4448 8.92 10.833-0.4184 1.9023 4.7156 6.6468 6.1212 6.9085v1.4839l-6.9868 1.4077 3.6624 7.3413-0.3401 5.8594-8.3924 2.364-8.5635-0.9274 0.371 1.6385-6.8796 1.2057-11.191 8.8582-0.6183 1.9312 1.6076 1.0202 8.2234-1.8384 3.6644 5.2556 6.6303 1.3293 8.9345-5.6121 3.9736 1.824 3.1678 6.5086-0.1998 17.993 3.8334 0.018-6.0449 15.179-9.5672 1.7787 4.9299 12.875-2.6587 10.233-9.9382 2.1188-10.295-3.2625 2.0095 5.1173-5.2411 7.9452-11.948-2.9533 1.251 7.9761-3.3532 4.3755 5.6265 5.7028 1.4221 2.504-8.0688 12.83 1.9002 2.9368 2.397 2.2879 2.3804 7.7904 8.2235 3.17 8.547 8.8417 2.2732 9.2271-9.2436 7.1414-5.0391 9.8311-9.3673-3.4934-5.6266 7.3576-13.866-5.3318-7.0631 9.6908-13.805 4.6848 0.3565 6.2283-19.771-11.068-2.8133 10.156-3.2914 0.2001-0.4802 3.65 7.265 3.6149 6.4304 10.975-4.9609 0.2026-3.2935 4.6371-0.2165 10.295 6.6158 19.769-6.6776 4.8702 5.6265 3.5646-8.5325 7.5761 6.6221 12.659 5.7757 2.0711 3.4288-7.9452 16.63 0.2536 7.0073 9.8866-5.3276 2.7969-0.233 13.419 4.4785 7.3414 8.7408 0.1747z" fill="#80ff80" fill-rule="evenodd"/>
</svg>
