<svg width="527.27mm" height="412.37mm" version="1.2" viewBox="0 0 6227.7 4870.5" xmlns="http://www.w3.org/2000/svg" xmlns:xlink="http://www.w3.org/1999/xlink">
 <path d="m2828.7 1744-1.2199 0.1649-0.033 1.5499-0.7253 2.836 0.8902 2.7699-0.033 1.418-1.055 1.1212 1.6816 3.2976 1.2202 0.7914-0.099 0.9893-1.8797 1.0223-2.6708-0.033-4.6148 1.0883-3.7839-1.2841-1.3851-1.2201v-1.9456l-1.1212-1.0882-2.9347 0.8574-5.8368 4.0231 1.187 1.1212-0.2968 1.7807-1.0221 2.5392 2.3084 2.8359-0.4288 1.1212-1.517 1.1871-1.8796 2.77-0.099 2.0116-1.286 0.7584-5.3422 2.3743-0.7585 0.7914-0.228 2.5062-0.5936 1.5828 1.2182 3.5615-0.9875 3.5284 0.4267 3.7263 1.7827 1.8467-0.7562 2.4073h-2.1456l-4.0561 6.8919-0.7915 5.3092-1.6487 3.4955-2.4072-1.5499-1.9787-2.4073-1.8135-0.6265-1.3851 1.418-1.7806 3.2315-1.519 0.4617-1.3479-0.9563-0.7914-1.696-4.3178 1.1725-12.684 10.559 1.148 4.3281-6.9251 6.9724 2.3353 1.6386 0.5708 2.4586-0.8203 2.024 10.666 11.346 5.0084 13.069 3.1224 10.612 2.4112 2.5042 0.2639 3.9263-2.5042 2.0567 0.8203 14.437 9.1345 11.268-8.8582 8.4706 4.3591 9.8765 11.748-1.7766 2.1496-3.6317 6.0903 8.7635-1.8857 3.4007 2.7349 4.5444-0.046 6.6305-5.1937 9.3692-2.8606 4.4518 4.6536 13.293-2.2259 15.07 4.7157 15.952 6.8447-1.5002 16.094 18.211-1.4529 4.759 1.0345 1.113 11.979-2.6422 25.148 0.6636 20.299-13.184 8.4068 0.911 15.905 1.4076 12.197-21.548 8.5653-1.4364 3.244-0.081-6.3045 30.328 30.204 14.825 8.5019 10.016 2.0217 5.8264-1.558 10.278 8.8087 7.5764 5.9006-2.2859 4.4662-4.4517 13.138-0.9893-2.8772 4.0354 3.5717 3.988 11.391-2.102-0.3855 4.4826 5.7525-3.0152 14.326 12.846 4.5323 3.4626 5.7026-2.5207 3.541 5.0558 3.1388-3.8191-3.0296-3.7242-0.8204-20.157 2.9371-5.4412 10.064-3.4481 5.0988-1.0346 7.8833-12.551 4.5303-0.4639 9.0868-4.9937 0.096-4.157 5.1627-4.4828 11.284-0.8822 1.8692-7.2793 12.335-1.3438-0.5093 5.1462 6.8323-1.9784 1.0346 4.6371 17.267 7.9907 1.6219 5.3338 12.613 7.2485 5.8429 7.3743 10.357-1.4673 4.3282-17.669-5.7337-1.8551-0.8966-4.7919 7.9288-6.1685 1.0056-14.885 19.46 6.4757 9.3054-4.3425 2.8132-9.6456 7.1725 3.3534 10.218 0.4493 4.4065-5.5648 6.7064-1.6383-3.9716-9.6314 3.339-5.7955 2.7205-9.4145 4.2045-15.596-6.8941-0.4802-0.046-7.4958-16.216-6.7868-0.6802-6.5849 4.1881-0.3237-0.54-8.0069 3.755-1.8716-8.0069-5.7955-5.9049 2.6587-9.0251-4.8846-1.5479-7.3743-6.4922 1.2222-6.0283-4.2354-0.4781 7.0177-3.1535 0.046-2.133-8.3018-4.9939-0.061-7.5886-8.0997-9.3218-6.9415-7.5744-12.473-10.694 0.8654-3.65-0.6182-8.7943-2.3804-8.0237-6.4778-19.212-0.9418-5.3176-2.7063 0.8348-4.1425-7.3744-0.1545-10.556-7.7269-9.0888-1.1604-2.6278-6.1807-2.8443 0.8798-5.3751 7.2282-3.3574 4.5095-1.3149-2.3024-15.674 15.472-8.7634-1.7168-8.0687-10.604-2.5042-4.3877-8.6107-5.5977-6.4614 0.7129 0.2508-8.7034-2.5744-1.249-3.0811-5.4309-2.395-0.8408-0.2637-2.0445-0.8904-2.1104 1.3192-1.2174 3.4293-1.0305 1.3767 1.1088 3.1452-7.4855 6.0758 1.2407-2.8607-5.7482-11.647-6.185-6.3046-6.4345 0.5565 7.4464-3.3162-0.097-1.2159-5.6286-9.3426-6.2119-9.3672-3.0523-5.9006 3.3141-0.8844 3.4645-1.1067-0.6925-2.9965-1.8755v-0.01l-1.7457-0.2555-0.2305-0.8265-1.9455-0.1319-5.3979-4.5508-1.0984 0.3628-1.1873-0.3628-2.0113 0.5277-0.8575-3.0009-2.1104 0.3298-1.0553-0.1319-0.5276 0.9233 0.2305 3.1657 1.3521 2.1702 0.3627 4.2601-0.3956 2.4403 1.6816 1.5498 0.1317 1.3191-3.0008 1.7807-3.3964-0.062-4.6828-1.5849-2.3742 0.8904-1.6487 0.9212-2.3743-0.4925-0.2968-1.8158-0.6927-0.7234-1.8135-0.1649-0.9893-0.4616-0.4287-0.7255-2.1436-1.0552-0.9563-1.2861-1.0882-2.6051-0.9563-1.8467v-0.015l-0.025 0.018-0.9563-2.5392-0.033-3.2646-0.6595-1.9126-1.8796-2.0775-0.5607 0.1648 0.1646 0.9893-2.5063-0.1649-0.7914-0.4616-0.8575-1.9786-2.1433-1.1872-2.6711-2.1104-3.5945-1.1212-2.1435 1.7477h-0.7914l-2.1763 2.7041-5.9358-2.5062-0.099 1.0222 0.9892 2.836-0.6265 0.9563-2.9679-0.9563-1.8797-0.2307-0.9233 1.5828-2.9677 1.1212-1.3522 0.2968-0.9233-0.2638-0.2636-1.352-4.5837 0.4617-3.5616-0.1979-0.066-2.6051-1.5499-1.1212-4.3201 0.6596-0.033-5.0454 0.5936-1.1871-6.1995-2.9679-1.4841 0.3628-1.2199-1.418 0.066-1.2201-1.3189-1.0882 0.3626-1.5829 1.3851-0.9233-0.033-0.7914-1.517-1.0223-0.3955-1.1871 0.2636-1.5169-0.8902-1.0223 0.1646-2.3413-2.1106-0.6925-0.3627-1.8467-2.6382-0.033-0.4946-1.0223 0.8576-1.4839 4.2207-0.9233 1.2861-1.1542 0.1646-0.8244-0.4285-1.1542-2.0446-1.9456-2.2755-1.0222-13.289-0.9563-0.8244-1.3521z" fill="#ffbf80" fill-rule="evenodd"/>
</svg>
