<svg width="527.27mm" height="412.37mm" version="1.2" viewBox="0 0 6227.7 4870.5" xmlns="http://www.w3.org/2000/svg" xmlns:xlink="http://www.w3.org/1999/xlink">
 <path d="m721.13 2589.2-4.5301 6.1521-15.921 6.8324 8.1162 10.233-6.3685 19.415 5.9501 7.0631-4.3116 2.4733 2.5185 4.2045-12.288-4.2499-9.3673 11.191-3.648 2.3806-14.839 1.6695 0.6945 3.9715 6.214 2.0567-2.5969 5.1155 2.1331 4.0045-0.6801 7.9761-8.1142-2.6134 0.3092 9.1983-1.6241 1.5294-10.155-0.6514-7.9761-0.511-4.6064 0.88-4.2044 10.589-1.484 4.1737-10.171-3.2154-4.761-2.4277-4.1426 2.2259-8.2708 7.1887-6.1666-1.4076-8.749 5.3647-9.4765-0.076-7.3269 3.4152-5.4102 0.2639-5.101-5.8123-5.4555 2.2095-8.3636-3.415-7.0322 11.84 3.2296 0.7109-0.61828 16.076-4.0025-0.9747-3.0462 14.176-17.543 5.5483-12.088 4.3755-26.711-2.026 1.5458-14.452-6.6468 2.7205-4.019 12.535-5.2556 0.8965-1.7786 4.4064-6.4612-1.8548-3.6315 7.8978-11.672-8.0216-9.5837 14.576-9.1035-5.8122-4.0499-8.0523-2.8133 0.8801-22.028 21.671-5.6265-0.9584-4.2807 5.4412-6.6941-1.4367-1.7931-3.8497-9.0416 1.2055-0.29472 14.87-5.6575 2.9062-11.917-1.4674-0.86563 5.27 4.3281 2.4586-3.8499 5.5957 6.2139 3.5861-3.817 19.94-11.16 2.5493-1.5148 3.4172-4.8083 1.8239-6.6921-8.0687-9.7692-5.1011-3.2008-12.382-12.813 2.8464-7.6051 7.0322 4.9918 8.6107-9.9691 9.5219 3.1533 5.0846 6.8776-1.0039-0.66366 6.3995 4.3116 4.0952-2.3022 8.209-4.4209 7.2176 4.8063 10.882 6.6468 4.0356-1.4365 4.4208-4.4992 1.2673-2.5185-2.3968-20.218 4.4208-13.403 7.4506-9.7527-22.135-5.2102 2.0093-3.3079 11.641-5.5029 1.2675-4.5754-5.874 1.9167-12.706-6.3685-1.0221-2.5659-8.2235-7.094 5.2102-9.4765 4.6062-11.391-1.3911-5.303 7.3434-4.2663-2.5515-1.1274 4.0974-8.6109 7.8978-10.789-2.3806 3.2626-12.382-3.2626-0.5235-0.50908-6.5395-10.188 3.6314-1.0346-6.3046 1.4674-4.2045-2.3021-6.0759-11.455 2.6587h-2e-3l5e-3 0.025 5.0536 21.039 3.9262 11.346 2.5206 6.3686-8.7036-1.3293-8.1142-0.1824-3.9427 5.1482-5.9192-0.7109-0.58738 3.4625-8.5944-10.837-10.666 1.1128 0.13803 5.5195-4.2354 0.1823-5.1937 8.6254 1.3293 9.3219-6.5231 6.8159-2.2712-0.4019-18.024 2.2258-2.0713 1.1295-5.2411 1.6075-5.27 8.949-8.2708 0.5564-0.3545 4.9773-4.1735 1.9951 6.6158 11.346-2.3495 7.4959 1.8384 6.4466-11.284 1.3914-1.2675 3.3696-4.559-4.2829-3.2152 6.4305 1.6385 5.4577-5.4266 1.6692 2.366 4.8848 4.8228-1.1131-1.9641 7.5741-5.1463 2.6587-4.2663 7.1869 1.453 9.4455-4.1117 1.5458 2.4567 4.4044-4.8846 0.2001-2.906 10.837 4.6228 1.2676-6.8487 5.4718 6.4613 13.153-1.1892 6.7397 4.6373 5.4738-5.5338 3.4935 1.5293 2.5804 3.8335 3.85-4.157 6.183 4.7444 3.7408 6.385 5.5172-3.108 6.5396 1.7622 5.132 2.4114 5.9973 2.4588-0.3707 0.0927-5.1485 3.8479-1.8384 0.6183 11.16 3.85-4.6371 1.1439 4.4826 4.6373 0.6182-2.3969 2.9514 2.026 9.522-2.7061 3.0461 4.5445 6.3211-2.5041 2.3803 1.5004 5.7813 4.5136 3.8189 4.1735 7.5744 10.449 6.6467 2.9988 5.1938 6.4304-0.5258 2.364 9.9692 0.4493 9.6311 4.2354-0.6347 3.5697-6.0121 7.8524 0.2784 9.8619 15.039 2.0878 5.1938 11.346 6.461 10.464 0.03 7.6525-4.3423 12.566 13.17 4.6372-5.3958 2.8133 4.1901-10.017 8.4542 3.3553 5.0084-2.6752 4.4064 1.6694 7.976-7.0322 5.3483-0.75845 10.851 4.7918 4.4661-2.2712 3.1842-3.5552-3.0441-2.737 2.797 3.85 5.2102-12.073 9.0888-7.4959 2.1785-5.0866 6.0759-9.9691 8.2544 3.2296 2.6587 1.0511 5.0843-8.6398 17.374-13.434 11.826-3.9571 2.5804-3.3079 2.1497 1.4695 8.8108-5.2246-1.2058-4.0499 3.1368 8.1451 9.3675-1.2201 4.3446-10.466 11.329 2.2733 16.602-2.2877 20.513 11.408 4.1264 12.923-5.6267 3.9406 6.5705 10.188 2.1168 6.0594 8.5017 7.7741 3.8498 17.576-5.5956 3.8479-12.799-4.3281-11.579 2.4588-4.1115 0.94189-0.3856 5.3339 1.6077 5.4555-1.9167 4.1735 1.0657 3.7098-1.3912 4.5301-2.8442 6.183-10.093 6.2593-3.1225 3.819 2.6278 5.0701-4.1902 1.824 2.6278-6.554 6.2449 1.4674 4.7157-7.2176 3.8025 5.8265 7.2651 0.38749 4.4972 12.411 2.1641 3.6954 6.6012-2.2424 16.076 6.183-0.096 2.9369-4.2311 10.002 8.9157 16.354-4.2044 5.3792 4.9631 3.9716-7.9782 5.5503 1.9477 14.143-6.9396 7.9452 2.9226 15.103-11.855 18.024-4.097 8.58 1.7478 16.076-7.5291 12.735 2.4816 4.39-0.027 6.2304-6.6015 4.6208 1.1292 2.1641-2.2732-2.4114-5.4866 4.4827-1.2528 16.803 1.9332 1.453 4.4043 5.5648 3.7718 5.7028-4.1118 1.7786 4.6227 10.093 1.4656-2.1022 7.0651 2.8442 10.728-2.3805 4.2044 6.7251-4.7156 13.493 8.2089 10.559-2.7821 5.7502-9.1676 6.1666 1.7786 13.001-3.4788 3.4769-4.7612 12.042-3.9714 1.0202-3.37 2.6113-1.871 4.8227-7.9452-8.547-3.7553-5.1628-10.713 6.8776-4.7754 7.6216 2.5805 7.9761 3.7715 7.7741 1.2841 10.82-1.7934 5.1175-1.3912 4.188-11.084-3.6315-4.5898-3.5099 2.5349-3.4151-9.1365 4.5136-5.7028 11.995-1.9949 2.6422 5.7666 4.9774-1.7004-0.0453 6.3069-4.9155 5.7811 9.3817-1.5933 0.85121-2.5969 6.1974 1.6077 7.6835-1.6694 4.9155 5.3647 3.5387-7.4197-4.188-5.6263-0.89653-5.0084-0.24741-6.0759 7.1249-4.2043h5e-3l10.895 10.631 5.7811-1.0674 2.1022 1.8548 5.1937-8.5942 9.7383 3.0461-2.5515-8.6418 3.9262-1.515 7.4979-11.778 5.9666-1.8861-12.242-14.283 0.32359-3.6005 6.3067-2.8299v-9.5055l11.455-12.551 3.8644 5.07 2.0198-6.3704h5e-3l4.0664-8.207 2.9988-1.8714 6.3067 4.8846 2.6731 4.0807 13.664 2.937-0.80378-4.3117-1.4221-5.7975 5.101 2.335 7.8525-4.0354 1.1438-4.4043 8.2543 5.95 1.7313 8.8728 4.0355 0.4019 3.6479-7.1869 6.3067-1.8857-1.0511-7.2652 7.5268-9.8 0.1091-4.3446-2.8751-7.0486 0.093-4.0952 13.108-9.9712-0.5112-2.2568-0.4637-10.758-2.0857-5.3483-2.906-4.9299 0.5255-6.3542 0.6018-16.508-4.1426 0.5564-5.2391-10.464-2.2424-6.7601 1.3912-15.169-11.7-9.1673-8.1925-10.031-9.5384-9.2603-1.4056-10.216 0.7255-5.2103-4.4353-4.0498-1.5148-7.1413-11.115-13.974 4.8392-3.3224 1.5767-5.0391-4.4374-5.5195-0.3236-5.1628-9.662-13.648-12.304-3.1842-6.8013-6.3375 0.4019-12.475-11.037-19.074-8.718-2.797-3.3079-5.6739 6.4468-3.8786 18.131 4.0498 4.6847-2.4733 0.91098-6.0594-3.1224-5.6884-5.0701-6.2283h-3e-3l-8.4996-9.1653-3.4316-18.811 23.526 1.7477 4.0973-3.4934 2.4732-5.0246 1.2057-3.4934 5.9666-2.8585 4.1426-7.7144-1.284-5.672-10.326-6.694-3.1678-2.2259 1.1583-8.0999 9.322 0.4802 2.7514-2.335-4.1591-6.3996 2.0404-3.0606 1.0511-3.5532-8.2234-3.2171-1.5602-2.6731-4.0664-6.0285 6.9106-6.8179-2.366-2.8585-8.6707 6.692-4.19-4.3879 1.3458-3.6644-6.2304-2.8443 0.69663-7.3908 12.813-3.8188 6.6014-0.4781 2.566-2.6134 4.2354-2.1023 3.0441 3.1389 3.3244-4.53-3.4625-3.7553 1.6385-3.9118-1.082-4.668 9.6908-3.5864 2.2568-4.2661 2.5207-4.9301-2.8298-5.1482-6.3067-1.1275-3.7098-7.8071 7.4815-1.2055 0.2018-16.571-6.2922-0.8347 4.901-10.556 10.464-5.2102-9.491-15.579 2.6752-2.5204 5.6266-5.239 4.1879-8.1309-0.9583-5.0864-3.648-4.188 6.1521-1.7931-0.5565-7.9451 7.0487-4.9631 4.6063-0.079 3.1389-4.0498-5.7667-1.3747 1.9023-1.9952 2.5804-2.5348 5.3648 2.0258 0.8656-5.0391 3.1369 0.9584 5.4411 3.8788 2.0568-2.766 5.5029 4.4044 2.4258 0.7893 6.0285 2.7826-4.0334 8.0378 4.5136 4.8228 8.2378-2.7205 6.3232 6.1665 1.2511 3.6953-3.5079 0.8347-0.233 6.2284 14.454 5.0248 1.4674-2.6587-6.5849-4.1592 4.4373-8.5778 2.8133-6.416 7.2486-1.8239 8.4089 5.8737 5.6884 1.7478 7.636 10.217 11.593 1.5147 2.1331 2.5824 8.9819-4.592 4.7609 0.5422 1.622-17.885-4.6991-4.8228-5.2391-7.698-8.4872-9.2435-6.1975-9.0725-0.5255-7.9453 4.7135-16.323 2.6278-10.033-3.3533-2.6896 0.2021-6.6302-14.639-1.4385-3.3533 0.8347-5.1937-2.8443-6.8487-16.399-12.026-3.339-8.1472-3.85 3.0915-14.406 7.2198-9.8765-13.712-9.7691-9.5837-1.9478z" fill="#ffbf80" fill-rule="evenodd"/>
</svg>
