<svg width="527.27mm" height="412.37mm" version="1.2" viewBox="0 0 6227.7 4870.5" xmlns="http://www.w3.org/2000/svg" xmlns:xlink="http://www.w3.org/1999/xlink">
 <path d="m4524.7 356.14-15.546 2.3331-16.76 5.6822-28.333 10.583-44.991 14.878-36.233 11.319-31.599 11.447-48.207 6.5189-43.473 12.801-37.195 16.647-38.485 21.599-16.484 16.068-9.3675 11.333-3.6705 3.4316-7.6463 7.0981-31.6 14.567-13.572 5.5318-5.7216 2.3351-13.444 3.1162-3.6212 2.8442-17.166-0.0179-29.952 3.7345-2.6589 1.0552-6.0265 2.399-16.255 6.4654-6.7353 2.6793-11.368 9.0066-14.48 12.259-14.534 22.273-16.053 24.357-21.267 28.43-28.662 36.698-25.216 20.748-23.648 12.84-16.56 7.2712-36.839 8.0957-26.257 3.1739-32.459 14.856-4.0251 1.8405-28.283 7.3516-2.4813 0.643-41.624 11.113-9.7217 6.4922-8.9139 2.735-17.597 1.2304-7.8732 0.54825-13.37 4.3219-25.115 4.5136-20.029 6.7333-29.167 12.539-53.374 17.776-23.217 10.907 3.1903 1.1851-3.1903-1.183-26.307 10.021-41.676 12.191-15.344 7.2238 4.9134 1.9971 4.3795-1.6055 3.6707-2.3495 8.7861-3.7407 2.7101 0.25764 1.2657 2.4753 0.1772 8.5326 0.027 1.5107-2.1003 2.9699-6.6856-1.0903-1.9231 3.4975-2.304 29.252-0.5318 12.146-4.6331 8.0359-1.2676-1.519 0.5833-5.8656 0.2026-1.9786-2.4814-2.3949-4.3548 1.1068-8.9366 5.6677-16.255 17.89-9.9504 17.867-7.0651 26.773 1.7229 8.9715-1.8488 7.6175 2.1272 16.449-0.9379 0.9893-1.8487 1.9435h-4.0005l-3.0378 1.7725-5.1403 3.0008-2.607-6.1933-3.3162 2.364-2.8876 17.071-2.607 15.488 1.4673 5.068-2.3021 9.8867 0.9604 2.1104 1.5459 3.3924 1.012 2.2362 4.2023 2.467 1.5704 3.3616 1.1645 3.0544 1.519-0.6637 6.457-2.8297 7.4177 4.8577 1.0634 1.8777 0.2783 0.4698 0.076 3.8356-3.6953 2.7762 0.2279 3.5902-6.5828 3.3018-1.3666 10.703 0.8616 2.2073 2.5824 3.4337 0.8596 3.4357-1.1399 7.7287 0.2803 6.2985 2.8608 6.8714 5.1649 3.718 2.8606 3.1513 1.1396 5.437 2.6835 3.7118 2.7349 0.9604 2.3044-0.6636 4.3033-2.5742 2.2796 1.4304 1.1396 7.4402 0.2026 3.5305 1.5953 2.3042 4.2291 1.8961 1.9992 3.7222-0.8613 6.5829-0.2783 6.5849 0.2783 6.5828 3.7221 1.146 1.7229 5.1546-0.2781 6.5828-2.8628 5.439-9.7465 4.5795-8.281 2.8896-1.1645 3.4068 2.0012 4.2952 2.5308 5.3236-3.6706 2.9781-4.761 2.0363-3.2645-2.8937-1.418-6.2984 2.5825-5.1525-2.5825-1.7189-3.444 2.0054-3.4438-0.4308-1.2655-1.3005-0.9421-10.888-0.3439-6.554 1.4076-1.4386h2.0095l3.1533 0.8657 0.5564-3.446 0.3093-4.8702 3.4149-1.7148 3.4481-5.7193 1.9931-7.1578-0.8492-10.588-2.5824-6.014-4.0025-8.0214-3.4172-3.7098-6.8941-2.2878-4.3282-1.9332-0.8656-0.7873-0.2482-2.4422-1.7003-5.4411-0.2928-7.1579-1.4241-5.4411-2.0096-3.4315 0.2948-6.8632-0.912-9.8774-4.1888-14.7-5.0393-7.7288-9.6455-8.9963-12.304-5.5338-16.663-2.0404-8.8252-3.0297-5.9523-4.4991-15.07-16.028-5.9523-14.299-9.7217-4.2498-0.8038 2.1023 5.132 5.5956-5.5193 2.9823-5.4103 1.5622 4.8537 3.4316 3.2936 6.5849 0.3546 3.0297-1.515 2.1331-10.017 1.2201-16.941-1.1273-2.0714-5.472 5.2865-2.8751 7.4979-4.6373 7.1413-12.057-7.776-11.129-6.785-2.1022-4.8083 5.5647-12.535 9.7382-5.9523-4.0498-9.4125 2.1166-13.324-0.9583-14.299-8.8562-10.402-1.7168-15.272-7.1105-6.6631-1.993-9.118-9.7692-9.8309-10.975-6.2595 1.4839-13.912-21.688-14.159-2.1331-1.793-3.3224-2.1021-4.8701 2.7825-4.73 4.0498-8.4399 8.0999-1.1583 5.6263-11.779 17.591-11.022-2.0258-7.9287-7.8216-8.007-2.704-3.8809-8.2853-0.9893 0.3237-6.9084-5.9956-10.002-24.378-19.151-3.8024-8.951-4.6539-2.8277 13.31-13.263-1.964-3.6954 5.6431-4.3116 1.56-11.068 1.3914-3.7572 2.0567-5.1319-17.096-14.328 2.9206-2.737-22.057-13.401-0.9585-4.9938 7.698-3.3698-6.9869-7.4959-29.198 22.228-13.448 3.0132-10.759 1.1912-14.979 1.3129-9.8618 4.6228 5.4718 15.008 3.7244 6.1644-13.215-1.9435-9.2661-14.448-0.1494-6.249-3.7698-9.7094-7.8833-7.8669-5.9191 4.1117-3.0915-5.1319 9.7691-7.1723 2.937 3.4625 3.5243-8.951-10.79-5.4411-0.094 4.8702-4.128-1.5313-22.892 8.8891 6.043-8.6562-1.4674-5.1628-4.0974-6.2758-10.913-25.429-24.516-3.7407-0.2-5.4555-11.408-10.002-5.1917-7.0157-4.7299 4.4662-6.6469 0.48024-9.5217-7.7762 1.7004-14.361-7.4361-9.1509-3.9706-15.688 6.2767-11.577-5.5194-10.126-9.429 0.54203-6.6303-8.4872-2.5351-10.109 4.5136-8.1616-1.1911-6.5066-5.0867-0.96041-9.5219 6.4159-23.248 6.8776-9.6455 8.7345-6.6777 18.811-10.154 7.9926-8.007 0.15449-6.787 4.8681-0.6491-3.5696-1.2984-13.664-4.7754-4.3137-0.2639-8.4233-4.3735 0.37097-3.2007 12.01-4.4517 0.46373-3.2153-7.6814-2.8276 7.4197-6.0594-0.75845-1.3458-14.159-5.0847-0.0453-3.4169 6.9559-1.5912-9.1364 9.8453-2.5041-0.9109-3.9716-16.508 3.1533 1.793 8.1616-9.5693 5.5028-16.478 5.27 0.3257 5.303-5.1938 3.5387-3.2151-2.2094 2.7349-7.8689-9.0891-1.6076-7.5123 6.1521 5.6883 4.5445-9.4125 13.434-18.658 2.0713 0.913 15.736-14.87 3.7408-9.7241 10.202 2.4898 12.397 12.861 3.9262v3.6006l12.381 3.1843 11.16 7.3124 8.7963 6.9868-1.2222 4.359 3.5243 0.83469 5.7193 12.659-2.2094 3.5552 6.0285 4.0046 2.0714 11.098 6.4613 0.88005 4.6062 7.9308 7.6815 5.3628 10.373 11.964 7.698 0.0927 6.8941 17.591 10.494 9.12-5.6407 8.1616 5.1626 4.3446-1.7477 12.49 20.915 17.065 16.54 17.852 7.1104 2.3042 17.065 10.278-8.4562 11.61 0.2 10 8.4109 1.3294 7.3878-0.01 4.0508 12.482 10.078-2.1332 0.7421 5.8739 3.8479 1.962-5.8264 5.1175-21.301 4.9609-9.9403-1.1274-5.6575 6.0284 2.4115 10.017-8.3306 7.5432-14.021 9.2272-2.6422 5.5812-7.4671 21.099-8.3306 4.6682 3.9263 0.7584 9.4907 24.67 4.2355 1.6839 8.5327-4.6373 4.7751 0.573 2.8917-4.1591 5.6719 2.2877 20.204-6.9703 1.8692 5.3008 5.1176 1.1913 4.7136 2.0713 4.0807-3.9117 7.7763-6.6777 8.6563 0.9583 8.9343-5.981 6.554 0.9274 5.9976 1.2985-1.2057 7.1249 7.5123 4.8846 1.3438 16.601-3.8789 9.3838-8.6254-2.1497-5.1482 2.1805 4.6845 11.655-2.0711 6.1356 3.2913 1.5004-0.1545 13.077 5.0246-1.2057 6.3213 6.5849 10.558-8.8726 9.8454 1.1892 3.617 7.5124 8.5182 2.9225-0.4328 3.5387 13.617 2.026 1.9022-9.6455 3.6482-9.1056 1.3911-7.9287 14.376-5.643 26.261-11.531 7.9763-6.2758 4.7919-5.5482 6.0138-23.403 25.272 5.8265 5.2865 7.0961 3.8335 14.05 7.0033 7.9143 33.094-4.4662 5.1938 3.2914 20.266 0.2783 7.5103 3.1079 11.595 5.6719 10.835-0.1853 17.189 5.9831 4.5897 1.8075-6.6776 5.2555 4.6827 7.498-8.718 4.359-12.411 7.0322-12.273 6.9724 4.9155 14.345 3.3695 0.4946 8.0526 0.4164 4.128 4.5754-12.242 14.454 1.8861 2.937 3.6932 1.0346 1.3602-6.2758 19.291-4.0189 1.9475-3.0916 12.459 4.9465-1.282 9.4291-4.8845 8.9035 5.3318 5.1938-6.8015 17.267 1.5459 1.9002 3.4625 1.5458 0.2784-9.1344 15.117 5.1628 13.341 3.9407-0.8824 3.2151-6.2757 0.7894 6.4305 7.3269 17.158 7.8359 5.7976-3.9406 1.1439-10.095 14.483-14.901 11.393-1.9477 11.391 7.3434 7.4834-3.8438 0.6327 9.7012 1.3149 11.517 4.73 7.2486-2.5042 1.284 12.288 14.328 4.6538-0.54-0.233 5.0845 6.4137 6.8941 0.5564 13.943-3.6005 15.798-10.233 17.514-11.393 12.768-25.041 24.856-2.8278 11.082-0.1849 3.8809-0.9274 28.844 3.5716 11.36 5.6411 17.793 10.326 3.0606 2.5351 1.9168h5.3318l10.497 8.3161 6.0285 4.2808 16.354 6.4777 5.3627-15.983 5.4741 0.6018-0.9129-17.605 5.7955 1.422 3.3409 8.3306 2.0856-4.1879 2.7207 3.277 10.896 5.843 2.63 15.365 5.3936-3.1698-6.925 31.472-8.2235 17.174 5.872 4.9361 7.5453-0.3998 12.71 4.1117 1.7725 9.021 1.9744 12.611 8.7862 3.5903 16.634 4.6331 2.9121 7.2795 16.484-0.029 7.6957-4.3282h17.166l11.622-4.1673 11.319-9.5075 17.344-16.708 10.482 3.7634 2.2773 0.8161-3.114 2.6566-2.8091 2.3929 1.9495 2.8998 0.6329 0.9543 1.189 1.7415 6.076-3.073 6.3807 1.3418 10.862 8.6459 3.0648-0.3009 1.1892-1.9889 1.5706-5.7626-1.4942-2.9513-9.1902-4.1901 1.241-12.832 12.71-13.067 1.317-14.345 0.1773-0.2555 9.1138 1.084 9.596-7.1125 18.281-0.6657 4.1264 7.2238 2.3309 2.3867 1.315-0.4576 11.774-4.0787 0.2026-0.023 2.7099 3.714-0.987 8.2378 3.6705 14.827 11.773-7.3805 6.6593 3.1431 3.8991 9.4662 20.103 6.9249 5.0145-17.323 13.798-13.021 8.1289 2.131 1.4155 9.0046 19.32 1.5622 9.5197-6.7931 10.18-2.9926 9.9502 2.5825 1.3149-0.4658 3.9242-1.4015 7.6979-2.7432 5.672-9.0272-0.152-2.0507-14.33-7.2486-7.4937-17.848 8.658-38.382 0.6574-2.9143-9.4681-6.3005 5.367-18.465 1.9248-1.3911 20.204 4.1652 8.8869 1.8323 14.761-2.601 6.9643-12.23 11.038-7.4093 0.2027-16.63 2.2796-12.005 0.024-0.02 2.2793-0.8532 7.6713 2.3186 2.8605 0.8739 3.5202-1.2346 6.0758-5.9604 17.85-4.763 11.393 18.37 22.257-10.159 8.5841 8.5903 6.5829 21.746 17.747 29.007 15.674-6.8529 8.2541 7.8586 12.482 1.2758 15.167-3.3347 16.179-27.939 12.76-14.13 4.4313-0.4472-0.5815-9.7672-12.154-0.1524-10.152-5.4349-6.0265-9.5569 2.8358-8.1059-6.684-11.375 9.7983-19.979 6.0758 0.2556 9.8743 20.095 17.016-5.8327 14.229 3.211 25.521-11.803 37.574-8.7943 21.117-16.995-19.473-30.511-24.788-18.871 16.358-17.972 8.887 0.5399 7.4427 2.6525 2.9367 6.9209 19.648 0.4699 35.27-13.535 13.242 8.4254 35.246 20.804 3.7468 21.259 23.067 13.133-4.1774 14.132 16.255 13.203 7.3927-22.937 10.887-5.8553 4.7362-9.8413 3.4686-3.4914 13.646 14.843 11.09-1.7415-0.2026-6.0759 6.684-4.6764-0.4059-3.8747-0.7338-2.4258 2.2793-2.8607 2.7598-1.3767 1.5435-6.925 2.8362-2.1662 3.4689-1.2695-2.4819-5.1257-0.9624-2.0301 2.0777-5.2226 2.7845-7.9452-0.1013-7.6567-1.7208-11.74-9.724-25.763-10.027-18.893-3.1637-21.47-3.419-15.286-0.936-19.099-6.8116-14.965-8.8619-19.151-8.5061-12.457 4.2024-11.968 0.5565-11.451 5.7482-17.747-6.1521-9.9135-8.1781 6.7622-7.7986 6.0552-6.5067-7.1991-6.2801-10.497-1.7478-4.3879 7.7473-0.8594 5.7236 2.2897 5.7212-10.018 6.583-4.5795 11.521-3.6666 9.0393-3.8561 16.356 11.529 11.164 6.2964 12.331-0.2803 1.4179-6.3026 6.5829-5.7234 5.1651-7.4402-3.7201-9.6435v-7.1578l9.4434-3.2399 11.164 1.4303 11.723-2.5763-1.1893-10.012 2.3043-4.8661 7.1908-3.4418 6.6076-2.2857 8.8106-5.6389 9.4191-2.7886 2.9638-4.8825-0.152-4.9031 2.7845-1.9621 2.3803-1.6818 9.4437-0.75635 11.572-3.9654 14.887-2.3764 7.4444-5.5379 5.8492-15.921 25.925 7.432 14.027 10.021 13.166 5.439 10.457-4.6723 2.2797 0.71513 4.1777 5.573 5.9995 3.1492 15.167 1.1438 8.1531 0.48848 4.1778-9.9341 3.139-13.454-2.0014-6.2984-0.5812-17.463 7.2671-2.434-0.1013-8.1554-4.5836-6.2984-6.0018-16.69 0.5589-6.5829-6.3048-3.7222-8.584 3.4357-4.3037-8.8211-3.4189-14.365 7.7226-9.561 9.4434-0.57499-4.2787-8.9015 8.6091-16.789 11.142-14.415 1.1377-12.308 7.4444-1.4303 8.3057-6.5849 0.8598-5.439-3.1637-8.3306 3.7222-2.5762 5.0637 0.20412 11.824-19.357-2.9368-4.5796 2.1-11.478 11.167-1.1171 6.8612 5.1525 9.1898-1.3191-11.494-26.593-3.0381-2.0569 0.7608-14.466 5.443 5.3607 3.6955-4.2766 4.6846-1.1727 0.4822-5.7131 11.47-2.5783 4.5569-4.5796 1.999 5.8224 3.1657-6.6818 5.4433-0.85739v10.592l-3.1903 4.9608-0.8864 3.2543 9.1675-2.5783 3.316-11.731 2.9864-1.723 2.2793-4.291-2.203-4.7795 3.343-4.9526v-6.8735l3.0627 0.96659 6.558-1.6138 4.1284-4.5054-7.723-12.024-4.0004-0.5709-0.5582-2.1146 3.6976-2.467-4.8622-5.4369-0.3029-18.036 11.696-4.7094 3.4956-1.0161-2.7598-7.5309 4.456-4.2044 3.2153-9.0994 18.66-3.9819 6.583 3.1472 1.4425-4.2951-8.3038-12.593-4.8105-13.217-10.659-17.976-5.0391 0.4988-5.266 0.6348-4.2787-5.1525-8.3058-2.0034-2.8604-10.88 7.1144-3.0194-1.8487-2.7679-3.8232-9.3446 0.6082 0.01 8.1015-14.31zm-1611.3 108.03-21.346 1.1748-22.754 4.3282-9.6311 2.6422-20.171 17.56 0.8038 21.626-22.152 22.506 0.4019 4.157 4.6683-1.3128 18.394-15.752 3.9118-5.3936-2.4115-17.669 11.933-9.9238 7.836 0.35655-0.8038 13.541-9.6456 16.492-5.7502 19.709 22.784-8.7346 9.7073-4.8227-2.0238-6.3685 7.465-4.73 2.1021-6.4303 5.7978-0.0618 4.1425 18.827 4.1572 5.5647 3.6479-0.0927 6.1521 2.4423 7.7453 10.837 14.005 0.19984-0.7894-6.9848 8.7963-1.7312-0.03 4.6064-3.9262 1.082 2.6896 12.69 1.4076 15.921-4.4209 9.6311 0.7874 8.4542 8.3471-0.0927 7.2507 3.7717-0.6967 9.9402-7.8978 4.9155 10.078 1.9168 0.911 4.6682-3.308 2.0713-9.2272 0.44722 7.327 4.3446-2.6134 5.8883-20.682-6.3994 1.6386-9.9238 4.7465-0.68011-1.6076 5.6884 5.4554-0.4328 3.2318-4.4971-2.428-5.5029-10.882 0.21655-1.0201-4.0499 9.9548-13.726-6.3831-1.7477-10.913 7.1723-2.4586-8.6398-8.7325-3.3697-3.6482-9.0272 3.0133-7.5433-7.3888-12.754-6.8321 10.604-8.5327 1.824-1.8857-3.277 5.272-8.347-5.5645-5.9192 10.278-18.116-4.9916-1.9476-20.884 16.739 3.1842 8.3471-1.6221 6.5705 3.1371 2.7968-3.4152 5.2246-5.2556-5.3483 2.9824-7.8668-2.8897-4.019-15.365-7.6669-10.435 2.4876-24.299 1.8096-1.4056 3.3224 6.1357 1.5932 1.9949 15.334-3.1698 0.24718-0.9109 3.9097 3.0132 2.7824 3.0462-3.2914 10.433 2.364 9.7385-4.2354 0.8656 15.334 7.9451-0.23073 1.6551 6.012-8.0999 4.6537 5.641 2.7659-16.354 2.0404-2.1785 6.4922-3.3698-2.7515-6.8015 2.2115-7.5288 16.276 21.039-4.3735 3.1369 9.6909 5.6575 1.9476 0.6493 4.2972-3.1677 3.5243 2.6111 6.5231 8.44 3.108-8.6872 2.6278-0.9419 4.8228-28.149-3.9572-8.7635 1.6076-2.5515 4.3426-3.2463 19.538 7.4197 9.8166 11.981 4.6517 4.6062 4.9629-3.1388 2.5041-7.0487-4.7918-5.5648 5.0845-0.1545 8.1162 9.5528-4.2044 5.0555 1.1583 4.992-5.0392 2.6587 4.2354-2.6278 2.9369 1.1292 8.6562 6.1357-1.9003 3.6646 3.277 15.148 9.2581 5.812-4.3735 9.6764 1.5458-1.5003-4.7156 8.5636-5.8739-4.3735 17.422-8.5945-3.648-1.1913 2.9823 9.0747 6.4468 24.839 8.7634 11.129-7.6814-1.9475-10.404-6.4305-6.1521-6.8014 6.3541-3.8477-4.5754-3.4481 6.9868-2.3333-11.346 6.6614-1.9168 1.3603-4.5301 5.272 4.8702 9.9856-17.22 15.255-8.9654 1.5006-7.8524 14.483-7.2032 16.601 1.3912 7.8998-7.6525 6.3066 1.3293 7.4197 12.475 13.679-10.837 11.548 0.2021-2.8134 5.641-20.126 11.702 29.184-3.277-1.515 5.6266-18.442 10.202 3.1533 6.3829 15.598-4.157 2.7205 8.749-6.7867-2.9988-0.9275 3.2152 7.9761 7.2795 4.7774-2.6113-2.2734-16.911 5.6739-13.372 3.2607-7.0177 9.4454-3.1224-14.005-9.1962-3.988-5.3957-3.757-10.14-9.2581-10.587-3.8335-2.5969-13.974 2.0858-6.6322-5.4246-11.113-23.914 0.3234-18.209 8.9964-3.7407 3.0915-8.4089 21.239-13.139 3.8953-6.9559 0.5564-18.904-12.335-11.593-33.574 0.69453-29.786 5.2721-13.65-5.0866-9.6455-11.824-5.5957-17.02 2.2423-11.933 15.627-7.9596 3.9262-11.115zm-14.452 86.995-6.4301-12.63-6.2615 7.0342zm-91.834-41.474-10.264 8.2853-0.6185 19.631-12.922 40.546-2.195 15.534 4.3446 0.4019 9.429-37.747 10.556-9.8619-0.1064-3.3842-2.9534-0.0927-1.8858-11.408 3.1698-3.9427-2.5063-5.27 4.8846-0.43283 3.1391-4.2354 3.4172 10.68 4.7587 0.44931-3.0297-14.948-1.2199-3.3389zm-217.84 66.793-25.32 49.279-10.62 9.8145 0.2304 0.0927 1.0202 7.1104 9.4601-6.6468 18.487 0.52556 6.2448 5.8739 11.857-9.5363 10.326 0.74197 4.6371 3.5078 2.3806-4.2972-7.6671-3.8953 0.025-3.5078 4.3137-3.1533 9.6123 0.41632 1.3461-6.4757 6.1829-2.4114 5.5337 7.2795 5.2556 0.24744 0.9583-6.5376 4.0954 3.817 17.422-0.92746 10.511 3.6789 9.3198-1.7931 4.901 4.3446 11.098-7.7143 14.499 5.7502 17.206-6.1356-3.17-7.5598 1.8695-4.6991-29.524 2.195-55.136-3.1224-17.405-4.7135-23.945-4.2972-12.49-11.129 2.6896-5.7976zm236.9 0.69457-10.295 3.1842-13.434 26.913 13.526-4.2972 1.3747-4.0355 8.0381-0.37097 0.7727-4.5136 12.706-3.1224-1.591-8.749-6.416 0.0474zm-49.264 18.936-3.0606 5.2865-37.964 3.4007-1.9002 3.3388 1.144 3.4769 17.543-0.1998 9.9545-5.272 13.588-0.75639 4.4208-4.19zm171.36 80.658-8.4398 9.9072 2.0567 3.7408 8.0217-8.4398zm85.449 97.026-10.388 3.8953-3.6932 5.5338 2.0094 11.888 6.8323 3.6171 6.0285 11.84 6.1974 2.4258 1.0057 5.5647-4.9628 22.259-3.1059 7.8834-3.0462 7.3269-3.075-0.50908-2.8917 4.2807 1.7168 7.3125 9.2127 0.83469 4.4044-7.6834 13.603-9.289 4.0807-0.48024 5.0558 2.5825 1.3911 4.6517-4.0971 0.66573-5.0847 12.428 0.6018 7.3413 15.52-6.5066 4.7466-10.095 2.9987 0.6348-1.284 4.7609 2.9842 2.7659 3.5554-7.0631-8.3326-11.222 1.9949-9.291 3.1677-0.64921 9.3366 2.4588 6.5084-1.5622 9.8765 16.123 2.0569 14.823 4.8063-1.8858-0.7873-3.7243 4.6824 1.453 4.8086 7.8524 1.5456 13.355-4.0498 19.106 0.7873 6.2139-10.047-5.7193 4.8846-7.2197-14.159 1.7312-7.0631 0.6039 1.7933 4.2663-4.2519 9.5363-2.5804-14.545 7.6812-6.4303-2.7658-1.9167 0.1089-10.264-6.8176-2.7988-12.583 1.9476-3.3222 5.07-1.7168 10.357 9.0579 9.6146 5.4268 21.672-5.1938 13.726-9.8311 6.9559-22.382 5.9831-3.9118 6.9085 1.0368 3.6171 25.921 6.5231 5.3647-2.9823 5.5484-16.402 8.3017 6.7251-0.1545 5.6883-8.0234 1.3129-0.7874 2.8916 5.9358 0.8491 14.143-2.8277 19.353-14.918 33.667 2.1187 6.5395 0.2307 12.906-0.8038 9.4766 4.2663 4.4826 1.7168 22.552 24.948 12.784 2.6896 4.2663-7.3434 14.53-4.8062 1.4838-0.4947-0.5564-2.5515-0.8347-3.648-0.2783-1.3129-11.362 1.1274-3.8786-3.0606-0.025-2.0404-0.03-3.4007-2.8608-0.3709-7.1867 5.812-1.7003 1.3603-7.8216-1.082-2.566-7.2651-0.6799-2.4567-0.6041 1.2675-1.0201 1.4365-1.5601-1.7147-0.1241-4.1591 1.4056-3.6934-2.5802-9.3982 0.7872-2.5041 3.3698-2.5515 3.9736-6.7086-0.7112-0.9893-11.269-1.1274-7.2795-5.2864-17.205-14.005-22.599-26.758-22.722-22.135-7.8669-9.3199-19.724-13.974-11.548-3.6026-12.582-7.4815-12.984-11.669-8.7944-11.902-8.2708-25.862zm-101.36 52.106v3e-3zm429.72 47.385-40.46 17.389-22.685 9.7486-17.344 5.9501-14.534 13.349-21.698 13.401-10.128 4.2601-10.103 0.2535-15.09-7.0837-7.8484 12.026 0.1266 2.0404 5.6451 9.4724-0.7854 9.9876 3.1409 2.2815 7.4693-7.5597 9.2416-0.1444 3.0871 4.9629 4.9631 4.3982 4.6083-0.5214 1.5707-2.6814-0.1292-3.4068-2.4052-1.686-2.4051-0.6739-1.5953-2.7865 1.8239-3.2996 1.2656-2.296 5.039-3.1245 5.8472-0.3174 4.1797 3.075 2.8608-0.272 1.6961-6.2634 2.1516-0.5174 0.7585 1.0285 0.1039 4.8764-5.672 10.536 1.317 5.6389 4.2787 2.0775 7.2918-2.9101 22.028 3.7943 10.558 1.8054 7.1641 3.6521 2.2548 1.1501 2.2772 7.2547-0.7585 1.2511-2.3309 3.9159-1.5684 3.5119 2.1002 4.7878 1.1396 2.5412 1.317 3.0296 0.9378-0.3812 1.4428-0.5956 1.7209-0.71112-2.2527-6.216 1.6714-4.2601 2.5311-1.1233 2.1516-0.9686 1.5705-10.243 1.8981-9.9444 0.8616-4.5404 2.2031-2.6896 3.0895-3.8149 1.2407-6.2593 0.4039-1.9765 2.7866-5.2144 9.6207-10.581 5.3916-6.96 0.507-0.6636 1.925-4.9279-1.0634-7.0095 1.2407-5.2618 2.2775-11.962 0.076-7.4918 21.42-9.6023 1.6983-3.1121-1.8756-1.1892-6.5312 2.2279z" fill="#8080ff" fill-rule="evenodd"/>
</svg>
