<svg width="527.27mm" height="412.37mm" version="1.2" viewBox="0 0 6227.7 4870.5" xmlns="http://www.w3.org/2000/svg" xmlns:xlink="http://www.w3.org/1999/xlink">
 <path d="m2553.3 635.58-3.7409 3.4625-5.3483 10.604-10.325 20.606-10.666 16.059-17.821 12.057-30.235 16.818-24.732 31.952-1.4694 1.0346-7.9287 5.5503-4.0972-1.6385 1.8713 7.3269 6.9086-4.5136 7.096 2.2877-3.8954 10.68-6.8179-1.9167-4.9299 4.6228-0.6346 22.939 9.2127 11.284-7.156 0.26177-6.7394-11.624-0.8183-18.951 2.2423-6.4922v-3e-3l1.8861-5.5008-2.7063-11.84-8.9798 3.0297-2.5969 0.10914-19.938 0.78729-25.305 7.7144-23.897 7.5577-17.267-0.97278-9.7217-2.6752-7.5432-3.4625-22.939-0.61832-11.579 6.0759-20.915 21.222-17.08 5.3483-13.046 13.959 3.4152-0.41838-1.56 14.454 30.358-30.451 3.9716 8.0997-5.4245 10.835-10.837 3.9571 1.0201 10.387-8.887 10.171-7.8071 1.4221-6.2757-5.2556-2.3189 4.0355 5.736 4.4827-9.1673 5.07-6.5067 9.9856 2.875 4.2663-10.311 10.68 0.233 2.566 3.5719-1.7766-1.1295 9.9072-0.9727 7.0342 0.4019 6.7539-3.0462-0.7564-10.28 9.4745 0.4019 3.9262 5.6266 1.6859-1.5459 4.2498-8.3304-2.8277-0.2783-5.9831-10.48-7.9143 1.4694-7.9287-6.6632-2.5515-7.234 2.3496-5.7502-5.4411-6.7397-10.109-6.5993 10.373-5.3029 3.0606-4.9299 2.8442-6.1995-1.2222-6.8467-5.5173-1.8714-7.3434 6.6632-19.738-14.021 0.41629-5.7811-4.6063-5.641-14.421-13.094 2.5041-8.887-1.5148-10.451-2.2733-18.44 3.7408-22.275 10.651-27.822 16.152-6.3841-1.3294 0.5729-13.417-5.441-7.434-8.7036-0.44931 1.7456 4.561-8.8416 12.628-0.6803 9.9711-5.6407 7.5886-29.524 10.14-21.348 6.3376-12.737 12.026-5.1935 3.3389-11.237 3.2152-0.6349 7.2959 9.4457 5.7049-20.002 6.6776-4.0045 3.6934 2.1806 3.277 6.6611 10.713 4.6538-4.8846 2.9371 4.019-0.5732 8.6253-5.9355 1.2057 5.781 9.1034 3.4935-0.6492 4.4826 4.7918 4.6065 1.1748 0.046-3.5861-0.8657-13.092 11.688 3.2152 0.061 3.5078 9.3508 2.1331 12.692-9.7527 3.2605-2.5515-6.1045-9.4435 5.0081-3.7263 5.9832 11.346 4.7835-1.0325 1.5314 6.7827 0.4225 2.8607 0.4802 3.3697-2.3351 5.2391-1.8693 10.28-1.754 9.6146 0.511 25.087 4.0955-1.9002 2.9841 3.8644 4.8063 1.0037 2.3353 10.435 6.2756 3.1986 11.824 6.3541-3.9263-8.2234 8.6708-10.511 5.5356-1.6694 3.3699-2.2877-1.2222-8.2708 2.6442-1.6839 9.2127-1.3294 1.2984 5.6719 2.8588 3.7263 4.9628 0.9275 4.3715 0.138 1.8672-2.0404 0.3834-0.4142 3.2749 6.0264-8.2688 8.9035-6.9106-3.85-4.1261 2.1023-2.7678 2.5968 8.6107 5.6266-2.4895 9.0272 5.6264 5.0866-1.1582 6.1521 13.572 7.1867 2.4525 1.5437-1.8962-1.1871-0.3545 4.4971-7.6524 28.349-12.473 6.6323-8.8272-4.8845-1.8857 2.6422-17.962 3.4006-4.2972-0.6182-2.4566-6.1975-7.2651 0.8491 2.0713 17.669-5.1628 6.8013 0.88 10.897-13.617 3.4172-3.0916 7.3413-7.9925 6.554-13.401 3.9262-6.554-2.1641-0.7418 2.6752-8.3473 9.1962-9.1197-2.2094-6.6014 3.3698-3.2154 5.5482-3.8335 16.711 0.2026 2.5041-2.4444 17.605-5.948 2.5516-1.1769 7.2959 19.2-0.4802 22.135 2.366 8.4233 14.081 7.1413 2.5969-0.1519 6.5705 16.028 10.542 7.7907 2.1022 2.3021 4.2498 12.877-6.7539-0.7111-5.674 5.0866 3.3553 2.8585-1.8095-1.6386-6.2902 9.5694-0.5256 3.7861-6.8178 3.5697 0.2472 0.5893 4.6373 8.578 4.6681 1.453-2.6277 9.9712 3.3862-1.9952 3.3532 5.8741 4.4209 3.0152 12.166-0.5113 11.731 6.8323 2.8298 10.713 25.798 8.5778 11.669 20.186 13.092-3.1204 3.246 19.878 7.6361-1.9021 8.9963-6.8015 4.9773 5.1629 13.912 3.5098-0.5874 6.4614-4.5898 7.5268 3.2151 11.191 11.562 12.118 3.6006 8.4874-1.5149 3.5861 3.5553 21.655 1.2531-0.1089-14.052 6.8488 0.5256 3.3387-2.6113 17.034-21.657 14.204 0.6183 3.2153-0.1854 5.4409-10.155 8.9511-8.9653 5.2556-1.3603 8.4851-0.7729 15.241-13.943 7.5288 1.8384 4.3735-3.6933 12.304 0.711 6.0758 9.2272 5.2392-0.9275 0.079 7.9452 18.504-5.7337 7.094 2.1476 11.593-1.6695-11.191-14.328 7.8071-0.2021 14.174 3.5243 14.454-17.08 7.8999 2.1785 12.877 1.3293 7.3888-15.379 4.2042 0.062 3.5408 5.0082 2.935-4.561 4.7919 0.6801 2.2732-13.139-2.4277-8.0688-3.9242 0.1091 0.1519-6.4303-3.6458 0.6801-3.6811-1.5931 0.4802-3.1534 6.925-1.082-1.1913-3.8644-0.3379-10.882 12.057-9.2127 2.7349 0.1545 10.171 12.768 3.8477 2.9369 1.0533 13.248 9.7835 2.1166 0.3402-3.7407 8.4233 1.0058 2.5371-6.1686 4.6062-0.9893 5.4248 13.31 6.3519-1.9168 1.0842-6.3376 8.6872 0.54 6.3045-2.5041 3.9407 13.866 5.6739 6.9085 14.005-1.8549 11.068 5.5028 24.005 12.582-1.6695 8.4872 6.3066 4.0808 7.4052 4.188 4.1572 13.372 16.896-1.9167 4.5447-3.9263 13.091-0.2472 23.574 12.15 8.4398-5.674 16.554 3.6171-3.8953 9.6455 8.5327 4.1426 24.903 2.1641-6.9106 14.746 11.377 7.1105 15.921-3.7552 11.748-3.0461 2.1033 4.6372 7.6534 7.8216 5.1176 0.5873 0.5234-5.2226 5.2701-3.279 7.1866-0.2927-2.0093 4.7753 7.6977 0.5256-0.6017-5.1937 5.4718-3.0297 7.6197 2.1805 0.9892 3.6625-10.047 7.8833 8.8252 9.3673 2.9391-1.7766 7.603-1.2984 7.467-10.789 10.433 17.931 15.21-4.3137 4.0972-9.5363-3.3843-13.386-3.6479-6.8488 7.1104-0.54-0.9748-11.284 3.0298-2.7061 6.6158 1.8405 6.8797-8.2234 10.356 2.5041 1.5149-2.3805 8.5325 18.533 8.5327 2.1641 4.2043-8.4234 4.6065-19.678 7.1413 0.5565 9.9074-10.295 15.01 4.8083 7.5741-2.5659 10.078 22.211 5.3627-2.9369 0.9895-9.5981 12.118-13.681-1.0819-6.7539 6.5087-0.5565 2.0711 5.7956 8.0835-1.3294 8.4253-15.534 6.2139-1.5622-1.7786-12.195 3.0606-6.7704-3.0606-0.3401 3.5407-8.6562 5.9338 0.7728 4.7301-7.1887-0.2-6.5685-3.2152-4.3899 9.8474-7.5907 9.1654-8.1451 6.7396-7.636 5.9356 5.0845 3.0461-12.442 3.7718 2.2877 4.4517-8.3636 16.508-11.995-6.863-7.6669 3.0442-9.4291-9.7527-2.9988 4.39-6.1356-0.6185-8.0379 16.492-4.6064-1.8551-10.14 2.6445-6.9724 18.026-14.761-4.9154-14.345 12.273-6.9725 12.411-7.0321 8.7181-4.3591-4.6827-7.4979 6.6776-5.2555-4.5898-1.8076-17.189-5.9831-10.835 0.1854-11.595-5.6718-7.5104-3.1081-20.266-0.2782-5.1937-3.2914-33.094 4.4662-7.0034-7.9143-3.8335-14.05-5.2864-7.096-25.274-5.8265-6.0242 23.403-4.7898 5.5483-7.9761 6.2757-26.261 11.531-14.376 5.643-1.3912 7.9287-3.6479 9.1055-1.9045 9.6455-13.619-2.0259 0.4328-3.5388-8.5159-2.9225-3.6171-7.5124-9.8476-1.1892-10.556 8.8727-6.323-6.5849-5.0228 1.2057 0.1544-13.077-3.2935-1.5004 2.0713-6.1357-4.6827-11.655 5.1485-2.1805 8.6231 2.1496 3.8809-9.3838-1.3458-16.601-7.5123-4.8845 1.2077-7.1249-5.9996-1.2985-6.554-0.9274-8.9344 5.981-8.6563-0.9584-7.7742 6.6777-4.0807 3.9118-4.7156-2.0713-5.1153-1.1913-1.8716-5.3009-20.202 6.9703-5.6739-2.2877-2.8894 4.1591-4.7754-0.5729-8.5347 4.6372-4.2332-1.6838-9.4931-24.67-3.9262-0.7585 8.3326-4.6682 7.465-21.099 2.6442-5.5812 14.019-9.2272 8.3326-7.5433-2.4113-10.016 5.6575-6.0284 9.938 1.1273 21.303-4.9608 5.8264-5.1175-3.85-1.9621-0.7418-5.8738-10.078 2.1331-4.0501-12.482-7.3865 0.01-8.4111-1.3293-0.2001-10 8.4563-11.61-17.065-10.278-7.1104-2.3042-16.54-17.852-20.909-17.063 1.7497-12.492-5.1626-4.3446 5.6408-8.1616-10.495-9.12-6.8939-17.591-7.698-0.0927-10.371-11.964-7.6836-5.3628-4.6064-7.9307-6.4611-0.88005-2.0714-11.099-6.0285-4.0046 2.2094-3.5552-5.7172-12.659-3.5264-0.8347 1.2222-4.359-8.7963-6.9868-11.158-7.3124-12.383-3.1843-13.417-0.41632-13.85-9.1818-4.2664-3.8644 6.3851-6.3541-8.0996-13.634 3.0915-5.7028 5.5625 0.8347 4.7919-8.0998 1.1459-5.4101-2.9988-3.8953 1.6695-2.9678 8.516 4.4662 0.6802-12.428 1.0202-8.0998-1.0202-7.1105zm-322.69 175.74-4.5589 6.2284-0.8511 10.899 2.4421 0.46372zm-11.346 20.944-3.7715 4.7774-9.3819-0.51114-20.297 8.58-9.2272 7.3413 1.6839 15.643 8.0379 2.6443-6.1048-2.0259 2.1786-3.5697 11.717 9.0582 0.9439-15.258 6.3519-6.3685-2.5657 19.724 4.2661 4.3446 10.048-14.685 1.1604-15.365 2.333 5.5482 3.1841-10.309-1.1272-4.2354 2.7349-3.8026zm-210.95 36.352 1.0489 3.9621-5.4412 6.5386-0.6027 5.6111 24.047 8.9184 0.1267 2.6752-12.181 4.2189-7.7451 0.9274-2.3806-4.9299 3.5714-3.7263-10.4-6.8478-4.7589-4.3838-0.8699-5.0309 7.4464-2.6628 0.2784-2.6113 1.9126-1.3541z" fill="#8080ff" fill-rule="evenodd"/>
</svg>
