<svg width="527.27mm" height="412.37mm" version="1.2" viewBox="0 0 6227.7 4870.5" xmlns="http://www.w3.org/2000/svg" xmlns:xlink="http://www.w3.org/1999/xlink">
 <path d="m1185 138.57-5.0392 3.0441-18.254 33.93-12.537 22.922-5.1938 11.068-10.449 29.2-7.6504 52.277-3.6027 26.014 5.101 8.6253 4.6373-20.82-1.4221-11.902 3.3079-28.582 4.6847-8.918 9.4744-2.8606 3.479-9.289 7.6814 3.2914 3.0606 9.5837 12.582 9.5837 15.148-5.27 13.819-10.913-22.242-2.8442-17.545-13.032-1.9621-19.398 1.1274-9.0272-1.8693-15.474 7.3578-11.315 8.9798-7.8668 15.952-6.3067 0.8821-4.2663-4.5919-6.6777-8.3924-1.7621-1.113-5.3958 23.31 1.5314-11.408-7.467zm28.411 185.31-11.608 1.1274-23.897 0.031-12.754 9.7238-3.8479 14.87 9.3508 7.0322 7.096 2.1187 2.6113 0.3545 5.3648 6.4158 18.873 3.0133 14.485 1.7477 7.6979-18.627 5.1319-3.9097-4.2972-6.1995 1.4056-9.8146zm-65.818 20.528-18.564 15.008-6.0284 9.4456 12.906 25.55 6.5086 10.342 8.4543 1.6839 7.0177-4.4044-4.7135-3.6789 5.4864-1.1603-7.296-4.6992 1.2366-4.2497-6.8775-6.6777-2.1497-15.705-2.7514-12.181zm117.18 29.6-6.0759 2.4114 1.6859 3.0771 6.9868 0.1998 2.5042-3.4151zm-20.544 15.258-36.803 6.4921-4.6063 5.5956 6.5375 5.7956 13.217-8.5017 16.956-0.509 9.8784-4.5136zm31.997 7.8833-7.7123 2.2403-0.2947 6.4613 7.2197-1.8694zm-80.688 31.826-2.5659 2.7205 12.18 11.47 9.3838-0.1998-4.7465-12.166-9.0581 0.9893zm65.076 19.184-22.335 4.6373-4.0045 4.9918-15.286 1.9332-1.6859 11.16 11.424 16.138 16.076-1.824 10.542-11.871zm37.486 5.3628-8.4707 0.7275 11.222 6.5685 3.7861-5.4411zm786.36 67.968-10.604 9.9238-8.5636 15.334-4.2826 29.4 4.6845 3.4769 1.515-4.0643 14.081-3.7881 7.3887 2.7514 4.8392 7.8998-3.1079 14.994 8.5015 4.899 19.476 2.1332 2.3497-1.993-4.5283-5.5812 2.6899-3.817 12.442 2.1022-4.6065 4.6064 17.144-0.52555 22.815 7.1867-4.452-18.378-20.358-41.704-20.682-13.757zm-1138.1 120.63 6.0037 10.105 7.5145-4.0973 3.1739-0.24313 0.9501-4.967-6.2819 0.78935zm282.89 98.413-4.1571 4.0973-1.422 5.1937 3.3223 5.2082 6.014-0.71105-6.4777-3.2296 5.5193-3.0462-4.561-2.1785 6.045-3.9736zm664.97 172.85-0.6483 7.296 9.4434 5.7049-20 6.6776-4.0045 3.6933 2.1805 3.277 6.6683 10.713 4.6609-4.8845 2.937 4.0189-0.5728 8.6253-5.9359 1.2057 5.7811 9.1035 3.4934-0.6492 4.4829 4.7918 4.6062 1.1748 0.046-3.5862-0.8656-13.092 11.686 3.2152 0.061 3.5078 9.3507 2.1332 12.692-9.7527 3.2607-2.5515-6.1048-9.4436 5.0082-3.7263 5.9768 11.346 4.7918-1.0346 1.5315 6.7849 0.8965 6.2304-2.335 5.2391-3.6173 19.895 0.5114 25.087 4.0951-1.9003 2.9844 3.8644 4.8063 1.0037 2.335 10.435 6.2757 3.1987 11.824 6.3541-3.9262-8.2234 8.6707-10.511 5.5359-1.6694 3.3696-2.2877-1.2219-8.2709 2.6442-1.6838 9.2127-1.3293 1.2985 5.6719 2.8585 3.7263 4.9628 0.9274 4.359 0.138h0.025l1.8549-2.0403 0.3854-0.4164 3.2772 6.0285-8.2688 8.9035-6.9106-3.8499-4.1261 2.1022-2.7681 2.5968 8.611 5.6266-2.4898 9.0272 5.6266 5.0866-1.1584 6.1521 13.572 7.1868 0.5566 0.3565-0.3565 4.4971-7.6507 28.349-12.475 6.6323-8.8252-4.8846-1.8858 2.6422-17.962 3.4007-4.2972-0.6183-2.4589-6.1975-7.2649 0.8492 2.0711 17.669-5.1629 6.8013 0.8824 10.896-13.619 3.4172-3.0915 7.3413-7.9904 6.554-13.403 3.9262-6.554-2.164-0.7421 2.6752-8.3471 9.1962-9.1199-2.2094-6.5994 3.3697-3.2151 5.5483-3.8335 16.711 0.2001 2.5041-2.4422 17.605-5.9523 2.5515-1.1746 7.2959-4.8848 2.8442-19.738-6.8631-4.2352-1.0367-16.711-9.7073-13.463-8.4708-11.61-9.5672-3.7242-3.6171 7.9761-16.447-0.4802-4.9464-3.6932-3.1389-8.4874-0.7111-0.6182 3.3079-2.2403 2.397 1.2057 2.2877-0.8347 4.7444-6.6779 3.2152 1.1893 5.1484-5.2082-0.093-1.422-0.742-5.6884-5.9047 4.4518-9.1818-4.6848-1.2222-3.0915 5.3957-4.0643-7.7906-8.4397-4.6847 2.2568-3.5243-7.1723-8.6871-4.2045-1.4675-0.3021-8.007-6.4991-2.2568 0.025-0.031-0.2152 0.076-1.2841 2.906-2.9205 2.026-2.6134-1.8096-1.1746 1.0367-2.5042-1.1748v-3.2007l-1.0657-0.6018-2.6133 0.7729-1.1437-2.7989 0.6182-2.4258-5.7029-2.026-1.5765 3.0606-1.9642 0.3257-4.0025-2.3187-1.7786-1.5457 0.1545-3.2461-4.2352-5.8904-2.3642-1.8074 1.3294-1.686-0.9892-3.9406-3.5717-1.9168-2.6278-0.4802-0.9418-0.4018 2.0855-2.5042 0.3401-1.2984 3.7573-6.554 0.9584-5.7338-12.411 1.7622-2.1785 1.0655-1.7312-4.0189-1.0202-5.6266 4.3735-3.3532 2.0691-4.3735-2.2876-0.5255 0.2948-1.1748-4.2355-1.4674-0.7729-3.0915 0.4019-1.484-2.4731-1.5004-1.5458-2.333v-2.2424l3.0297-5.3009 4.126-5.3339-1.6694-5.3174-2.9059 0.6657-2.7658 2.3186-1.3605-0.7728-1.3149-2.4279-4.2043-1.5458 6.0449-8.176 0.2153-2.2115 0.4802-10.82 1.7457-2.3805-15.039-1.251-4.4518 17.481-1.9786-0.3091 2.6566 6.9868-3.2913 0.5255-0.4637 3.277-0.9893 2.9226-2.2405 1.251 0.8968 2.906-3.6029 2.4588 0.1089 1.9786-1.4078 2.3495 0.5113 3.0606 1.731 0.7873 0.094 2.6587 0.9439 0.047-0.3092 2.8133h-1.2058l0.2153 1.0511-1.6221 0.5709 0.6329 2.906-3.1845 1.6241 0.4184 1.0346-1.7621 0.1092-2.0403-0.8348-1.0821-0.047-3.3367-0.1545-1.5623 1.7168 2.8132 5.9811 2.1331 0.2165 0.6803 2.1805 2.8131 1.3603-0.1696 2.3949-2.2877 7.0342-0.9892 3.1224-1.9334 0.6802-12.071-0.4802-14.856-2.0714-19.013-6.2901 1.2222-3.7099-30.731-8.3779-13.202-3.4481-18.007-11.655-28.396-20.126-4.4518-10.913-3.0606-11.917 4.6537-2.3496 0.2166-9.5528-8.9654-24.532-4.4518-3.446-16.23-8.4708-8.5635-15.536-7.2341-27.993-2.2878-12.661-16.447-15.025-6.1212-9.7382-17.885-11.268-15.21-7.4979-10.882-2.3949-37.16-2.566-21.61-9.491-4.6826 2.4258-14.608 1.8858-7.6979-5.4864-3.817-7.8071-8.8891-9.46-6.3994-16.663-11.669-35.319-6.2758-9.3982-10.157-1.1438 11.284-1.8096 4.3281-5.6884 12.119-3.2914 23.234 9.0891 5.3792-0.29472 6.5231-4.3426 2.5351-6.4777 0.4637-4.528-8.9818-1.5932 7.0342-2.9679-7.9308-11.669-1.4674-3.8644-5.0248-21.719-6.6776-3.9572-7.836 1.7622-10.82 6.2613-10.188-17.096-1.9312-13.094-2.9843-6.2283 5.8738-16.818 5.8904-6.1686 0.7564-14.328 5.9975-15.505-1.9621-9.8928-4.9938-5.3318-14.328 4.9299-4.3755-1.0655-0.5874-4.2519-9.9691-4.1262-5.9831 2.4732-5.27-3.0297-3.1698 5.8883-8.749 1.8096-21.332-19.802-3.0296-8.4851 0.5255-4.2663 2.7989 0.13804-0.7894-7.1723 14.066 2.6896 5.7811-5.9192 11.981-2.737 1.3128-7.4032-0.8656-3.6644-11.02-1.4221-2.8442-4.3735 9.1344-10.373 9.3219 2.3804 36.185-3.6624 10.991 0.6018 6.7539 4.019 8.8273-1.7312 12.922-4.6991 7.3578-7.9905 6.8776-3.8644 2.737-7.1723 17.467-5.7193 4.7136-7.0651-4.2354-2.9988 3.7098-1.5458-0.2782-9.089-5.2865-13.355-1.0511-3.6624-15.317 6.3994 0.2474 7.094-13.448 16.911-8.9654 6.045-16.37-1.8714-12.706-7.434 4.8084-9.2601-3.3389-8.2688 17.852-8.951 3.6335-3.7098 5.6719-11.099-0.5708-6.6467-0.8512-7.094 10.342-20.064-1.6385-5.9975-12.506-10.264-4.3281-16.711-17.714-10.016-8.2997-10.82-2.3042-20.93-7.3269-5.981-9.3816 0.1235-1.5005-3.6171 10.047-4.19-4.8227-13.572 2.3495-7.9143-5.7502-12.319-7.6979-2.7679-3.8334-14.623-11.113-14.019 3.5862-21.379 0.3092-6.1047 8.6562-4.1117 1.1748-9.7692 14.912 1.7922 17.267 12.057 14.839 1.0656 8.6397-5.5647 11.902-0.5091 4.7156 6.0594 10.851-1.8549 23.046 1.8384 8.8726 4.1426 20.991 14.53 13.634 3.7407 12.922-0.6636 20.791 6.7395 4.4209 3.0132 17.405 8.5181-2.2733 11.439 2.5969 8.6253 1.3293 4.3735 7.1579-0.8492 25.612 8.5635 3.8953-7.3434 6.2305-3.1059 4.8681-10.975 9.2436-1.6385 4.0808 10.927 2.7061 7.2197 0.8182 2.195-2.7659 4.9773 1.7313 5.6266 3.8788-5.8904 7.4361-11.253 9.7527 0.8038 7.4052-8.0688 26.618-15.21 2.2094-6.8322 8.5019 1.4242-9.4129 12.968 4.0334 13.619 10.25 2.2569 10.604 4.5136 20.666 11.098 13.928 6.7395 8.3779 0.54 12.69 23.774 13.262 5.4101 7.0177-10.216 4.1901 4.6064 0.9893-3.5099-1.824-3.1987 4.4044-15.272 15.876 13.881 1.7312 5.3792 3.9407 11.298 0.913 15.767 1.8239 5.0701 15.07 18.72-0.911 7.0012-6.4778-9.9546-8.8725 5.0247 1.2219-9.2745-3.5716-1.7313-2.8132 10.526-13.184 0.8965-4.2519 19.693 0.371 5.3627 0.8348 3.2007-5.5484 2.5186-6.8321 0.8347-5.7192 2.8298-3.2937 6.4921-15.272 5.5483-13.926 11.486-3.6334 2.2712-6.5849-4.4209-2.2568 10.528-10.278 9.9382-4.1284 8.6727-4.5588 0.55648-5.3174 0.0152-9.3221 0.64921-14.606 3.4172 0.169-7.6525-9.2581 1.5004 0.2927 3.3224-7.1723 5.9048-11.16-1.824-2.9679 1.7313 2.4733 2.3351 8.6727 2.3495 18.24-3.0771 10.742 2.3042 4.1281 7.7123 6.554 4.359 7.698-3.0441-5.2865-14.485h5.3627l4.8392-0.81822 4.8537-1.7786 4.8681-11.593 7.5741-5.4411 22.228-15.767 17.282-8.5779 10.157-7.5124 9.5052-6.1376 6.4778-2.9061-2.0714-7.9451 3.7409-17.869 9.3198-0.1235 5.5195 5.3173 3.5408-4.1426 1.8692 6.8941 8.4542-0.062-1.6383 16.138-2.6896 18.102-0.7729 6.2139-1.3438 16.307-0.742 11.006-10.727 16.014-13.218 10.899-16.508 6.8158-15.719 7.265-13.279-1.1274 8.0234 16.972 17.883-1.0986 7.9761-5.7646 32.708-5.0557 35.398-3.1986 10.744 6.8013 13.139 12.813-11.469 12.661 6.0736 13.232 0.4492 12.906-11.129 2.1805 1.6386 4.7135-4.9319 5.2556-3.2463-0.74198-1.5456 9.7074 4.7134 8.7181-6.6612 12.335 13.139-5.9192-3.2624-3.988 3.0153-1.7003-0.076-4.2354 1.7457-5.5503 0.7111-3.9097 6.1521-2.4732-0.3092-7.9926 6.3377-7.6669 6.9251-12.288 4.7916-0.68011 14.098-1.5458 8.2541-7.5289 17.898 1.7931 13.695 5.3792 9.5075 8.7346 7.5123 5.5647 12.813 9.1509 20.111 7.1723 19.013 10.155 14.808 12.135 1.4676 5.6265 11.037 9.6909-0.076 3.2316 5.6266 6.8014 7.0805 0.72546 7.2186-2.3949 8.8728 2.4423 13.108-4.6991 15.921-12.939 9.8783-10.402 12.984-4.7465 6.692-6.4757 9.8476-3.5552 24.87 3.6315-0.7418 2.8751-10.171 0.77287 10.882 4.0973 17.855-3.7881 7.465-9.1818 6.4613-2.1641 0.094 4.2045 3.3389-2.5495 3.988 4.019-2.3188 7.836-16.214 11.95-4.3922-3.4171-3.1822 1.4695 0.6329 6.9394 3.7097-1.0965-0.2783 26.694 1.9334 15.505-1.7169 17.993 2.4733 28.782-5.6884 1.6076-11.624 10.758-37.885 24.035-17.189 18.627-12.63 9.2127-15.905-4.4208-1.7168-7.4506-4.9154 4.7609-0.1849 6.0285-17.265 17.962-1.4669 9.228 6.5077 16.725 8.378 10.666 15.858 1.2984 1.7477 4.56-8.8434 12.628-0.6785 9.9709-5.6426 7.5889-29.524 10.141-21.348 6.3368-12.737 12.026-5.1918 3.3396z" fill="#f9f986" fill-rule="evenodd"/>
</svg>
