<svg width="527.27mm" height="412.37mm" version="1.2" viewBox="0 0 6227.7 4870.5" xmlns="http://www.w3.org/2000/svg" xmlns:xlink="http://www.w3.org/1999/xlink">
 <path d="m158.71 1943.1-5.0701 4.8085 11.253 5.5481 2.0858 10.913 6.183 5.5503-0.84915 11.717-24.347-7.9761-11.979-11.393-3.9571 7.2198-7.5124 4.4044-17.793 5.674-10.062-4.6848-7.3743 6.3996 4.1282 4.8845-5.1793 1.0366 10.466 12.009-1.824 6.6634 5.7337 2.7205-3.4316 4.9464 2.026 4.8845-15.117 8.5327 0.15449 6.321 13.957 1.8858 13.712 10.373 4.6064 5.503-8.0235 4.0498-0.55645 18.904 30.791 16.354-11.81 22.846-1.622 5.9523 21.624 26.818 5.4101 17.484 7.9617 8.2379 3.3698 25.769 0.94188 9.629-11.562 40.56 7.6216 1.4694-5.1793 6.6305 1.8714 13.65-10.604 12.187-3.9118 4.4867-7.9905 0.4949-8.1781 14.516-13.71 18.502-21.888 16.91 3.0194 9.2933h8e-3l21.07-2.7825 17.139 3.9571 10.449-1.5765 8.3162 15.35-5.3483 1.1584 0.72753 6.0283 7.9143 8.3779 14.685 10.449 0.55648 4.8392 4.0808 1.3129-2.5041 8.1308 6.3211 1.9475 4.2663 10.311 7.636 5.672-2.6587 12.97 3.5862 6.5541 11.3-1.1437-1.284 4.0024 5.4411 4.2828 14.732-0.1089 3.3533 4.761-4.528 8.4397 2.0239 4.4044 9.2436 3.2318-7.5268 6.863 7.434 6.2595 4.9011-6.6302 14.097-5.8287 3.0441 0.1722 0.51115 4.6042 6.352-1.5581-2.6731 12.148 5.3792 3.1368-0.54205 4.9486 4.561-0.061 0.57089 3.8024 22.337-2.9844 3.4316 3.541 25.519 6.554 12.428-17.391 2.9534 4.2043 3.817-0.9419-1.8384-14.808 8.0998 1.9002 6.554-0.8801 6.9394 13.586 6.5396-5.5339-1.655-10.618 13.386-5.2411 5e-3 0.035 10.509-7.4959 1.0346-7.4196-8.4708-9.936-1.8075-7.5556 4.4806-9.9568-2.3021-3.7695-5.8285 0.5873-7.9905 8.0832-6.5849-1.0201 0.47818-21.362-2.0858-1.6219-0.0618-0.048-2.4876-1.964-16.587-0.9892-2.0858-25.087 4.8372-0.1824 1.7477 1.3149 3.3224 3.5862 3.6789 1.484 2.9678-1.2222 1.2222-3.0606v-5.2391l-1.3149-4.7301-4.7918-5.9355-0.27824-0.3566-8.0688-4.9773-8.1451-9.9691 14.637-22.135-0.54001-7.2814-5.4266-6.7087-3.1842-2.5348-17.282-11.113 0.94393-5.9973 5.0392-4.1284 7.8834-0.4184 7.6051-1.2343 5.843-3.1082 2.9204 4.7609 1.1913 0.7421 2.4876-0.5709 2.5825-3.4934 1.2675 0.3855 0.78732 1.0983-0.74197 2.7967 0.4328 0.2639 1.9642-0.8347 0.47815-2.5351-1.6529-2.3659-2.0095-5.812-2.7824-1.4056 1.0202-2.026 3.2461 1.0799 1.8693 1.7477 2.1496 2.395 3.6315 0.6182 4.932-0.3092 3.988-1.6074 3.446-1.6221 3.4934-1.0986 1.3912-0.4017-2.2094 14.839 1.2366 4.1119 5.9666 0.5729 7.5433-2.5969 5.7502-3.5243 1.2366-0.061 5.3174 1.793 5.3792-1.9166-0.24947-3.4625 5.5647-0.8657 2.7205-4.5135 1.793 1.7313 0.61832-0.371 1.9786 1.422 5.5338-1.0346 0.60387-7.9287 0.0927-1.1439 8.007-12.939-2.3949-6.7085-12.939-2.4113-0.92743-10.171-4.6064-3.2768-1.7622-3.8954 4.19-7.0177 6.1975-2.3041-0.55649-1.5768-11.886-0.7874-8.7036-1.0057 0.74197-3.0152-1.9167-2.8894 3.1842-4.5467 1.824-0.4926-1.082-8.4233 7.0033-6.2304-6.5705-11.206 3.7408-5.6266-12.706-9.0126 13.743-8.9037-4.6682-6.7085 8.0688-7.8834-0.35655-5.7955 13.263-1.0819 11.053-4.4376 6.2758-9.9689-9.9237-5.6575-5.2247-3.6646-2.8751-2.7823-2.4732-4.4826-0.88207-15.736 1.1438-14.036 0.30917-3.8644-2.6113-4.3735-4.9464-1.9166-9.3528-1.2223-9.7218-4.7156-6.1686-13.862-4.6208-0.913-3.8644 1.189-7.6051 7.2816-14.794 1.5457-14.637 6.383h-4.8702l-3.3224-0.8656-2.1187-5.2556-7.1105-5.8717-6.7086-11.424-8.7634-8.7657-14.746-13.586-2.6587-4.4375-19.864-12.133-19.738 0.3875-6.7704-3.4028-8.7037-3.848-4.6826-8.4542-15.814-0.8058-1.5458-11.793-7.1723-4.8392-7.2795 2.7846-17.793-3.8191-8.6397-9.2292 2.5041-4.1283-13.232-9.0868z" fill="#f9f986" fill-rule="evenodd"/>
</svg>
