<svg width="527.27mm" height="412.37mm" version="1.2" viewBox="0 0 6227.7 4870.5" xmlns="http://www.w3.org/2000/svg" xmlns:xlink="http://www.w3.org/1999/xlink">
 <path d="m922.13 877.83-8.378 4.1735 6.8157 8.7655 3.479-8.2399 12.999 6.0449 12.242-0.015 7.5907 4.8681 3.3223-1.2057-1.3602-2.6587-13.541-6.1047zm-45.012 3.9427-21.008 0.10714-6.0284 5.8121-1.4365 7.7143 5.2391 1.622 4.901-6.0593 21.531 3.9117 21.27-6.7394 0.6492-3.8953zm-93.426 5.6719-8.4398 8.1781-1.1604 10.511 12.599 2.1475 5.9501-12.071 42.308 0.8966-2.0095-3.9262-11.795-3.6336zm-108.22 8.007-16.616 5.1628-2.3042 3.2935 4.6537 5.7646 6.8158-3.5387 8.1925 4.3425 4.5136-4.0334 23.11 3.4625 27.714-5.1484-1.3128-4.9773-38.32-2.2259zm70.177 0.5111-7.5268 3.8953 1.5148 3.6624 21.346 3.108 1.655-7.1269zm-129.97 15.952-57.609 1.993-6.3067 4.4064 88.524-0.1091-3.9406-5.3318zm-47.902 13.572-12.768 6.2902 2.8751 7.3743 5.5173 3.0916 6.5395-9.1056zm-52.896 15.581-36.634 7.3103-1.6859 8.0236 2.5824 5.0536 17.172 13.495-2.704-6.0593 8.8417 1.0346 3.5387 3.1842-1.3603 4.1427 2.9679-0.2927 4.2045-5.7502-12.737-11.362 13.217-5.7646 10.587 1.2057 10.651-3.6954zm36.542 17.282-4.4064 3.6006 4.2045 3.6789 4.0664-4.6991zm604.95 323.05 5.6264 4.846 4.6991-0.7419 3.4625 1.6694 10.944-1.9786 3.8644 3.2935 3.4315-2.1806 3.5862-0.062 1.6076-2.0403 5.7646-3.7243 0.8656 1.2511-0.6183 4.6063 12.582 2.6587 18.673 0.913 11.053 19.755 16.292 0.2926 12.597-10.154 5.2102 3.2152 8.0997 12.953-11.84 5.8883 3.4935 10.109 10.14 2.0569-10.604 5.0392-1.624 15.519 2.504 4.73-4.5589 5.1628-6.3685 1.5292-10.944-5.9357-4.699-5.3483-4.1426-3.5552-5.0083 2.535-3.3244 11.84-1.0821-0.076 1.3603 10.989-7.3722 2.0259-10.511-4.5919-3.4007-5.9357-3.6171-1.9167-4.1735 4.5754-8.0853 4.4065-3.2296 8.8252-13.99-0.6946-1.5601-7.3269 0.2165-2.6587-12.582-1.1603-6.0449-0.015-0.5091 1.2675-1.3458 3.3842-6.0429 2.2733-5.3029-8.749-5.9358 6.0738 3.0771 5.303-10.604 6.7394-13.015 5.7956-2.8607-5.981-6.6302 9.4126-7.1579 0.7275-15.348 14.328-8.9654 18.704 6.9394 1.7477 0.078 11.253-4.4992 2.9514 1.5457 28.087-3.8479 8.2543-1.5313 9.6765-4.1571 1.8858-3.8643 8.6253 4.8681 20.511 0.2474 11.099-9.7383 6.183-13.617-0.6637-10.202 5.8883-18.535 12.984-9.2271-1.2984-7.9452 21.795 1.6694 24.038 2.0239 20.14 7.2033 3.2461 3.7407 12.737-2.2094 5.9048-11.377 3.0153-2.9843 17.945-1.7622 4.5446-1.7621 11.177-4.559 14.128 3.044 7.0013-1.7147 5.643 3.6315 0.3091 2.3042 6.1831-3.7407 11.779 27.003 15.674 18.504 15.241 3.648 27.003 3.2605 1.7004-2.6587 6.6632-2.4876-0.6492 0.3524 17.189 0.7337 5.2123-3.2296 5.443 2.5413 7.3413-3.2667 2.3804-0.039 7.0899-7.4403 9.0129 1.0264 8.5079 8.8747 5.5192 15.637 6.0016-14.338 13.774-10.802 1.9227-17.389 10.559-0.6327 11.952-8.4564 3.6191-7.0383-4.2023-15.668-8.3306-5.4637 3.6727-9.0643-5.2163 0.2803-4.8868-6.3026 0.8101-2.533 6.5333-5.9501-1.2367-19.106 18.749-3.1843 8.1308-6.6633-0.8801-15.427-0.2001-14.406 7.4341-1.453-4.0642-12.366-3.4008-4.2972 2.2094-5.4864-3.7241-15.01 9.6455-5.7193 8.0523-23.077-11.068 1.5767-4.0025-11.3-16.742 6.0903-4.5754 19.308-4.359 8.6562-7.5886 13.648 1.5147-1.7003-20.513 2.2114-6.0736 7.6052 0.233-1.8859-6.9724-3.2935-3.0297-12.397 1.8242-16.368-6.8323-7.5742-11.855-1.484-5.7502 5.9811-8.6563 3.0296 0.3855 2.5351-6.2139 2.6442-18.904 6.3686 0.371 3.8334-3.7572-8.6727-13.695 6.7251-6.6468 14.901 2.1497 0.6945 0.093 1.315-3.1534-1.0202-1.1438-7.9308-8.8418-4.4518-6.3231 0.9893-8.5161-2.8277-0.078-1.1438-9.7527-4.8702-1.3911-10.773-10.188-19.06 5.3174-10.264-2.4258-11.546-7.2815-11.686-8.1451-11.5-6.2304-7.3434-34.33-26.787-13.31-9.3055 8.2091-6.9723 16.183 11.253 7.1414-1.1892 3.7716-6.5231 5.2412-5.7358 12.38 1.7622 3.9118-4.3735-0.6183-2.2877 4.761-7.3434-0.6658-3.0915-1.2201-30.806 15.952-6.6941 2.6113-8.1142 11.579-12.644 0.8037-8.5326 9.0417-14.159 5.7358-4.7918 0.138-8.1162 8.7964-29.153-3.2008-3.2461-0.5564-18.563-3.3698-14.005 1.5004-9.4456 10.433-13.153-0.4328-10.589-20.528-0.0307-9.7073 23.125-45.754-3.8479-18.471-8.4872-3.5408-7.1249-17.158-2.5824-16.416-3.1843-8.2997-3.9406 2.1476-9.8001 12.692-5.5194 3.6315-31.672-12.752 1.2675-5.5193-28.875-3.277-10.789-5.9976-8.0235-6.8013-7.7741-6.5849 1.6385-6.5066 1.7622-7.0033 1.6694-6.6159-6.4777-19.848 12.273 3.2317 4.561-8.1307 15.798 2.6732-16.416-18.487 4.6373-15.194-4.6991-8.6872 19.213-10.511 10.528-1.0058 10.882 4.1282 27.514 1.082 8.5779 7.8216 11.81 1.9476 9.4291-2.8607 10.202 5.3957 12.49 4.8846 5.6884-6.014 8.6418-46.991 8.8253-52.508 9.3363-15.505-1.0037-7.805 13.462-15.674 14.639-19.122 11.917-15.581 13.866-34.501 3.1369-3.8788-1.3293-45.105 3.4316-18.967-5.7811-5.6884-0.52556-10.233 9.9238-20.418 10.789-1.5313-7.1105-7.5268 3.9427-6.2139-0.40186-26.927 7.836-8.1163 4.8701-16.678-2.164-3.8025 7.1413-14.746 2.3496-3.4316 5.2865 0.1545-2.4114-2.9987-21.626-4.5446-5.6101-1.1748-6.8796-0.8965-47.778-6.183-8.8108-15.598 0.41632-6.9085 5.5812-7.6361 2.3496-23.588 9.2271-34.394 10.078-13.71-4.1571-14.004 1.4221-9.2437 9.831 14.407 5.0536-5.2247 5.9213 12.906 1.8384-7.0322 8.1306 0.031 5.843-5.7502-15.705-22.306 1.6385-5.9357 21.455-16.338 5.2246-10.357 3.8335 1.622 6.1686-7.4959 23.372-14.206 27.962-6.1212 58.122 6.2762 3.4151 2.4897 7.7288 5.6266 14.53-0.171 20.542-5.5173 34.58-5.9975 13.277 3.277 25.583-4.4374 36.031-0.6018 41.212 10.804-4.1901 13.774 5.3958 26.587 1.7765 3.4625-0.1833 6.4304 2.0095 4.2498 3.5243 1.4839 0.5565 3.9571 7.0321 7.1105 0.6967 2.0714 3.9571 2.7205 2.195 5.0082 9.4126 3.0915 8.2543 22.43 0.6657 5.7811-3.0472 5.5029-3.1853 5.7337-21.299 5.4266-3.4615 0.8801-10.48-3.1843-0.5874 19.229 1.2222 4.2353 9.1652 13.897 8.5801-3.2626 10.093 2.6278 10.789 19.864 2.4589 4.5445 1.082 1.9786 13.201 7.3722 8.7799-1.2201 8.4708-6.8488 7.2032-10.124 0.1669-6.1686 6.5849-6.6303 3.6954-27.7 0.4637-9.0272-3.7572-5.9666-13.555 2.704-12.815-2.4732 7.5433-36.247 8.0998-10.418 10.264-6.416 7.5432-2.6277 8.7964 3.4789 19.8 27.931 27.391 12.321 10.202 2.5186 5.6884-4.3591-0.5256 6.1068 10.868 7.8051 0.911 7.4979-3.6315 2.4258 2.2712 3.4934 3.0915 2.7205 6.3232-10.433 0.2782-0.062 1.5293 14.777 0.8656 8.0524 0.4019 4.0354-6.3211-1.8549-4.5301 11.81 3.3244 6.2284-2.8442 8.1306-5.3648-0.5874-6.6921 5.8121 10.34 1.1603 0.9749 11.16-6.5231 1.5148-1.5932-4.73-12.459-2.3186-6.6302 4.3899-0.3257 0.1072-0.2617 5.812-1.2222 24.547 4.7609 6.9868-1.3438 20.435-5.3029 15.581-5.4411 0.4328-0.3545 2.0878-3.2625 19.058-2.9823 17.391 9.0272 17.265 21.562 15.148 12.028 4.581 1.3953-2.2898 0.6987 0.3958 1.2119-1.4695h0.9563l0.1876-1.7725 2.261 0.4204 3.8932 3.1719 1.0264 0.3731-2.0981 2.7967-2.2857 0.7461-0.5585-0.5132z" fill="#ffbf80" fill-rule="evenodd"/>
</svg>
