<svg width="527.27mm" height="412.37mm" version="1.2" viewBox="0 0 6227.7 4870.5" xmlns="http://www.w3.org/2000/svg" xmlns:xlink="http://www.w3.org/1999/xlink">
 <path d="m428.89 2222.3-6.1975 2.3041-4.19 7.0178 1.7622 3.8953 4.6064 3.2769 0.92742 10.171 12.939 2.4112 2.3949 6.7085-8.007 12.939-0.0927 1.144-0.60386 7.9287-5.5338 1.0345-1.9786-1.422-0.61832 0.371-1.793-1.7312-2.7205 4.5135-5.5648 0.8656 0.24947 3.4625-5.3792 1.9167-5.3174-1.7931-1.2366 0.061-5.7502 3.5243-7.5433 2.5969-5.9666-0.5729-1.2366-4.1118 2.2094-14.839-1.3912 0.4017-3.4934 1.0986-3.446 1.6221-3.988 1.6075-4.932 0.3092-3.6315-0.6182-2.1496-2.3951-1.8693-1.7477-3.2461-1.0799-1.0202 2.0261 2.7824 1.4056 2.0095 5.8119 1.6529 2.3659-0.47815 2.5351-1.9642 0.8348-0.4328-0.2639 0.74198-2.7967-0.78733-1.0984-1.2675-0.3855-2.5825 3.4935-2.4876 0.5708-1.1913-0.742-2.9204-4.761-5.843 3.1082-7.6051 1.2344-7.8834 0.4184-5.0392 4.1283-0.94394 5.9973 17.282 11.113 3.1842 2.5348 5.4266 6.7088 0.54001 7.2814-14.637 22.135 8.1451 9.9692 8.0688 4.9772 0.27824 0.3566 4.7918 5.9356 1.3149 4.73v5.2391l-1.2222 3.0607-2.9678 1.2222-3.6789-1.4841-3.3224-3.5861-1.7477-1.3149-4.8372 0.1823 2.0858 25.087 16.587 0.9892 2.4876 1.964 0.0618 0.048 2.0858 1.6218-0.47818 21.362 6.5849 1.0201 7.9905-8.0831 5.8285-0.5874 2.3021 3.7695-4.4806 9.9568 1.8075 7.5556 8.4707 9.936-1.0346 7.4197-10.509 7.4959 1.3088 6.3851 13.462 7.4979 23.172 22.906 4.4229 11.737 7.5742 1.2551-0.14007-3.3387 5.1175-1.3767 4.0499 3.4934 17.615-0.1443 3.9778-4.4416 5.4575 0.7256 4.7444-14.468 6.6468-6.2139 8.9035-1.2057 10.249-3.9098 11.037 6.4304 19.367-3.0771 14.608-6.5375 7.5886-9.6455 8.3162-0.8821 6.2758 4.5444-0.0179-11.439-6.1068-0.9892 11.655-5.4721 7.296 3.85 5.2412-8.7345 7.9596-2.5805-5.2247-14.252 10.002-9.4148 1.8858 5.5359 5.3318-4.0663h3e-3l-1.6055-7.6916 4.9629-3.4481 0.74193-6.0574 2.1167 1.1108 4.2663-8.3387-4.6682-2.8978-1.3602-9.5219-0.84912-6.6467-5.7667 4.9772-7.2486-5.039-6.3067 1.6695-2.6752 4.5897-9.7218 1.6695-2.906-6.5376-10.497 5.1938-0.52556-7.9925-6.6014 1.7168-4.1426-3.8953-1.251 1.4529-5.7502-1.3602-5.1937 0.1241-3.5985-2.0157 2.4691-6.2055-2.0095-2.3662 2.6134-4.6371-1.3912-4.8848-8.4872-2.9821-3.9262 1.051-3.1533-4.6371-4.4662-0.5258-2.195 1.4821-1.5623-2.0096 6.6014-6.8323-1.8096-2.504-2.9679-2.5207 0.29472-7.5267-6.5231-10.868 6.5994-13.308-2.9679-7.327-11.222-2.5515 1.1294-8.6996-3.1842-8.2397 8.1307-2.7825 3.3388-7.5742-4.7918-3.4316 4.7918-5.1152-7.4979-12.799 2.0713-6.5705-2.4732-6.6467-2.2877-0.4637 0.72752-6.692 0.92745-1.515-0.8038-2.2568-2.3186 0.3092-0.27824-1.6385-8.2399 1.8383-6.214-9.398-1.6694-0.9584-9.2745-5.3009-2.9679-8.9346-4.5136-1.2222-2.4567 7.0322-1.3459-0.7727-13.895 6.5231-1.1129 0.4017-5.9976 3.0917-1.5622 2.5513-1.4675 0.2507z" fill="#f9f986" fill-rule="evenodd"/>
</svg>
