<svg width="527.27mm" height="412.37mm" version="1.2" viewBox="0 0 6227.7 4870.5" xmlns="http://www.w3.org/2000/svg" xmlns:xlink="http://www.w3.org/1999/xlink">
 <path d="m2869.2 1737.6-1.0223 3.7922 4.7485 2.2094 2.1106-0.1649 1.0551 0.3957 1.3192 0.8904 4.122 1.1212 0.2639 0.5935 3.7262 0.9563 6.3975 3.1657 7.2877 5.3422-2.836 6.6282 3.1328 1.0223 1.4509 2.0115 0.7585 3.0668 0.9563 0.9233-0.6266 1.3191-6.1997-0.5936-0.6595 0.8574-0.099 1.1871 4.023 3.2317-0.1647 1.6818 0.9234 0.7254 0.099 1.5169 1.616 1.3191 0.5934 1.5498 1.7148 1.3521 2.0116 0.3627 2.1765 2.1105 1.5167 2.9349 0.066 1.286 0.5936 1.5829-0.066 2.8359-0.5604 1.0553-0.9563-2.5392-0.033-3.2647-0.6595-1.9125-1.8797-2.0776-0.5605 0.1649 0.1647 0.9893-2.5063-0.1649-0.7914-0.4617-0.8575-1.9785-2.1433-1.1872-2.6711-2.1104-3.5945-1.1212-2.1433 1.7477h-0.7914l-2.1765 2.704-5.9358-2.5061-0.099 1.0222 0.9892 2.836-0.6265 0.9563-2.9679-0.9563-1.8797-0.2308-0.9231 1.5829-2.9679 1.1212-1.3522 0.2967-0.9233-0.2637-0.2637-1.3521-4.5837 0.4617-3.5615-0.1978-0.066-2.6051-1.55-1.1212-4.3198 0.6595-0.033-5.0453 0.5934-1.1872-6.1995-2.9678-1.4838 0.3627-1.2202-1.418 0.066-1.2201-1.3189-1.0882 0.3626-1.5829 1.3851-0.9233-0.033-0.7914-1.517-1.0223-0.3956-1.1871 0.2637-1.5169-0.8902-1.0223 0.1646-2.3413-2.1104-0.6925-0.3629-1.8466-2.6379-0.033-0.4949-1.0222 0.8576-1.484 4.221-0.9233 1.286-1.1542 0.1646-0.8244-0.4287-1.1541-2.0446-1.9456 0.033-2.3084 1.9126-5.6059 3.6605-2.9349 4.4518 1.2531 0.3956 1.451 1.1211 0.066 2.4404-0.7584 1.1212 0.1648 0.6924 1.2532 3.7593 0.1319 1.2202-1.5169 0.9231-2.3743 0.7915-1.1871z" fill="#ffbf80"/>
</svg>
