<svg width="527.27mm" height="412.37mm" version="1.2" viewBox="0 0 6227.7 4870.5" xmlns="http://www.w3.org/2000/svg" xmlns:xlink="http://www.w3.org/1999/xlink">
 <path d="m1289.6 3335.7-6.3541 6.1212-7.8834 3.6008-2.3804-1.9314-2.2568-3.1842-5.1938 3.617-17.234 0.7874 0.6492 16.169-10.528-0.2152 10.573 6.3995 12.259 0.7874 7.1249 2.3495-9.5672 5.7192 2.2569 8.4872 9.7217-1.3149 2.9225-13.926 7.836 5.9974 4.2663 9.3983-0.9584 9.5981-5.641 6.4469 1.2675 2.9985-5.3029 2.9516 7.2032 5.6264-5.101 9.0416-9.12 0.4805-5.1937-9.8004-11.068 8.0215-12.752-7.5433-8.5181 9.2128-7.5886 3.5715 5.4864 10.635-8.3306 4.2351-2.7206 8.1309-2.9678-0.542-1.0676 5.3174-4.559 1.655-4.7774 1.1889-12.69 1.9481-35.583-4.9922-1.7787 10.109-9.8763-7.1722 3.4151 17.869 10.93 5.7503 3.6006 10.618-8.0689 3.9734-1.8384-10.187-6.3375-0.4474-8.1163-2.2256-12.892 17.498-15.86-4.4829-2.1331-4.328-7.7288 4.6228-5.8429-2.8605 1.6549 6.2301-11.47 14.39 6.9869 11.084-9.1983 1.9474-1.993 5.1938-6.6014 0.911-1.4365-3.9714-3.1699 10.711-4.9464 5.6118-15.101 10.989-5.6739-7.6504-4.761 6.7397-3.4151-1.7931-4.2827-8.3017 2.2423-5.0226 10.402-2.4735 1.4695-17.25-2.5515-5.9978 1.1912-4.5606 10.433-7.1105 5.1628 6.1829 0.1236 5.8427 13.403-10.711 0.4328-11.239-6.7395-2.3803-9.6146 2.0565-4.2972-0.8655-5.8121 5.472-5.101-7.8999 2.9679-11.886-5.9213-1.3129-4.8537 7.9597-9.0581-4.1119-2.1332 1.5459-6.8776-4.9317-8.4088 1.5144 2.0713-4.4826-10.789-7.0939 1.2366-7.2343-6.8323-13.186 0.4638-12.133 4.4662 0.027 1.6385-5.936-2.0858-4.1733-3.819 1.4385-4.019-4.252 1.3294-8.1758-29.431 5.5173-1.7766 2.9367-2.3351 0.4802 1.2675 7.496 3.6954-0.046 2.2403 31.904-3.9407 7.2647-3.3388-2.2566-7.3124 6.3067-8.107-0.7419-7.3032-5.9977-9.1818-16.123-6.8013-11.933-5.3648-1.4365-5.2247-9.4765-16.57 2.0568-0.7728 6.8325-3.9881 10.14 1.2676 4.1426 1.1747 3.8171 5.3174 30.777 7.0795 15.18-7.8524 4.3901-0.711 7.5123 3.2151 2.5038v2.0858l16.896-0.1239 3.7861 5.132-5.7193 15.783-0.6802 4.7298-14.019 9.0419 2.1166 5.5339 13.588-6.9251-3.2935 17.683-11.978 10.109-5.7193 4.2973-1.8714 8.7653 11.655 8.7181 0.2947 9.7217-8.3945 2.4589-9.629 9.3816-11.888 7.9307-9.1962 5.5483-4.4827 11.408 4.7918-1.7455 2.7041 3.2768-10.295 17.56-5.07 7.0014-1.7766 5.2863 0.7728 7.1414-0.8511 6.8795-2.3022 8.842-3.8335 14.792-4.9464 9.6926-4.4682 4.3283-12.411 14.654-6.2923 17.234-4.359 11.933-2.9988 3.9572-2.8277 3.7181-7.4815 5.3711-12.304 7.5906-13.201 3.6935-5.2556 6.9412-8.2234 11.531-5.1484 6.1521-20.264 36.449-4.9938 14.792-10.773 15.828-7.9452 5.0391-14.221 0.3566-8.3471 15.365-13.819-1.5455-4.019 3.8474-1.9785 14.963-4.2828 5.5501-30.28 31.193-22.306 12.751-17.667 30.359-1.0676 32.848-0.21651 6.7991-5.8265 10.064-10.975 6.2139-2.5515 17.852-1.3603 3.0462-5.3793 12.073-5.4101 10.882-6.1356 15.86 2.735 33.45-1.8693 6.1521-2.737 2.5971-18.254 8.0832-7.3742 26.603-7.0487 18.766-14.204 16.261-11.981 15.921-5.0845 6.2591-1.5932 12.197-8.4852 6.3378-1.4386 5.3319-2.9369 14.437-5.3174 33.45 16.323 27.917 1.4386 11.888-4.3137 8.0687-13.215 14.252-3.2152 20.635-11.115 10.511 0.0782 22.815-16.587 36.48 5.7667 21.517-3.5552 11.81-13.155 11.284 0.35655 24.515 16.911 20.235 2.2258 10.356 6.352 7.7598-1.8384 8.2379 7.2342 7.6669 4.2807 0.9438 13.263-9.9543 10.387 3.0604-1.7931 4.5282 6.2304 8.6418-1.7622 3.215-15.629 1.8548-3.8479-3.4932-1.7931 2.5494 5.101 7.7453 12.49 10.587 17.976-3.7245 22.352-4.7319 7.265-1.5313 7.3434-6.6303 4.0499-9.9712 5.641 0.9894 3.6644 2.6133 9.7692-2.9226 11.793 2.6423 4.2519 5.5956-0.55649 12.677 3.5552 5.1938 10.866 3.2437 6.385-7.6027 16.354 2.3782 7.8978 4.2064 7.4052-0.6493 12.768-5.8117 9.7671 3.8025h3e-3l7.8524-13.341 10.944 0.2002 6.6467-6.352 6.1975 1.1913 11.408-10.188 5.0082-4.0501 5.8594 1.4223 2.735 8.3304 14.145-5.1627 1.8858 3.8498 11.47 1.4368 0.8966 11.781 9.7073 10.711 13.046 3.2605 11.237 3.2937 6.6467-5.9978 13.681 7.5434 22.335-5.0392 1.2366-6.2757-9.0725 2.0713-3.3244-11.439 12.97-6.1068 8.5326-1.1127 4.1426-9.4292 9.12 2.1804-0.1401 3.1677 5.4885-0.3232 7.6978 10.016-4.901 6.3682 7.838 3.1535 10.016-9.8-2.6897-17.267 3.9098-5.163 3.8026 1.3767-1.5458 7.1249 5.101-1.4057 2.6443-7.5268-9.0582-12.228-10.975 5.0391-5.843-5.2866-12.273 3.4318-2.5206 1.1893 1.5149 8.1612-15.643 1.037-5.9666-3.6647-3.7243 5.1012-1.3293-9.7834-7.7906 0.1695-12.273-8.4541-2.4279-5.9049 5.3174-3.6644-2.2403-4.1571-2.5206-4.0501 6.7869-7.776 9.3013-4.2642h0.01l5.0845-2.3208-0.9109-10.989 18.069-17.391 7.9926-1.917 3.817 3.6338 2.6587-4.3736 11.084-2.9678 3.8788 4.2354 5.8739-1.8261-0.6637-4.7609-4.9155-2.333 3.2606-8.9818 3.4789 5.4119h0.01l14.693 0.2154 3.0771 4.4209-2.8134 5.9522 3.2606 14.994 10.559-7.1726-1.9167-9.336 3.3697-6.6161 2.4877 5.0226 8.5325 3.9265 2.2877 7.9451 0.5256 9.8166 9.6311-4.097 9.7382 8.3635-0.6347 3.8167-7.0322 0.7112-5.0247 8.6252 2.164 4.9466 7.3269 3.7715-4.188 13.85 26.416 12.349 1.7312-8.6563 3.7572-0.1091-0.078-3.7404-3.6933-0.4329 0.2307-3.2153-11.298-3.5388 0.8347-6.5374 11.422-5.7213 0.078-3.3389 4.4209-1.2963 1.5293 5.2701-2.8896 2.1783 7.636 8.9345 8.0215 0.4637 0.742 4.901h9.4456l0.509 6.3851-9.3054-2.5515-1.0965 9.5218 7.1558 3.5408 2.1806 12.426 8.4851 3.1225 16.247-2.875 7.094-5.2556 7.3578-1.3892 15.443-12.537-3.3698-6.9415-11.486-6.6303-9.0726-6.3375-0.3092-4.6062 9.1963-1.9025 13.881 7.9617 2.0879-2.4113-8.0998-7.158 4.5899-1.6219 10.295 9.3675 6.385 3.5716 25.828 14.885 1.2057 6.8318-7.265 0.3856-13.015-9.2128-5.9048-3.4932 0.573 9.3364 14.036 6.9557 13.943 0.4329 6.183 11.95 8.4708-0.3255 4.0498-2.0241-4.0498 2.0261 6.352 7.2961 4.4992 0.5089 0.9418-7.0176 10.357 3.2458 4.0808-2.9202-2.1331-11.146-10.82-11.917-1.3912-17.545-9.3508-9.8783-6.6632-0.3853-10.202-9.0892-10.587-6.8632-17.591-21.593 3.1534-4.9628 9.9073 1.5456 2.366 4.4373 19.136 15.441 8.0379 10.635 28.302 15.598 4.5446 4.8372 1.5004 12.661 20.188 20.202 8.0523 6.3067 8.9345 4.4827 10.249 6.1686 15.921-2.9844 3.277-6.4307h6.8631l5.441-3.1677 4.0025-4.0045 6.585 2.8753 2.8751-6.925-6.754-7.8668-0.7728-3.37 9.2745-5.55-7.8833-6.7542 4.0498-10.48-6.1377-11.022 10.264-9.3053 3.1842-10.418-2.3495-3.1059-6.0429 0.9583-1.5149-4.4066 5.0536-4.4209-7.4505 0.4184-3.3079 3.2917-4.6063-2.5042 2.9678-7.2962 2.2877-8.3017 3.1389-5.9971-1.4221-6.8633-4.2972 0.2783-4.7918 4.1281-7.498-2.5353-1.2057-10.435 11.053-13.493-1.8405-3.9427 6.1995-5.9502-3.85-4.7301 2.5515-6.2304-3.5099-1.529-3.7242 2.3019-1.4386 4.5917-5.5956-4.4063-1.4221 1.7167 0.2782 5.7196-4.5754-0.2783-9.4436 1.1437-3.4315-3.7262-4.8702-1.7147-3.277-3.4008-2.0095-5.4409-6.0738 1.5293-2.1331-3.5243 5.9192-3.2461 3.3388-17.189-5.981-1.6364-1.9332 4.2497-7.2795-0.309-2.2115-3.5861-4.1261 3.3551 1.7148 6.3068-0.571 7.4508-3.4315 4.8534h-3.7264l-4.5754 7.4508-0.8656 5.1627-3.7098 3.7242-5.1628 0.2783-5.0845 5.1934-6.214 1.686-2.6133 7.2489-4.188 3.4932-3.0771 9.8473 6.7704 14.914-18.333-4.4796-2.7824-7.8064-7.2341 0.8347 2.0259-6.6775-7.1888-3.8809-10.742 1.0512 1.4056-3.4767-3.9716-1.0823-1.5004-6.818 6.0903-6.8156-1.453-5.7975 2.535-3.7388 15.334 5.1155 10.033 8.378 6.8322 0.3255 1.3129-6.3685-4.0025-6.585 2.2878-3.1387 5.1463-4.5897-1.7766-2.7827-2.6134-13.496 2.3042-10.882v-0.024l3.8026-5.4575 3.7243-2.8584 4.5919-1.453 5.4245 0.3089 0.7894 0.061 1.6694 9.8621 6.4757 0.1999 6.3067 5.2722 1.3149-8.9201 0.711-11.655-1.2366-2.2712-5.7193-6.8795 0.2927-4.59-1.824-3.0151-5.7955 2.1804-2.3352-2.6278-5.4719-1.1599-7.1867-4.2355-3.7264-4.2973-5.441 1.7168-2.5804-4.0045-1.4839-0.6804 2.3949-4.7298-4.7301-1.8549-7.2959 2.9081-2.5351-1.2842 0.9275-7.8523 7.7288-5.3174 5.2865-9.5386-2.3187-2.8439 7.1724-5.5483 0.4327-5.2104-0.711-0.4018-2.5804-3.7242-3.1389-0.3093-6.8776-2.5515-4.5754-2.0237-14.036-4.0024-5.1484-5.132-7.7432-9.4005-5.4885 8.2092-2.2094 3.8954-10.095-6.818-2.5804-4.2807-5.7193-2.5822-4.0045-0.2826-3.7242 3.4317v5.7358l-0.7585 3.9407 2.5825 2.2877 4.1879 7.9141 4.2045 0.8347-1.453 7.4198 2.7679 9.4454 5.6719 3.6935 7.0177 11.346-8.7799 5.9045 4.6991 3.7574-0.6327 0.9275 1.4674 12.504-5.9975-2.257-1.5293 5.2414-10.744 5.5173-1.3747 6.7393-5.7049 4.0501 14.87 8.3017-0.4781 8.0525-3.1534 4.3135-1.7168 2.8588v10.016l6.0449 2.1642-0.542 7.8215-5.843-0.3545-4.0952-5.6267 0.6492-4.8085-11.022-9.9692-4.2189 0.1243-0.3092-6.7089-7.096-5.6429-9.7836 3.5864-4.39 10.511-16.432 5.3646 0.078-5.6121-2.0094-7.4505-4.5755-4.8683-9.662-9.5075-8.2997-1.5456-3.1538-2.6909-3.7886-3.2471-14.994-9.3674-0.2782 5.1627-3.3224 1.5459-5.9666-5.0084-6.8796 0.913-11.206-10.449-18.195 2.1024-3.106-5.9522 3.817-13.046-9.4909-6.3523-5.5029 2.7827-8.4542 4.2828-7.4815-0.4637-0.8347-7.5598 2.8586-14.314 7.8525-8.2997 18.24 7.234 3.108-7.8689-13.046-14.87 6.0594-9.9381-13.063-10.079 2.8442-2.2256-3.6006-10.758-14.685-2.3354-0.542-3.2913 5.5193-1.8241-2.1496-3.0603-8.4543 2.2712-11.702-3.4626 3.6026 12.15-1.7168 3.6026-5.5647-2.5825-0.8966-4.7609-14.854-4.6683 5.5792-5.7192-5.9975-5.5173-2.3331-13.881-3.9571-6.3233-11.888 4.9608-9.8619-0.1543-4.93-2.9061-1.8095-5.1012 3.988-8.7488-5.5029-5.0226 4.4065-5.5197 7.434-3.0914 5.4101 3.8336-0.34 5.2391 9.7857 4.8392 10.309-1.0201 7.1723-21.84 6.2758-18.288 4.1426-0.4329-3.7407-4.3755-15.688-8.887-1.4695-19.6 2.3969-5.5956-11.593-7.0341 0.8656-8.5614h5.101l2.6587-5.4886-0.8203-8.889 6.4304-4.6683-1.2202-7.6193-14.004-7.3434-2.026-7.234-2.0857 2.4275-5.4267-1.6239-2.4876-6.7396-5.8429-2.1166-1.1295-6.8156-9.7218-2.3806-7.3887-6.9413-2.8751-11.717 3.7098-8.6874-1.6693-5.9664 3.0914-1.4675-2.8751-5.0371 6.4757-2.6585 4.2045-7.7598-9.3817-16.093 5.0391-0.3542 15.719 9.6146 9.8784 1.0509 12.657 1.3605 16.169-5.5031-2.9823-5.674 15.534-7.4815 0.944-7.7594 8.6706-1.1275 3.479-3.6952 4.6517 1.2838 2.8607-3.6955-1.2057-5.6267 4.73 2.2878 1.9786-3.0131 0.9583-14.114-2.6277-5.4102 10.958-2.6278-1.8549-11.47 4.7919 0.2786 2.3969-3.8336 4.5755-18.069-5.9831-4.9155-20.25 9.6767-4.8536-8.4567-9.491-1.4054-3.0441-11.408 3.8026-5.2721 5.4555-10.171 2.535-3.0442 4.1117 1.2204-0.8491-8.2852-10.682-6.9561 1.5767-2.7348 15.859 5.3319 6.6468 11.547 3.277-5.1937 18.594 2.1786 4.8227 4.0808 4.4827-3.3862 0.2927-9.7527 0.8512-5.7192v-5.4413l1.3603-6.2139 4.157-7.574 5.4102-1.3912 11.562 5.7502 4.4683-10.511 13.757 11.779 7.3722-6.276 1.0367-8.1778 3.6006 3.8951 1.3912 12.335-4.3282 9.2911-4.7609 2.2712 11.037 11.733 4.932-3.2937 7.9287 4.2213 5.5194-1.7171 5.1463 5.7975-1.3293 6.709 3.988 12.628 5.0083-2.1952 10.095 16.711 13.648 0.046 5.5646-5.132 10.573-6.3375-0.7872-10.497-11.037-12.488-4.1282 3.1822-4.9774-8.2686-2.7823-6.1069 13.541-3.8167-4.6517-4.592-0.1236-12.15 11.531 0.3876 9.0726-9.9401-1.5293-6.5519-5.7667-3.1698-5.2246-7.7456-9.629 2.8608 3.5696-2.1165-7.976-5.8597 2.8298-4.4063-3.1698-1.7458 0.4018-10.806 3.8954 0.8347-3.8788-5.6409-5.9667 4.6063-6.3685-10.556 1.1274-6.9105-0.1998-19.353 11.5-9.3981 1.8858-5.8432 3.1368-1.0056 4.8701-4.0024 4.2972-4.8703 3.7099-2.024 4.4826-0.094 3.3842 5.0081 4.8084 0.2509 1.8548 5.3008 15.798 3.2315-0.8203-7.0651-4.0499-1.8383 5.5503-4.4063 5.6575-1.0202 10.388 1.2531 12.782-8.8892 2.2115-5.5646-3.3244-0.5403 6.8322-6.1521 0.4638-5.1174 3.2151 0.8823 5.2411-8.1474 12.923-1.7458 1.9621-11.377-1.9312-9.4454 6.2758-4.5755-1.7787-4.3118 3.1225-1.6073-2.9514-14.84 7.805-0.1847 3.4481 7.4505 4.2972-0.8658 3.7098-3.4457 3.7242-4.5755 5.1484-0.8658 8.9489-0.913 5.1319-1.9619 0.1092-6.0285 6.1975-2.0859 7.9616 5.3792 0.2618-9.7548-1.5458-8.6086 1.5004-5.7669-7.8998-6.8463 10.418 0.233-0.045-8.1782 3.2935-11.855 9.4436 1.9619 7.4505 1.8403 4.899 10.079 4.2972-0.7584 3.7099 7.498-7.0487 12.892 5.6286 5.812 8.4233-1.1913 1.5458 3.6027 1.4674 3.2605 5.7193-0.233 2.3187 7.9307 3.6953-1.7168 3.4317-0.5875 14.606-12.026 0.1236 0.046 0.062-0.6017 4.6682-3.5243-14.159-3.8644-1.5457-11.734 1.4076-5.7503 4.4972-0.7729-2.6422-7.774-5.7811 1.8241-7.1415-3.4479 3.6934-10.588 8.5016-5.1793-1.4839-9.0419 7.4052-8.687 18.271 16.787 2.4423 14.221-1.453 5.8431-0.8347 4.1899 2.1022 7.729 3.6789-2.7372 1.1893-16.059 7.9451-2.3188 12.49 6.8014 6.3685-0.6494 0.6658-10.188-8.0071-6.3827-0.6492-4.8845 3.8335-2.3806-1.0511-8.6563 7.3413-2.6589 3.8953 6.7397 12.304 6.9561 9.3364-3.0154 0.4328 0.1266 15.612 4.2665 5.6884-0.464 4.3281 10.062 11.084-3.1988 3.6006-6.2757 6.014-2.5825 5.1319 1.0822 8.5635-0.3711 0.6327-15.674 8.7037-3.6786 4.1426-7.0014-0.573-11.61-4.2354-2.7351 2.8298-7.0649 10.882-10.202 1.9931-3.7097 0.8655-8.0381-4.7135-3.9261 4.8372-9.9702 5.3339 3.3997 20.511-0.9131 10.744-15.101-5.8595-3.6952 4.6373-3.0914 2.6278-1.4365-0.5565-6.7089 9.2746-0.4329-1.8694-10.589 12.552-7.3414-2.0094-10.497-3.6336-11.02-8.6397-4.0974-1.0821-7.4194-0.7584-7.0486 4.9773-4.6518-0.1071-2.8132-3.85-13.465-9.4909-8.0522-0.138-5.6266-17.7 10.278-1.793 8.7654-8.6872 4.4046-5.0845-24.283-13.434 5.2722-1.9476 13.803-8.9654 2.984-4.6991-2.6896-2.9369-1.6836-1.5293-5.3961 2.7659-8.6394 3.2935-3.2626-4.8228-5.3175 6.3376-3.9262-0.542-7.7433 4.6682-8.7963 0.9892-15.534-11.978 4.3282-23.698 1.1581-1.282 9.6002 3.4007 8.5018-3.4316 2.6113-5.272-13.881-8.6871 3.2007-3.4151-2.0567-1.5004-13.772-10.371-1.0819-8.2399 9.6455-5.9975-2.2879-4.1426-9.1816zm-185.83 1162.3h-0.01zm-212.45 61.117 3.7551 9.0581-6.692 3.679 2.2258 3.8502 10.388-5.0868 6.8013 3.8955 3.7408-1.1441-4.6538-14.019-7.636 3.0603z" fill="#f9f986" fill-rule="evenodd"/>
</svg>
