<svg width="527.27mm" height="412.37mm" version="1.2" viewBox="0 0 6227.7 4870.5" xmlns="http://www.w3.org/2000/svg" xmlns:xlink="http://www.w3.org/1999/xlink">
 <path d="m1844.8 2261.7-13.015 2.9223-0.309 8.5781-4.7754-0.1545 0.3237 14.33 10.002 5.7029-3.7406 9.8929-7.7762-2.395-9.1963-11.222-6.6322 3.5243-4.0499-8.8892-5.1937-14.081 5.7193-3.0152h-13.308l-6.6158-5.1317-10.295 12.149 4.0952 5.7504-3.7715 4.2208 0.8656 13.401-6.6302-8.1637-21.07-11.313-19.553 0.9894-3.7717 0.8821 3.4007 9.9236-5.1485 8.9655-0.2481 7.3412-9.7527 12.97-13.465 2.6278-4.0333 9.5981-9.8188 5.674-11.111 1.8548-5.674 7.5886-5.6739-0.68-4.4827-9.9547-9.8476 10.744 2.4589 3.2769-7.0631 10.295-10.697 0.402 3.9263 7.5885-9.0889-2.9061-4.1283 2.1496-14.052-3.1697-2.3001 8.7655-3.5717-0.233-3.3719-9.8783-5.6081 7.2814-11.733 0.8347-1.7314 6.3686-7.6669 6.2902-7.9287 1.051-7.9307 7.838-7.3269 3.2298-2.0404 9.3527-0.093 3.8644-5.6884 1.8549-0.031 1.3129-0.7873 5.9832-1.9023 2.1949-5.7502 3.3696-0.5709 2.195 2.3187 2.5186 4.4352-3.1986 1.5004 0.233 2.4568 5.0555 3.8025 3.3224 7.0033-4.6538-2.9534 8.6274 7.0486 1.22 5.8286 8.0525-1.9786 3.9427 4.6208 1.3911 1.4695-6.1994 4.8228 1.8239 11.049 0.4328 0.1545-5.3482 6.9106-3.3699 6.6302 2.7225-4.4044 4.4044 5.905 3.6173 0.3543 3.9262-5.579 3.7406 0.3401 4.1592-5.2247 3.615-0.1266 6.0614 5.6719 1.3129 4.9155 5.3936-3.6479 9.8165 10.837 3.9262 5.3936-0.5873 0.5873 4.5921 9.2912-2.5063 3.7715 8.7037 8.1926-1.7789 11.5 11.979 12.073 4.7133-3.0152 7.3435-8.4256 4.6827-2.9038 8.0543 2.5948 5.0846-0.7256 14.887-4.4043 3.1987-7.2196-10.309 3.2151-2.4588-0.8039-4.8063-5.0246-7.4197-8.578 4.1572-6.554-0.8492-3.4934 3.3532 11.84 13.619 6.3069 0.094 2.5657 6.2612-6.692 0.6018 1.4676 5.0393-3.3698 1.422-4.5303 6.2757 3.0462 9.0726-4.5589 2.8297 0.3711 6.2285 13.246 5.2245 11.672 14.176-2.6752 3.9263-4.6209-1.8096-1.6859 3.2769 3.5717 1.9952-2.7679 7.1413-4.7609 1.1893-14.685 2.0711-4.8845-2.3021 0.511-4.9628-4.2045-3.9262-6.8342 3.479-10.756-5.1176-16.278-0.3546-4.8062 10.202-0.8347 7.6195 7.1723 7.7762-3.1534 4.6371 4.019 3.5079-0.5111 4.2663 7.4195 1.5315-5.7027 3.6788-7.4671-0.2784-1.5292-2.9367-5.0083 4.7607-9.9711-4.8701-12.15-0.3234-1.4221 8.3615 1.6385 2.4421 4.4065-4.7754 7.9761 0.8801-8.1781 11.579 4.0499 3.8644 9.8619-9.3674 7.6979 6.5066 9.4291 7.7763-4.019 4.2805 6.2613 1.8716-1.995 5.7028-12.659 8.2235-1.0511 10.033 5.5029-2.5657 0.6327 5.0699-4.5899 2.1785-1.4386 5.4886-6.1356-4.0501-4.2353 6.7541-7.9762-4.4044-10.064 8.3306 2.195 5.2721-5.641 6.9868 2.3022 10.278-2.6731 4.8846-5.5957-3.5697-2.0568 5.8741-2.0858 4.9154 3.3224 1.0346 3.1842 0.913 0.2947 8.4851-3.1389 10.48-11.175 12.012 5.7193 6.0738-11.393 5.4101-6.1047 8.2091-1.9642 21.037 11.006-2.7349 7.869 6.692 12.133 1.1293 3.6171-7.0033-6.6921-13.772 4.5754-2.8752 5.0392 2.1785 10.371-5.6719 20.637 3.4934 5.2082 10.278 0.9893 4.5135 1.1748 6.956 0.913 11.27-8.5017-5.0084-9.6929 11.391 4.7774 5.1485-0.1236 21.919 3.4769 3.8953-5.4863 9.5052-3.277 3.8191-0.7111 9.893 11.391-6.3686 1.5004-5.7811 10.233-8.7799 3.8954-5.3956 5.1319-0.3546-0.3256 5.1155 8.347 8.5325 3.1224-5.3627 8.9346 5.3791 0.4802-6.2448 11.037 0.68-0.3257 5.6411 6.7087 4.9466 1.4221 6.1994-0.7421 5.5172 2.2877 3.4934 8.9037 0.4019 16.972 12.692 9.0892 0.1266 5.6739 7.2629-2.6134 10.342 4.0975 1.8239 6.692 15.041 4.9319-0.5563-3.7406 4.73 8.5778 0.7253 3.617 3.6482-8.1016 11.27 3.448 7.3392 17.079 0.8347-0.061-3.9263 5.4101-0.028 3.6476 15.767 9.1633 1.379 2.9082 5.6388-3.7262 1.5623 1.5026 4.6703 8.2234-0.8965 0.3832 5.95 6.8653-9.5384 5.441 0.6823 5.1175 16.414 7.4629 2.3044 8.007 0.7707-3.2751 7.9307-0.8348 7.9783 4.1096 8.3615-2.1476 6.4282-4.0353 6.2326 6.6157 0.2905-3.7241 4.996 4.2828 8.0214-4.2045 2.7802 2.8585 10.635 8.4256 3.4007 12.459-4.4353-2.3492 4.6848 10.559-0.3546 3.446 8.0193 7.9449 5.3979 5.4698-4.2663 0.028-11.053 0.8203-13.541 7.1558 2.8585-0.9583 2.8608 9.0746 1.8549 5.4863-5.3936 6.7561 0.071 2.1785 7.0651 7.8213 1.7621 8.1308-4.0665 2.3495-16.554-3.4934-2.6443-9.7691-1.1131-4.7136-1.6385 0.3092-6.5064-4.221-2.9371-9.3981 0.1241-9.3981-13.139-10.093-4.126 0.1723-3.8027 5.3956-6.1068 0.1545-6.4445-5.5957 1.4055 1.0036-10.556 14.128 4.1117 8.8419-7.8072 5.1482-7.7121 5.0537 3.6314 12.15-7.1104 11.393 3.6952 6.3066-5.2102 4.126 2.6134 1.3149 7.4649 2.9515-1.189 13.341-5.3485 4.7237 3.9594 14.153 24.456 5.3936-2.2732-2.0093-8.516 16.261 3.617-1.3129 5.8119 3.988 4.4209 15.905-3.8189 1.8548-8.0525 10.497-0.2001-0.2947 10.449 4.2519-4.019 4.5591 2.0712 7.1413 17.622-10.711 7.4505-0.2637 6.863 4.6681 9.289 4.421-1.8549 9.8 5.1176-3.0914 6.4922 4.7465-0.2948 3.6932-12.751 19.215 15.952 5.1464-4.1281-2.4877-14.963 6.8159-4.1572-4.6374-9.8 2.4113-9.0273 5.6121 1.1893-4.1281-10.773 7.5433-3.8498-1.8858-11.824-4.59-4.6065 2.5804-4.2663-5.0081-3.2934 4.8537-11.577-1.4056-14.561-6.0141-3.8189 3.1533-3.6934-2.0405-13.572 12.133-2.6113 6.4778 2.2258 2.2094-5.2099 8.4088-0.8657-0.1063-10.588 9.7217-0.8036-1.3602-5.0084 10.435-1.2984 7.0631 4.3735 13.588 0.8965 5.7028 8.8108-2.2568 5.2865-5.7028-1.7931 0.028 31.595 6.5396 2.3353 4.4208 6.4446 11.344-1.4056 2.0714 8.7779-4.0972 9.3507 5.1482 2.5042 9.8621 1.6386 0.079 13.324 4.2045-2.9679 13.417-4.2043 0.7894-3.2916 2.8423-4.4208 8.5036-0.8966 5.9976 6.7088 3.5223 2.8894 6.6014-1.2202 8.0832-1.4076 9.0911-0.2783 3.7244 0.2051 4.1486-4.5528 3.2751-0.6326 0.913 3.6479 8.3161-4.761 3.1553-2.8914 6.1461 3.2377-2.1745-6.3436 7.1867 3.0915 2.5351-4.1119 6.9972 0.3462 9.8309 11.222-2.9821 3.4461 3.3057 2.7204 3.4481-2.7822 7.2176-3.6626 4.2828 0.8038 5.5648-7.8216 9.6764-1.4694 8.1472-4.2807 2.3784-4.8846-14.019-4.9319 1.9166-5.7028 9.491-2.5351 5.0391-5.9521 6.5067 6.7086-2.5969-11.515 2.5062-3.9427 4.2499 0.7582 1.793-5.643-6.6323-10.587-4.2189-1.3912 0.1266-8.8107-2.9206-1.9331-3.1388-0.7256 0.6635 4.7301-12.181 0.1823-4.5135-15.256 4.6703-5.7358 15.874-2.6422 3.0915-6.6632-2.7823-9.6146 7.6195-4.5756 6.1521-6.8445 1.3273 3.0751 9.7856-6.8157-3.0462-6.7396 11.748-7.6978 4.2375 5.95-7.0177 7.1414 11.748 12.383-0.7421 7.6977-6.8488 7.4959 5.4577 9.1364 8.3161 1.9787 8.6563-4.4373 7.3103 0.6965 4.4826 1.8857h1.8716l2.3639-6.5537 2.9081-4.8848 4.761 0.7873 8.4851-0.4019-0.03-5.6719-9.2889 0.8038-8.7181-3.8191 2.3185-5.4718 11.486-3.9716-0.1545-12.784 8.716-1.5294 5.1938 10.278 7.4197-15.874 8.3182 5.2388 6.4899 1.377 1.9025-3.0462 7.9142 2.6443 0.1545-8.2853h5.8285l6.8014-3.8191 2.3639-6.5376 5.1938-0.8347 1.2675-7.8071 7.0342-4.8061 6.6303-1.4078 0.9438-6.3828 4.2499-5.9358 0.9893-2.3186-13.417-2.8132-7.5268 5.8429-0.5876 12.38-14.546-1.0036-4.6827-5.5957-3.2934-12.15 7.3579-7.3267-2.3497-5.8286-11.546 2.2423-2.8299-7.9616-3.4932-6.0739-4.2354-0.3254 1.9166-5.2865-7.4341-8.0072 10.2-3.2913 14.376-5.4268-3.9427-9.2127 3.617-4.6515 2.9844 3.5243 9.8621 0.4946 6.1212 7.698 8.9796-8.982 8.4874-5.039 0.2001-8.3615-3.8171-3.8645 0.7112-4.6065 6.1212-5.2246 0.9109-5.9047 12.706 2.2094 7.9615 5.7666 2.5042 3.2769-2.6133 3.4626 3.4934 4.59-4.5611 4.9772 2.4444 4.3899 10.989-1.4529-0.1368-10.326 0.8966-11.16 7.4196-4.6374-1.2675-6.1829 10.093-7.7743 9.291 0.8183-0.4473-6.7085 4.6085-1.4674 4.6496-9.2436-2.5969-4.7156 2.1187-2.1476 2.8464-0.233 4.495 1.4223 8.7655-1.1913 2.5824 1.1913-0.4472 4.2496-4.7486 3.5408 0.4802 4.9919-4.6847 3.0462 7.3743 3.384 3.6192-1.6218 11.776-0.025 1.9189-2.7204 7.4814 3.6314 5.1774-12.135-9.8641-11.344-2.0073-23.265-4.3282-9.8454-8.9057 4.0952 0.2783 4.8392-12.409-10.188-8.8913-0.7253 4.9959-4.1737-1.5479-11.317-6.5395-1.6219-1.0037 5.7667-3.4007 0.2616-1.1417-15.101 2.5164-6.787-2.3639-7.0322-12.228 0.9895-4.0189-13.479-3.244 4.4353-10.792-1.0654-4.1736 2.9367-5.8429-6.8012-11.698 2.6278-3.543-3.4934 0.1393-6.6632-7.9926-5.1981-5.0246 5.7647-5.3173-2.4731-7.4814 3.2151-1.9479 5.0393 11.332 0.8347 0.6947 5.9521-2.3021 6.1521-3.3554 2.704-5.5648 11.146 2.7369 4.7301-2.2567 9.2127-2.5042 4.7134-17.576 21.07-1.824 5.9976 2.7826 0.8656-6.8301 10.495-4.221 4.8702 0.7564-15.783-5.8737 2.335-5.7193-12.413-5.1773 2.8917-2.8302 4.8701-10.665 1.3129 1.0966-3.2607-16.909-7.5288-7.4506 2.1332-22.259 2.0714 2.102 12.15-5.2862 0.2001-6.9706-6.2304-0.913-3.1535-2.4421-2.7205-6.1357 2.0261-3.4625-0.1241 0.8038-10.837 7.8979-5.3627-2.2715-5.2247 4.0192-2.3043 0.8345-6.7848-2.9842-1.9166-10.68 2.2259-2.3041 6.9083-4.5136-8.8108-3.5387-2.4257-1.7313 4.9155-2.2258 1.4055-15.674-0.68-2.3041-4.8845 4.2043-6.6779-4.9607-8.6086-4.021-1.0349-1.1893 0.8348-0.4637 11.051-3.108 2.3806-6.7705-0.6327-3.2769-3.2318-0.2279-1.7457 1.1561-5.0144 0.028-0.028-0.6493-5.8122 16.369-3.2769 1.1128-16.045-3.7097-5.4883-7.9761 3.0606 0.68 3.6644-3.0441 2.0858-1.8713-4.9155-4.1737-13.881 3.8336-2.1023-0.8966-11.146-3.9262 0.6964-6.1521 6.0903-5.9809-2.1496-3.9262 4.0354-8.3638-4.8228-6.3519 8.0217 8.5015 6.183 0.6494 1.2366-13.664 7.0033-0.6184-5.1176-1.824-7.2487-7.8215-2.4277-1.2055-4.8063-5.3032 0.079-3.2295 2.1477-0.028 0.025-2.4565-3.2604-7.5291 6.6013-3.0295-4.2992-2.6589-3.755-13.648-3.5099-3.0152 5.952-3.4767-2.9226-2.6587 5.7049-12.321-3.8498-2.9368 3.2171-7.327-1.793-7.5432-5.2556 0.3566-2.8772-0.094-6.183-2.2094-10.602 5.874-1.453 3.1677-6.2468-2.6895-2.566 2.2114-2.9514-2.8917-0.7112 0.8347-6.3066 0.2027-7.5123-6.785-0.542-2.6711-1.381-15.626 1.9787-10.033 14.73-14.561-8.207-5.8885 0.5402-0.8203 5.1626-8.7799 6.6016-23.928-0.6493-0.2482 4.1736-4.2352-1.6241-6.6778-7.5741-0.54 0.3089-11.053 5.9359-5.773 7.5493-8.9118-7.6957 0.4163-2.3971 6.0595-5.7955 0.083-3.4005-9.1364-9.7693h-0.028l-1.3602-5.952 7.3102-7.3105-2.4257-6.1068-3.3698-6.1521-0.1241-6.1521-2.5825-4.0807 2.9989-2.3951-0.3093-0.3401-11.068-13.619-8.4851-2.8585-5.8452 3.2913-2.4874-0.9892-3.7862-9.2889-2.2507-3.209 13.316-3.1164-3.0606-10.154 6.7561-5.9212 12.057 7.265 3.0915 1.0203 10.958 2.3042 5.7811 4.4826 2.7516 0.2001 10.635-8.5634 5.303-3.0915 2.6731-5.7502-0.094-5.2555-0.6185-3.5244 13.912-3.0605 2.3494-19.493-4.4517-2.7967-5.9047-1.051-4.7609-1.4696-2.7681-8.2544-11.284-1.3912-4.4826 1.9643-7.3414-0.028-6.6323-7.1745-2.6113 2.026 0.3234-3.5098-19.786-9.0727-16.508 6.4758-8.6872-0.1368 5.3133-6.8878-11.886 0.818-19.091 12.984-16.709-0.7874-20.775-12.692-4.39 1.5315-6.9724 3.0502-6.3377-5.6266-0.5873-12.228-2.3353-4.4352 7.3269-16.958 4.0045 1.8877 5.6266-3.3409 1.0678-2.7823 2.0855 0.5729 0.9586-5.5172 0.8036-4.5776 2.9061-1.3911 1.3911-3.1513-0.6326-6.4943-2.0879-2.3309-5.9976 0.6924-0.88-2.7823-5.9829 1.5768-5.6884 1.5765-1.5768-8.3162-2.937-6.0118-8.687-2.5186 1.7004-9.0911-4.761-1.5768-10.388-9.056-7.0342-11.779-1.0346-4.4352z" fill="#f9f986" fill-rule="evenodd"/>
</svg>
